<svg xmlns="http://www.w3.org/2000/svg" xmlns:xlink="http://www.w3.org/1999/xlink" xmlns:s="https://github.com/nturley/netlistsvg" width="624" height="735">
  <style>svg {
    stroke:#000;
    fill:none;
  }
  text {
    fill:#000;
    stroke:none;
    font-size:10px;
    font-weight: bold;
    font-family: "Courier New", monospace;
  }
  .nodelabel {
    text-anchor: middle;
  }
  .inputPortLabel {
    text-anchor: end;
  }
  .splitjoinBody {
    fill:#000;
  }</style>
  <g s:type="inputExt" transform="translate(89,538)" s:width="30" s:height="20">
    <text x="15" y="-4" class="nodelabel" s:attribute="ref">clk</text>
    <s:alias val="$_inputExt_"/>
    <path d="M0,0 L0,20 L15,20 L30,10 L15,0 Z"/>
    <g s:x="28" s:y="10" s:pid="Y"/>
  </g>
  <g s:type="inputExt" transform="translate(12,630)" s:width="30" s:height="20">
    <text x="15" y="-4" class="nodelabel" s:attribute="ref">rstn</text>
    <s:alias val="$_inputExt_"/>
    <path d="M0,0 L0,20 L15,20 L30,10 L15,0 Z"/>
    <g s:x="28" s:y="10" s:pid="Y"/>
  </g>
  <g s:type="inputExt" transform="translate(89,600)" s:width="30" s:height="20">
    <text x="15" y="-4" class="nodelabel" s:attribute="ref">rIn</text>
    <s:alias val="$_inputExt_"/>
    <path d="M0,0 L0,20 L15,20 L30,10 L15,0 Z"/>
    <g s:x="28" s:y="10" s:pid="Y"/>
  </g>
  <g s:type="outputExt" transform="translate(527,662)" s:width="30" s:height="20">
    <text x="15" y="-4" class="nodelabel" s:attribute="ref">DIN</text>
    <s:alias val="$_outputExt_"/>
    <path d="M30,0 L30,20 L15,20 L0,10 L15,0 Z"/>
    <g s:x="0" s:y="10" s:pid="A"/>
  </g>
  <g s:type="outputExt" transform="translate(527,26)" s:width="30" s:height="20">
    <text x="15" y="-4" class="nodelabel" s:attribute="ref">empty</text>
    <s:alias val="$_outputExt_"/>
    <path d="M30,0 L30,20 L15,20 L0,10 L15,0 Z"/>
    <g s:x="0" s:y="10" s:pid="A"/>
  </g>
  <g s:type="add" transform="translate(395,86)" s:width="25" s:height="25">
    <s:alias val="$add"/>
    <circle r="12.5" cx="12.5" cy="12.5"/>
    <line x1="7.5" x2="17.5" y1="12.5" y2="12.5"/>
    <line x1="12.5" x2="12.5" y1="7.5" y2="17.5"/>
    <g s:x="3" s:y="5" s:pid="A"/>
    <g s:x="3" s:y="20" s:pid="B"/>
    <g s:x="25" s:y="12.5" s:pid="Y"/>
  </g>
  <g s:type="eq" transform="translate(95.33333333333333,257)" s:width="25" s:height="25">
    <s:alias val="$eq"/>
    <circle r="12.5" cx="12.5" cy="12.5"/>
    <line x1="7.5" x2="17.5" y1="10" y2="10"/>
    <line x1="7.5" x2="17.5" y1="15" y2="15"/>
    <g s:x="3" s:y="5" s:pid="A"/>
    <g s:x="3" s:y="20" s:pid="B"/>
    <g s:x="25" s:y="12.5" s:pid="Y"/>
  </g>
  <g s:type="and" transform="translate(221.33333333333334,605)" s:width="30" s:height="25">
    <s:alias val="$and"/>
    <s:alias val="$logic_and"/>
    <s:alias val="$_AND_"/>
    <path d="M0,0 L0,25 L15,25 A15 12.5 0 0 0 15,0 Z"/>
    <g s:x="0" s:y="5" s:pid="A"/>
    <g s:x="0" s:y="20" s:pid="B"/>
    <g s:x="30" s:y="12.5" s:pid="Y"/>
  </g>
  <g s:type="generic" transform="translate(527,548.5)" s:width="30" s:height="40">
    <text x="15" y="-4" class="nodelabel" s:attribute="ref">$logic_not</text>
    <rect width="30" height="20" s:generic="body"/>
    <g transform="translate(0,10)" s:x="0" s:y="10" s:pid="in0">
      <text x="-3" y="-4" class="inputPortLabel">A</text>
    </g>
    <g transform="translate(30,10)" s:x="30" s:y="10" s:pid="out0">
      <text x="5" y="-4" style="fill:#000; stroke:none">Y</text>
    </g>
  </g>
  <g s:type="dff" transform="translate(455,662)" s:width="30" s:height="40">
    <s:alias val="$dff"/>
    <s:alias val="$_DFF_"/>
    <rect width="30" height="40" x="0" y="0"/>
    <path d="M0,35 L5,30 L0,25"/>
    <g s:x="30" s:y="10" s:pid="Q"/>
    <g s:x="0" s:y="30" s:pid="CLK"/>
    <g s:x="0" s:y="10" s:pid="D"/>
  </g>
  <g s:type="dff" transform="translate(455,549)" s:width="30" s:height="40">
    <s:alias val="$dff"/>
    <s:alias val="$_DFF_"/>
    <rect width="30" height="40" x="0" y="0"/>
    <path d="M0,35 L5,30 L0,25"/>
    <g s:x="30" s:y="10" s:pid="Q"/>
    <g s:x="0" s:y="30" s:pid="CLK"/>
    <g s:x="0" s:y="10" s:pid="D"/>
  </g>
  <g s:type="dff" transform="translate(330,111)" s:width="30" s:height="40">
    <s:alias val="$dff"/>
    <s:alias val="$_DFF_"/>
    <rect width="30" height="40" x="0" y="0"/>
    <path d="M0,35 L5,30 L0,25"/>
    <g s:x="30" s:y="10" s:pid="Q"/>
    <g s:x="0" s:y="30" s:pid="CLK"/>
    <g s:x="0" s:y="10" s:pid="D"/>
  </g>
  <g s:type="mux" transform="translate(458.3333333333333,91)" s:width="20" s:height="40">
    <s:alias val="$pmux"/>
    <s:alias val="$mux"/>
    <s:alias val="$_MUX_"/>
    <path d="M0,0 L20,10 L20,30 L0,40 Z"/>
    <g s:x="0" s:y="10" s:pid="A"/>
    <g s:x="0" s:y="30" s:pid="B"/>
    <g s:x="10" s:y="35" s:pid="S"/>
    <g s:x="20" s:y="20" s:pid="Y"/>
  </g>
  <g s:type="mux" transform="translate(527,81)" s:width="20" s:height="40">
    <s:alias val="$pmux"/>
    <s:alias val="$mux"/>
    <s:alias val="$_MUX_"/>
    <path d="M0,0 L20,10 L20,30 L0,40 Z"/>
    <g s:x="0" s:y="10" s:pid="A"/>
    <g s:x="0" s:y="30" s:pid="B"/>
    <g s:x="10" s:y="35" s:pid="S"/>
    <g s:x="20" s:y="20" s:pid="Y"/>
  </g>
  <g s:type="mux" transform="translate(98.66666666666667,101)" s:width="20" s:height="40">
    <s:alias val="$pmux"/>
    <s:alias val="$mux"/>
    <s:alias val="$_MUX_"/>
    <path d="M0,0 L20,10 L20,30 L0,40 Z"/>
    <g s:x="0" s:y="10" s:pid="A"/>
    <g s:x="0" s:y="30" s:pid="B"/>
    <g s:x="10" s:y="35" s:pid="S"/>
    <g s:x="20" s:y="20" s:pid="Y"/>
  </g>
  <g s:type="mux" transform="translate(228,182)" s:width="20" s:height="40">
    <s:alias val="$pmux"/>
    <s:alias val="$mux"/>
    <s:alias val="$_MUX_"/>
    <path d="M0,0 L20,10 L20,30 L0,40 Z"/>
    <g s:x="0" s:y="10" s:pid="A"/>
    <g s:x="0" s:y="30" s:pid="B"/>
    <g s:x="10" s:y="35" s:pid="S"/>
    <g s:x="20" s:y="20" s:pid="Y"/>
  </g>
  <g s:type="mux" transform="translate(336.6666666666667,280.5)" s:width="20" s:height="40">
    <s:alias val="$pmux"/>
    <s:alias val="$mux"/>
    <s:alias val="$_MUX_"/>
    <path d="M0,0 L20,10 L20,30 L0,40 Z"/>
    <g s:x="0" s:y="10" s:pid="A"/>
    <g s:x="0" s:y="30" s:pid="B"/>
    <g s:x="10" s:y="35" s:pid="S"/>
    <g s:x="20" s:y="20" s:pid="Y"/>
  </g>
  <g s:type="mux" transform="translate(396.6666666666667,340.5)" s:width="20" s:height="40">
    <s:alias val="$pmux"/>
    <s:alias val="$mux"/>
    <s:alias val="$_MUX_"/>
    <path d="M0,0 L20,10 L20,30 L0,40 Z"/>
    <g s:x="0" s:y="10" s:pid="A"/>
    <g s:x="0" s:y="30" s:pid="B"/>
    <g s:x="10" s:y="35" s:pid="S"/>
    <g s:x="20" s:y="20" s:pid="Y"/>
  </g>
  <g s:type="mux" transform="translate(336.6666666666667,395.5)" s:width="20" s:height="40">
    <s:alias val="$pmux"/>
    <s:alias val="$mux"/>
    <s:alias val="$_MUX_"/>
    <path d="M0,0 L20,10 L20,30 L0,40 Z"/>
    <g s:x="0" s:y="10" s:pid="A"/>
    <g s:x="0" s:y="30" s:pid="B"/>
    <g s:x="10" s:y="35" s:pid="S"/>
    <g s:x="20" s:y="20" s:pid="Y"/>
  </g>
  <g s:type="mux" transform="translate(398.3333333333333,590)" s:width="20" s:height="40">
    <s:alias val="$pmux"/>
    <s:alias val="$mux"/>
    <s:alias val="$_MUX_"/>
    <path d="M0,0 L20,10 L20,30 L0,40 Z"/>
    <g s:x="0" s:y="10" s:pid="A"/>
    <g s:x="0" s:y="30" s:pid="B"/>
    <g s:x="10" s:y="35" s:pid="S"/>
    <g s:x="20" s:y="20" s:pid="Y"/>
  </g>
  <g s:type="generic" transform="translate(221,415)" s:width="30" s:height="40">
    <text x="15" y="-4" class="nodelabel" s:attribute="ref">$mem</text>
    <rect width="30" height="140" s:generic="body"/>
    <g transform="translate(0,10)" s:x="0" s:y="10" s:pid="in0">
      <text x="-3" y="-4" class="inputPortLabel">RD_ADDR</text>
    </g>
    <g transform="translate(0,30)" s:x="0" s:y="10" s:pid="in0">
      <text x="-3" y="-4" class="inputPortLabel">RD_CLK</text>
    </g>
    <g transform="translate(0,50)" s:x="0" s:y="10" s:pid="in0">
      <text x="-3" y="-4" class="inputPortLabel">RD_EN</text>
    </g>
    <g transform="translate(0,70)" s:x="0" s:y="10" s:pid="in0">
      <text x="-3" y="-4" class="inputPortLabel">WR_ADDR</text>
    </g>
    <g transform="translate(0,90)" s:x="0" s:y="10" s:pid="in0">
      <text x="-3" y="-4" class="inputPortLabel">WR_CLK</text>
    </g>
    <g transform="translate(0,110)" s:x="0" s:y="10" s:pid="in0">
      <text x="-3" y="-4" class="inputPortLabel">WR_DATA</text>
    </g>
    <g transform="translate(0,130)" s:x="0" s:y="10" s:pid="in0">
      <text x="-3" y="-4" class="inputPortLabel">WR_EN</text>
    </g>
    <g transform="translate(30,10)" s:x="30" s:y="10" s:pid="out0">
      <text x="5" y="-4" style="fill:#000; stroke:none">RD_DATA</text>
    </g>
  </g>
  <g s:type="constant" transform="translate(89,202)" s:width="30" s:height="20">
    <text x="15" y="-4" class="nodelabel" s:attribute="ref">1</text>
    <s:alias val="$_constant_"/>
    <rect width="30" height="20"/>
    <g s:x="30" s:y="10" s:pid="Y"/>
  </g>
  <g s:type="constant" transform="translate(12,267)" s:width="30" s:height="20">
    <text x="15" y="-4" class="nodelabel" s:attribute="ref">11</text>
    <s:alias val="$_constant_"/>
    <rect width="30" height="20"/>
    <g s:x="30" s:y="10" s:pid="Y"/>
  </g>
  <g s:type="constant" transform="translate(12,101)" s:width="30" s:height="20">
    <text x="15" y="-4" class="nodelabel" s:attribute="ref">00</text>
    <s:alias val="$_constant_"/>
    <rect width="30" height="20"/>
    <g s:x="30" s:y="10" s:pid="Y"/>
  </g>
  <g s:type="constant" transform="translate(330,340.5)" s:width="30" s:height="20">
    <text x="15" y="-4" class="nodelabel" s:attribute="ref">0</text>
    <s:alias val="$_constant_"/>
    <rect width="30" height="20"/>
    <g s:x="30" s:y="10" s:pid="Y"/>
  </g>
  <line x1="485" y1="672" x2="527" y2="672"/>
  <line x1="485" y1="672" x2="495" y2="672"/>
  <line x1="495" y1="672" x2="495" y2="712"/>
  <line x1="495" y1="712" x2="305" y2="712"/>
  <line x1="305" y1="712" x2="305" y2="405.5"/>
  <line x1="305" y1="405.5" x2="336.6666666666667" y2="405.5"/>
  <line x1="485" y1="672" x2="495" y2="672"/>
  <line x1="495" y1="672" x2="495" y2="712"/>
  <line x1="495" y1="712" x2="370" y2="712"/>
  <line x1="370" y1="712" x2="370" y2="600"/>
  <circle cx="370" cy="712" r="2" style="fill:#000"/>
  <circle cx="495" cy="672" r="2" style="fill:#000"/>
  <line x1="370" y1="600" x2="398.3333333333333" y2="600"/>
  <line x1="485" y1="559" x2="495" y2="559"/>
  <line x1="495" y1="559" x2="495" y2="36"/>
  <line x1="495" y1="36" x2="527" y2="36"/>
  <line x1="485" y1="559" x2="527" y2="559"/>
  <line x1="485" y1="559" x2="495" y2="559"/>
  <line x1="495" y1="559" x2="495" y2="172"/>
  <line x1="495" y1="172" x2="168" y2="172"/>
  <line x1="168" y1="172" x2="168" y2="192"/>
  <circle cx="495" cy="172" r="2" style="fill:#000"/>
  <circle cx="495" cy="559" r="2" style="fill:#000"/>
  <line x1="168" y1="192" x2="228" y2="192"/>
  <line x1="485" y1="559" x2="495" y2="559"/>
  <line x1="495" y1="559" x2="495" y2="172"/>
  <line x1="495" y1="172" x2="315" y2="172"/>
  <line x1="315" y1="172" x2="315" y2="290.5"/>
  <circle cx="315" cy="172" r="2" style="fill:#000"/>
  <line x1="315" y1="290.5" x2="336.6666666666667" y2="290.5"/>
  <line x1="360" y1="121" x2="370" y2="121"/>
  <line x1="370" y1="121" x2="370" y2="91"/>
  <line x1="370" y1="91" x2="398" y2="91"/>
  <line x1="360" y1="121" x2="370" y2="121"/>
  <line x1="370" y1="121" x2="370" y2="91"/>
  <line x1="370" y1="91" x2="64" y2="91"/>
  <line x1="64" y1="91" x2="64" y2="262"/>
  <circle cx="370" cy="91" r="2" style="fill:#000"/>
  <circle cx="370" cy="121" r="2" style="fill:#000"/>
  <line x1="64" y1="262" x2="98.33333333333333" y2="262"/>
  <line x1="360" y1="121" x2="458.3333333333333" y2="121"/>
  <line x1="360" y1="121" x2="370" y2="121"/>
  <line x1="370" y1="121" x2="370" y2="75"/>
  <line x1="370" y1="75" x2="505" y2="75"/>
  <line x1="505" y1="75" x2="505" y2="91"/>
  <line x1="505" y1="91" x2="527" y2="91"/>
  <line x1="119" y1="212" x2="158" y2="212"/>
  <line x1="158" y1="212" x2="158" y2="161"/>
  <line x1="158" y1="161" x2="380" y2="161"/>
  <line x1="380" y1="161" x2="380" y2="106"/>
  <circle cx="158" cy="212" r="2" style="fill:#000"/>
  <line x1="380" y1="106" x2="398" y2="106"/>
  <line x1="119" y1="212" x2="228" y2="212"/>
  <line x1="119" y1="212" x2="158" y2="212"/>
  <line x1="158" y1="212" x2="158" y2="465.5"/>
  <line x1="158" y1="465.5" x2="221" y2="465.5"/>
  <line x1="42" y1="277" x2="98.33333333333333" y2="277"/>
  <line x1="117" y1="610" x2="221.33333333333334" y2="610"/>
  <line x1="558" y1="559" x2="612" y2="559"/>
  <line x1="612" y1="559" x2="612" y2="722"/>
  <line x1="612" y1="722" x2="168" y2="722"/>
  <line x1="168" y1="722" x2="168" y2="625"/>
  <line x1="168" y1="625" x2="221.33333333333334" y2="625"/>
  <line x1="117" y1="548" x2="148" y2="548"/>
  <line x1="148" y1="548" x2="148" y2="692"/>
  <circle cx="148" cy="548" r="2" style="fill:#000"/>
  <line x1="148" y1="692" x2="455" y2="692"/>
  <line x1="117" y1="548" x2="148" y2="548"/>
  <line x1="148" y1="548" x2="148" y2="579"/>
  <circle cx="148" cy="579" r="2" style="fill:#000"/>
  <line x1="148" y1="579" x2="455" y2="579"/>
  <line x1="117" y1="548" x2="148" y2="548"/>
  <line x1="148" y1="548" x2="148" y2="141"/>
  <line x1="148" y1="141" x2="330" y2="141"/>
  <line x1="117" y1="548" x2="148" y2="548"/>
  <line x1="148" y1="548" x2="148" y2="445.5"/>
  <circle cx="148" cy="445.5" r="2" style="fill:#000"/>
  <line x1="148" y1="445.5" x2="221" y2="445.5"/>
  <line x1="418.3333333333333" y1="610" x2="430" y2="610"/>
  <line x1="430" y1="610" x2="430" y2="672"/>
  <line x1="430" y1="672" x2="455" y2="672"/>
  <line x1="416.6666666666667" y1="360.5" x2="430" y2="360.5"/>
  <line x1="430" y1="360.5" x2="430" y2="559"/>
  <line x1="430" y1="559" x2="455" y2="559"/>
  <line x1="118.66666666666667" y1="121" x2="330" y2="121"/>
  <line x1="118.66666666666667" y1="121" x2="138" y2="121"/>
  <line x1="138" y1="121" x2="138" y2="425.5"/>
  <circle cx="138" cy="121" r="2" style="fill:#000"/>
  <line x1="138" y1="425.5" x2="221" y2="425.5"/>
  <line x1="420" y1="98.5" x2="430" y2="98.5"/>
  <line x1="430" y1="98.5" x2="430" y2="101"/>
  <line x1="430" y1="101" x2="458.3333333333333" y2="101"/>
  <line x1="120.33333333333333" y1="269.5" x2="468.3333333333333" y2="269.5"/>
  <line x1="468.3333333333333" y1="269.5" x2="468.3333333333333" y2="126"/>
  <line x1="120.33333333333333" y1="269.5" x2="168" y2="269.5"/>
  <line x1="168" y1="269.5" x2="168" y2="259.5"/>
  <line x1="168" y1="259.5" x2="238" y2="259.5"/>
  <circle cx="168" cy="269.5" r="2" style="fill:#000"/>
  <line x1="238" y1="259.5" x2="238" y2="217"/>
  <line x1="478.3333333333333" y1="111" x2="527" y2="111"/>
  <line x1="251.33333333333334" y1="617.5" x2="315" y2="617.5"/>
  <line x1="315" y1="617.5" x2="315" y2="651"/>
  <line x1="315" y1="651" x2="505" y2="651"/>
  <line x1="505" y1="651" x2="505" y2="534.5"/>
  <line x1="505" y1="534.5" x2="537" y2="534.5"/>
  <circle cx="315" cy="617.5" r="2" style="fill:#000"/>
  <line x1="537" y1="534.5" x2="537" y2="116"/>
  <line x1="251.33333333333334" y1="617.5" x2="315" y2="617.5"/>
  <line x1="315" y1="617.5" x2="315" y2="330.5"/>
  <line x1="315" y1="330.5" x2="346.6666666666667" y2="330.5"/>
  <line x1="346.6666666666667" y1="330.5" x2="346.6666666666667" y2="315.5"/>
  <line x1="251.33333333333334" y1="617.5" x2="315" y2="617.5"/>
  <line x1="315" y1="617.5" x2="315" y2="558"/>
  <line x1="315" y1="558" x2="346.6666666666667" y2="558"/>
  <circle cx="315" cy="558" r="2" style="fill:#000"/>
  <line x1="346.6666666666667" y1="558" x2="346.6666666666667" y2="430.5"/>
  <line x1="42" y1="111" x2="98.66666666666667" y2="111"/>
  <line x1="547" y1="101" x2="612" y2="101"/>
  <line x1="612" y1="101" x2="612" y2="12"/>
  <line x1="612" y1="12" x2="74" y2="12"/>
  <line x1="74" y1="12" x2="74" y2="131"/>
  <line x1="74" y1="131" x2="98.66666666666667" y2="131"/>
  <line x1="40" y1="640" x2="74" y2="640"/>
  <line x1="74" y1="640" x2="74" y2="192"/>
  <line x1="74" y1="192" x2="108.66666666666667" y2="192"/>
  <circle cx="74" cy="640" r="2" style="fill:#000"/>
  <line x1="108.66666666666667" y1="192" x2="108.66666666666667" y2="136"/>
  <line x1="40" y1="640" x2="74" y2="640"/>
  <line x1="74" y1="640" x2="74" y2="568"/>
  <line x1="74" y1="568" x2="406.6666666666667" y2="568"/>
  <circle cx="74" cy="568" r="2" style="fill:#000"/>
  <line x1="406.6666666666667" y1="568" x2="406.6666666666667" y2="375.5"/>
  <line x1="40" y1="640" x2="408.3333333333333" y2="640"/>
  <line x1="408.3333333333333" y1="640" x2="408.3333333333333" y2="625"/>
  <line x1="248" y1="202" x2="305" y2="202"/>
  <line x1="305" y1="202" x2="305" y2="310.5"/>
  <line x1="305" y1="310.5" x2="336.6666666666667" y2="310.5"/>
  <line x1="360" y1="350.5" x2="396.6666666666667" y2="350.5"/>
  <line x1="356.6666666666667" y1="300.5" x2="370" y2="300.5"/>
  <line x1="370" y1="300.5" x2="370" y2="370.5"/>
  <line x1="370" y1="370.5" x2="396.6666666666667" y2="370.5"/>
  <line x1="252" y1="425.5" x2="336.6666666666667" y2="425.5"/>
  <line x1="356.6666666666667" y1="415.5" x2="380" y2="415.5"/>
  <line x1="380" y1="415.5" x2="380" y2="620"/>
  <line x1="380" y1="620" x2="398.3333333333333" y2="620"/>
  <line x1="158" y1="485.5" x2="221" y2="485.5"/>
  <line x1="158" y1="485.5" x2="158" y2="505.5"/>
  <circle cx="158" cy="505.5" r="2" style="fill:#000"/>
  <line x1="158" y1="505.5" x2="221" y2="505.5"/>
  <line x1="158" y1="485.5" x2="158" y2="525.5"/>
  <circle cx="158" cy="525.5" r="2" style="fill:#000"/>
  <line x1="158" y1="525.5" x2="221" y2="525.5"/>
  <line x1="158" y1="485.5" x2="158" y2="545.5"/>
  <line x1="158" y1="545.5" x2="221" y2="545.5"/>
</svg>
