<svg xmlns="http://www.w3.org/2000/svg" xmlns:xlink="http://www.w3.org/1999/xlink" xmlns:s="https://github.com/nturley/netlistsvg" width="602" height="280.5">
  <style>svg {
    stroke:#000;
    fill:none;
  }
  text {
    fill:#000;
    stroke:none;
    font-size:10px;
    font-weight: bold;
    font-family: "Courier New", monospace;
  }
  .nodelabel {
    text-anchor: middle;
  }
  .inputPortLabel {
    text-anchor: end;
  }
  .splitjoinBody {
    fill:#000;
  }</style>
  <g s:type="inputExt" transform="translate(415,237.5)" s:width="30" s:height="20">
    <text x="15" y="-4" class="nodelabel" s:attribute="ref">clk</text>
    <s:alias val="$_inputExt_"/>
    <path d="M0,0 L0,20 L15,20 L30,10 L15,0 Z"/>
    <g s:x="28" s:y="10" s:pid="Y"/>
  </g>
  <g s:type="inputExt" transform="translate(341,213.5)" s:width="30" s:height="20">
    <text x="15" y="-4" class="nodelabel" s:attribute="ref">rst</text>
    <s:alias val="$_inputExt_"/>
    <path d="M0,0 L0,20 L15,20 L30,10 L15,0 Z"/>
    <g s:x="28" s:y="10" s:pid="Y"/>
  </g>
  <g s:type="inputExt" transform="translate(181,108)" s:width="30" s:height="20">
    <text x="15" y="-4" class="nodelabel" s:attribute="ref">jmpAddr</text>
    <s:alias val="$_inputExt_"/>
    <path d="M0,0 L0,20 L15,20 L30,10 L15,0 Z"/>
    <g s:x="28" s:y="10" s:pid="Y"/>
  </g>
  <g s:type="inputExt" transform="translate(98,115.5)" s:width="30" s:height="20">
    <text x="15" y="-4" class="nodelabel" s:attribute="ref">branch</text>
    <s:alias val="$_inputExt_"/>
    <path d="M0,0 L0,20 L15,20 L30,10 L15,0 Z"/>
    <g s:x="28" s:y="10" s:pid="Y"/>
  </g>
  <g s:type="inputExt" transform="translate(12,121.5)" s:width="30" s:height="20">
    <text x="15" y="-4" class="nodelabel" s:attribute="ref">ijump</text>
    <s:alias val="$_inputExt_"/>
    <path d="M0,0 L0,20 L15,20 L30,10 L15,0 Z"/>
    <g s:x="28" s:y="10" s:pid="Y"/>
  </g>
  <g s:type="inputExt" transform="translate(12,180.5)" s:width="30" s:height="20">
    <text x="15" y="-4" class="nodelabel" s:attribute="ref">aluFlag</text>
    <s:alias val="$_inputExt_"/>
    <path d="M0,0 L0,20 L15,20 L30,10 L15,0 Z"/>
    <g s:x="28" s:y="10" s:pid="Y"/>
  </g>
  <g s:type="inputExt" transform="translate(267,189.5)" s:width="30" s:height="20">
    <text x="15" y="-4" class="nodelabel" s:attribute="ref">wPC</text>
    <s:alias val="$_inputExt_"/>
    <path d="M0,0 L0,20 L15,20 L30,10 L15,0 Z"/>
    <g s:x="28" s:y="10" s:pid="Y"/>
  </g>
  <g s:type="outputExt" transform="translate(554,217.5)" s:width="30" s:height="20">
    <text x="15" y="-4" class="nodelabel" s:attribute="ref">PC</text>
    <s:alias val="$_outputExt_"/>
    <path d="M30,0 L30,20 L15,20 L0,10 L15,0 Z"/>
    <g s:x="0" s:y="10" s:pid="A"/>
  </g>
  <g s:type="add" transform="translate(191.33333333333334,44)" s:width="25" s:height="25">
    <s:alias val="$add"/>
    <circle r="12.5" cx="12.5" cy="12.5"/>
    <line x1="7.5" x2="17.5" y1="12.5" y2="12.5"/>
    <line x1="12.5" x2="12.5" y1="7.5" y2="17.5"/>
    <g s:x="3" s:y="5" s:pid="A"/>
    <g s:x="3" s:y="20" s:pid="B"/>
    <g s:x="25" s:y="12.5" s:pid="Y"/>
  </g>
  <g s:type="and" transform="translate(188,163)" s:width="30" s:height="25">
    <s:alias val="$and"/>
    <s:alias val="$logic_and"/>
    <s:alias val="$_AND_"/>
    <path d="M0,0 L0,25 L15,25 A15 12.5 0 0 0 15,0 Z"/>
    <g s:x="0" s:y="5" s:pid="A"/>
    <g s:x="0" s:y="20" s:pid="B"/>
    <g s:x="30" s:y="12.5" s:pid="Y"/>
  </g>
  <g s:type="or" transform="translate(104,170.5)" s:width="30" s:height="25">
    <s:alias val="$or"/>
    <s:alias val="$logic_or"/>
    <s:alias val="$_OR_"/>
    <path d="M0,25 L0,25 L15,25 A15 12.5 0 0 0 15,0 L0,0"/>
    <path d="M0,0 A30 25 0 0 1 0,25"/>
    <g s:x="3" s:y="5" s:pid="A"/>
    <g s:x="3" s:y="20" s:pid="B"/>
    <g s:x="30" s:y="12.5" s:pid="Y"/>
  </g>
  <g s:type="dff" transform="translate(489,217.5)" s:width="30" s:height="40">
    <s:alias val="$dff"/>
    <s:alias val="$_DFF_"/>
    <rect width="30" height="40" x="0" y="0"/>
    <path d="M0,35 L5,30 L0,25"/>
    <g s:x="30" s:y="10" s:pid="Q"/>
    <g s:x="0" s:y="30" s:pid="CLK"/>
    <g s:x="0" s:y="10" s:pid="D"/>
  </g>
  <g s:type="mux" transform="translate(421.3333333333333,88)" s:width="20" s:height="40">
    <s:alias val="$pmux"/>
    <s:alias val="$mux"/>
    <s:alias val="$_MUX_"/>
    <path d="M0,0 L20,10 L20,30 L0,40 Z"/>
    <g s:x="0" s:y="10" s:pid="A"/>
    <g s:x="0" s:y="30" s:pid="B"/>
    <g s:x="10" s:y="35" s:pid="S"/>
    <g s:x="20" s:y="20" s:pid="Y"/>
  </g>
  <g s:type="mux" transform="translate(273.3333333333333,88)" s:width="20" s:height="40">
    <s:alias val="$pmux"/>
    <s:alias val="$mux"/>
    <s:alias val="$_MUX_"/>
    <path d="M0,0 L20,10 L20,30 L0,40 Z"/>
    <g s:x="0" s:y="10" s:pid="A"/>
    <g s:x="0" s:y="30" s:pid="B"/>
    <g s:x="10" s:y="35" s:pid="S"/>
    <g s:x="20" s:y="20" s:pid="Y"/>
  </g>
  <g s:type="mux" transform="translate(350.6666666666667,78)" s:width="20" s:height="40">
    <s:alias val="$pmux"/>
    <s:alias val="$mux"/>
    <s:alias val="$_MUX_"/>
    <path d="M0,0 L20,10 L20,30 L0,40 Z"/>
    <g s:x="0" s:y="10" s:pid="A"/>
    <g s:x="0" s:y="30" s:pid="B"/>
    <g s:x="10" s:y="35" s:pid="S"/>
    <g s:x="20" s:y="20" s:pid="Y"/>
  </g>
  <g s:type="constant" transform="translate(98,54)" s:width="30" s:height="20">
    <text x="15" y="-4" class="nodelabel" s:attribute="ref">1</text>
    <s:alias val="$_constant_"/>
    <rect width="30" height="20"/>
    <g s:x="30" s:y="10" s:pid="Y"/>
  </g>
  <g s:type="constant" transform="translate(341,23)" s:width="30" s:height="20">
    <text x="15" y="-4" class="nodelabel" s:attribute="ref">0x20</text>
    <s:alias val="$_constant_"/>
    <rect width="30" height="20"/>
    <g s:x="30" s:y="10" s:pid="Y"/>
  </g>
  <line x1="519" y1="227.5" x2="554" y2="227.5"/>
  <line x1="519" y1="227.5" x2="529" y2="227.5"/>
  <line x1="529" y1="227.5" x2="529" y2="12"/>
  <line x1="529" y1="12" x2="156" y2="12"/>
  <line x1="156" y1="12" x2="156" y2="49"/>
  <circle cx="529" cy="227.5" r="2" style="fill:#000"/>
  <line x1="156" y1="49" x2="194.33333333333334" y2="49"/>
  <line x1="519" y1="227.5" x2="529" y2="227.5"/>
  <line x1="529" y1="227.5" x2="529" y2="267.5"/>
  <line x1="529" y1="267.5" x2="316" y2="267.5"/>
  <line x1="316" y1="267.5" x2="316" y2="88"/>
  <line x1="316" y1="88" x2="350.6666666666667" y2="88"/>
  <line x1="128" y1="64" x2="194.33333333333334" y2="64"/>
  <line x1="126" y1="125.5" x2="156" y2="125.5"/>
  <line x1="156" y1="125.5" x2="156" y2="168"/>
  <line x1="156" y1="168" x2="188" y2="168"/>
  <line x1="134" y1="183" x2="188" y2="183"/>
  <line x1="40" y1="131.5" x2="73" y2="131.5"/>
  <line x1="73" y1="131.5" x2="73" y2="175.5"/>
  <line x1="73" y1="175.5" x2="107" y2="175.5"/>
  <line x1="40" y1="190.5" x2="107" y2="190.5"/>
  <line x1="443" y1="247.5" x2="489" y2="247.5"/>
  <line x1="441.3333333333333" y1="108" x2="464" y2="108"/>
  <line x1="464" y1="108" x2="464" y2="227.5"/>
  <line x1="464" y1="227.5" x2="489" y2="227.5"/>
  <line x1="370.6666666666667" y1="98" x2="421.3333333333333" y2="98"/>
  <line x1="371" y1="33" x2="390" y2="33"/>
  <line x1="390" y1="33" x2="390" y2="118"/>
  <line x1="390" y1="118" x2="421.3333333333333" y2="118"/>
  <line x1="369" y1="223.5" x2="431.3333333333333" y2="223.5"/>
  <line x1="431.3333333333333" y1="223.5" x2="431.3333333333333" y2="123"/>
  <line x1="216.33333333333334" y1="56.5" x2="242" y2="56.5"/>
  <line x1="242" y1="56.5" x2="242" y2="98"/>
  <line x1="242" y1="98" x2="273.3333333333333" y2="98"/>
  <line x1="209" y1="118" x2="273.3333333333333" y2="118"/>
  <line x1="218" y1="175.5" x2="283.3333333333333" y2="175.5"/>
  <line x1="283.3333333333333" y1="175.5" x2="283.3333333333333" y2="123"/>
  <line x1="293.3333333333333" y1="108" x2="350.6666666666667" y2="108"/>
  <line x1="295" y1="199.5" x2="360.6666666666667" y2="199.5"/>
  <line x1="360.6666666666667" y1="199.5" x2="360.6666666666667" y2="113"/>
</svg>
