<svg xmlns="http://www.w3.org/2000/svg" xmlns:xlink="http://www.w3.org/1999/xlink" xmlns:s="https://github.com/nturley/netlistsvg" width="2102" height="1348">
  <style>svg {
    stroke:#000;
    fill:none;
  }
  text {
    fill:#000;
    stroke:none;
    font-size:10px;
    font-weight: bold;
    font-family: "Courier New", monospace;
  }
  .nodelabel {
    text-anchor: middle;
  }
  .inputPortLabel {
    text-anchor: end;
  }
  .splitjoinBody {
    fill:#000;
  }</style>
  <g s:type="inputExt" transform="translate(18,499.5)" s:width="30" s:height="20">
    <text x="15" y="-4" class="nodelabel" s:attribute="ref">cpu_debug</text>
    <s:alias val="$_inputExt_"/>
    <path d="M0,0 L0,20 L15,20 L30,10 L15,0 Z"/>
    <g s:x="28" s:y="10" s:pid="Y"/>
  </g>
  <g s:type="inputExt" transform="translate(18,617.5)" s:width="30" s:height="20">
    <text x="15" y="-4" class="nodelabel" s:attribute="ref">cpu_nxtInstr</text>
    <s:alias val="$_inputExt_"/>
    <path d="M0,0 L0,20 L15,20 L30,10 L15,0 Z"/>
    <g s:x="28" s:y="10" s:pid="Y"/>
  </g>
  <g s:type="inputExt" transform="translate(760,884)" s:width="30" s:height="20">
    <text x="15" y="-4" class="nodelabel" s:attribute="ref">cpu_in_data</text>
    <s:alias val="$_inputExt_"/>
    <path d="M0,0 L0,20 L15,20 L30,10 L15,0 Z"/>
    <g s:x="28" s:y="10" s:pid="Y"/>
  </g>
  <g s:type="inputExt" transform="translate(760,1045.5)" s:width="30" s:height="20">
    <text x="15" y="-4" class="nodelabel" s:attribute="ref">cpu_in_wr</text>
    <s:alias val="$_inputExt_"/>
    <path d="M0,0 L0,20 L15,20 L30,10 L15,0 Z"/>
    <g s:x="28" s:y="10" s:pid="Y"/>
  </g>
  <g s:type="inputExt" transform="translate(1316,1011.5)" s:width="30" s:height="20">
    <text x="15" y="-4" class="nodelabel" s:attribute="ref">cpu_out_rd</text>
    <s:alias val="$_inputExt_"/>
    <path d="M0,0 L0,20 L15,20 L30,10 L15,0 Z"/>
    <g s:x="28" s:y="10" s:pid="Y"/>
  </g>
  <g s:type="inputExt" transform="translate(900,1112.5)" s:width="30" s:height="20">
    <text x="15" y="-4" class="nodelabel" s:attribute="ref">cpu_dmp_chip_select</text>
    <s:alias val="$_inputExt_"/>
    <path d="M0,0 L0,20 L15,20 L30,10 L15,0 Z"/>
    <g s:x="28" s:y="10" s:pid="Y"/>
  </g>
  <g s:type="inputExt" transform="translate(760,986.5)" s:width="30" s:height="20">
    <text x="15" y="-4" class="nodelabel" s:attribute="ref">cpu_dmp_fifo_pos</text>
    <s:alias val="$_inputExt_"/>
    <path d="M0,0 L0,20 L15,20 L30,10 L15,0 Z"/>
    <g s:x="28" s:y="10" s:pid="Y"/>
  </g>
  <g s:type="inputExt" transform="translate(18,264)" s:width="30" s:height="20">
    <text x="15" y="-4" class="nodelabel" s:attribute="ref">clk</text>
    <s:alias val="$_inputExt_"/>
    <path d="M0,0 L0,20 L15,20 L30,10 L15,0 Z"/>
    <g s:x="28" s:y="10" s:pid="Y"/>
  </g>
  <g s:type="inputExt" transform="translate(18,558.5)" s:width="30" s:height="20">
    <text x="15" y="-4" class="nodelabel" s:attribute="ref">i_rst</text>
    <s:alias val="$_inputExt_"/>
    <path d="M0,0 L0,20 L15,20 L30,10 L15,0 Z"/>
    <g s:x="28" s:y="10" s:pid="Y"/>
  </g>
  <g s:type="outputExt" transform="translate(2011,1316)" s:width="30" s:height="20">
    <text x="15" y="-4" class="nodelabel" s:attribute="ref">cpu_in_full</text>
    <s:alias val="$_outputExt_"/>
    <path d="M30,0 L30,20 L15,20 L0,10 L15,0 Z"/>
    <g s:x="0" s:y="10" s:pid="A"/>
  </g>
  <g s:type="outputExt" transform="translate(2011,1250.5)" s:width="30" s:height="20">
    <text x="15" y="-4" class="nodelabel" s:attribute="ref">cpu_out_empty</text>
    <s:alias val="$_outputExt_"/>
    <path d="M30,0 L30,20 L15,20 L0,10 L15,0 Z"/>
    <g s:x="0" s:y="10" s:pid="A"/>
  </g>
  <g s:type="outputExt" transform="translate(2011,646)" s:width="30" s:height="20">
    <text x="15" y="-4" class="nodelabel" s:attribute="ref">cpu_out_data</text>
    <s:alias val="$_outputExt_"/>
    <path d="M30,0 L30,20 L15,20 L0,10 L15,0 Z"/>
    <g s:x="0" s:y="10" s:pid="A"/>
  </g>
  <g s:type="outputExt" transform="translate(2011,57.5)" s:width="30" s:height="20">
    <text x="15" y="-4" class="nodelabel" s:attribute="ref">cpu_dmp_data</text>
    <s:alias val="$_outputExt_"/>
    <path d="M30,0 L30,20 L15,20 L0,10 L15,0 Z"/>
    <g s:x="0" s:y="10" s:pid="A"/>
  </g>
  <g s:type="outputExt" transform="translate(2011,1177.5)" s:width="30" s:height="20">
    <text x="15" y="-4" class="nodelabel" s:attribute="ref">cpu_dmp_valid</text>
    <s:alias val="$_outputExt_"/>
    <path d="M30,0 L30,20 L15,20 L0,10 L15,0 Z"/>
    <g s:x="0" s:y="10" s:pid="A"/>
  </g>
  <g s:type="not" transform="translate(1937,1250.5)" s:width="30" s:height="20">
    <s:alias val="$_NOT_"/>
    <s:alias val="$not"/>
    <path d="M0,0 L0,20 L20,10 Z"/>
    <circle cx="23" cy="10" r="3"/>
    <g s:x="0" s:y="10" s:pid="A"/>
    <g s:x="25" s:y="10" s:pid="Y"/>
  </g>
  <g s:type="not" transform="translate(2011,587)" s:width="30" s:height="20">
    <s:alias val="$_NOT_"/>
    <s:alias val="$not"/>
    <path d="M0,0 L0,20 L20,10 Z"/>
    <circle cx="23" cy="10" r="3"/>
    <g s:x="0" s:y="10" s:pid="A"/>
    <g s:x="25" s:y="10" s:pid="Y"/>
  </g>
  <g s:type="mux" transform="translate(1940.3333333333333,1167.5)" s:width="20" s:height="40">
    <s:alias val="$pmux"/>
    <s:alias val="$mux"/>
    <s:alias val="$_MUX_"/>
    <path d="M0,0 L20,10 L20,30 L0,40 Z"/>
    <g s:x="0" s:y="10" s:pid="A"/>
    <g s:x="0" s:y="30" s:pid="B"/>
    <g s:x="10" s:y="35" s:pid="S"/>
    <g s:x="20" s:y="20" s:pid="Y"/>
  </g>
  <g s:type="eq" transform="translate(1340.3333333333333,1218)" s:width="25" s:height="25">
    <s:alias val="$eq"/>
    <circle r="12.5" cx="12.5" cy="12.5"/>
    <line x1="7.5" x2="17.5" y1="10" y2="10"/>
    <line x1="7.5" x2="17.5" y1="15" y2="15"/>
    <g s:x="3" s:y="5" s:pid="A"/>
    <g s:x="3" s:y="20" s:pid="B"/>
    <g s:x="25" s:y="12.5" s:pid="Y"/>
  </g>
  <g s:type="generic" transform="translate(1316,1282)" s:width="30" s:height="40">
    <text x="15" y="-4" class="nodelabel" s:attribute="ref">$logic_not</text>
    <rect width="30" height="20" s:generic="body"/>
    <g transform="translate(0,10)" s:x="0" s:y="10" s:pid="in0">
      <text x="-3" y="-4" class="inputPortLabel">A</text>
    </g>
    <g transform="translate(30,10)" s:x="30" s:y="10" s:pid="out0">
      <text x="5" y="-4" style="fill:#000; stroke:none">Y</text>
    </g>
  </g>
  <g s:type="mux" transform="translate(1940.3333333333333,47.5)" s:width="20" s:height="40">
    <s:alias val="$pmux"/>
    <s:alias val="$mux"/>
    <s:alias val="$_MUX_"/>
    <path d="M0,0 L20,10 L20,30 L0,40 Z"/>
    <g s:x="0" s:y="10" s:pid="A"/>
    <g s:x="0" s:y="30" s:pid="B"/>
    <g s:x="10" s:y="35" s:pid="S"/>
    <g s:x="20" s:y="20" s:pid="Y"/>
  </g>
  <g s:type="eq" transform="translate(1552.3333333333333,774)" s:width="25" s:height="25">
    <s:alias val="$eq"/>
    <circle r="12.5" cx="12.5" cy="12.5"/>
    <line x1="7.5" x2="17.5" y1="10" y2="10"/>
    <line x1="7.5" x2="17.5" y1="15" y2="15"/>
    <g s:x="3" s:y="5" s:pid="A"/>
    <g s:x="3" s:y="20" s:pid="B"/>
    <g s:x="25" s:y="12.5" s:pid="Y"/>
  </g>
  <g s:type="eq" transform="translate(1552.3333333333333,1117.5)" s:width="25" s:height="25">
    <s:alias val="$eq"/>
    <circle r="12.5" cx="12.5" cy="12.5"/>
    <line x1="7.5" x2="17.5" y1="10" y2="10"/>
    <line x1="7.5" x2="17.5" y1="15" y2="15"/>
    <g s:x="3" s:y="5" s:pid="A"/>
    <g s:x="3" s:y="20" s:pid="B"/>
    <g s:x="25" s:y="12.5" s:pid="Y"/>
  </g>
  <g s:type="generic" transform="translate(225.79999999999995,459)" s:width="30" s:height="40">
    <text x="15" y="-4" class="nodelabel" s:attribute="ref">ControlUnit</text>
    <rect width="30" height="280" s:generic="body"/>
    <g transform="translate(0,10)" s:x="0" s:y="10" s:pid="in0">
      <text x="-3" y="-4" class="inputPortLabel">INSTR</text>
    </g>
    <g transform="translate(0,30)" s:x="0" s:y="10" s:pid="in0">
      <text x="-3" y="-4" class="inputPortLabel">clk</text>
    </g>
    <g transform="translate(0,50)" s:x="0" s:y="10" s:pid="in0">
      <text x="-3" y="-4" class="inputPortLabel">debug</text>
    </g>
    <g transform="translate(0,70)" s:x="0" s:y="10" s:pid="in0">
      <text x="-3" y="-4" class="inputPortLabel">i_rst</text>
    </g>
    <g transform="translate(0,90)" s:x="0" s:y="10" s:pid="in0">
      <text x="-3" y="-4" class="inputPortLabel">inEmpty</text>
    </g>
    <g transform="translate(0,110)" s:x="0" s:y="10" s:pid="in0">
      <text x="-3" y="-4" class="inputPortLabel">nxtInstr</text>
    </g>
    <g transform="translate(0,130)" s:x="0" s:y="10" s:pid="in0">
      <text x="-3" y="-4" class="inputPortLabel">outFull</text>
    </g>
    <g transform="translate(30,10)" s:x="30" s:y="10" s:pid="out0">
      <text x="5" y="-4" style="fill:#000; stroke:none">aluCtl</text>
    </g>
    <g transform="translate(30,30)" s:x="30" s:y="10" s:pid="out0">
      <text x="5" y="-4" style="fill:#000; stroke:none">branch</text>
    </g>
    <g transform="translate(30,50)" s:x="30" s:y="10" s:pid="out0">
      <text x="5" y="-4" style="fill:#000; stroke:none">halt</text>
    </g>
    <g transform="translate(30,70)" s:x="30" s:y="10" s:pid="out0">
      <text x="5" y="-4" style="fill:#000; stroke:none">ijump</text>
    </g>
    <g transform="translate(30,90)" s:x="30" s:y="10" s:pid="out0">
      <text x="5" y="-4" style="fill:#000; stroke:none">muxR</text>
    </g>
    <g transform="translate(30,110)" s:x="30" s:y="10" s:pid="out0">
      <text x="5" y="-4" style="fill:#000; stroke:none">rIn</text>
    </g>
    <g transform="translate(30,130)" s:x="30" s:y="10" s:pid="out0">
      <text x="5" y="-4" style="fill:#000; stroke:none">rst</text>
    </g>
    <g transform="translate(30,150)" s:x="30" s:y="10" s:pid="out0">
      <text x="5" y="-4" style="fill:#000; stroke:none">srcA</text>
    </g>
    <g transform="translate(30,170)" s:x="30" s:y="10" s:pid="out0">
      <text x="5" y="-4" style="fill:#000; stroke:none">wAR</text>
    </g>
    <g transform="translate(30,190)" s:x="30" s:y="10" s:pid="out0">
      <text x="5" y="-4" style="fill:#000; stroke:none">wIR</text>
    </g>
    <g transform="translate(30,210)" s:x="30" s:y="10" s:pid="out0">
      <text x="5" y="-4" style="fill:#000; stroke:none">wM</text>
    </g>
    <g transform="translate(30,230)" s:x="30" s:y="10" s:pid="out0">
      <text x="5" y="-4" style="fill:#000; stroke:none">wO</text>
    </g>
    <g transform="translate(30,250)" s:x="30" s:y="10" s:pid="out0">
      <text x="5" y="-4" style="fill:#000; stroke:none">wPC</text>
    </g>
    <g transform="translate(30,270)" s:x="30" s:y="10" s:pid="out0">
      <text x="5" y="-4" style="fill:#000; stroke:none">wR</text>
    </g>
  </g>
  <g s:type="generic" transform="translate(1000,863.5)" s:width="30" s:height="40">
    <text x="15" y="-4" class="nodelabel" s:attribute="ref">$paramod\ufifo\LGFLEN=4'0101\RXFIFO=1'1</text>
    <rect width="30" height="120" s:generic="body"/>
    <g transform="translate(0,10)" s:x="0" s:y="10" s:pid="in0">
      <text x="-3" y="-4" class="inputPortLabel">i_clk</text>
    </g>
    <g transform="translate(0,30)" s:x="0" s:y="10" s:pid="in0">
      <text x="-3" y="-4" class="inputPortLabel">i_data</text>
    </g>
    <g transform="translate(0,50)" s:x="0" s:y="10" s:pid="in0">
      <text x="-3" y="-4" class="inputPortLabel">i_dmp_pos</text>
    </g>
    <g transform="translate(0,70)" s:x="0" s:y="10" s:pid="in0">
      <text x="-3" y="-4" class="inputPortLabel">i_rd</text>
    </g>
    <g transform="translate(0,90)" s:x="0" s:y="10" s:pid="in0">
      <text x="-3" y="-4" class="inputPortLabel">i_rst</text>
    </g>
    <g transform="translate(0,110)" s:x="0" s:y="10" s:pid="in0">
      <text x="-3" y="-4" class="inputPortLabel">i_wr</text>
    </g>
    <g transform="translate(30,10)" s:x="30" s:y="10" s:pid="out0">
      <text x="5" y="-4" style="fill:#000; stroke:none">o_data</text>
    </g>
    <g transform="translate(30,30)" s:x="30" s:y="10" s:pid="out0">
      <text x="5" y="-4" style="fill:#000; stroke:none">o_dmp_data</text>
    </g>
    <g transform="translate(30,50)" s:x="30" s:y="10" s:pid="out0">
      <text x="5" y="-4" style="fill:#000; stroke:none">o_dmp_valid</text>
    </g>
    <g transform="translate(30,70)" s:x="30" s:y="10" s:pid="out0">
      <text x="5" y="-4" style="fill:#000; stroke:none">o_empty_n</text>
    </g>
    <g transform="translate(30,90)" s:x="30" s:y="10" s:pid="out0">
      <text x="5" y="-4" style="fill:#000; stroke:none">o_full</text>
    </g>
  </g>
  <g s:type="generic" transform="translate(657,433.5)" s:width="30" s:height="40">
    <text x="15" y="-4" class="nodelabel" s:attribute="ref">IR</text>
    <rect width="30" height="60" s:generic="body"/>
    <g transform="translate(0,10)" s:x="0" s:y="10" s:pid="in0">
      <text x="-3" y="-4" class="inputPortLabel">clk</text>
    </g>
    <g transform="translate(0,30)" s:x="0" s:y="10" s:pid="in0">
      <text x="-3" y="-4" class="inputPortLabel">nIR</text>
    </g>
    <g transform="translate(0,50)" s:x="0" s:y="10" s:pid="in0">
      <text x="-3" y="-4" class="inputPortLabel">wIR</text>
    </g>
    <g transform="translate(30,10)" s:x="30" s:y="10" s:pid="out0">
      <text x="5" y="-4" style="fill:#000; stroke:none">rIR</text>
    </g>
  </g>
  <g s:type="generic" transform="translate(898,223.5)" s:width="30" s:height="40">
    <text x="15" y="-4" class="nodelabel" s:attribute="ref">$paramod$58ac6ac029eeca312e61ef4d101184e423f52970\MEMORY</text>
    <rect width="30" height="140" s:generic="body"/>
    <g transform="translate(0,10)" s:x="0" s:y="10" s:pid="in0">
      <text x="-3" y="-4" class="inputPortLabel">ADDR</text>
    </g>
    <g transform="translate(0,30)" s:x="0" s:y="10" s:pid="in0">
      <text x="-3" y="-4" class="inputPortLabel">R</text>
    </g>
    <g transform="translate(0,50)" s:x="0" s:y="10" s:pid="in0">
      <text x="-3" y="-4" class="inputPortLabel">clk</text>
    </g>
    <g transform="translate(0,70)" s:x="0" s:y="10" s:pid="in0">
      <text x="-3" y="-4" class="inputPortLabel">mmio</text>
    </g>
    <g transform="translate(0,90)" s:x="0" s:y="10" s:pid="in0">
      <text x="-3" y="-4" class="inputPortLabel">srcA</text>
    </g>
    <g transform="translate(0,110)" s:x="0" s:y="10" s:pid="in0">
      <text x="-3" y="-4" class="inputPortLabel">wAR</text>
    </g>
    <g transform="translate(0,130)" s:x="0" s:y="10" s:pid="in0">
      <text x="-3" y="-4" class="inputPortLabel">wM</text>
    </g>
    <g transform="translate(30,10)" s:x="30" s:y="10" s:pid="out0">
      <text x="5" y="-4" style="fill:#000; stroke:none">M</text>
    </g>
  </g>
  <g s:type="generic" transform="translate(1496,838)" s:width="30" s:height="40">
    <text x="15" y="-4" class="nodelabel" s:attribute="ref">$paramod\ufifo\LGFLEN=4'0101\RXFIFO=1'1</text>
    <rect width="30" height="120" s:generic="body"/>
    <g transform="translate(0,10)" s:x="0" s:y="10" s:pid="in0">
      <text x="-3" y="-4" class="inputPortLabel">i_clk</text>
    </g>
    <g transform="translate(0,30)" s:x="0" s:y="10" s:pid="in0">
      <text x="-3" y="-4" class="inputPortLabel">i_data</text>
    </g>
    <g transform="translate(0,50)" s:x="0" s:y="10" s:pid="in0">
      <text x="-3" y="-4" class="inputPortLabel">i_dmp_pos</text>
    </g>
    <g transform="translate(0,70)" s:x="0" s:y="10" s:pid="in0">
      <text x="-3" y="-4" class="inputPortLabel">i_rd</text>
    </g>
    <g transform="translate(0,90)" s:x="0" s:y="10" s:pid="in0">
      <text x="-3" y="-4" class="inputPortLabel">i_rst</text>
    </g>
    <g transform="translate(0,110)" s:x="0" s:y="10" s:pid="in0">
      <text x="-3" y="-4" class="inputPortLabel">i_wr</text>
    </g>
    <g transform="translate(30,10)" s:x="30" s:y="10" s:pid="out0">
      <text x="5" y="-4" style="fill:#000; stroke:none">o_data</text>
    </g>
    <g transform="translate(30,30)" s:x="30" s:y="10" s:pid="out0">
      <text x="5" y="-4" style="fill:#000; stroke:none">o_dmp_data</text>
    </g>
    <g transform="translate(30,50)" s:x="30" s:y="10" s:pid="out0">
      <text x="5" y="-4" style="fill:#000; stroke:none">o_dmp_valid</text>
    </g>
    <g transform="translate(30,70)" s:x="30" s:y="10" s:pid="out0">
      <text x="5" y="-4" style="fill:#000; stroke:none">o_empty_n</text>
    </g>
    <g transform="translate(30,90)" s:x="30" s:y="10" s:pid="out0">
      <text x="5" y="-4" style="fill:#000; stroke:none">o_full</text>
    </g>
  </g>
  <g s:type="generic" transform="translate(1858,47)" s:width="30" s:height="40">
    <text x="15" y="-4" class="nodelabel" s:attribute="ref">PC</text>
    <rect width="30" height="140" s:generic="body"/>
    <g transform="translate(0,10)" s:x="0" s:y="10" s:pid="in0">
      <text x="-3" y="-4" class="inputPortLabel">aluFlag</text>
    </g>
    <g transform="translate(0,30)" s:x="0" s:y="10" s:pid="in0">
      <text x="-3" y="-4" class="inputPortLabel">branch</text>
    </g>
    <g transform="translate(0,50)" s:x="0" s:y="10" s:pid="in0">
      <text x="-3" y="-4" class="inputPortLabel">clk</text>
    </g>
    <g transform="translate(0,70)" s:x="0" s:y="10" s:pid="in0">
      <text x="-3" y="-4" class="inputPortLabel">ijump</text>
    </g>
    <g transform="translate(0,90)" s:x="0" s:y="10" s:pid="in0">
      <text x="-3" y="-4" class="inputPortLabel">jmpAddr</text>
    </g>
    <g transform="translate(0,110)" s:x="0" s:y="10" s:pid="in0">
      <text x="-3" y="-4" class="inputPortLabel">rst</text>
    </g>
    <g transform="translate(0,130)" s:x="0" s:y="10" s:pid="in0">
      <text x="-3" y="-4" class="inputPortLabel">wPC</text>
    </g>
    <g transform="translate(30,10)" s:x="30" s:y="10" s:pid="out0">
      <text x="5" y="-4" style="fill:#000; stroke:none">PC</text>
    </g>
  </g>
  <g s:type="generic" transform="translate(1528.8,27)" s:width="30" s:height="40">
    <text x="15" y="-4" class="nodelabel" s:attribute="ref">ALU</text>
    <rect width="30" height="60" s:generic="body"/>
    <g transform="translate(0,10)" s:x="0" s:y="10" s:pid="in0">
      <text x="-3" y="-4" class="inputPortLabel">aluCtl</text>
    </g>
    <g transform="translate(0,30)" s:x="0" s:y="10" s:pid="in0">
      <text x="-3" y="-4" class="inputPortLabel">inM</text>
    </g>
    <g transform="translate(0,50)" s:x="0" s:y="10" s:pid="in0">
      <text x="-3" y="-4" class="inputPortLabel">inR</text>
    </g>
    <g transform="translate(30,10)" s:x="30" s:y="10" s:pid="out0">
      <text x="5" y="-4" style="fill:#000; stroke:none">aluOut</text>
    </g>
    <g transform="translate(30,30)" s:x="30" s:y="10" s:pid="out0">
      <text x="5" y="-4" style="fill:#000; stroke:none">flag</text>
    </g>
  </g>
  <g s:type="generic" transform="translate(169,198)" s:width="30" s:height="40">
    <text x="15" y="-4" class="nodelabel" s:attribute="ref">$paramod$220c18cf809e60bc47338ac0392ec00161b6e80c\PROG</text>
    <rect width="30" height="40" s:generic="body"/>
    <g transform="translate(0,10)" s:x="0" s:y="10" s:pid="in0">
      <text x="-3" y="-4" class="inputPortLabel">Addr</text>
    </g>
    <g transform="translate(0,30)" s:x="0" s:y="10" s:pid="in0">
      <text x="-3" y="-4" class="inputPortLabel">clk</text>
    </g>
    <g transform="translate(30,10)" s:x="30" s:y="10" s:pid="out0">
      <text x="5" y="-4" style="fill:#000; stroke:none">Data</text>
    </g>
  </g>
  <g s:type="generic" transform="translate(1346,158)" s:width="30" s:height="40">
    <text x="15" y="-4" class="nodelabel" s:attribute="ref">REG</text>
    <rect width="30" height="140" s:generic="body"/>
    <g transform="translate(0,10)" s:x="0" s:y="10" s:pid="in0">
      <text x="-3" y="-4" class="inputPortLabel">clk</text>
    </g>
    <g transform="translate(0,30)" s:x="0" s:y="10" s:pid="in0">
      <text x="-3" y="-4" class="inputPortLabel">iAlu</text>
    </g>
    <g transform="translate(0,50)" s:x="0" s:y="10" s:pid="in0">
      <text x="-3" y="-4" class="inputPortLabel">iData</text>
    </g>
    <g transform="translate(0,70)" s:x="0" s:y="10" s:pid="in0">
      <text x="-3" y="-4" class="inputPortLabel">iInbox</text>
    </g>
    <g transform="translate(0,90)" s:x="0" s:y="10" s:pid="in0">
      <text x="-3" y="-4" class="inputPortLabel">iMem</text>
    </g>
    <g transform="translate(0,110)" s:x="0" s:y="10" s:pid="in0">
      <text x="-3" y="-4" class="inputPortLabel">muxR</text>
    </g>
    <g transform="translate(0,130)" s:x="0" s:y="10" s:pid="in0">
      <text x="-3" y="-4" class="inputPortLabel">wR</text>
    </g>
    <g transform="translate(30,10)" s:x="30" s:y="10" s:pid="out0">
      <text x="5" y="-4" style="fill:#000; stroke:none">R</text>
    </g>
  </g>
  <g s:type="constant" transform="translate(898,1167.5)" s:width="30" s:height="20">
    <text x="15" y="-4" class="nodelabel" s:attribute="ref">1</text>
    <s:alias val="$_constant_"/>
    <rect width="30" height="20"/>
    <g s:x="30" s:y="10" s:pid="Y"/>
  </g>
  <g s:type="constant" transform="translate(1316,790)" s:width="30" s:height="20">
    <text x="15" y="-4" class="nodelabel" s:attribute="ref">100</text>
    <s:alias val="$_constant_"/>
    <rect width="30" height="20"/>
    <g s:x="30" s:y="10" s:pid="Y"/>
  </g>
  <g s:type="constant" transform="translate(1316,1133.5)" s:width="30" s:height="20">
    <text x="15" y="-4" class="nodelabel" s:attribute="ref">101</text>
    <s:alias val="$_constant_"/>
    <rect width="30" height="20"/>
    <g s:x="30" s:y="10" s:pid="Y"/>
  </g>
  <g s:type="join" transform="translate(1857,1190.5)" s:width="4" s:height="40">
    <rect width="5" height="40" class="splitjoinBody" s:generic="body"/>
    <s:alias val="$_join_"/>
    <g s:x="5" s:y="20" s:pid="out"/>
    <g transform="translate(0,10)" s:x="0" s:y="10" s:pid="in0">
      <text x="-3" y="-4" class="inputPortLabel">0</text>
    </g>
    <g transform="translate(0,30)" s:x="0" s:y="10" s:pid="in0">
      <text x="-3" y="-4" class="inputPortLabel">1</text>
    </g>
  </g>
  <g s:type="join" transform="translate(1559.3333333333333,1220)" s:width="4" s:height="40">
    <rect width="5" height="40" class="splitjoinBody" s:generic="body"/>
    <s:alias val="$_join_"/>
    <g s:x="5" s:y="20" s:pid="out"/>
    <g transform="translate(0,10)" s:x="0" s:y="10" s:pid="in0">
      <text x="-3" y="-4" class="inputPortLabel">0</text>
    </g>
    <g transform="translate(0,30)" s:x="0" s:y="10" s:pid="in0">
      <text x="-3" y="-4" class="inputPortLabel">1</text>
    </g>
  </g>
  <g s:type="join" transform="translate(1857.25,507)" s:width="4" s:height="40">
    <rect width="5" height="80" class="splitjoinBody" s:generic="body"/>
    <s:alias val="$_join_"/>
    <g s:x="5" s:y="20" s:pid="out"/>
    <g transform="translate(0,10)" s:x="0" s:y="10" s:pid="in0">
      <text x="-3" y="-4" class="inputPortLabel">0:7</text>
    </g>
    <g transform="translate(0,30)" s:x="0" s:y="10" s:pid="in0">
      <text x="-3" y="-4" class="inputPortLabel">8:15</text>
    </g>
    <g transform="translate(0,50)" s:x="0" s:y="10" s:pid="in0">
      <text x="-3" y="-4" class="inputPortLabel">16:23</text>
    </g>
    <g transform="translate(0,70)" s:x="0" s:y="10" s:pid="in0">
      <text x="-3" y="-4" class="inputPortLabel">24:31</text>
    </g>
  </g>
  <g s:type="join" transform="translate(1857.25,776)" s:width="4" s:height="40">
    <rect width="5" height="60" class="splitjoinBody" s:generic="body"/>
    <s:alias val="$_join_"/>
    <g s:x="5" s:y="20" s:pid="out"/>
    <g transform="translate(0,10)" s:x="0" s:y="10" s:pid="in0">
      <text x="-3" y="-4" class="inputPortLabel">0</text>
    </g>
    <g transform="translate(0,30)" s:x="0" s:y="10" s:pid="in0">
      <text x="-3" y="-4" class="inputPortLabel">1</text>
    </g>
    <g transform="translate(0,50)" s:x="0" s:y="10" s:pid="in0">
      <text x="-3" y="-4" class="inputPortLabel">2:3</text>
    </g>
  </g>
  <g s:type="split" transform="translate(785,285)" s:width="5" s:height="40">
    <rect width="5" height="20" class="splitjoinBody" s:generic="body"/>
    <s:alias val="$_split_"/>
    <g s:x="0" s:y="20" s:pid="in"/>
    <g transform="translate(4,10)" s:x="4" s:y="10" s:pid="out0">
      <text x="5" y="-4">0</text>
    </g>
  </g>
  <line x1="1031" y1="954" x2="1259" y2="954"/>
  <line x1="1259" y1="954" x2="1259" y2="1326"/>
  <line x1="1259" y1="1326" x2="2011" y2="1326"/>
  <line x1="1962" y1="1260.5" x2="2011" y2="1260.5"/>
  <line x1="1527" y1="848.5" x2="1755" y2="848.5"/>
  <line x1="1755" y1="848.5" x2="1755" y2="656"/>
  <line x1="1755" y1="656" x2="2011" y2="656"/>
  <line x1="1960.3333333333333" y1="67.5" x2="2011" y2="67.5"/>
  <line x1="1960.3333333333333" y1="1187.5" x2="2011" y2="1187.5"/>
  <line x1="1527" y1="908.5" x2="1785" y2="908.5"/>
  <line x1="1785" y1="908.5" x2="1785" y2="1260.5"/>
  <line x1="1785" y1="1260.5" x2="1937" y2="1260.5"/>
  <line x1="1031" y1="934" x2="1279" y2="934"/>
  <line x1="1279" y1="934" x2="1279" y2="597"/>
  <line x1="1279" y1="597" x2="2011" y2="597"/>
  <line x1="928" y1="1177.5" x2="1940.3333333333333" y2="1177.5"/>
  <line x1="928" y1="1177.5" x2="1279" y2="1177.5"/>
  <line x1="1279" y1="1177.5" x2="1279" y2="1238"/>
  <circle cx="1279" cy="1177.5" r="2" style="fill:#000"/>
  <line x1="1279" y1="1238" x2="1343.3333333333333" y2="1238"/>
  <line x1="1863" y1="1211" x2="1912" y2="1211"/>
  <line x1="1912" y1="1211" x2="1912" y2="1197.5"/>
  <line x1="1912" y1="1197.5" x2="1940.3333333333333" y2="1197.5"/>
  <line x1="1565.3333333333333" y1="1240.5" x2="1950.3333333333333" y2="1240.5"/>
  <line x1="1950.3333333333333" y1="1240.5" x2="1950.3333333333333" y2="1202.5"/>
  <line x1="1565.3333333333333" y1="1240.5" x2="1795" y2="1240.5"/>
  <line x1="1795" y1="1240.5" x2="1795" y2="826.5"/>
  <circle cx="1795" cy="1240.5" r="2" style="fill:#000"/>
  <line x1="1795" y1="826.5" x2="1857.25" y2="826.5"/>
  <line x1="928" y1="1122.5" x2="1299" y2="1122.5"/>
  <line x1="1299" y1="1122.5" x2="1299" y2="1223"/>
  <circle cx="1299" cy="1122.5" r="2" style="fill:#000"/>
  <circle cx="1299" cy="1223" r="2" style="fill:#000"/>
  <line x1="1299" y1="1223" x2="1343.3333333333333" y2="1223"/>
  <line x1="928" y1="1122.5" x2="1299" y2="1122.5"/>
  <line x1="1299" y1="1122.5" x2="1299" y2="1292.5"/>
  <line x1="1299" y1="1292.5" x2="1316" y2="1292.5"/>
  <line x1="928" y1="1122.5" x2="1299" y2="1122.5"/>
  <line x1="1299" y1="1122.5" x2="1299" y2="779"/>
  <line x1="1299" y1="779" x2="1555.3333333333333" y2="779"/>
  <line x1="928" y1="1122.5" x2="1555.3333333333333" y2="1122.5"/>
  <line x1="1889" y1="57.5" x2="1940.3333333333333" y2="57.5"/>
  <line x1="1889" y1="57.5" x2="1912" y2="57.5"/>
  <line x1="1912" y1="57.5" x2="1912" y2="12"/>
  <line x1="1912" y1="12" x2="134" y2="12"/>
  <line x1="134" y1="12" x2="134" y2="208.5"/>
  <circle cx="1912" cy="57.5" r="2" style="fill:#000"/>
  <line x1="134" y1="208.5" x2="169" y2="208.5"/>
  <line x1="1863.25" y1="527.5" x2="1912" y2="527.5"/>
  <line x1="1912" y1="527.5" x2="1912" y2="77.5"/>
  <line x1="1912" y1="77.5" x2="1940.3333333333333" y2="77.5"/>
  <line x1="1863.25" y1="796.5" x2="1950.3333333333333" y2="796.5"/>
  <line x1="1950.3333333333333" y1="796.5" x2="1950.3333333333333" y2="82.5"/>
  <line x1="1346" y1="800" x2="1401" y2="800"/>
  <line x1="1401" y1="800" x2="1401" y2="794"/>
  <line x1="1401" y1="794" x2="1555.3333333333333" y2="794"/>
  <line x1="1346" y1="1143.5" x2="1401" y2="1143.5"/>
  <line x1="1401" y1="1143.5" x2="1401" y2="1137.5"/>
  <line x1="1401" y1="1137.5" x2="1555.3333333333333" y2="1137.5"/>
  <line x1="688" y1="444" x2="717" y2="444"/>
  <line x1="717" y1="444" x2="717" y2="419.5"/>
  <line x1="717" y1="419.5" x2="134" y2="419.5"/>
  <line x1="134" y1="419.5" x2="134" y2="469.5"/>
  <circle cx="717" cy="444" r="2" style="fill:#000"/>
  <line x1="134" y1="469.5" x2="225.79999999999995" y2="469.5"/>
  <line x1="688" y1="444" x2="717" y2="444"/>
  <line x1="717" y1="444" x2="717" y2="537.5"/>
  <line x1="717" y1="537.5" x2="1857.25" y2="537.5"/>
  <line x1="688" y1="444" x2="785.5" y2="444"/>
  <line x1="785.5" y1="444" x2="785.5" y2="306"/>
  <line x1="46" y1="274" x2="94" y2="274"/>
  <line x1="94" y1="274" x2="94" y2="489.5"/>
  <circle cx="94" cy="274" r="2" style="fill:#000"/>
  <circle cx="94" cy="489.5" r="2" style="fill:#000"/>
  <line x1="94" y1="489.5" x2="225.79999999999995" y2="489.5"/>
  <line x1="46" y1="274" x2="94" y2="274"/>
  <line x1="94" y1="274" x2="94" y2="848.5"/>
  <line x1="94" y1="848.5" x2="848" y2="848.5"/>
  <line x1="848" y1="848.5" x2="848" y2="874"/>
  <circle cx="848" cy="848.5" r="2" style="fill:#000"/>
  <line x1="848" y1="874" x2="1000" y2="874"/>
  <line x1="46" y1="274" x2="94" y2="274"/>
  <line x1="94" y1="274" x2="94" y2="444"/>
  <circle cx="94" cy="444" r="2" style="fill:#000"/>
  <line x1="94" y1="444" x2="657" y2="444"/>
  <line x1="46" y1="274" x2="898" y2="274"/>
  <line x1="46" y1="274" x2="94" y2="274"/>
  <line x1="94" y1="274" x2="94" y2="848.5"/>
  <line x1="94" y1="848.5" x2="1496" y2="848.5"/>
  <line x1="46" y1="274" x2="94" y2="274"/>
  <line x1="94" y1="274" x2="94" y2="121"/>
  <line x1="94" y1="121" x2="1775" y2="121"/>
  <line x1="1775" y1="121" x2="1775" y2="97.5"/>
  <line x1="1775" y1="97.5" x2="1858" y2="97.5"/>
  <line x1="46" y1="274" x2="94" y2="274"/>
  <line x1="94" y1="274" x2="94" y2="228.5"/>
  <circle cx="94" cy="228.5" r="2" style="fill:#000"/>
  <line x1="94" y1="228.5" x2="169" y2="228.5"/>
  <line x1="46" y1="274" x2="94" y2="274"/>
  <line x1="94" y1="274" x2="94" y2="121"/>
  <line x1="94" y1="121" x2="618" y2="121"/>
  <line x1="618" y1="121" x2="618" y2="168.5"/>
  <circle cx="618" cy="121" r="2" style="fill:#000"/>
  <line x1="618" y1="168.5" x2="1346" y2="168.5"/>
  <line x1="46" y1="509.5" x2="225.79999999999995" y2="509.5"/>
  <line x1="46" y1="568.5" x2="104" y2="568.5"/>
  <line x1="104" y1="568.5" x2="104" y2="529.5"/>
  <line x1="104" y1="529.5" x2="225.79999999999995" y2="529.5"/>
  <line x1="2036" y1="597" x2="2090" y2="597"/>
  <line x1="2090" y1="597" x2="2090" y2="752"/>
  <line x1="2090" y1="752" x2="124" y2="752"/>
  <line x1="124" y1="752" x2="124" y2="549.5"/>
  <line x1="124" y1="549.5" x2="225.79999999999995" y2="549.5"/>
  <line x1="46" y1="627.5" x2="114" y2="627.5"/>
  <line x1="114" y1="627.5" x2="114" y2="569.5"/>
  <line x1="114" y1="569.5" x2="225.79999999999995" y2="569.5"/>
  <line x1="1527" y1="928.5" x2="1755" y2="928.5"/>
  <line x1="1755" y1="928.5" x2="1755" y2="1097.5"/>
  <line x1="1755" y1="1097.5" x2="134" y2="1097.5"/>
  <line x1="134" y1="1097.5" x2="134" y2="589.5"/>
  <line x1="134" y1="589.5" x2="225.79999999999995" y2="589.5"/>
  <line x1="788" y1="894" x2="1000" y2="894"/>
  <line x1="788" y1="996.5" x2="848" y2="996.5"/>
  <line x1="848" y1="996.5" x2="848" y2="914"/>
  <circle cx="848" cy="996.5" r="2" style="fill:#000"/>
  <line x1="848" y1="914" x2="1000" y2="914"/>
  <line x1="788" y1="996.5" x2="1401" y2="996.5"/>
  <line x1="1401" y1="996.5" x2="1401" y2="888.5"/>
  <line x1="1401" y1="888.5" x2="1496" y2="888.5"/>
  <line x1="256.79999999999995" y1="569.5" x2="628" y2="569.5"/>
  <line x1="628" y1="569.5" x2="628" y2="934"/>
  <line x1="628" y1="934" x2="1000" y2="934"/>
  <line x1="256.79999999999995" y1="589.5" x2="598" y2="589.5"/>
  <line x1="598" y1="589.5" x2="598" y2="954"/>
  <circle cx="598" cy="589.5" r="2" style="fill:#000"/>
  <line x1="598" y1="954" x2="1000" y2="954"/>
  <line x1="256.79999999999995" y1="589.5" x2="598" y2="589.5"/>
  <line x1="598" y1="589.5" x2="598" y2="954"/>
  <line x1="598" y1="954" x2="717" y2="954"/>
  <line x1="717" y1="954" x2="717" y2="1075.5"/>
  <line x1="717" y1="1075.5" x2="1421" y2="1075.5"/>
  <line x1="1421" y1="1075.5" x2="1421" y2="928.5"/>
  <circle cx="717" cy="954" r="2" style="fill:#000"/>
  <line x1="1421" y1="928.5" x2="1496" y2="928.5"/>
  <line x1="256.79999999999995" y1="589.5" x2="598" y2="589.5"/>
  <line x1="598" y1="589.5" x2="598" y2="408.5"/>
  <line x1="598" y1="408.5" x2="1755" y2="408.5"/>
  <line x1="1755" y1="408.5" x2="1755" y2="157.5"/>
  <line x1="1755" y1="157.5" x2="1858" y2="157.5"/>
  <line x1="788" y1="1055.5" x2="858" y2="1055.5"/>
  <line x1="858" y1="1055.5" x2="858" y2="974"/>
  <line x1="858" y1="974" x2="1000" y2="974"/>
  <line x1="200" y1="208.5" x2="608" y2="208.5"/>
  <line x1="608" y1="208.5" x2="608" y2="464"/>
  <circle cx="608" cy="208.5" r="2" style="fill:#000"/>
  <line x1="608" y1="464" x2="657" y2="464"/>
  <line x1="200" y1="208.5" x2="848" y2="208.5"/>
  <line x1="848" y1="208.5" x2="848" y2="234"/>
  <circle cx="848" cy="208.5" r="2" style="fill:#000"/>
  <line x1="848" y1="234" x2="898" y2="234"/>
  <line x1="200" y1="208.5" x2="608" y2="208.5"/>
  <line x1="608" y1="208.5" x2="608" y2="143"/>
  <line x1="608" y1="143" x2="1755" y2="143"/>
  <line x1="1755" y1="143" x2="1755" y2="137.5"/>
  <line x1="1755" y1="137.5" x2="1858" y2="137.5"/>
  <line x1="200" y1="208.5" x2="1346" y2="208.5"/>
  <line x1="256.79999999999995" y1="649.5" x2="608" y2="649.5"/>
  <line x1="608" y1="649.5" x2="608" y2="484"/>
  <line x1="608" y1="484" x2="657" y2="484"/>
  <line x1="1377" y1="168.5" x2="1411" y2="168.5"/>
  <line x1="1411" y1="168.5" x2="1411" y2="398.5"/>
  <line x1="1411" y1="398.5" x2="848" y2="398.5"/>
  <line x1="848" y1="398.5" x2="848" y2="254"/>
  <circle cx="1411" cy="398.5" r="2" style="fill:#000"/>
  <line x1="848" y1="254" x2="898" y2="254"/>
  <line x1="1377" y1="168.5" x2="1411" y2="168.5"/>
  <line x1="1411" y1="168.5" x2="1411" y2="868.5"/>
  <circle cx="1411" cy="168.5" r="2" style="fill:#000"/>
  <line x1="1411" y1="868.5" x2="1496" y2="868.5"/>
  <line x1="1377" y1="168.5" x2="1411" y2="168.5"/>
  <line x1="1411" y1="168.5" x2="1411" y2="77.5"/>
  <line x1="1411" y1="77.5" x2="1528.8" y2="77.5"/>
  <line x1="1377" y1="168.5" x2="1411" y2="168.5"/>
  <line x1="1411" y1="168.5" x2="1411" y2="517.5"/>
  <circle cx="1411" cy="517.5" r="2" style="fill:#000"/>
  <line x1="1411" y1="517.5" x2="1857.25" y2="517.5"/>
  <line x1="790" y1="295.5" x2="858" y2="295.5"/>
  <line x1="858" y1="295.5" x2="858" y2="294"/>
  <line x1="858" y1="294" x2="898" y2="294"/>
  <line x1="256.79999999999995" y1="609.5" x2="548" y2="609.5"/>
  <line x1="548" y1="609.5" x2="548" y2="318"/>
  <line x1="548" y1="318" x2="858" y2="318"/>
  <line x1="858" y1="318" x2="858" y2="314"/>
  <line x1="858" y1="314" x2="898" y2="314"/>
  <line x1="256.79999999999995" y1="629.5" x2="558" y2="629.5"/>
  <line x1="558" y1="629.5" x2="558" y2="334"/>
  <line x1="558" y1="334" x2="898" y2="334"/>
  <line x1="256.79999999999995" y1="669.5" x2="568" y2="669.5"/>
  <line x1="568" y1="669.5" x2="568" y2="354"/>
  <line x1="568" y1="354" x2="898" y2="354"/>
  <line x1="1344" y1="1021.5" x2="1411" y2="1021.5"/>
  <line x1="1411" y1="1021.5" x2="1411" y2="908.5"/>
  <line x1="1411" y1="908.5" x2="1496" y2="908.5"/>
  <line x1="256.79999999999995" y1="689.5" x2="518" y2="689.5"/>
  <line x1="518" y1="689.5" x2="518" y2="1086.5"/>
  <line x1="518" y1="1086.5" x2="1431" y2="1086.5"/>
  <line x1="1431" y1="1086.5" x2="1431" y2="948.5"/>
  <line x1="1431" y1="948.5" x2="1496" y2="948.5"/>
  <line x1="1559.8" y1="57.5" x2="1858" y2="57.5"/>
  <line x1="256.79999999999995" y1="489.5" x2="528" y2="489.5"/>
  <line x1="528" y1="489.5" x2="528" y2="110"/>
  <line x1="528" y1="110" x2="1765" y2="110"/>
  <line x1="1765" y1="110" x2="1765" y2="77.5"/>
  <line x1="1765" y1="77.5" x2="1858" y2="77.5"/>
  <line x1="256.79999999999995" y1="529.5" x2="538" y2="529.5"/>
  <line x1="538" y1="529.5" x2="538" y2="132"/>
  <line x1="538" y1="132" x2="1785" y2="132"/>
  <line x1="1785" y1="132" x2="1785" y2="117.5"/>
  <line x1="1785" y1="117.5" x2="1858" y2="117.5"/>
  <line x1="256.79999999999995" y1="709.5" x2="618" y2="709.5"/>
  <line x1="618" y1="709.5" x2="618" y2="506.5"/>
  <line x1="618" y1="506.5" x2="1765" y2="506.5"/>
  <line x1="1765" y1="506.5" x2="1765" y2="177.5"/>
  <line x1="1765" y1="177.5" x2="1858" y2="177.5"/>
  <line x1="256.79999999999995" y1="469.5" x2="518" y2="469.5"/>
  <line x1="518" y1="469.5" x2="518" y2="37.5"/>
  <line x1="518" y1="37.5" x2="1528.8" y2="37.5"/>
  <line x1="929" y1="234" x2="1259" y2="234"/>
  <line x1="1259" y1="234" x2="1259" y2="57.5"/>
  <circle cx="1259" cy="234" r="2" style="fill:#000"/>
  <line x1="1259" y1="57.5" x2="1528.8" y2="57.5"/>
  <line x1="929" y1="234" x2="1259" y2="234"/>
  <line x1="1259" y1="234" x2="1259" y2="248.5"/>
  <line x1="1259" y1="248.5" x2="1346" y2="248.5"/>
  <line x1="1559.8" y1="37.5" x2="1755" y2="37.5"/>
  <line x1="1755" y1="37.5" x2="1755" y2="100"/>
  <line x1="1755" y1="100" x2="1299" y2="100"/>
  <line x1="1299" y1="100" x2="1299" y2="188.5"/>
  <line x1="1299" y1="188.5" x2="1346" y2="188.5"/>
  <line x1="1031" y1="874" x2="1269" y2="874"/>
  <line x1="1269" y1="874" x2="1269" y2="228.5"/>
  <line x1="1269" y1="228.5" x2="1346" y2="228.5"/>
  <line x1="256.79999999999995" y1="549.5" x2="578" y2="549.5"/>
  <line x1="578" y1="549.5" x2="578" y2="376.5"/>
  <line x1="578" y1="376.5" x2="1259" y2="376.5"/>
  <line x1="1259" y1="376.5" x2="1259" y2="268.5"/>
  <line x1="1259" y1="268.5" x2="1346" y2="268.5"/>
  <line x1="256.79999999999995" y1="729.5" x2="588" y2="729.5"/>
  <line x1="588" y1="729.5" x2="588" y2="387.5"/>
  <line x1="588" y1="387.5" x2="1279" y2="387.5"/>
  <line x1="1279" y1="387.5" x2="1279" y2="288.5"/>
  <line x1="1279" y1="288.5" x2="1346" y2="288.5"/>
  <line x1="1527" y1="888.5" x2="1805" y2="888.5"/>
  <line x1="1805" y1="888.5" x2="1805" y2="1201"/>
  <line x1="1805" y1="1201" x2="1857" y2="1201"/>
  <line x1="1031" y1="914" x2="1269" y2="914"/>
  <line x1="1269" y1="914" x2="1269" y2="1315"/>
  <line x1="1269" y1="1315" x2="1805" y2="1315"/>
  <line x1="1805" y1="1315" x2="1805" y2="1221"/>
  <line x1="1805" y1="1221" x2="1857" y2="1221"/>
  <line x1="1365.3333333333333" y1="1230.5" x2="1559.3333333333333" y2="1230.5"/>
  <line x1="1347" y1="1292.5" x2="1401" y2="1292.5"/>
  <line x1="1401" y1="1292.5" x2="1401" y2="1250.5"/>
  <line x1="1401" y1="1250.5" x2="1559.3333333333333" y2="1250.5"/>
  <line x1="1527" y1="868.5" x2="1765" y2="868.5"/>
  <line x1="1765" y1="868.5" x2="1765" y2="557.5"/>
  <line x1="1765" y1="557.5" x2="1857.25" y2="557.5"/>
  <line x1="1031" y1="894" x2="1289" y2="894"/>
  <line x1="1289" y1="894" x2="1289" y2="763"/>
  <line x1="1289" y1="763" x2="1857.75" y2="763"/>
  <line x1="1857.75" y1="763" x2="1857.75" y2="578"/>
  <line x1="1577.3333333333333" y1="786.5" x2="1857.25" y2="786.5"/>
  <line x1="1577.3333333333333" y1="1130" x2="1775" y2="1130"/>
  <line x1="1775" y1="1130" x2="1775" y2="806.5"/>
  <line x1="1775" y1="806.5" x2="1857.25" y2="806.5"/>
</svg>
