<svg xmlns="http://www.w3.org/2000/svg" xmlns:xlink="http://www.w3.org/1999/xlink" xmlns:s="https://github.com/nturley/netlistsvg" width="1122" height="756">
  <style>svg {
    stroke:#000;
    fill:none;
  }
  text {
    fill:#000;
    stroke:none;
    font-size:10px;
    font-weight: bold;
    font-family: "Courier New", monospace;
  }
  .nodelabel {
    text-anchor: middle;
  }
  .inputPortLabel {
    text-anchor: end;
  }
  .splitjoinBody {
    fill:#000;
  }</style>
  <g s:type="and" transform="translate(480.3333333333333,690.5)" s:width="30" s:height="25" id="cell_$and$mem_wrapper.v:18$3">
    <s:alias val="$and"/>
    <s:alias val="$logic_and"/>
    <s:alias val="$_AND_"/>
    <path d="M0,0 L0,25 L15,25 A15 12.5 0 0 0 15,0 Z" class="cell_$and$mem_wrapper.v:18$3"/>
    <g s:x="0" s:y="5" s:pid="A"/>
    <g s:x="0" s:y="20" s:pid="B"/>
    <g s:x="30" s:y="12.5" s:pid="Y"/>
  </g>
  <g s:type="and" transform="translate(268.6666666666667,394)" s:width="30" s:height="25" id="cell_$and$mem_wrapper.v:19$5">
    <s:alias val="$and"/>
    <s:alias val="$logic_and"/>
    <s:alias val="$_AND_"/>
    <path d="M0,0 L0,25 L15,25 A15 12.5 0 0 0 15,0 Z" class="cell_$and$mem_wrapper.v:19$5"/>
    <g s:x="0" s:y="5" s:pid="A"/>
    <g s:x="0" s:y="20" s:pid="B"/>
    <g s:x="30" s:y="12.5" s:pid="Y"/>
  </g>
  <g s:type="and" transform="translate(153,541.5)" s:width="30" s:height="25" id="cell_$and$mem_wrapper.v:20$7">
    <s:alias val="$and"/>
    <s:alias val="$logic_and"/>
    <s:alias val="$_AND_"/>
    <path d="M0,0 L0,25 L15,25 A15 12.5 0 0 0 15,0 Z" class="cell_$and$mem_wrapper.v:20$7"/>
    <g s:x="0" s:y="5" s:pid="A"/>
    <g s:x="0" s:y="20" s:pid="B"/>
    <g s:x="30" s:y="12.5" s:pid="Y"/>
  </g>
  <g s:type="and" transform="translate(765.3333333333334,283.5)" s:width="30" s:height="25" id="cell_$and$mem_wrapper.v:35$8">
    <s:alias val="$and"/>
    <s:alias val="$logic_and"/>
    <s:alias val="$_AND_"/>
    <path d="M0,0 L0,25 L15,25 A15 12.5 0 0 0 15,0 Z" class="cell_$and$mem_wrapper.v:35$8"/>
    <g s:x="0" s:y="5" s:pid="A"/>
    <g s:x="0" s:y="20" s:pid="B"/>
    <g s:x="30" s:y="12.5" s:pid="Y"/>
  </g>
  <g s:type="and" transform="translate(625.3333333333334,663)" s:width="30" s:height="25" id="cell_$and$mem_wrapper.v:50$9">
    <s:alias val="$and"/>
    <s:alias val="$logic_and"/>
    <s:alias val="$_AND_"/>
    <path d="M0,0 L0,25 L15,25 A15 12.5 0 0 0 15,0 Z" class="cell_$and$mem_wrapper.v:50$9"/>
    <g s:x="0" s:y="5" s:pid="A"/>
    <g s:x="0" s:y="20" s:pid="B"/>
    <g s:x="30" s:y="12.5" s:pid="Y"/>
  </g>
  <g s:type="and" transform="translate(480.3333333333333,194)" s:width="30" s:height="25" id="cell_$and$mem_wrapper.v:65$10">
    <s:alias val="$and"/>
    <s:alias val="$logic_and"/>
    <s:alias val="$_AND_"/>
    <path d="M0,0 L0,25 L15,25 A15 12.5 0 0 0 15,0 Z" class="cell_$and$mem_wrapper.v:65$10"/>
    <g s:x="0" s:y="5" s:pid="A"/>
    <g s:x="0" s:y="20" s:pid="B"/>
    <g s:x="30" s:y="12.5" s:pid="Y"/>
  </g>
  <g s:type="and" transform="translate(268.6666666666667,519)" s:width="30" s:height="25" id="cell_$and$mem_wrapper.v:79$11">
    <s:alias val="$and"/>
    <s:alias val="$logic_and"/>
    <s:alias val="$_AND_"/>
    <path d="M0,0 L0,25 L15,25 A15 12.5 0 0 0 15,0 Z" class="cell_$and$mem_wrapper.v:79$11"/>
    <g s:x="0" s:y="5" s:pid="A"/>
    <g s:x="0" s:y="20" s:pid="B"/>
    <g s:x="30" s:y="12.5" s:pid="Y"/>
  </g>
  <g s:type="generic" transform="translate(237,700)" s:width="30" s:height="40" id="cell_$eq$mem_wrapper.v:18$2">
    <text x="15" y="-4" class="nodelabel cell_$eq$mem_wrapper.v:18$2" s:attribute="ref">$logic_not</text>
    <rect width="30" height="20" s:generic="body" class="cell_$eq$mem_wrapper.v:18$2"/>
    <g transform="translate(0,10)" s:x="0" s:y="10" s:pid="in0" id="port_$eq$mem_wrapper.v:18$2~A">
      <text x="-3" y="-4" class="inputPortLabel cell_$eq$mem_wrapper.v:18$2">A</text>
    </g>
    <g transform="translate(30,10)" s:x="30" s:y="10" s:pid="out0" id="port_$eq$mem_wrapper.v:18$2~Y">
      <text x="5" y="-4" style="fill:#000; stroke:none" class="cell_$eq$mem_wrapper.v:18$2">Y</text>
    </g>
  </g>
  <g s:type="eq" transform="translate(154.66666666666666,401.5)" s:width="25" s:height="25" id="cell_$eq$mem_wrapper.v:19$4">
    <s:alias val="$eq"/>
    <circle r="12.5" cx="12.5" cy="12.5" class="cell_$eq$mem_wrapper.v:19$4"/>
    <line x1="7.5" x2="17.5" y1="10" y2="10" class="cell_$eq$mem_wrapper.v:19$4"/>
    <line x1="7.5" x2="17.5" y1="15" y2="15" class="cell_$eq$mem_wrapper.v:19$4"/>
    <g s:x="3" s:y="5" s:pid="A"/>
    <g s:x="3" s:y="20" s:pid="B"/>
    <g s:x="25" s:y="12.5" s:pid="Y"/>
  </g>
  <g s:type="eq" transform="translate(78.66666666666667,549)" s:width="25" s:height="25" id="cell_$eq$mem_wrapper.v:20$6">
    <s:alias val="$eq"/>
    <circle r="12.5" cx="12.5" cy="12.5" class="cell_$eq$mem_wrapper.v:20$6"/>
    <line x1="7.5" x2="17.5" y1="10" y2="10" class="cell_$eq$mem_wrapper.v:20$6"/>
    <line x1="7.5" x2="17.5" y1="15" y2="15" class="cell_$eq$mem_wrapper.v:20$6"/>
    <g s:x="3" s:y="5" s:pid="A"/>
    <g s:x="3" s:y="20" s:pid="B"/>
    <g s:x="25" s:y="12.5" s:pid="Y"/>
  </g>
  <g s:type="not" transform="translate(621.5,293.5)" s:width="30" s:height="20" id="cell_$not$mem_wrapper.v:17$1">
    <s:alias val="$_NOT_"/>
    <s:alias val="$not"/>
    <path d="M0,0 L0,20 L20,10 Z" class="cell_$not$mem_wrapper.v:17$1"/>
    <circle cx="23" cy="10" r="3" class="cell_$not$mem_wrapper.v:17$1"/>
    <g s:x="0" s:y="10" s:pid="A"/>
    <g s:x="25" s:y="10" s:pid="Y"/>
  </g>
  <g s:type="mux" transform="translate(628.6666666666666,421.5)" s:width="20" s:height="40" id="cell_$procmux$127">
    <s:alias val="$pmux"/>
    <s:alias val="$mux"/>
    <s:alias val="$_MUX_"/>
    <path d="M0,0 L20,10 L20,30 L0,40 Z" class="cell_$procmux$127"/>
    <g s:x="0" s:y="10" s:pid="A"/>
    <g s:x="0" s:y="30" s:pid="B"/>
    <g s:x="10" s:y="35" s:pid="S"/>
    <g s:x="20" s:y="20" s:pid="Y"/>
  </g>
  <g s:type="mux" transform="translate(768.6666666666666,431.5)" s:width="20" s:height="40" id="cell_$procmux$129">
    <s:alias val="$pmux"/>
    <s:alias val="$mux"/>
    <s:alias val="$_MUX_"/>
    <path d="M0,0 L20,10 L20,30 L0,40 Z" class="cell_$procmux$129"/>
    <g s:x="0" s:y="10" s:pid="A"/>
    <g s:x="0" s:y="30" s:pid="B"/>
    <g s:x="10" s:y="35" s:pid="S"/>
    <g s:x="20" s:y="20" s:pid="Y"/>
  </g>
  <g s:type="mux" transform="translate(923.6666666666666,565.5)" s:width="20" s:height="40" id="cell_$procmux$131">
    <s:alias val="$pmux"/>
    <s:alias val="$mux"/>
    <s:alias val="$_MUX_"/>
    <path d="M0,0 L20,10 L20,30 L0,40 Z" class="cell_$procmux$131"/>
    <g s:x="0" s:y="10" s:pid="A"/>
    <g s:x="0" s:y="30" s:pid="B"/>
    <g s:x="10" s:y="35" s:pid="S"/>
    <g s:x="20" s:y="20" s:pid="Y"/>
  </g>
  <g s:type="mux" transform="translate(1019,555.5)" s:width="20" s:height="40" id="cell_$procmux$133">
    <s:alias val="$pmux"/>
    <s:alias val="$mux"/>
    <s:alias val="$_MUX_"/>
    <path d="M0,0 L20,10 L20,30 L0,40 Z" class="cell_$procmux$133"/>
    <g s:x="0" s:y="10" s:pid="A"/>
    <g s:x="0" s:y="30" s:pid="B"/>
    <g s:x="10" s:y="35" s:pid="S"/>
    <g s:x="20" s:y="20" s:pid="Y"/>
  </g>
  <g s:type="generic" transform="translate(633,158.5)" s:width="30" s:height="40" id="cell_leds0">
    <text x="15" y="-4" class="nodelabel cell_leds0" s:attribute="ref">$paramod\LEDS\BASE_ADDR=8'00010000\data_width=8</text>
    <rect width="30" height="100" s:generic="body" class="cell_leds0"/>
    <g transform="translate(0,10)" s:x="0" s:y="10" s:pid="in0" id="port_leds0~addr">
      <text x="-3" y="-4" class="inputPortLabel cell_leds0">addr</text>
    </g>
    <g transform="translate(0,30)" s:x="0" s:y="10" s:pid="in0" id="port_leds0~clk">
      <text x="-3" y="-4" class="inputPortLabel cell_leds0">clk</text>
    </g>
    <g transform="translate(0,50)" s:x="0" s:y="10" s:pid="in0" id="port_leds0~din">
      <text x="-3" y="-4" class="inputPortLabel cell_leds0">din</text>
    </g>
    <g transform="translate(0,70)" s:x="0" s:y="10" s:pid="in0" id="port_leds0~rst">
      <text x="-3" y="-4" class="inputPortLabel cell_leds0">rst</text>
    </g>
    <g transform="translate(0,90)" s:x="0" s:y="10" s:pid="in0" id="port_leds0~write_en">
      <text x="-3" y="-4" class="inputPortLabel cell_leds0">write_en</text>
    </g>
    <g transform="translate(30,10)" s:x="30" s:y="10" s:pid="out0" id="port_leds0~dout">
      <text x="5" y="-4" style="fill:#000; stroke:none" class="cell_leds0">dout</text>
    </g>
  </g>
  <g s:type="generic" transform="translate(928,185.5)" s:width="30" s:height="40" id="cell_ram0">
    <text x="15" y="-4" class="nodelabel cell_ram0" s:attribute="ref">$paramod\ram\data_width=8\ram_size=256\ROMFILE=0'</text>
    <rect width="30" height="120" s:generic="body" class="cell_ram0"/>
    <g transform="translate(0,10)" s:x="0" s:y="10" s:pid="in0" id="port_ram0~din">
      <text x="-3" y="-4" class="inputPortLabel cell_ram0">din</text>
    </g>
    <g transform="translate(0,30)" s:x="0" s:y="10" s:pid="in0" id="port_ram0~raddr">
      <text x="-3" y="-4" class="inputPortLabel cell_ram0">raddr</text>
    </g>
    <g transform="translate(0,50)" s:x="0" s:y="10" s:pid="in0" id="port_ram0~rclk">
      <text x="-3" y="-4" class="inputPortLabel cell_ram0">rclk</text>
    </g>
    <g transform="translate(0,70)" s:x="0" s:y="10" s:pid="in0" id="port_ram0~waddr">
      <text x="-3" y="-4" class="inputPortLabel cell_ram0">waddr</text>
    </g>
    <g transform="translate(0,90)" s:x="0" s:y="10" s:pid="in0" id="port_ram0~wclk">
      <text x="-3" y="-4" class="inputPortLabel cell_ram0">wclk</text>
    </g>
    <g transform="translate(0,110)" s:x="0" s:y="10" s:pid="in0" id="port_ram0~write_en">
      <text x="-3" y="-4" class="inputPortLabel cell_ram0">write_en</text>
    </g>
    <g transform="translate(30,10)" s:x="30" s:y="10" s:pid="out0" id="port_ram0~dout">
      <text x="5" y="-4" style="fill:#000; stroke:none" class="cell_ram0">dout</text>
    </g>
  </g>
  <g s:type="generic" transform="translate(488,441)" s:width="30" s:height="40" id="cell_rand0">
    <text x="15" y="-4" class="nodelabel cell_rand0" s:attribute="ref">RAND</text>
    <rect width="30" height="100" s:generic="body" class="cell_rand0"/>
    <g transform="translate(0,10)" s:x="0" s:y="10" s:pid="in0" id="port_rand0~addr">
      <text x="-3" y="-4" class="inputPortLabel cell_rand0">addr</text>
    </g>
    <g transform="translate(0,30)" s:x="0" s:y="10" s:pid="in0" id="port_rand0~clk">
      <text x="-3" y="-4" class="inputPortLabel cell_rand0">clk</text>
    </g>
    <g transform="translate(0,50)" s:x="0" s:y="10" s:pid="in0" id="port_rand0~din">
      <text x="-3" y="-4" class="inputPortLabel cell_rand0">din</text>
    </g>
    <g transform="translate(0,70)" s:x="0" s:y="10" s:pid="in0" id="port_rand0~rst">
      <text x="-3" y="-4" class="inputPortLabel cell_rand0">rst</text>
    </g>
    <g transform="translate(0,90)" s:x="0" s:y="10" s:pid="in0" id="port_rand0~write_en">
      <text x="-3" y="-4" class="inputPortLabel cell_rand0">write_en</text>
    </g>
    <g transform="translate(30,10)" s:x="30" s:y="10" s:pid="out0" id="port_rand0~dout">
      <text x="5" y="-4" style="fill:#000; stroke:none" class="cell_rand0">dout</text>
    </g>
  </g>
  <g s:type="generic" transform="translate(773,585)" s:width="30" s:height="40" id="cell_xalu0">
    <text x="15" y="-4" class="nodelabel cell_xalu0" s:attribute="ref">$paramod\XALU\BASE_ADDR=8'00000000\data_width=8</text>
    <rect width="30" height="100" s:generic="body" class="cell_xalu0"/>
    <g transform="translate(0,10)" s:x="0" s:y="10" s:pid="in0" id="port_xalu0~addr">
      <text x="-3" y="-4" class="inputPortLabel cell_xalu0">addr</text>
    </g>
    <g transform="translate(0,30)" s:x="0" s:y="10" s:pid="in0" id="port_xalu0~clk">
      <text x="-3" y="-4" class="inputPortLabel cell_xalu0">clk</text>
    </g>
    <g transform="translate(0,50)" s:x="0" s:y="10" s:pid="in0" id="port_xalu0~din">
      <text x="-3" y="-4" class="inputPortLabel cell_xalu0">din</text>
    </g>
    <g transform="translate(0,70)" s:x="0" s:y="10" s:pid="in0" id="port_xalu0~rst">
      <text x="-3" y="-4" class="inputPortLabel cell_xalu0">rst</text>
    </g>
    <g transform="translate(0,90)" s:x="0" s:y="10" s:pid="in0" id="port_xalu0~write_en">
      <text x="-3" y="-4" class="inputPortLabel cell_xalu0">write_en</text>
    </g>
    <g transform="translate(30,10)" s:x="30" s:y="10" s:pid="out0" id="port_xalu0~dout">
      <text x="5" y="-4" style="fill:#000; stroke:none" class="cell_xalu0">dout</text>
    </g>
  </g>
  <g s:type="inputExt" transform="translate(237,108)" s:width="30" s:height="20" id="cell_clk">
    <text x="15" y="-4" class="nodelabel cell_clk" s:attribute="ref">clk</text>
    <s:alias val="$_inputExt_"/>
    <path d="M0,0 L0,20 L15,20 L30,10 L15,0 Z" class="cell_clk"/>
    <g s:x="28" s:y="10" s:pid="Y"/>
  </g>
  <g s:type="inputExt" transform="translate(12,66)" s:width="30" s:height="20" id="cell_addr">
    <text x="15" y="-4" class="nodelabel cell_addr" s:attribute="ref">addr</text>
    <s:alias val="$_inputExt_"/>
    <path d="M0,0 L0,20 L15,20 L30,10 L15,0 Z" class="cell_addr"/>
    <g s:x="28" s:y="10" s:pid="Y"/>
  </g>
  <g s:type="inputExt" transform="translate(237,173)" s:width="30" s:height="20" id="cell_din">
    <text x="15" y="-4" class="nodelabel cell_din" s:attribute="ref">din</text>
    <s:alias val="$_inputExt_"/>
    <path d="M0,0 L0,20 L15,20 L30,10 L15,0 Z" class="cell_din"/>
    <g s:x="28" s:y="10" s:pid="Y"/>
  </g>
  <g s:type="inputExt" transform="translate(147,346.5)" s:width="30" s:height="20" id="cell_write_en">
    <text x="15" y="-4" class="nodelabel cell_write_en" s:attribute="ref">write_en</text>
    <s:alias val="$_inputExt_"/>
    <path d="M0,0 L0,20 L15,20 L30,10 L15,0 Z" class="cell_write_en"/>
    <g s:x="28" s:y="10" s:pid="Y"/>
  </g>
  <g s:type="inputExt" transform="translate(77,494)" s:width="30" s:height="20" id="cell_mmio">
    <text x="15" y="-4" class="nodelabel cell_mmio" s:attribute="ref">mmio</text>
    <s:alias val="$_inputExt_"/>
    <path d="M0,0 L0,20 L15,20 L30,10 L15,0 Z" class="cell_mmio"/>
    <g s:x="28" s:y="10" s:pid="Y"/>
  </g>
  <g s:type="inputExt" transform="translate(237,464)" s:width="30" s:height="20" id="cell_rst">
    <text x="15" y="-4" class="nodelabel cell_rst" s:attribute="ref">rst</text>
    <s:alias val="$_inputExt_"/>
    <path d="M0,0 L0,20 L15,20 L30,10 L15,0 Z" class="cell_rst"/>
    <g s:x="28" s:y="10" s:pid="Y"/>
  </g>
  <g s:type="outputExt" transform="translate(1074,565.5)" s:width="30" s:height="20" id="cell_dout">
    <text x="15" y="-4" class="nodelabel cell_dout" s:attribute="ref">dout</text>
    <s:alias val="$_outputExt_"/>
    <path d="M30,0 L30,20 L15,20 L0,10 L15,0 Z" class="cell_dout"/>
    <g s:x="0" s:y="10" s:pid="A"/>
  </g>
  <g s:type="outputExt" transform="translate(1074,22)" s:width="30" s:height="20" id="cell_o_leds">
    <text x="15" y="-4" class="nodelabel cell_o_leds" s:attribute="ref">o_leds</text>
    <s:alias val="$_outputExt_"/>
    <path d="M30,0 L30,20 L15,20 L0,10 L15,0 Z" class="cell_o_leds"/>
    <g s:x="0" s:y="10" s:pid="A"/>
  </g>
  <g s:type="constant" transform="translate(77,411.5)" s:width="30" s:height="20" id="cell_10000">
    <text x="15" y="-4" class="nodelabel cell_10000" s:attribute="ref">0x10</text>
    <s:alias val="$_constant_"/>
    <rect width="30" height="20" class="cell_10000"/>
    <g s:x="30" s:y="10" s:pid="Y"/>
  </g>
  <g s:type="constant" transform="translate(12,559)" s:width="30" s:height="20" id="cell_10001">
    <text x="15" y="-4" class="nodelabel cell_10001" s:attribute="ref">0x11</text>
    <s:alias val="$_constant_"/>
    <rect width="30" height="20" class="cell_10001"/>
    <g s:x="30" s:y="10" s:pid="Y"/>
  </g>
  <g s:type="constant" transform="translate(488,376)" s:width="30" s:height="20" id="cell_00000000">
    <text x="15" y="-4" class="nodelabel cell_00000000" s:attribute="ref">0x0</text>
    <s:alias val="$_constant_"/>
    <rect width="30" height="20" class="cell_00000000"/>
    <g s:x="30" s:y="10" s:pid="Y"/>
  </g>
  <g s:type="split" transform="translate(171,700)" s:width="5" s:height="40" id="cell_$split$,3,4,5,6,7,8,9,10,">
    <rect width="5" height="20" class="splitjoinBody" s:generic="body"/>
    <s:alias val="$_split_"/>
    <g s:x="0" s:y="20" s:pid="in"/>
    <g transform="translate(4,10)" s:x="4" s:y="10" s:pid="out0">
      <text x="5" y="-4">4:7</text>
    </g>
  </g>
  <line x1="105" x2="127" y1="504" y2="504" class="net_20"/>
  <line x1="127" x2="127" y1="504" y2="679" class="net_20"/>
  <line x1="127" x2="379" y1="679" y2="679" class="net_20"/>
  <line x1="379" x2="379" y1="679" y2="695.5" class="net_20"/>
  <circle cx="127" cy="504" r="2" style="fill:#000" class="net_20"/>
  <circle cx="127" cy="679" r="2" style="fill:#000" class="net_20"/>
  <line x1="379" x2="480.3333333333333" y1="695.5" y2="695.5" class="net_20"/>
  <line x1="105" x2="127" y1="504" y2="504" class="net_20"/>
  <line x1="127" x2="127" y1="504" y2="325.5" class="net_20"/>
  <line x1="127" x2="215" y1="325.5" y2="325.5" class="net_20"/>
  <line x1="215" x2="215" y1="325.5" y2="399" class="net_20"/>
  <circle cx="127" cy="325.5" r="2" style="fill:#000" class="net_20"/>
  <line x1="215" x2="268.6666666666667" y1="399" y2="399" class="net_20"/>
  <line x1="105" x2="127" y1="504" y2="504" class="net_20"/>
  <line x1="127" x2="127" y1="504" y2="546.5" class="net_20"/>
  <circle cx="127" cy="546.5" r="2" style="fill:#000" class="net_20"/>
  <line x1="127" x2="153" y1="546.5" y2="546.5" class="net_20"/>
  <line x1="105" x2="127" y1="504" y2="504" class="net_20"/>
  <line x1="127" x2="127" y1="504" y2="303.5" class="net_20"/>
  <line x1="127" x2="621.5" y1="303.5" y2="303.5" class="net_20"/>
  <line x1="105" x2="127" y1="504" y2="504" class="net_20"/>
  <line x1="127" x2="127" y1="504" y2="743" class="net_20"/>
  <line x1="127" x2="1029" y1="743" y2="743" class="net_20"/>
  <line x1="1029" x2="1029" y1="743" y2="590.5" class="net_20"/>
  <line x1="268" x2="480.3333333333333" y1="710.5" y2="710.5" class="net_38"/>
  <line x1="179.66666666666666" x2="268.6666666666667" y1="414" y2="414" class="net_40"/>
  <line x1="103.66666666666667" x2="153" y1="561.5" y2="561.5" class="net_42"/>
  <line x1="175" x2="205" y1="356.5" y2="356.5" class="net_19"/>
  <line x1="205" x2="205" y1="356.5" y2="282.5" class="net_19"/>
  <line x1="205" x2="699" y1="282.5" y2="282.5" class="net_19"/>
  <line x1="699" x2="699" y1="282.5" y2="288.5" class="net_19"/>
  <circle cx="205" cy="356.5" r="2" style="fill:#000" class="net_19"/>
  <circle cx="205" cy="282.5" r="2" style="fill:#000" class="net_19"/>
  <line x1="699" x2="765.3333333333334" y1="288.5" y2="288.5" class="net_19"/>
  <line x1="175" x2="205" y1="356.5" y2="356.5" class="net_19"/>
  <line x1="205" x2="205" y1="356.5" y2="668" class="net_19"/>
  <line x1="205" x2="625.3333333333334" y1="668" y2="668" class="net_19"/>
  <line x1="175" x2="205" y1="356.5" y2="356.5" class="net_19"/>
  <line x1="205" x2="205" y1="356.5" y2="87" class="net_19"/>
  <line x1="205" x2="429" y1="87" y2="87" class="net_19"/>
  <line x1="429" x2="429" y1="87" y2="199" class="net_19"/>
  <line x1="429" x2="480.3333333333333" y1="199" y2="199" class="net_19"/>
  <line x1="175" x2="205" y1="356.5" y2="356.5" class="net_19"/>
  <line x1="205" x2="205" y1="356.5" y2="524" class="net_19"/>
  <circle cx="205" cy="524" r="2" style="fill:#000" class="net_19"/>
  <line x1="205" x2="268.6666666666667" y1="524" y2="524" class="net_19"/>
  <line x1="646.5" x2="765.3333333333334" y1="303.5" y2="303.5" class="net_44"/>
  <line x1="510.3333333333333" x2="554" y1="703" y2="703" class="net_39"/>
  <line x1="554" x2="554" y1="703" y2="683" class="net_39"/>
  <circle cx="554" cy="703" r="2" style="fill:#000" class="net_39"/>
  <line x1="554" x2="625.3333333333334" y1="683" y2="683" class="net_39"/>
  <line x1="510.3333333333333" x2="933.6666666666666" y1="703" y2="703" class="net_39"/>
  <line x1="933.6666666666666" x2="933.6666666666666" y1="703" y2="600.5" class="net_39"/>
  <line x1="298.6666666666667" x2="379" y1="406.5" y2="406.5" class="net_41"/>
  <line x1="379" x2="379" y1="406.5" y2="214" class="net_41"/>
  <circle cx="379" cy="406.5" r="2" style="fill:#000" class="net_41"/>
  <line x1="379" x2="480.3333333333333" y1="214" y2="214" class="net_41"/>
  <line x1="298.6666666666667" x2="379" y1="406.5" y2="406.5" class="net_41"/>
  <line x1="379" x2="379" y1="406.5" y2="565" class="net_41"/>
  <line x1="379" x2="778.6666666666666" y1="565" y2="565" class="net_41"/>
  <line x1="778.6666666666666" x2="778.6666666666666" y1="565" y2="466.5" class="net_41"/>
  <line x1="183" x2="215" y1="554" y2="554" class="net_43"/>
  <line x1="215" x2="215" y1="554" y2="539" class="net_43"/>
  <circle cx="215" cy="554" r="2" style="fill:#000" class="net_43"/>
  <line x1="215" x2="268.6666666666667" y1="539" y2="539" class="net_43"/>
  <line x1="183" x2="638.6666666666666" y1="554" y2="554" class="net_43"/>
  <line x1="638.6666666666666" x2="638.6666666666666" y1="554" y2="456.5" class="net_43"/>
  <line x1="176" x2="237" y1="710.5" y2="710.5" class="net_7,8,9,10"/>
  <line x1="40" x2="137" y1="76" y2="76" class="net_3,4,5,6,7,8,9,10"/>
  <line x1="137" x2="137" y1="76" y2="406.5" class="net_3,4,5,6,7,8,9,10"/>
  <line x1="137" x2="157.66666666666666" y1="406.5" y2="406.5" class="net_3,4,5,6,7,8,9,10"/>
  <line x1="40" x2="52" y1="76" y2="76" class="net_3,4,5,6,7,8,9,10"/>
  <line x1="52" x2="52" y1="76" y2="554" class="net_3,4,5,6,7,8,9,10"/>
  <circle cx="52" cy="76" r="2" style="fill:#000" class="net_3,4,5,6,7,8,9,10"/>
  <circle cx="52" cy="554" r="2" style="fill:#000" class="net_3,4,5,6,7,8,9,10"/>
  <line x1="52" x2="81.66666666666667" y1="554" y2="554" class="net_3,4,5,6,7,8,9,10"/>
  <line x1="40" x2="554" y1="76" y2="76" class="net_3,4,5,6,7,8,9,10"/>
  <line x1="554" x2="554" y1="76" y2="169" class="net_3,4,5,6,7,8,9,10"/>
  <circle cx="554" cy="76" r="2" style="fill:#000" class="net_3,4,5,6,7,8,9,10"/>
  <line x1="554" x2="633" y1="169" y2="169" class="net_3,4,5,6,7,8,9,10"/>
  <line x1="40" x2="409" y1="76" y2="76" class="net_3,4,5,6,7,8,9,10"/>
  <line x1="409" x2="409" y1="76" y2="54" class="net_3,4,5,6,7,8,9,10"/>
  <line x1="409" x2="859" y1="54" y2="54" class="net_3,4,5,6,7,8,9,10"/>
  <line x1="859" x2="859" y1="54" y2="216" class="net_3,4,5,6,7,8,9,10"/>
  <circle cx="409" cy="76" r="2" style="fill:#000" class="net_3,4,5,6,7,8,9,10"/>
  <line x1="859" x2="928" y1="216" y2="216" class="net_3,4,5,6,7,8,9,10"/>
  <line x1="40" x2="839" y1="76" y2="76" class="net_3,4,5,6,7,8,9,10"/>
  <line x1="839" x2="839" y1="76" y2="256" class="net_3,4,5,6,7,8,9,10"/>
  <line x1="839" x2="928" y1="256" y2="256" class="net_3,4,5,6,7,8,9,10"/>
  <line x1="40" x2="137" y1="76" y2="76" class="net_3,4,5,6,7,8,9,10"/>
  <line x1="137" x2="137" y1="76" y2="314.5" class="net_3,4,5,6,7,8,9,10"/>
  <line x1="137" x2="409" y1="314.5" y2="314.5" class="net_3,4,5,6,7,8,9,10"/>
  <line x1="409" x2="409" y1="314.5" y2="451.5" class="net_3,4,5,6,7,8,9,10"/>
  <circle cx="137" cy="76" r="2" style="fill:#000" class="net_3,4,5,6,7,8,9,10"/>
  <circle cx="137" cy="314.5" r="2" style="fill:#000" class="net_3,4,5,6,7,8,9,10"/>
  <line x1="409" x2="488" y1="451.5" y2="451.5" class="net_3,4,5,6,7,8,9,10"/>
  <line x1="40" x2="52" y1="76" y2="76" class="net_3,4,5,6,7,8,9,10"/>
  <line x1="52" x2="52" y1="76" y2="733" class="net_3,4,5,6,7,8,9,10"/>
  <line x1="52" x2="117" y1="733" y2="733" class="net_3,4,5,6,7,8,9,10"/>
  <line x1="117" x2="117" y1="733" y2="595.5" class="net_3,4,5,6,7,8,9,10"/>
  <circle cx="117" cy="733" r="2" style="fill:#000" class="net_3,4,5,6,7,8,9,10"/>
  <line x1="117" x2="773" y1="595.5" y2="595.5" class="net_3,4,5,6,7,8,9,10"/>
  <line x1="40" x2="52" y1="76" y2="76" class="net_3,4,5,6,7,8,9,10"/>
  <line x1="52" x2="52" y1="76" y2="733" class="net_3,4,5,6,7,8,9,10"/>
  <line x1="52" x2="171.5" y1="733" y2="733" class="net_3,4,5,6,7,8,9,10"/>
  <line x1="171.5" x2="171.5" y1="733" y2="721" class="net_3,4,5,6,7,8,9,10"/>
  <line x1="107" x2="157.66666666666666" y1="421.5" y2="421.5" class="net_97,98,99,100,101"/>
  <line x1="42" x2="81.66666666666667" y1="569" y2="569" class="net_102,103,104,105,106"/>
  <line x1="518" x2="554" y1="386" y2="386" class="net_107,108,109,110,111,112,113,114"/>
  <line x1="554" x2="554" y1="386" y2="431.5" class="net_107,108,109,110,111,112,113,114"/>
  <line x1="554" x2="628.6666666666666" y1="431.5" y2="431.5" class="net_107,108,109,110,111,112,113,114"/>
  <line x1="519" x2="628.6666666666666" y1="451.5" y2="451.5" class="net_49,50,51,52,53,54,55,56"/>
  <line x1="648.6666666666666" x2="768.6666666666666" y1="441.5" y2="441.5" class="net_57,58,59,60,61,62,63,64"/>
  <line x1="664" x2="709" y1="169" y2="169" class="net_30,31,32,33,34,35,36,37"/>
  <line x1="709" x2="709" y1="169" y2="461.5" class="net_30,31,32,33,34,35,36,37"/>
  <circle cx="709" cy="169" r="2" style="fill:#000" class="net_30,31,32,33,34,35,36,37"/>
  <line x1="709" x2="768.6666666666666" y1="461.5" y2="461.5" class="net_30,31,32,33,34,35,36,37"/>
  <line x1="664" x2="709" y1="169" y2="169" class="net_30,31,32,33,34,35,36,37"/>
  <line x1="709" x2="709" y1="169" y2="32" class="net_30,31,32,33,34,35,36,37"/>
  <line x1="709" x2="1074" y1="32" y2="32" class="net_30,31,32,33,34,35,36,37"/>
  <line x1="788.6666666666666" x2="839" y1="451.5" y2="451.5" class="net_65,66,67,68,69,70,71,72"/>
  <line x1="839" x2="839" y1="451.5" y2="575.5" class="net_65,66,67,68,69,70,71,72"/>
  <line x1="839" x2="923.6666666666666" y1="575.5" y2="575.5" class="net_65,66,67,68,69,70,71,72"/>
  <line x1="804" x2="923.6666666666666" y1="595.5" y2="595.5" class="net_73,74,75,76,77,78,79,80"/>
  <line x1="959" x2="994" y1="196" y2="196" class="net_89,90,91,92,93,94,95,96"/>
  <line x1="994" x2="994" y1="196" y2="565.5" class="net_89,90,91,92,93,94,95,96"/>
  <line x1="994" x2="1019" y1="565.5" y2="565.5" class="net_89,90,91,92,93,94,95,96"/>
  <line x1="943.6666666666666" x2="1019" y1="585.5" y2="585.5" class="net_81,82,83,84,85,86,87,88"/>
  <line x1="265" x2="419" y1="118" y2="118" class="net_2"/>
  <line x1="419" x2="419" y1="118" y2="172" class="net_2"/>
  <line x1="419" x2="574" y1="172" y2="172" class="net_2"/>
  <line x1="574" x2="574" y1="172" y2="189" class="net_2"/>
  <circle cx="419" cy="118" r="2" style="fill:#000" class="net_2"/>
  <circle cx="419" cy="172" r="2" style="fill:#000" class="net_2"/>
  <line x1="574" x2="633" y1="189" y2="189" class="net_2"/>
  <line x1="265" x2="419" y1="118" y2="118" class="net_2"/>
  <line x1="419" x2="419" y1="118" y2="65" class="net_2"/>
  <line x1="419" x2="849" y1="65" y2="65" class="net_2"/>
  <line x1="849" x2="849" y1="65" y2="236" class="net_2"/>
  <line x1="849" x2="928" y1="236" y2="236" class="net_2"/>
  <line x1="265" x2="419" y1="118" y2="118" class="net_2"/>
  <line x1="419" x2="419" y1="118" y2="271.5" class="net_2"/>
  <line x1="419" x2="839" y1="271.5" y2="271.5" class="net_2"/>
  <line x1="839" x2="839" y1="271.5" y2="276" class="net_2"/>
  <circle cx="419" cy="271.5" r="2" style="fill:#000" class="net_2"/>
  <line x1="839" x2="928" y1="276" y2="276" class="net_2"/>
  <line x1="265" x2="419" y1="118" y2="118" class="net_2"/>
  <line x1="419" x2="419" y1="118" y2="471.5" class="net_2"/>
  <circle cx="419" cy="471.5" r="2" style="fill:#000" class="net_2"/>
  <line x1="419" x2="488" y1="471.5" y2="471.5" class="net_2"/>
  <line x1="265" x2="419" y1="118" y2="118" class="net_2"/>
  <line x1="419" x2="419" y1="118" y2="615.5" class="net_2"/>
  <line x1="419" x2="773" y1="615.5" y2="615.5" class="net_2"/>
  <line x1="265" x2="564" y1="183" y2="183" class="net_11,12,13,14,15,16,17,18"/>
  <line x1="564" x2="564" y1="183" y2="209" class="net_11,12,13,14,15,16,17,18"/>
  <line x1="564" x2="633" y1="209" y2="209" class="net_11,12,13,14,15,16,17,18"/>
  <line x1="265" x2="399" y1="183" y2="183" class="net_11,12,13,14,15,16,17,18"/>
  <line x1="399" x2="399" y1="183" y2="43" class="net_11,12,13,14,15,16,17,18"/>
  <line x1="399" x2="869" y1="43" y2="43" class="net_11,12,13,14,15,16,17,18"/>
  <line x1="869" x2="869" y1="43" y2="196" class="net_11,12,13,14,15,16,17,18"/>
  <circle cx="399" cy="183" r="2" style="fill:#000" class="net_11,12,13,14,15,16,17,18"/>
  <line x1="869" x2="928" y1="196" y2="196" class="net_11,12,13,14,15,16,17,18"/>
  <line x1="265" x2="399" y1="183" y2="183" class="net_11,12,13,14,15,16,17,18"/>
  <line x1="399" x2="399" y1="183" y2="491.5" class="net_11,12,13,14,15,16,17,18"/>
  <circle cx="399" cy="491.5" r="2" style="fill:#000" class="net_11,12,13,14,15,16,17,18"/>
  <line x1="399" x2="488" y1="491.5" y2="491.5" class="net_11,12,13,14,15,16,17,18"/>
  <line x1="265" x2="399" y1="183" y2="183" class="net_11,12,13,14,15,16,17,18"/>
  <line x1="399" x2="399" y1="183" y2="635.5" class="net_11,12,13,14,15,16,17,18"/>
  <line x1="399" x2="773" y1="635.5" y2="635.5" class="net_11,12,13,14,15,16,17,18"/>
  <line x1="265" x2="389" y1="474" y2="474" class="net_21"/>
  <line x1="389" x2="389" y1="474" y2="229" class="net_21"/>
  <circle cx="389" cy="474" r="2" style="fill:#000" class="net_21"/>
  <line x1="389" x2="633" y1="229" y2="229" class="net_21"/>
  <line x1="265" x2="389" y1="474" y2="474" class="net_21"/>
  <line x1="389" x2="389" y1="474" y2="511.5" class="net_21"/>
  <circle cx="389" cy="511.5" r="2" style="fill:#000" class="net_21"/>
  <line x1="389" x2="488" y1="511.5" y2="511.5" class="net_21"/>
  <line x1="265" x2="389" y1="474" y2="474" class="net_21"/>
  <line x1="389" x2="389" y1="474" y2="652" class="net_21"/>
  <line x1="389" x2="699" y1="652" y2="652" class="net_21"/>
  <line x1="699" x2="699" y1="652" y2="655.5" class="net_21"/>
  <line x1="699" x2="773" y1="655.5" y2="655.5" class="net_21"/>
  <line x1="510.3333333333333" x2="554" y1="206.5" y2="206.5" class="net_47"/>
  <line x1="554" x2="554" y1="206.5" y2="249" class="net_47"/>
  <line x1="554" x2="633" y1="249" y2="249" class="net_47"/>
  <line x1="795.3333333333334" x2="928" y1="296" y2="296" class="net_45"/>
  <line x1="298.6666666666667" x2="488" y1="531.5" y2="531.5" class="net_48"/>
  <line x1="655.3333333333334" x2="773" y1="675.5" y2="675.5" class="net_46"/>
  <line x1="1039" x2="1074" y1="575.5" y2="575.5" class="net_22,23,24,25,26,27,28,29"/>
</svg>
