<?xml version="1.0" encoding="UTF-8" standalone="no"?>
<svg
   xmlns:s="https://github.com/nturley/netlistsvg"
   xmlns:dc="http://purl.org/dc/elements/1.1/"
   xmlns:cc="http://creativecommons.org/ns#"
   xmlns:rdf="http://www.w3.org/1999/02/22-rdf-syntax-ns#"
   xmlns:svg="http://www.w3.org/2000/svg"
   xmlns="http://www.w3.org/2000/svg"
   xmlns:sodipodi="http://sodipodi.sourceforge.net/DTD/sodipodi-0.dtd"
   xmlns:inkscape="http://www.inkscape.org/namespaces/inkscape"
   width="1613"
   height="614.5"
   id="svg2"
   version="1.1"
   inkscape:version="0.91 r13725"
   sodipodi:docname="mem_wrapper.svg">
  <metadata
     id="metadata560">
    <rdf:RDF>
      <cc:Work
         rdf:about="">
        <dc:format>image/svg+xml</dc:format>
        <dc:type
           rdf:resource="http://purl.org/dc/dcmitype/StillImage" />
      </cc:Work>
    </rdf:RDF>
  </metadata>
  <defs
     id="defs558" />
  <sodipodi:namedview
     pagecolor="#ffffff"
     bordercolor="#666666"
     borderopacity="1"
     objecttolerance="10"
     gridtolerance="10"
     guidetolerance="10"
     inkscape:pageopacity="0"
     inkscape:pageshadow="2"
     inkscape:window-width="1680"
     inkscape:window-height="1003"
     id="namedview556"
     showgrid="false"
     inkscape:zoom="1.5623063"
     inkscape:cx="924.9722"
     inkscape:cy="-24.17515"
     inkscape:window-x="0"
     inkscape:window-y="0"
     inkscape:window-maximized="1"
     inkscape:current-layer="svg2" />
  <style
     id="style4">svg {
    stroke:#000;
    fill:none;
  }
  text {
    fill:#000;
    stroke:none;
    font-size:10px;
    font-weight: bold;
    font-family: &quot;Courier New&quot;, monospace;
  }
  .nodelabel {
    text-anchor: middle;
  }
  .inputPortLabel {
    text-anchor: end;
  }
  .splitjoinBody {
    fill:#000;
  }</style>
  <g
     s:type="inputExt"
     transform="translate(260,216)"
     s:width="30"
     s:height="20"
     id="g6">
    <text
       x="15"
       y="-4"
       class="nodelabel"
       s:attribute="ref"
       id="text8">clk</text>
    <s:alias
       val="$_inputExt_" />
    <path
       d="M0,0 L0,20 L15,20 L30,10 L15,0 Z"
       id="path10" />
    <g
       s:x="28"
       s:y="10"
       s:pid="Y"
       id="g12" />
  </g>
  <g
     s:type="inputExt"
     transform="translate(12,76.5)"
     s:width="30"
     s:height="20"
     id="g14">
    <text
       x="15"
       y="-4"
       class="nodelabel"
       s:attribute="ref"
       id="text16">addr</text>
    <s:alias
       val="$_inputExt_" />
    <path
       d="M0,0 L0,20 L15,20 L30,10 L15,0 Z"
       id="path18" />
    <g
       s:x="28"
       s:y="10"
       s:pid="Y"
       id="g20" />
  </g>
  <g
     s:type="inputExt"
     transform="translate(260,261)"
     s:width="30"
     s:height="20"
     id="g22">
    <text
       x="15"
       y="-4"
       class="nodelabel"
       s:attribute="ref"
       id="text24">din</text>
    <s:alias
       val="$_inputExt_" />
    <path
       d="M0,0 L0,20 L15,20 L30,10 L15,0 Z"
       id="path26" />
    <g
       s:x="28"
       s:y="10"
       s:pid="Y"
       id="g28" />
  </g>
  <g
     s:type="inputExt"
     transform="translate(171,311)"
     s:width="30"
     s:height="20"
     id="g30">
    <text
       x="15"
       y="-4"
       class="nodelabel"
       s:attribute="ref"
       id="text32">write_en</text>
    <s:alias
       val="$_inputExt_" />
    <path
       d="M0,0 L0,20 L15,20 L30,10 L15,0 Z"
       id="path34" />
    <g
       s:x="28"
       s:y="10"
       s:pid="Y"
       id="g36" />
  </g>
  <g
     s:type="inputExt"
     transform="translate(89,361)"
     s:width="30"
     s:height="20"
     id="g38">
    <text
       x="15"
       y="-4"
       class="nodelabel"
       s:attribute="ref"
       id="text40">mmio</text>
    <s:alias
       val="$_inputExt_" />
    <path
       d="M0,0 L0,20 L15,20 L30,10 L15,0 Z"
       id="path42" />
    <g
       s:x="28"
       s:y="10"
       s:pid="Y"
       id="g44" />
  </g>
  <g
     s:type="outputExt"
     transform="translate(1559,389.5)"
     s:width="30"
     s:height="20"
     id="g46">
    <text
       x="15"
       y="-4"
       class="nodelabel"
       s:attribute="ref"
       id="text48">dout</text>
    <s:alias
       val="$_outputExt_" />
    <path
       d="M30,0 L30,20 L15,20 L0,10 L15,0 Z"
       id="path50" />
    <g
       s:x="0"
       s:y="10"
       s:pid="A"
       id="g52" />
  </g>
  <g
     s:type="and"
     transform="translate(263,509.5)"
     s:width="30"
     s:height="25"
     id="g54">
    <s:alias
       val="$and" />
    <s:alias
       val="$logic_and" />
    <s:alias
       val="$_AND_" />
    <path
       d="M0,0 L0,25 L15,25 A15 12.5 0 0 0 15,0 Z"
       id="path56" />
    <g
       s:x="0"
       s:y="5"
       s:pid="A"
       id="g58" />
    <g
       s:x="0"
       s:y="20"
       s:pid="B"
       id="g60" />
    <g
       s:x="30"
       s:y="12.5"
       s:pid="Y"
       id="g62" />
  </g>
  <g
     s:type="and"
     transform="translate(181.33333333333334,366)"
     s:width="30"
     s:height="25"
     id="g64">
    <s:alias
       val="$and" />
    <s:alias
       val="$logic_and" />
    <s:alias
       val="$_AND_" />
    <path
       d="M0,0 L0,25 L15,25 A15 12.5 0 0 0 15,0 Z"
       id="path66" />
    <g
       s:x="0"
       s:y="5"
       s:pid="A"
       id="g68" />
    <g
       s:x="0"
       s:y="20"
       s:pid="B"
       id="g70" />
    <g
       s:x="30"
       s:y="12.5"
       s:pid="Y"
       id="g72" />
  </g>
  <g
     s:type="and"
     transform="translate(851.6666666666666,114)"
     s:width="30"
     s:height="25"
     id="g74">
    <s:alias
       val="$and" />
    <s:alias
       val="$logic_and" />
    <s:alias
       val="$_AND_" />
    <path
       d="M0,0 L0,25 L15,25 A15 12.5 0 0 0 15,0 Z"
       id="path76" />
    <g
       s:x="0"
       s:y="5"
       s:pid="A"
       id="g78" />
    <g
       s:x="0"
       s:y="20"
       s:pid="B"
       id="g80" />
    <g
       s:x="30"
       s:y="12.5"
       s:pid="Y"
       id="g82" />
  </g>
  <g
     s:type="and"
     transform="translate(470.66666666666663,487)"
     s:width="30"
     s:height="25"
     id="g84">
    <s:alias
       val="$and" />
    <s:alias
       val="$logic_and" />
    <s:alias
       val="$_AND_" />
    <path
       d="M0,0 L0,25 L15,25 A15 12.5 0 0 0 15,0 Z"
       id="path86" />
    <g
       s:x="0"
       s:y="5"
       s:pid="A"
       id="g88" />
    <g
       s:x="0"
       s:y="20"
       s:pid="B"
       id="g90" />
    <g
       s:x="30"
       s:y="12.5"
       s:pid="Y"
       id="g92" />
  </g>
  <g
     s:type="and"
     transform="translate(263,316)"
     s:width="30"
     s:height="25"
     id="g94">
    <s:alias
       val="$and" />
    <s:alias
       val="$logic_and" />
    <s:alias
       val="$_AND_" />
    <path
       d="M0,0 L0,25 L15,25 A15 12.5 0 0 0 15,0 Z"
       id="path96" />
    <g
       s:x="0"
       s:y="5"
       s:pid="A"
       id="g98" />
    <g
       s:x="0"
       s:y="20"
       s:pid="B"
       id="g100" />
    <g
       s:x="30"
       s:y="12.5"
       s:pid="Y"
       id="g102" />
  </g>
  <g
     s:type="eq"
     transform="translate(94.66666666666667,297)"
     s:width="25"
     s:height="25"
     id="g104">
    <s:alias
       val="$eq" />
    <circle
       r="12.5"
       cx="12.5"
       cy="12.5"
       id="circle106" />
    <line
       x1="7.5"
       x2="17.5"
       y1="10"
       y2="10"
       id="line108" />
    <line
       x1="7.5"
       x2="17.5"
       y1="15"
       y2="15"
       id="line110" />
    <g
       s:x="3"
       s:y="5"
       s:pid="A"
       id="g112" />
    <g
       s:x="3"
       s:y="20"
       s:pid="B"
       id="g114" />
    <g
       s:x="25"
       s:y="12.5"
       s:pid="Y"
       id="g116" />
  </g>
  <g
     s:type="generic"
     transform="translate(181.33333333333334,559.5)"
     s:width="30"
     s:height="40"
     id="g118">
    <text
       x="15"
       y="-4"
       class="nodelabel"
       s:attribute="ref"
       id="text120">$le</text>
    <rect
       width="30"
       height="40"
       s:generic="body"
       id="rect122" />
    <g
       transform="translate(0,10)"
       s:x="0"
       s:y="10"
       s:pid="in0"
       id="g124">
      <text
         x="-3"
         y="-4"
         class="inputPortLabel"
         id="text126">A</text>
    </g>
    <g
       transform="translate(0,30)"
       s:x="0"
       s:y="10"
       s:pid="in0"
       id="g128">
      <text
         x="-3"
         y="-4"
         class="inputPortLabel"
         id="text130">B</text>
    </g>
    <g
       transform="translate(30,10)"
       s:x="30"
       s:y="10"
       s:pid="out0"
       id="g132">
      <text
         x="5"
         y="-4"
         style="fill:#000; stroke:none"
         id="text134">Y</text>
    </g>
  </g>
  <g
     s:type="not"
     transform="translate(507,124)"
     s:width="30"
     s:height="20"
     id="g136">
    <s:alias
       val="$_NOT_" />
    <s:alias
       val="$not" />
    <path
       d="M0,0 L0,20 L20,10 Z"
       id="path138" />
    <circle
       cx="23"
       cy="10"
       r="3"
       id="circle140" />
    <g
       s:x="0"
       s:y="10"
       s:pid="A"
       id="g142" />
    <g
       s:x="25"
       s:y="10"
       s:pid="Y"
       id="g144" />
  </g>
  <g
     s:type="mux"
     transform="translate(855,218.5)"
     s:width="20"
     s:height="40"
     id="g146">
    <s:alias
       val="$pmux" />
    <s:alias
       val="$mux" />
    <s:alias
       val="$_MUX_" />
    <path
       d="M0,0 L20,10 L20,30 L0,40 Z"
       id="path148" />
    <g
       s:x="0"
       s:y="10"
       s:pid="A"
       id="g150" />
    <g
       s:x="0"
       s:y="30"
       s:pid="B"
       id="g152" />
    <g
       s:x="10"
       s:y="35"
       s:pid="S"
       id="g154" />
    <g
       s:x="20"
       s:y="20"
       s:pid="Y"
       id="g156" />
  </g>
  <g
     s:type="mux"
     transform="translate(1240,389.5)"
     s:width="20"
     s:height="40"
     id="g158">
    <s:alias
       val="$pmux" />
    <s:alias
       val="$mux" />
    <s:alias
       val="$_MUX_" />
    <path
       d="M0,0 L20,10 L20,30 L0,40 Z"
       id="path160" />
    <g
       s:x="0"
       s:y="10"
       s:pid="A"
       id="g162" />
    <g
       s:x="0"
       s:y="30"
       s:pid="B"
       id="g164" />
    <g
       s:x="10"
       s:y="35"
       s:pid="S"
       id="g166" />
    <g
       s:x="20"
       s:y="20"
       s:pid="Y"
       id="g168" />
  </g>
  <g
     s:type="mux"
     transform="translate(1504,379.5)"
     s:width="20"
     s:height="40"
     id="g170">
    <s:alias
       val="$pmux" />
    <s:alias
       val="$mux" />
    <s:alias
       val="$_MUX_" />
    <path
       d="M0,0 L20,10 L20,30 L0,40 Z"
       id="path172" />
    <g
       s:x="0"
       s:y="10"
       s:pid="A"
       id="g174" />
    <g
       s:x="0"
       s:y="30"
       s:pid="B"
       id="g176" />
    <g
       s:x="10"
       s:y="35"
       s:pid="S"
       id="g178" />
    <g
       s:x="20"
       s:y="20"
       s:pid="Y"
       id="g180" />
  </g>
  <g
     s:type="generic"
     transform="translate(398,238)"
     s:width="30"
     s:height="40"
     id="g182">
    <text
       x="76.483688"
       y="-4.6628242"
       class="nodelabel"
       s:attribute="ref"
       id="text184"
       style="font-weight:bold;font-size:10px;font-family:'Courier New', monospace;text-anchor:middle;fill:#000000;stroke:none"><tspan
   style="fill:#ff0000;fill-opacity:1"
   id="tspan4688">LEDS</tspan>
\BASE_ADDR=8'00001010</text>
    <rect
       width="30"
       height="100"
       s:generic="body"
       id="rect186"
       style="stroke:#ff0000;stroke-opacity:1" />
    <g
       transform="translate(0,10)"
       s:x="0"
       s:y="10"
       s:pid="in0"
       id="g188">
      <text
         x="-3"
         y="-4"
         class="inputPortLabel"
         id="text190">addr</text>
    </g>
    <g
       transform="translate(0,30)"
       s:x="0"
       s:y="10"
       s:pid="in0"
       id="g192">
      <text
         x="-3"
         y="-4"
         class="inputPortLabel"
         id="text194">clk</text>
    </g>
    <g
       transform="translate(0,50)"
       s:x="0"
       s:y="10"
       s:pid="in0"
       id="g196">
      <text
         x="-3"
         y="-4"
         class="inputPortLabel"
         id="text198">din</text>
    </g>
    <g
       transform="translate(0,70)"
       s:x="0"
       s:y="10"
       s:pid="in0"
       id="g200">
      <text
         x="-3"
         y="-4"
         class="inputPortLabel"
         id="text202">rst</text>
    </g>
    <g
       transform="translate(0,90)"
       s:x="0"
       s:y="10"
       s:pid="in0"
       id="g204">
      <text
         x="-3"
         y="-4"
         class="inputPortLabel"
         id="text206">write_en</text>
    </g>
    <g
       transform="translate(30,10)"
       s:x="30"
       s:y="10"
       s:pid="out0"
       id="g208">
      <text
         x="5"
         y="-4"
         style="fill:#000; stroke:none"
         id="text210">dout</text>
    </g>
  </g>
  <g
     s:type="generic"
     transform="translate(1160,16)"
     s:width="30"
     s:height="40"
     id="g212">
    <text
       x="15"
       y="-4"
       class="nodelabel"
       s:attribute="ref"
       id="text214"
       style="font-weight:bold;font-size:10px;font-family:'Courier New', monospace;text-anchor:middle;fill:#000000;stroke:none">
      <tspan
         style="fill:#e404f6;fill-opacity:1"
         id="tspan6368">ram</tspan>
    </text>
    <rect
       width="30"
       height="120"
       s:generic="body"
       id="rect216"
       style="stroke:#f007fd;stroke-opacity:1" />
    <g
       transform="translate(0,10)"
       s:x="0"
       s:y="10"
       s:pid="in0"
       id="g218">
      <text
         x="-3"
         y="-4"
         class="inputPortLabel"
         id="text220">din</text>
    </g>
    <g
       transform="translate(0,30)"
       s:x="0"
       s:y="10"
       s:pid="in0"
       id="g222">
      <text
         x="-3"
         y="-4"
         class="inputPortLabel"
         id="text224">raddr</text>
    </g>
    <g
       transform="translate(0,50)"
       s:x="0"
       s:y="10"
       s:pid="in0"
       id="g226">
      <text
         x="-3"
         y="-4"
         class="inputPortLabel"
         id="text228">rclk</text>
    </g>
    <g
       transform="translate(0,70)"
       s:x="0"
       s:y="10"
       s:pid="in0"
       id="g230">
      <text
         x="-3"
         y="-4"
         class="inputPortLabel"
         id="text232">waddr</text>
    </g>
    <g
       transform="translate(0,90)"
       s:x="0"
       s:y="10"
       s:pid="in0"
       id="g234">
      <text
         x="-3"
         y="-4"
         class="inputPortLabel"
         id="text236">wclk</text>
    </g>
    <g
       transform="translate(0,110)"
       s:x="0"
       s:y="10"
       s:pid="in0"
       id="g238">
      <text
         x="-3"
         y="-4"
         class="inputPortLabel"
         id="text240">write_en</text>
    </g>
    <g
       transform="translate(30,10)"
       s:x="30"
       s:y="10"
       s:pid="out0"
       id="g242">
      <text
         x="5"
         y="-4"
         style="fill:#000; stroke:none"
         id="text244">dout</text>
    </g>
  </g>
  <g
     s:type="generic"
     transform="translate(779,409)"
     s:width="30"
     s:height="40"
     id="g246">
    <text
       x="78.364624"
       y="-7.168231"
       class="nodelabel"
       s:attribute="ref"
       id="text248"
       style="font-weight:bold;font-size:10px;font-family:'Courier New', monospace;text-anchor:middle;fill:#000000;stroke:none"><tspan
   style="fill:#1a04f8;fill-opacity:0.96116507"
   id="tspan4712">XALU</tspan>
\BASE_ADDR=8'00000000</text>
    <rect
       width="30"
       height="100"
       s:generic="body"
       id="rect250"
       style="stroke:#0c00ff;stroke-opacity:1" />
    <g
       transform="translate(0,10)"
       s:x="0"
       s:y="10"
       s:pid="in0"
       id="g252">
      <text
         x="-3"
         y="-4"
         class="inputPortLabel"
         id="text254">addr</text>
    </g>
    <g
       transform="translate(0,30)"
       s:x="0"
       s:y="10"
       s:pid="in0"
       id="g256">
      <text
         x="-3"
         y="-4"
         class="inputPortLabel"
         id="text258">clk</text>
    </g>
    <g
       transform="translate(0,50)"
       s:x="0"
       s:y="10"
       s:pid="in0"
       id="g260">
      <text
         x="-3"
         y="-4"
         class="inputPortLabel"
         id="text262">din</text>
    </g>
    <g
       transform="translate(0,70)"
       s:x="0"
       s:y="10"
       s:pid="in0"
       id="g264">
      <text
         x="-3"
         y="-4"
         class="inputPortLabel"
         id="text266">rst</text>
    </g>
    <g
       transform="translate(0,90)"
       s:x="0"
       s:y="10"
       s:pid="in0"
       id="g268">
      <text
         x="-3"
         y="-4"
         class="inputPortLabel"
         id="text270">write_en</text>
    </g>
    <g
       transform="translate(30,10)"
       s:x="30"
       s:y="10"
       s:pid="out0"
       id="g272">
      <text
         x="5"
         y="-4"
         style="fill:#000; stroke:none"
         id="text274">dout</text>
    </g>
  </g>
  <g
     s:type="constant"
     transform="translate(12,307)"
     s:width="30"
     s:height="20"
     id="g276">
    <text
       x="15"
       y="-4"
       class="nodelabel"
       s:attribute="ref"
       id="text278">0xa</text>
    <s:alias
       val="$_constant_" />
    <rect
       width="30"
       height="20"
       id="rect280" />
    <g
       s:x="30"
       s:y="10"
       s:pid="Y"
       id="g282" />
  </g>
  <g
     s:type="constant"
     transform="translate(89,580)"
     s:width="30"
     s:height="20"
     id="g284">
    <text
       x="15"
       y="-4"
       class="nodelabel"
       s:attribute="ref"
       id="text286">0x9</text>
    <s:alias
       val="$_constant_" />
    <rect
       width="30"
       height="20"
       id="rect288" />
    <g
       s:x="30"
       s:y="10"
       s:pid="Y"
       id="g290" />
  </g>
  <g
     s:type="constant"
     transform="translate(398,179)"
     s:width="30"
     s:height="20"
     id="g292">
    <text
       x="15"
       y="-4"
       class="nodelabel"
       s:attribute="ref"
       id="text294">0x0</text>
    <s:alias
       val="$_constant_" />
    <rect
       width="30"
       height="20"
       id="rect296" />
    <g
       s:x="30"
       s:y="10"
       s:pid="Y"
       id="g298" />
  </g>
  <g
     s:type="constant"
     transform="translate(260,389.5)"
     s:width="30"
     s:height="20"
     id="g300">
    <text
       x="15"
       y="-4"
       class="nodelabel"
       s:attribute="ref"
       id="text302">0</text>
    <s:alias
       val="$_constant_" />
    <rect
       width="30"
       height="20"
       id="rect304" />
    <g
       s:x="30"
       s:y="10"
       s:pid="Y"
       id="g306" />
  </g>
  <line
     x1="1524"
     y1="399.5"
     x2="1559"
     y2="399.5"
     id="line308" />
  <line
     x1="117"
     y1="371"
     x2="151"
     y2="371"
     id="line310" />
  <line
     x1="151"
     y1="371"
     x2="151"
     y2="544.5"
     id="line312" />
  <line
     x1="151"
     y1="544.5"
     x2="235"
     y2="544.5"
     id="line314" />
  <line
     x1="235"
     y1="544.5"
     x2="235"
     y2="514.5"
     id="line316" />
  <circle
     cx="151"
     cy="371"
     r="2"
     style="fill:#000"
     id="circle318" />
  <circle
     cx="235"
     cy="544.5"
     r="2"
     style="fill:#000"
     id="circle320" />
  <line
     x1="235"
     y1="514.5"
     x2="263"
     y2="514.5"
     id="line322" />
  <line
     x1="117"
     y1="371"
     x2="181.33333333333334"
     y2="371"
     id="line324" />
  <line
     x1="117"
     y1="371"
     x2="151"
     y2="371"
     id="line326" />
  <line
     x1="151"
     y1="371"
     x2="151"
     y2="134"
     id="line328" />
  <line
     x1="151"
     y1="134"
     x2="507"
     y2="134"
     id="line330" />
  <line
     x1="117"
     y1="371"
     x2="151"
     y2="371"
     id="line332" />
  <line
     x1="151"
     y1="371"
     x2="151"
     y2="544.5"
     id="line334" />
  <line
     x1="151"
     y1="544.5"
     x2="1514"
     y2="544.5"
     id="line336" />
  <line
     x1="1514"
     y1="544.5"
     x2="1514"
     y2="414.5"
     id="line338" />
  <line
     x1="212.33333333333334"
     y1="570"
     x2="245"
     y2="570"
     id="line340" />
  <line
     x1="245"
     y1="570"
     x2="245"
     y2="529.5"
     id="line342" />
  <line
     x1="245"
     y1="529.5"
     x2="263"
     y2="529.5"
     id="line344" />
  <line
     x1="119.66666666666667"
     y1="309.5"
     x2="161"
     y2="309.5"
     id="line346" />
  <line
     x1="161"
     y1="309.5"
     x2="161"
     y2="386"
     id="line348" />
  <line
     x1="161"
     y1="386"
     x2="181.33333333333334"
     y2="386"
     id="line350" />
  <line
     x1="199"
     y1="321"
     x2="235"
     y2="321"
     id="line352" />
  <line
     x1="235"
     y1="321"
     x2="235"
     y2="113"
     id="line354" />
  <line
     x1="235"
     y1="113"
     x2="705"
     y2="113"
     id="line356" />
  <line
     x1="705"
     y1="113"
     x2="705"
     y2="119"
     id="line358" />
  <circle
     cx="235"
     cy="321"
     r="2"
     style="fill:#000"
     id="circle360" />
  <line
     x1="705"
     y1="119"
     x2="851.6666666666666"
     y2="119"
     id="line362" />
  <line
     x1="199"
     y1="321"
     x2="235"
     y2="321"
     id="line364" />
  <line
     x1="235"
     y1="321"
     x2="235"
     y2="492"
     id="line366" />
  <line
     x1="235"
     y1="492"
     x2="470.66666666666663"
     y2="492"
     id="line368" />
  <line
     x1="199"
     y1="321"
     x2="263"
     y2="321"
     id="line370" />
  <line
     x1="532"
     y1="134"
     x2="851.6666666666666"
     y2="134"
     id="line372" />
  <line
     x1="293"
     y1="522"
     x2="309"
     y2="522"
     id="line374" />
  <line
     x1="309"
     y1="522"
     x2="309"
     y2="507"
     id="line376" />
  <circle
     cx="309"
     cy="522"
     r="2"
     style="fill:#000"
     id="circle378" />
  <line
     x1="309"
     y1="507"
     x2="470.66666666666663"
     y2="507"
     id="line380" />
  <line
     x1="293"
     y1="522"
     x2="1250"
     y2="522"
     id="line382" />
  <line
     x1="1250"
     y1="522"
     x2="1250"
     y2="424.5"
     id="line384" />
  <line
     x1="211.33333333333334"
     y1="378.5"
     x2="245"
     y2="378.5"
     id="line386" />
  <line
     x1="245"
     y1="378.5"
     x2="245"
     y2="336"
     id="line388" />
  <circle
     cx="245"
     cy="378.5"
     r="2"
     style="fill:#000"
     id="circle390" />
  <line
     x1="245"
     y1="336"
     x2="263"
     y2="336"
     id="line392" />
  <line
     x1="211.33333333333334"
     y1="378.5"
     x2="865"
     y2="378.5"
     id="line394" />
  <line
     x1="865"
     y1="378.5"
     x2="865"
     y2="253.5"
     id="line396" />
  <line
     x1="40"
     y1="86.5"
     x2="64"
     y2="86.5"
     id="line398" />
  <line
     x1="64"
     y1="86.5"
     x2="64"
     y2="302"
     id="line400" />
  <circle
     cx="64"
     cy="86.5"
     r="2"
     style="fill:#000"
     id="circle402" />
  <circle
     cx="64"
     cy="302"
     r="2"
     style="fill:#000"
     id="circle404" />
  <line
     x1="64"
     y1="302"
     x2="97.66666666666667"
     y2="302"
     id="line406" />
  <line
     x1="40"
     y1="86.5"
     x2="64"
     y2="86.5"
     id="line408" />
  <line
     x1="64"
     y1="86.5"
     x2="64"
     y2="419.5"
     id="line410" />
  <line
     x1="64"
     y1="419.5"
     x2="141"
     y2="419.5"
     id="line412" />
  <line
     x1="141"
     y1="419.5"
     x2="141"
     y2="570"
     id="line414" />
  <circle
     cx="141"
     cy="419.5"
     r="2"
     style="fill:#000"
     id="circle416" />
  <line
     x1="141"
     y1="570"
     x2="181.33333333333334"
     y2="570"
     id="line418" />
  <line
     x1="40"
     y1="86.5"
     x2="161"
     y2="86.5"
     id="line420" />
  <line
     x1="161"
     y1="86.5"
     x2="161"
     y2="246"
     id="line422" />
  <line
     x1="161"
     y1="246"
     x2="329"
     y2="246"
     id="line424" />
  <line
     x1="329"
     y1="246"
     x2="329"
     y2="248.5"
     id="line426" />
  <circle
     cx="161"
     cy="86.5"
     r="2"
     style="fill:#000"
     id="circle428" />
  <line
     x1="329"
     y1="248.5"
     x2="398"
     y2="248.5"
     id="line430" />
  <line
     x1="40"
     y1="86.5"
     x2="329"
     y2="86.5"
     id="line432" />
  <line
     x1="329"
     y1="86.5"
     x2="329"
     y2="46.5"
     id="line434" />
  <circle
     cx="329"
     cy="86.5"
     r="2"
     style="fill:#000"
     id="circle436" />
  <line
     x1="329"
     y1="46.5"
     x2="1160"
     y2="46.5"
     id="line438" />
  <line
     x1="40"
     y1="86.5"
     x2="1160"
     y2="86.5"
     id="line440" />
  <line
     x1="40"
     y1="86.5"
     x2="64"
     y2="86.5"
     id="line442" />
  <line
     x1="64"
     y1="86.5"
     x2="64"
     y2="419.5"
     id="line444" />
  <line
     x1="64"
     y1="419.5"
     x2="779"
     y2="419.5"
     id="line446" />
  <line
     x1="42"
     y1="317"
     x2="97.66666666666667"
     y2="317"
     id="line448" />
  <line
     x1="119"
     y1="590"
     x2="181.33333333333334"
     y2="590"
     id="line450" />
  <line
     x1="428"
     y1="189"
     x2="705"
     y2="189"
     id="line452" />
  <line
     x1="705"
     y1="189"
     x2="705"
     y2="228.5"
     id="line454" />
  <line
     x1="705"
     y1="228.5"
     x2="855"
     y2="228.5"
     id="line456" />
  <line
     x1="429"
     y1="248.5"
     x2="855"
     y2="248.5"
     id="line458" />
  <line
     x1="875"
     y1="238.5"
     x2="1086"
     y2="238.5"
     id="line460" />
  <line
     x1="1086"
     y1="238.5"
     x2="1086"
     y2="399.5"
     id="line462" />
  <line
     x1="1086"
     y1="399.5"
     x2="1240"
     y2="399.5"
     id="line464" />
  <line
     x1="810"
     y1="419.5"
     x2="1240"
     y2="419.5"
     id="line466" />
  <line
     x1="1191"
     y1="26.5"
     x2="1479"
     y2="26.5"
     id="line468" />
  <line
     x1="1479"
     y1="26.5"
     x2="1479"
     y2="389.5"
     id="line470" />
  <line
     x1="1479"
     y1="389.5"
     x2="1504"
     y2="389.5"
     id="line472" />
  <line
     x1="1260"
     y1="409.5"
     x2="1504"
     y2="409.5"
     id="line474" />
  <line
     x1="288"
     y1="226"
     x2="339"
     y2="226"
     id="line476" />
  <line
     x1="339"
     y1="226"
     x2="339"
     y2="268.5"
     id="line478" />
  <circle
     cx="339"
     cy="226"
     r="2"
     style="fill:#000"
     id="circle480" />
  <circle
     cx="339"
     cy="268.5"
     r="2"
     style="fill:#000"
     id="circle482" />
  <line
     x1="339"
     y1="268.5"
     x2="398"
     y2="268.5"
     id="line484" />
  <line
     x1="288"
     y1="226"
     x2="339"
     y2="226"
     id="line486" />
  <line
     x1="339"
     y1="226"
     x2="339"
     y2="66.5"
     id="line488" />
  <line
     x1="339"
     y1="66.5"
     x2="1160"
     y2="66.5"
     id="line490" />
  <line
     x1="288"
     y1="226"
     x2="339"
     y2="226"
     id="line492" />
  <line
     x1="339"
     y1="226"
     x2="339"
     y2="102"
     id="line494" />
  <line
     x1="339"
     y1="102"
     x2="1086"
     y2="102"
     id="line496" />
  <line
     x1="1086"
     y1="102"
     x2="1086"
     y2="106.5"
     id="line498" />
  <circle
     cx="339"
     cy="102"
     r="2"
     style="fill:#000"
     id="circle500" />
  <line
     x1="1086"
     y1="106.5"
     x2="1160"
     y2="106.5"
     id="line502" />
  <line
     x1="288"
     y1="226"
     x2="339"
     y2="226"
     id="line504" />
  <line
     x1="339"
     y1="226"
     x2="339"
     y2="439.5"
     id="line506" />
  <line
     x1="339"
     y1="439.5"
     x2="779"
     y2="439.5"
     id="line508" />
  <line
     x1="288"
     y1="271"
     x2="319"
     y2="271"
     id="line510" />
  <line
     x1="319"
     y1="271"
     x2="319"
     y2="288.5"
     id="line512" />
  <circle
     cx="319"
     cy="271"
     r="2"
     style="fill:#000"
     id="circle514" />
  <circle
     cx="319"
     cy="288.5"
     r="2"
     style="fill:#000"
     id="circle516" />
  <line
     x1="319"
     y1="288.5"
     x2="398"
     y2="288.5"
     id="line518" />
  <line
     x1="288"
     y1="271"
     x2="319"
     y2="271"
     id="line520" />
  <line
     x1="319"
     y1="271"
     x2="319"
     y2="26.5"
     id="line522" />
  <line
     x1="319"
     y1="26.5"
     x2="1160"
     y2="26.5"
     id="line524" />
  <line
     x1="288"
     y1="271"
     x2="319"
     y2="271"
     id="line526" />
  <line
     x1="319"
     y1="271"
     x2="319"
     y2="459.5"
     id="line528" />
  <line
     x1="319"
     y1="459.5"
     x2="779"
     y2="459.5"
     id="line530" />
  <line
     x1="290"
     y1="399.5"
     x2="309"
     y2="399.5"
     id="line532" />
  <line
     x1="309"
     y1="399.5"
     x2="309"
     y2="308.5"
     id="line534" />
  <circle
     cx="309"
     cy="399.5"
     r="2"
     style="fill:#000"
     id="circle536" />
  <line
     x1="309"
     y1="308.5"
     x2="398"
     y2="308.5"
     id="line538" />
  <line
     x1="290"
     y1="399.5"
     x2="309"
     y2="399.5"
     id="line540" />
  <line
     x1="309"
     y1="399.5"
     x2="309"
     y2="476"
     id="line542" />
  <line
     x1="309"
     y1="476"
     x2="705"
     y2="476"
     id="line544" />
  <line
     x1="705"
     y1="476"
     x2="705"
     y2="479.5"
     id="line546" />
  <line
     x1="705"
     y1="479.5"
     x2="779"
     y2="479.5"
     id="line548" />
  <line
     x1="293"
     y1="328.5"
     x2="398"
     y2="328.5"
     id="line550" />
  <line
     x1="881.6666666666666"
     y1="126.5"
     x2="1160"
     y2="126.5"
     id="line552" />
  <line
     x1="500.66666666666663"
     y1="499.5"
     x2="779"
     y2="499.5"
     id="line554" />
</svg>
