<svg xmlns="http://www.w3.org/2000/svg" xmlns:xlink="http://www.w3.org/1999/xlink" xmlns:s="https://github.com/nturley/netlistsvg" width="416" height="439">
  <style>svg {
    stroke:#000;
    fill:none;
  }
  text {
    fill:#000;
    stroke:none;
    font-size:10px;
    font-weight: bold;
    font-family: "Courier New", monospace;
  }
  .nodelabel {
    text-anchor: middle;
  }
  .inputPortLabel {
    text-anchor: end;
  }
  .splitjoinBody {
    fill:#000;
  }</style>
  <g s:type="dff" transform="translate(358,32)" s:width="30" s:height="40" id="cell_$procdff$163">
    <s:alias val="$dff"/>
    <s:alias val="$_DFF_"/>
    <rect width="30" height="40" x="0" y="0" class="cell_$procdff$163"/>
    <path d="M0,35 L5,30 L0,25" class="cell_$procdff$163"/>
    <g s:x="30" s:y="10" s:pid="Q"/>
    <g s:x="0" s:y="30" s:pid="CLK"/>
    <g s:x="0" s:y="10" s:pid="D"/>
  </g>
  <g s:type="mux" transform="translate(303,22)" s:width="20" s:height="40" id="cell_$procmux$151">
    <s:alias val="$pmux"/>
    <s:alias val="$mux"/>
    <s:alias val="$_MUX_"/>
    <path d="M0,0 L20,10 L20,30 L0,40 Z" class="cell_$procmux$151"/>
    <g s:x="0" s:y="10" s:pid="A"/>
    <g s:x="0" s:y="30" s:pid="B"/>
    <g s:x="10" s:y="35" s:pid="S"/>
    <g s:x="20" s:y="20" s:pid="Y"/>
  </g>
  <g s:type="mux" transform="translate(241.33333333333334,32)" s:width="20" s:height="40" id="cell_$ternary$MEMORY.v:21$2">
    <s:alias val="$pmux"/>
    <s:alias val="$mux"/>
    <s:alias val="$_MUX_"/>
    <path d="M0,0 L20,10 L20,30 L0,40 Z" class="cell_$ternary$MEMORY.v:21$2"/>
    <g s:x="0" s:y="10" s:pid="A"/>
    <g s:x="0" s:y="30" s:pid="B"/>
    <g s:x="10" s:y="35" s:pid="S"/>
    <g s:x="20" s:y="20" s:pid="Y"/>
  </g>
  <g s:type="generic" transform="translate(131,216.5)" s:width="30" s:height="40" id="cell_mem_wrapper0">
    <text x="15" y="-4" class="nodelabel cell_mem_wrapper0" s:attribute="ref">$paramod\mem_wrapper\ROMFILE=0'</text>
    <rect width="30" height="120" s:generic="body" class="cell_mem_wrapper0"/>
    <g transform="translate(0,10)" s:x="0" s:y="10" s:pid="in0" id="port_mem_wrapper0~addr">
      <text x="-3" y="-4" class="inputPortLabel cell_mem_wrapper0">addr</text>
    </g>
    <g transform="translate(0,30)" s:x="0" s:y="10" s:pid="in0" id="port_mem_wrapper0~clk">
      <text x="-3" y="-4" class="inputPortLabel cell_mem_wrapper0">clk</text>
    </g>
    <g transform="translate(0,50)" s:x="0" s:y="10" s:pid="in0" id="port_mem_wrapper0~din">
      <text x="-3" y="-4" class="inputPortLabel cell_mem_wrapper0">din</text>
    </g>
    <g transform="translate(0,70)" s:x="0" s:y="10" s:pid="in0" id="port_mem_wrapper0~mmio">
      <text x="-3" y="-4" class="inputPortLabel cell_mem_wrapper0">mmio</text>
    </g>
    <g transform="translate(0,90)" s:x="0" s:y="10" s:pid="in0" id="port_mem_wrapper0~rst">
      <text x="-3" y="-4" class="inputPortLabel cell_mem_wrapper0">rst</text>
    </g>
    <g transform="translate(0,110)" s:x="0" s:y="10" s:pid="in0" id="port_mem_wrapper0~write_en">
      <text x="-3" y="-4" class="inputPortLabel cell_mem_wrapper0">write_en</text>
    </g>
    <g transform="translate(30,10)" s:x="30" s:y="10" s:pid="out0" id="port_mem_wrapper0~dout">
      <text x="5" y="-4" style="fill:#000; stroke:none" class="cell_mem_wrapper0">dout</text>
    </g>
    <g transform="translate(30,30)" s:x="30" s:y="10" s:pid="out0" id="port_mem_wrapper0~o_leds">
      <text x="5" y="-4" style="fill:#000; stroke:none" class="cell_mem_wrapper0">o_leds</text>
    </g>
  </g>
  <g s:type="inputExt" transform="translate(131,32)" s:width="30" s:height="20" id="cell_ADDR">
    <text x="15" y="-4" class="nodelabel cell_ADDR" s:attribute="ref">ADDR</text>
    <s:alias val="$_inputExt_"/>
    <path d="M0,0 L0,20 L15,20 L30,10 L15,0 Z" class="cell_ADDR"/>
    <g s:x="28" s:y="10" s:pid="Y"/>
  </g>
  <g s:type="inputExt" transform="translate(12,147)" s:width="30" s:height="20" id="cell_clk">
    <text x="15" y="-4" class="nodelabel cell_clk" s:attribute="ref">clk</text>
    <s:alias val="$_inputExt_"/>
    <path d="M0,0 L0,20 L15,20 L30,10 L15,0 Z" class="cell_clk"/>
    <g s:x="28" s:y="10" s:pid="Y"/>
  </g>
  <g s:type="inputExt" transform="translate(12,212)" s:width="30" s:height="20" id="cell_R">
    <text x="15" y="-4" class="nodelabel cell_R" s:attribute="ref">R</text>
    <s:alias val="$_inputExt_"/>
    <path d="M0,0 L0,20 L15,20 L30,10 L15,0 Z" class="cell_R"/>
    <g s:x="28" s:y="10" s:pid="Y"/>
  </g>
  <g s:type="inputExt" transform="translate(131,97)" s:width="30" s:height="20" id="cell_srcA">
    <text x="15" y="-4" class="nodelabel cell_srcA" s:attribute="ref">srcA</text>
    <s:alias val="$_inputExt_"/>
    <path d="M0,0 L0,20 L15,20 L30,10 L15,0 Z" class="cell_srcA"/>
    <g s:x="28" s:y="10" s:pid="Y"/>
  </g>
  <g s:type="inputExt" transform="translate(12,407)" s:width="30" s:height="20" id="cell_wM">
    <text x="15" y="-4" class="nodelabel cell_wM" s:attribute="ref">wM</text>
    <s:alias val="$_inputExt_"/>
    <path d="M0,0 L0,20 L15,20 L30,10 L15,0 Z" class="cell_wM"/>
    <g s:x="28" s:y="10" s:pid="Y"/>
  </g>
  <g s:type="inputExt" transform="translate(238,127)" s:width="30" s:height="20" id="cell_wAR">
    <text x="15" y="-4" class="nodelabel cell_wAR" s:attribute="ref">wAR</text>
    <s:alias val="$_inputExt_"/>
    <path d="M0,0 L0,20 L15,20 L30,10 L15,0 Z" class="cell_wAR"/>
    <g s:x="28" s:y="10" s:pid="Y"/>
  </g>
  <g s:type="inputExt" transform="translate(12,277)" s:width="30" s:height="20" id="cell_mmio">
    <text x="15" y="-4" class="nodelabel cell_mmio" s:attribute="ref">mmio</text>
    <s:alias val="$_inputExt_"/>
    <path d="M0,0 L0,20 L15,20 L30,10 L15,0 Z" class="cell_mmio"/>
    <g s:x="28" s:y="10" s:pid="Y"/>
  </g>
  <g s:type="inputExt" transform="translate(12,342)" s:width="30" s:height="20" id="cell_rst">
    <text x="15" y="-4" class="nodelabel cell_rst" s:attribute="ref">rst</text>
    <s:alias val="$_inputExt_"/>
    <path d="M0,0 L0,20 L15,20 L30,10 L15,0 Z" class="cell_rst"/>
    <g s:x="28" s:y="10" s:pid="Y"/>
  </g>
  <g s:type="outputExt" transform="translate(358,217)" s:width="30" s:height="20" id="cell_M">
    <text x="15" y="-4" class="nodelabel cell_M" s:attribute="ref">M</text>
    <s:alias val="$_outputExt_"/>
    <path d="M30,0 L30,20 L15,20 L0,10 L15,0 Z" class="cell_M"/>
    <g s:x="0" s:y="10" s:pid="A"/>
  </g>
  <g s:type="outputExt" transform="translate(358,282)" s:width="30" s:height="20" id="cell_o_leds">
    <text x="15" y="-4" class="nodelabel cell_o_leds" s:attribute="ref">o_leds</text>
    <s:alias val="$_outputExt_"/>
    <path d="M30,0 L30,20 L15,20 L0,10 L15,0 Z" class="cell_o_leds"/>
    <g s:x="0" s:y="10" s:pid="A"/>
  </g>
  <line x1="40" x2="333" y1="157" y2="157" class="net_10"/>
  <line x1="333" x2="333" y1="157" y2="62" class="net_10"/>
  <line x1="333" x2="358" y1="62" y2="62" class="net_10"/>
  <line x1="40" x2="62" y1="157" y2="157" class="net_10"/>
  <line x1="62" x2="62" y1="157" y2="247" class="net_10"/>
  <circle cx="62" cy="157" r="2" style="fill:#000" class="net_10"/>
  <line x1="62" x2="131" y1="247" y2="247" class="net_10"/>
  <line x1="323" x2="358" y1="42" y2="42" class="net_40,41,42,43,44,45,46,47"/>
  <line x1="388" x2="404" y1="42" y2="42" class="net_48,49,50,51,52,53,54,55"/>
  <line x1="404" x2="404" y1="42" y2="12" class="net_48,49,50,51,52,53,54,55"/>
  <line x1="404" x2="278" y1="12" y2="12" class="net_48,49,50,51,52,53,54,55"/>
  <line x1="278" x2="278" y1="12" y2="32" class="net_48,49,50,51,52,53,54,55"/>
  <circle cx="404" cy="42" r="2" style="fill:#000" class="net_48,49,50,51,52,53,54,55"/>
  <line x1="278" x2="303" y1="32" y2="32" class="net_48,49,50,51,52,53,54,55"/>
  <line x1="388" x2="404" y1="42" y2="42" class="net_48,49,50,51,52,53,54,55"/>
  <line x1="404" x2="404" y1="42" y2="168" class="net_48,49,50,51,52,53,54,55"/>
  <line x1="404" x2="72" y1="168" y2="168" class="net_48,49,50,51,52,53,54,55"/>
  <line x1="72" x2="72" y1="168" y2="227" class="net_48,49,50,51,52,53,54,55"/>
  <line x1="72" x2="131" y1="227" y2="227" class="net_48,49,50,51,52,53,54,55"/>
  <line x1="261.33333333333337" x2="303" y1="52" y2="52" class="net_56,57,58,59,60,61,62,63"/>
  <line x1="266" x2="313" y1="137" y2="137" class="net_21"/>
  <line x1="313" x2="313" y1="137" y2="57" class="net_21"/>
  <line x1="159" x2="241.33333333333334" y1="42" y2="42" class="net_2,3,4,5,6,7,8,9"/>
  <line x1="162" x2="213" y1="227" y2="227" class="net_24,25,26,27,28,29,30,31"/>
  <line x1="213" x2="213" y1="227" y2="62" class="net_24,25,26,27,28,29,30,31"/>
  <circle cx="213" cy="227" r="2" style="fill:#000" class="net_24,25,26,27,28,29,30,31"/>
  <line x1="213" x2="241.33333333333334" y1="62" y2="62" class="net_24,25,26,27,28,29,30,31"/>
  <line x1="162" x2="358" y1="227" y2="227" class="net_24,25,26,27,28,29,30,31"/>
  <line x1="159" x2="251.33333333333334" y1="107" y2="107" class="net_19"/>
  <line x1="251.33333333333334" x2="251.33333333333334" y1="107" y2="67" class="net_19"/>
  <line x1="40" x2="52" y1="222" y2="222" class="net_11,12,13,14,15,16,17,18"/>
  <line x1="52" x2="52" y1="222" y2="267" class="net_11,12,13,14,15,16,17,18"/>
  <line x1="52" x2="131" y1="267" y2="267" class="net_11,12,13,14,15,16,17,18"/>
  <line x1="40" x2="131" y1="287" y2="287" class="net_22"/>
  <line x1="40" x2="52" y1="352" y2="352" class="net_23"/>
  <line x1="52" x2="52" y1="352" y2="307" class="net_23"/>
  <line x1="52" x2="131" y1="307" y2="307" class="net_23"/>
  <line x1="40" x2="62" y1="417" y2="417" class="net_20"/>
  <line x1="62" x2="62" y1="417" y2="327" class="net_20"/>
  <line x1="62" x2="131" y1="327" y2="327" class="net_20"/>
  <line x1="162" x2="213" y1="247" y2="247" class="net_32,33,34,35,36,37,38,39"/>
  <line x1="213" x2="213" y1="247" y2="292" class="net_32,33,34,35,36,37,38,39"/>
  <line x1="213" x2="358" y1="292" y2="292" class="net_32,33,34,35,36,37,38,39"/>
</svg>
