<svg xmlns="http://www.w3.org/2000/svg" xmlns:xlink="http://www.w3.org/1999/xlink" xmlns:s="https://github.com/nturley/netlistsvg" width="611" height="359">
  <style>svg {
    stroke:#000;
    fill:none;
  }
  text {
    fill:#000;
    stroke:none;
    font-size:10px;
    font-weight: bold;
    font-family: "Courier New", monospace;
  }
  .nodelabel {
    text-anchor: middle;
  }
  .inputPortLabel {
    text-anchor: end;
  }
  .splitjoinBody {
    fill:#000;
  }</style>
  <g s:type="inputExt" transform="translate(150,16)" s:width="30" s:height="20">
    <text x="15" y="-4" class="nodelabel" s:attribute="ref">ADDR</text>
    <s:alias val="$_inputExt_"/>
    <path d="M0,0 L0,20 L15,20 L30,10 L15,0 Z"/>
    <g s:x="28" s:y="10" s:pid="Y"/>
  </g>
  <g s:type="inputExt" transform="translate(12,175.5)" s:width="30" s:height="20">
    <text x="15" y="-4" class="nodelabel" s:attribute="ref">clk</text>
    <s:alias val="$_inputExt_"/>
    <path d="M0,0 L0,20 L15,20 L30,10 L15,0 Z"/>
    <g s:x="28" s:y="10" s:pid="Y"/>
  </g>
  <g s:type="inputExt" transform="translate(12,73.5)" s:width="30" s:height="20">
    <text x="15" y="-4" class="nodelabel" s:attribute="ref">R</text>
    <s:alias val="$_inputExt_"/>
    <path d="M0,0 L0,20 L15,20 L30,10 L15,0 Z"/>
    <g s:x="28" s:y="10" s:pid="Y"/>
  </g>
  <g s:type="inputExt" transform="translate(150,75)" s:width="30" s:height="20">
    <text x="15" y="-4" class="nodelabel" s:attribute="ref">srcA</text>
    <s:alias val="$_inputExt_"/>
    <path d="M0,0 L0,20 L15,20 L30,10 L15,0 Z"/>
    <g s:x="28" s:y="10" s:pid="Y"/>
  </g>
  <g s:type="inputExt" transform="translate(12,234.5)" s:width="30" s:height="20">
    <text x="15" y="-4" class="nodelabel" s:attribute="ref">wM</text>
    <s:alias val="$_inputExt_"/>
    <path d="M0,0 L0,20 L15,20 L30,10 L15,0 Z"/>
    <g s:x="28" s:y="10" s:pid="Y"/>
  </g>
  <g s:type="inputExt" transform="translate(427,237)" s:width="30" s:height="20">
    <text x="15" y="-4" class="nodelabel" s:attribute="ref">wAR</text>
    <s:alias val="$_inputExt_"/>
    <path d="M0,0 L0,20 L15,20 L30,10 L15,0 Z"/>
    <g s:x="28" s:y="10" s:pid="Y"/>
  </g>
  <g s:type="outputExt" transform="translate(556,316)" s:width="30" s:height="20">
    <text x="15" y="-4" class="nodelabel" s:attribute="ref">M</text>
    <s:alias val="$_outputExt_"/>
    <path d="M30,0 L30,20 L15,20 L0,10 L15,0 Z"/>
    <g s:x="0" s:y="10" s:pid="A"/>
  </g>
  <g s:type="dff" transform="translate(556,237)" s:width="30" s:height="40">
    <s:alias val="$dff"/>
    <s:alias val="$_DFF_"/>
    <rect width="30" height="40" x="0" y="0"/>
    <path d="M0,35 L5,30 L0,25"/>
    <g s:x="30" s:y="10" s:pid="Q"/>
    <g s:x="0" s:y="30" s:pid="CLK"/>
    <g s:x="0" s:y="10" s:pid="D"/>
  </g>
  <g s:type="mux" transform="translate(501,104.5)" s:width="20" s:height="40">
    <s:alias val="$pmux"/>
    <s:alias val="$mux"/>
    <s:alias val="$_MUX_"/>
    <path d="M0,0 L20,10 L20,30 L0,40 Z"/>
    <g s:x="0" s:y="10" s:pid="A"/>
    <g s:x="0" s:y="30" s:pid="B"/>
    <g s:x="10" s:y="35" s:pid="S"/>
    <g s:x="20" s:y="20" s:pid="Y"/>
  </g>
  <g s:type="mux" transform="translate(433.3333333333333,114.5)" s:width="20" s:height="40">
    <s:alias val="$pmux"/>
    <s:alias val="$mux"/>
    <s:alias val="$_MUX_"/>
    <path d="M0,0 L20,10 L20,30 L0,40 Z"/>
    <g s:x="0" s:y="10" s:pid="A"/>
    <g s:x="0" s:y="30" s:pid="B"/>
    <g s:x="10" s:y="35" s:pid="S"/>
    <g s:x="20" s:y="20" s:pid="Y"/>
  </g>
  <g s:type="generic" transform="translate(150,134)" s:width="30" s:height="40">
    <text x="15" y="-4" class="nodelabel" s:attribute="ref">$paramod\ram\data_width=8\ram_size=32</text>
    <rect width="30" height="120" s:generic="body"/>
    <g transform="translate(0,10)" s:x="0" s:y="10" s:pid="in0">
      <text x="-3" y="-4" class="inputPortLabel">din</text>
    </g>
    <g transform="translate(0,30)" s:x="0" s:y="10" s:pid="in0">
      <text x="-3" y="-4" class="inputPortLabel">raddr</text>
    </g>
    <g transform="translate(0,50)" s:x="0" s:y="10" s:pid="in0">
      <text x="-3" y="-4" class="inputPortLabel">rclk</text>
    </g>
    <g transform="translate(0,70)" s:x="0" s:y="10" s:pid="in0">
      <text x="-3" y="-4" class="inputPortLabel">waddr</text>
    </g>
    <g transform="translate(0,90)" s:x="0" s:y="10" s:pid="in0">
      <text x="-3" y="-4" class="inputPortLabel">wclk</text>
    </g>
    <g transform="translate(0,110)" s:x="0" s:y="10" s:pid="in0">
      <text x="-3" y="-4" class="inputPortLabel">write_en</text>
    </g>
    <g transform="translate(30,10)" s:x="30" s:y="10" s:pid="out0">
      <text x="5" y="-4" style="fill:#000; stroke:none">dout</text>
    </g>
  </g>
  <g s:type="split" transform="translate(27,128.5)" s:width="5" s:height="40">
    <rect width="5" height="20" class="splitjoinBody" s:generic="body"/>
    <s:alias val="$_split_"/>
    <g s:x="0" s:y="20" s:pid="in"/>
    <g transform="translate(4,10)" s:x="4" s:y="10" s:pid="out0">
      <text x="5" y="-4">0:4</text>
    </g>
  </g>
  <line x1="181" y1="144.5" x2="397" y2="144.5"/>
  <line x1="397" y1="144.5" x2="397" y2="326"/>
  <circle cx="397" cy="144.5" r="2" style="fill:#000"/>
  <line x1="397" y1="326" x2="556" y2="326"/>
  <line x1="181" y1="144.5" x2="433.3333333333333" y2="144.5"/>
  <line x1="40" y1="185.5" x2="71" y2="185.5"/>
  <line x1="71" y1="185.5" x2="71" y2="267"/>
  <circle cx="71" cy="185.5" r="2" style="fill:#000"/>
  <line x1="71" y1="267" x2="556" y2="267"/>
  <line x1="40" y1="185.5" x2="71" y2="185.5"/>
  <line x1="71" y1="185.5" x2="71" y2="184.5"/>
  <line x1="71" y1="184.5" x2="150" y2="184.5"/>
  <line x1="40" y1="185.5" x2="71" y2="185.5"/>
  <line x1="71" y1="185.5" x2="71" y2="224.5"/>
  <circle cx="71" cy="224.5" r="2" style="fill:#000"/>
  <line x1="71" y1="224.5" x2="150" y2="224.5"/>
  <line x1="521" y1="124.5" x2="531" y2="124.5"/>
  <line x1="531" y1="124.5" x2="531" y2="247"/>
  <line x1="531" y1="247" x2="556" y2="247"/>
  <line x1="586" y1="247" x2="599" y2="247"/>
  <line x1="599" y1="247" x2="599" y2="94.5"/>
  <line x1="599" y1="94.5" x2="476" y2="94.5"/>
  <line x1="476" y1="94.5" x2="476" y2="114.5"/>
  <circle cx="599" cy="247" r="2" style="fill:#000"/>
  <line x1="476" y1="114.5" x2="501" y2="114.5"/>
  <line x1="586" y1="247" x2="599" y2="247"/>
  <line x1="599" y1="247" x2="599" y2="346"/>
  <line x1="599" y1="346" x2="61" y2="346"/>
  <line x1="61" y1="346" x2="61" y2="161.5"/>
  <line x1="61" y1="161.5" x2="27.5" y2="161.5"/>
  <line x1="27.5" y1="161.5" x2="27.5" y2="149.5"/>
  <line x1="453.3333333333333" y1="134.5" x2="501" y2="134.5"/>
  <line x1="455" y1="247" x2="511" y2="247"/>
  <line x1="511" y1="247" x2="511" y2="139.5"/>
  <line x1="178" y1="26" x2="417" y2="26"/>
  <line x1="417" y1="26" x2="417" y2="124.5"/>
  <line x1="417" y1="124.5" x2="433.3333333333333" y2="124.5"/>
  <line x1="178" y1="85" x2="407" y2="85"/>
  <line x1="407" y1="85" x2="407" y2="223"/>
  <line x1="407" y1="223" x2="443.3333333333333" y2="223"/>
  <line x1="443.3333333333333" y1="223" x2="443.3333333333333" y2="149.5"/>
  <line x1="40" y1="83.5" x2="91" y2="83.5"/>
  <line x1="91" y1="83.5" x2="91" y2="144.5"/>
  <line x1="91" y1="144.5" x2="150" y2="144.5"/>
  <line x1="32" y1="139" x2="81" y2="139"/>
  <line x1="81" y1="139" x2="81" y2="164.5"/>
  <circle cx="81" cy="164.5" r="2" style="fill:#000"/>
  <line x1="81" y1="164.5" x2="150" y2="164.5"/>
  <line x1="32" y1="139" x2="81" y2="139"/>
  <line x1="81" y1="139" x2="81" y2="204.5"/>
  <line x1="81" y1="204.5" x2="150" y2="204.5"/>
  <line x1="40" y1="244.5" x2="150" y2="244.5"/>
</svg>
