<?xml version="1.0" encoding="UTF-8" standalone="no"?>
<svg
   xmlns:s="https://github.com/nturley/netlistsvg"
   xmlns:dc="http://purl.org/dc/elements/1.1/"
   xmlns:cc="http://creativecommons.org/ns#"
   xmlns:rdf="http://www.w3.org/1999/02/22-rdf-syntax-ns#"
   xmlns:svg="http://www.w3.org/2000/svg"
   xmlns="http://www.w3.org/2000/svg"
   xmlns:sodipodi="http://sodipodi.sourceforge.net/DTD/sodipodi-0.dtd"
   xmlns:inkscape="http://www.inkscape.org/namespaces/inkscape"
   width="563"
   height="318.5"
   id="svg2"
   version="1.1"
   inkscape:version="0.91 r13725"
   sodipodi:docname="MEMORY.svg">
  <metadata
     id="metadata218">
    <rdf:RDF>
      <cc:Work
         rdf:about="">
        <dc:format>image/svg+xml</dc:format>
        <dc:type
           rdf:resource="http://purl.org/dc/dcmitype/StillImage" />
      </cc:Work>
    </rdf:RDF>
  </metadata>
  <defs
     id="defs216" />
  <sodipodi:namedview
     pagecolor="#ffffff"
     bordercolor="#666666"
     borderopacity="1"
     objecttolerance="10"
     gridtolerance="10"
     guidetolerance="10"
     inkscape:pageopacity="0"
     inkscape:pageshadow="2"
     inkscape:window-width="1680"
     inkscape:window-height="1003"
     id="namedview214"
     showgrid="false"
     inkscape:zoom="2.2380107"
     inkscape:cx="121.75051"
     inkscape:cy="129.02161"
     inkscape:window-x="0"
     inkscape:window-y="0"
     inkscape:window-maximized="1"
     inkscape:current-layer="g106" />
  <style
     id="style4">svg {
    stroke:#000;
    fill:none;
  }
  text {
    fill:#000;
    stroke:none;
    font-size:10px;
    font-weight: bold;
    font-family: &quot;Courier New&quot;, monospace;
  }
  .nodelabel {
    text-anchor: middle;
  }
  .inputPortLabel {
    text-anchor: end;
  }
  .splitjoinBody {
    fill:#000;
  }</style>
  <g
     s:type="inputExt"
     transform="translate(143,47)"
     s:width="30"
     s:height="20"
     id="g6">
    <text
       x="15"
       y="-4"
       class="nodelabel"
       s:attribute="ref"
       id="text8">ADDR</text>
    <s:alias
       val="$_inputExt_" />
    <path
       d="M0,0 L0,20 L15,20 L30,10 L15,0 Z"
       id="path10" />
    <g
       s:x="28"
       s:y="10"
       s:pid="Y"
       id="g12" />
  </g>
  <g
     s:type="inputExt"
     transform="translate(12,16)"
     s:width="30"
     s:height="20"
     id="g14">
    <text
       x="15"
       y="-4"
       class="nodelabel"
       s:attribute="ref"
       id="text16">clk</text>
    <s:alias
       val="$_inputExt_" />
    <path
       d="M0,0 L0,20 L15,20 L30,10 L15,0 Z"
       id="path18" />
    <g
       s:x="28"
       s:y="10"
       s:pid="Y"
       id="g20" />
  </g>
  <g
     s:type="inputExt"
     transform="translate(12,146)"
     s:width="30"
     s:height="20"
     id="g22">
    <text
       x="15"
       y="-4"
       class="nodelabel"
       s:attribute="ref"
       id="text24">R</text>
    <s:alias
       val="$_inputExt_" />
    <path
       d="M0,0 L0,20 L15,20 L30,10 L15,0 Z"
       id="path26" />
    <g
       s:x="28"
       s:y="10"
       s:pid="Y"
       id="g28" />
  </g>
  <g
     s:type="inputExt"
     transform="translate(143,286.5)"
     s:width="30"
     s:height="20"
     id="g30">
    <text
       x="15"
       y="-4"
       class="nodelabel"
       s:attribute="ref"
       id="text32">srcA</text>
    <s:alias
       val="$_inputExt_" />
    <path
       d="M0,0 L0,20 L15,20 L30,10 L15,0 Z"
       id="path34" />
    <g
       s:x="28"
       s:y="10"
       s:pid="Y"
       id="g36" />
  </g>
  <g
     s:type="inputExt"
     transform="translate(12,264)"
     s:width="30"
     s:height="20"
     id="g38">
    <text
       x="15"
       y="-4"
       class="nodelabel"
       s:attribute="ref"
       id="text40">wM</text>
    <s:alias
       val="$_inputExt_" />
    <path
       d="M0,0 L0,20 L15,20 L30,10 L15,0 Z"
       id="path42" />
    <g
       s:x="28"
       s:y="10"
       s:pid="Y"
       id="g44" />
  </g>
  <g
     s:type="inputExt"
     transform="translate(379,111)"
     s:width="30"
     s:height="20"
     id="g46">
    <text
       x="15"
       y="-4"
       class="nodelabel"
       s:attribute="ref"
       id="text48">wAR</text>
    <s:alias
       val="$_inputExt_" />
    <path
       d="M0,0 L0,20 L15,20 L30,10 L15,0 Z"
       id="path50" />
    <g
       s:x="28"
       s:y="10"
       s:pid="Y"
       id="g52" />
  </g>
  <g
     s:type="inputExt"
     transform="translate(12,205)"
     s:width="30"
     s:height="20"
     id="g54">
    <text
       x="15"
       y="-4"
       class="nodelabel"
       s:attribute="ref"
       id="text56">mmio</text>
    <s:alias
       val="$_inputExt_" />
    <path
       d="M0,0 L0,20 L15,20 L30,10 L15,0 Z"
       id="path58" />
    <g
       s:x="28"
       s:y="10"
       s:pid="Y"
       id="g60" />
  </g>
  <g
     s:type="outputExt"
     transform="translate(508,145)"
     s:width="30"
     s:height="20"
     id="g62">
    <text
       x="15"
       y="-4"
       class="nodelabel"
       s:attribute="ref"
       id="text64">M</text>
    <s:alias
       val="$_outputExt_" />
    <path
       d="M30,0 L30,20 L15,20 L0,10 L15,0 Z"
       id="path66" />
    <g
       s:x="0"
       s:y="10"
       s:pid="A"
       id="g68" />
  </g>
  <g
     s:type="dff"
     transform="translate(508,47)"
     s:width="30"
     s:height="40"
     id="g70">
    <s:alias
       val="$dff" />
    <s:alias
       val="$_DFF_" />
    <rect
       width="30"
       height="40"
       x="0"
       y="0"
       id="rect72" />
    <path
       d="M0,35 L5,30 L0,25"
       id="path74" />
    <g
       s:x="30"
       s:y="10"
       s:pid="Q"
       id="g76" />
    <g
       s:x="0"
       s:y="30"
       s:pid="CLK"
       id="g78" />
    <g
       s:x="0"
       s:y="10"
       s:pid="D"
       id="g80" />
  </g>
  <g
     s:type="mux"
     transform="translate(453,37)"
     s:width="20"
     s:height="40"
     id="g82">
    <s:alias
       val="$pmux" />
    <s:alias
       val="$mux" />
    <s:alias
       val="$_MUX_" />
    <path
       d="M0,0 L20,10 L20,30 L0,40 Z"
       id="path84" />
    <g
       s:x="0"
       s:y="10"
       s:pid="A"
       id="g86" />
    <g
       s:x="0"
       s:y="30"
       s:pid="B"
       id="g88" />
    <g
       s:x="10"
       s:y="35"
       s:pid="S"
       id="g90" />
    <g
       s:x="20"
       s:y="20"
       s:pid="Y"
       id="g92" />
  </g>
  <g
     s:type="mux"
     transform="translate(385.3333333333333,47)"
     s:width="20"
     s:height="40"
     id="g94">
    <s:alias
       val="$pmux" />
    <s:alias
       val="$mux" />
    <s:alias
       val="$_MUX_" />
    <path
       d="M0,0 L20,10 L20,30 L0,40 Z"
       id="path96" />
    <g
       s:x="0"
       s:y="10"
       s:pid="A"
       id="g98" />
    <g
       s:x="0"
       s:y="30"
       s:pid="B"
       id="g100" />
    <g
       s:x="10"
       s:y="35"
       s:pid="S"
       id="g102" />
    <g
       s:x="20"
       s:y="20"
       s:pid="Y"
       id="g104" />
  </g>
  <g
     s:type="generic"
     transform="translate(143,144.5)"
     s:width="30"
     s:height="40"
     id="g106">
    <text
       x="15"
       y="-4"
       class="nodelabel"
       s:attribute="ref"
       id="text108"
       style="font-weight:bold;font-size:10px;font-family:'Courier New', monospace;text-anchor:middle;fill:#000000;stroke:none">
      <tspan
         style="fill:#ff0000;fill-opacity:1"
         id="tspan4352">mem_wrapper</tspan>
    </text>
    <rect
       width="30"
       height="100"
       s:generic="body"
       id="rect110"
       style="stroke:#ff0000;stroke-opacity:1" />
    <g
       transform="translate(0,10)"
       s:x="0"
       s:y="10"
       s:pid="in0"
       id="g112">
      <text
         x="-3"
         y="-4"
         class="inputPortLabel"
         id="text114">addr</text>
    </g>
    <g
       transform="translate(0,30)"
       s:x="0"
       s:y="10"
       s:pid="in0"
       id="g116">
      <text
         x="-3"
         y="-4"
         class="inputPortLabel"
         id="text118">clk</text>
    </g>
    <g
       transform="translate(0,50)"
       s:x="0"
       s:y="10"
       s:pid="in0"
       id="g120">
      <text
         x="-3"
         y="-4"
         class="inputPortLabel"
         id="text122">din</text>
    </g>
    <g
       transform="translate(0,70)"
       s:x="0"
       s:y="10"
       s:pid="in0"
       id="g124">
      <text
         x="-3"
         y="-4"
         class="inputPortLabel"
         id="text126">mmio</text>
    </g>
    <g
       transform="translate(0,90)"
       s:x="0"
       s:y="10"
       s:pid="in0"
       id="g128">
      <text
         x="-3"
         y="-4"
         class="inputPortLabel"
         id="text130">write_en</text>
    </g>
    <g
       transform="translate(30,10)"
       s:x="30"
       s:y="10"
       s:pid="out0"
       id="g132">
      <text
         x="5"
         y="-4"
         style="fill:#000; stroke:none"
         id="text134">dout</text>
    </g>
  </g>
  <line
     x1="174"
     y1="155"
     x2="508"
     y2="155"
     id="line136" />
  <line
     x1="174"
     y1="155"
     x2="354"
     y2="155"
     id="line138" />
  <line
     x1="354"
     y1="155"
     x2="354"
     y2="77"
     id="line140" />
  <circle
     cx="354"
     cy="155"
     r="2"
     style="fill:#000"
     id="circle142" />
  <line
     x1="354"
     y1="77"
     x2="385.3333333333333"
     y2="77"
     id="line144" />
  <line
     x1="40"
     y1="26"
     x2="483"
     y2="26"
     id="line146" />
  <line
     x1="483"
     y1="26"
     x2="483"
     y2="77"
     id="line148" />
  <line
     x1="483"
     y1="77"
     x2="508"
     y2="77"
     id="line150" />
  <line
     x1="40"
     y1="26"
     x2="74"
     y2="26"
     id="line152" />
  <line
     x1="74"
     y1="26"
     x2="74"
     y2="175"
     id="line154" />
  <circle
     cx="74"
     cy="26"
     r="2"
     style="fill:#000"
     id="circle156" />
  <line
     x1="74"
     y1="175"
     x2="143"
     y2="175"
     id="line158" />
  <line
     x1="473"
     y1="57"
     x2="508"
     y2="57"
     id="line160" />
  <line
     x1="538"
     y1="57"
     x2="551"
     y2="57"
     id="line162" />
  <line
     x1="551"
     y1="57"
     x2="551"
     y2="131"
     id="line164" />
  <line
     x1="551"
     y1="131"
     x2="428"
     y2="131"
     id="line166" />
  <line
     x1="428"
     y1="131"
     x2="428"
     y2="47"
     id="line168" />
  <line
     x1="428"
     y1="47"
     x2="453"
     y2="47"
     id="line170" />
  <line
     x1="538"
     y1="57"
     x2="551"
     y2="57"
     id="line172" />
  <line
     x1="551"
     y1="57"
     x2="551"
     y2="15"
     id="line174" />
  <line
     x1="551"
     y1="15"
     x2="84"
     y2="15"
     id="line176" />
  <line
     x1="84"
     y1="15"
     x2="84"
     y2="155"
     id="line178" />
  <circle
     cx="551"
     cy="57"
     r="2"
     style="fill:#000"
     id="circle180" />
  <line
     x1="84"
     y1="155"
     x2="143"
     y2="155"
     id="line182" />
  <line
     x1="405.3333333333333"
     y1="67"
     x2="453"
     y2="67"
     id="line184" />
  <line
     x1="407"
     y1="121"
     x2="463"
     y2="121"
     id="line186" />
  <line
     x1="463"
     y1="121"
     x2="463"
     y2="72"
     id="line188" />
  <line
     x1="171"
     y1="57"
     x2="385.3333333333333"
     y2="57"
     id="line190" />
  <line
     x1="171"
     y1="296.5"
     x2="364"
     y2="296.5"
     id="line192" />
  <line
     x1="364"
     y1="296.5"
     x2="364"
     y2="97"
     id="line194" />
  <line
     x1="364"
     y1="97"
     x2="395.3333333333333"
     y2="97"
     id="line196" />
  <line
     x1="395.3333333333333"
     y1="97"
     x2="395.3333333333333"
     y2="82"
     id="line198" />
  <line
     x1="40"
     y1="156"
     x2="64"
     y2="156"
     id="line200" />
  <line
     x1="64"
     y1="156"
     x2="64"
     y2="195"
     id="line202" />
  <line
     x1="64"
     y1="195"
     x2="143"
     y2="195"
     id="line204" />
  <line
     x1="40"
     y1="215"
     x2="143"
     y2="215"
     id="line206" />
  <line
     x1="40"
     y1="274"
     x2="64"
     y2="274"
     id="line208" />
  <line
     x1="64"
     y1="274"
     x2="64"
     y2="235"
     id="line210" />
  <line
     x1="64"
     y1="235"
     x2="143"
     y2="235"
     id="line212" />
</svg>
