<svg xmlns="http://www.w3.org/2000/svg" xmlns:xlink="http://www.w3.org/1999/xlink" xmlns:s="https://github.com/nturley/netlistsvg" width="597" height="295">
  <style>svg {
    stroke:#000;
    fill:none;
  }
  text {
    fill:#000;
    stroke:none;
    font-size:10px;
    font-weight: bold;
    font-family: "Courier New", monospace;
  }
  .nodelabel {
    text-anchor: middle;
  }
  .inputPortLabel {
    text-anchor: end;
  }
  .splitjoinBody {
    fill:#000;
  }</style>
  <g s:type="inputExt" transform="translate(135,180)" s:width="30" s:height="20">
    <text x="15" y="-4" class="nodelabel" s:attribute="ref">ADDR</text>
    <s:alias val="$_inputExt_"/>
    <path d="M0,0 L0,20 L15,20 L30,10 L15,0 Z"/>
    <g s:x="28" s:y="10" s:pid="Y"/>
  </g>
  <g s:type="inputExt" transform="translate(12,149)" s:width="30" s:height="20">
    <text x="15" y="-4" class="nodelabel" s:attribute="ref">clk</text>
    <s:alias val="$_inputExt_"/>
    <path d="M0,0 L0,20 L15,20 L30,10 L15,0 Z"/>
    <g s:x="28" s:y="10" s:pid="Y"/>
  </g>
  <g s:type="inputExt" transform="translate(12,26.5)" s:width="30" s:height="20">
    <text x="15" y="-4" class="nodelabel" s:attribute="ref">R</text>
    <s:alias val="$_inputExt_"/>
    <path d="M0,0 L0,20 L15,20 L30,10 L15,0 Z"/>
    <g s:x="28" s:y="10" s:pid="Y"/>
  </g>
  <g s:type="inputExt" transform="translate(135,239)" s:width="30" s:height="20">
    <text x="15" y="-4" class="nodelabel" s:attribute="ref">srcA</text>
    <s:alias val="$_inputExt_"/>
    <path d="M0,0 L0,20 L15,20 L30,10 L15,0 Z"/>
    <g s:x="28" s:y="10" s:pid="Y"/>
  </g>
  <g s:type="inputExt" transform="translate(12,208)" s:width="30" s:height="20">
    <text x="15" y="-4" class="nodelabel" s:attribute="ref">wM</text>
    <s:alias val="$_inputExt_"/>
    <path d="M0,0 L0,20 L15,20 L30,10 L15,0 Z"/>
    <g s:x="28" s:y="10" s:pid="Y"/>
  </g>
  <g s:type="inputExt" transform="translate(413,263)" s:width="30" s:height="20">
    <text x="15" y="-4" class="nodelabel" s:attribute="ref">wAR</text>
    <s:alias val="$_inputExt_"/>
    <path d="M0,0 L0,20 L15,20 L30,10 L15,0 Z"/>
    <g s:x="28" s:y="10" s:pid="Y"/>
  </g>
  <g s:type="outputExt" transform="translate(542,26.5)" s:width="30" s:height="20">
    <text x="15" y="-4" class="nodelabel" s:attribute="ref">M</text>
    <s:alias val="$_outputExt_"/>
    <path d="M30,0 L30,20 L15,20 L0,10 L15,0 Z"/>
    <g s:x="0" s:y="10" s:pid="A"/>
  </g>
  <g s:type="dff" transform="translate(542,129)" s:width="30" s:height="40">
    <s:alias val="$dff"/>
    <s:alias val="$_DFF_"/>
    <rect width="30" height="40" x="0" y="0"/>
    <path d="M0,35 L5,30 L0,25"/>
    <g s:x="30" s:y="10" s:pid="Q"/>
    <g s:x="0" s:y="30" s:pid="CLK"/>
    <g s:x="0" s:y="10" s:pid="D"/>
  </g>
  <g s:type="mux" transform="translate(487,170)" s:width="20" s:height="40">
    <s:alias val="$pmux"/>
    <s:alias val="$mux"/>
    <s:alias val="$_MUX_"/>
    <path d="M0,0 L20,10 L20,30 L0,40 Z"/>
    <g s:x="0" s:y="10" s:pid="A"/>
    <g s:x="0" s:y="30" s:pid="B"/>
    <g s:x="10" s:y="35" s:pid="S"/>
    <g s:x="20" s:y="20" s:pid="Y"/>
  </g>
  <g s:type="mux" transform="translate(419.3333333333333,180)" s:width="20" s:height="40">
    <s:alias val="$pmux"/>
    <s:alias val="$mux"/>
    <s:alias val="$_MUX_"/>
    <path d="M0,0 L20,10 L20,30 L0,40 Z"/>
    <g s:x="0" s:y="10" s:pid="A"/>
    <g s:x="0" s:y="30" s:pid="B"/>
    <g s:x="10" s:y="35" s:pid="S"/>
    <g s:x="20" s:y="20" s:pid="Y"/>
  </g>
  <g s:type="generic" transform="translate(135,26)" s:width="30" s:height="40">
    <text x="15" y="-4" class="nodelabel" s:attribute="ref">$paramod\ram\data_width=8\ram_size=256</text>
    <rect width="30" height="120" s:generic="body"/>
    <g transform="translate(0,10)" s:x="0" s:y="10" s:pid="in0">
      <text x="-3" y="-4" class="inputPortLabel">din</text>
    </g>
    <g transform="translate(0,30)" s:x="0" s:y="10" s:pid="in0">
      <text x="-3" y="-4" class="inputPortLabel">raddr</text>
    </g>
    <g transform="translate(0,50)" s:x="0" s:y="10" s:pid="in0">
      <text x="-3" y="-4" class="inputPortLabel">rclk</text>
    </g>
    <g transform="translate(0,70)" s:x="0" s:y="10" s:pid="in0">
      <text x="-3" y="-4" class="inputPortLabel">waddr</text>
    </g>
    <g transform="translate(0,90)" s:x="0" s:y="10" s:pid="in0">
      <text x="-3" y="-4" class="inputPortLabel">wclk</text>
    </g>
    <g transform="translate(0,110)" s:x="0" s:y="10" s:pid="in0">
      <text x="-3" y="-4" class="inputPortLabel">write_en</text>
    </g>
    <g transform="translate(30,10)" s:x="30" s:y="10" s:pid="out0">
      <text x="5" y="-4" style="fill:#000; stroke:none">dout</text>
    </g>
  </g>
  <line x1="166" y1="36.5" x2="542" y2="36.5"/>
  <line x1="166" y1="36.5" x2="388" y2="36.5"/>
  <line x1="388" y1="36.5" x2="388" y2="210"/>
  <circle cx="388" cy="36.5" r="2" style="fill:#000"/>
  <line x1="388" y1="210" x2="419.3333333333333" y2="210"/>
  <line x1="40" y1="159" x2="542" y2="159"/>
  <line x1="40" y1="159" x2="61" y2="159"/>
  <line x1="61" y1="159" x2="61" y2="76.5"/>
  <circle cx="61" cy="159" r="2" style="fill:#000"/>
  <line x1="61" y1="76.5" x2="135" y2="76.5"/>
  <line x1="40" y1="159" x2="61" y2="159"/>
  <line x1="61" y1="159" x2="61" y2="116.5"/>
  <circle cx="61" cy="116.5" r="2" style="fill:#000"/>
  <line x1="61" y1="116.5" x2="135" y2="116.5"/>
  <line x1="507" y1="190" x2="517" y2="190"/>
  <line x1="517" y1="190" x2="517" y2="139"/>
  <line x1="517" y1="139" x2="542" y2="139"/>
  <line x1="572" y1="139" x2="585" y2="139"/>
  <line x1="585" y1="139" x2="585" y2="283"/>
  <line x1="585" y1="283" x2="462" y2="283"/>
  <line x1="462" y1="283" x2="462" y2="180"/>
  <line x1="462" y1="180" x2="487" y2="180"/>
  <line x1="572" y1="139" x2="585" y2="139"/>
  <line x1="585" y1="139" x2="585" y2="12"/>
  <line x1="585" y1="12" x2="71" y2="12"/>
  <line x1="71" y1="12" x2="71" y2="56.5"/>
  <circle cx="71" cy="56.5" r="2" style="fill:#000"/>
  <circle cx="585" cy="139" r="2" style="fill:#000"/>
  <line x1="71" y1="56.5" x2="135" y2="56.5"/>
  <line x1="572" y1="139" x2="585" y2="139"/>
  <line x1="585" y1="139" x2="585" y2="12"/>
  <line x1="585" y1="12" x2="71" y2="12"/>
  <line x1="71" y1="12" x2="71" y2="96.5"/>
  <line x1="71" y1="96.5" x2="135" y2="96.5"/>
  <line x1="439.3333333333333" y1="200" x2="487" y2="200"/>
  <line x1="441" y1="273" x2="497" y2="273"/>
  <line x1="497" y1="273" x2="497" y2="205"/>
  <line x1="163" y1="190" x2="419.3333333333333" y2="190"/>
  <line x1="163" y1="249" x2="429.3333333333333" y2="249"/>
  <line x1="429.3333333333333" y1="249" x2="429.3333333333333" y2="215"/>
  <line x1="40" y1="36.5" x2="135" y2="36.5"/>
  <line x1="40" y1="218" x2="71" y2="218"/>
  <line x1="71" y1="218" x2="71" y2="136.5"/>
  <line x1="71" y1="136.5" x2="135" y2="136.5"/>
</svg>
