<svg xmlns="http://www.w3.org/2000/svg" xmlns:xlink="http://www.w3.org/1999/xlink" xmlns:s="https://github.com/nturley/netlistsvg" width="979" height="1481">
  <style>svg {
    stroke:#000;
    fill:none;
  }
  text {
    fill:#000;
    stroke:none;
    font-size:10px;
    font-weight: bold;
    font-family: "Courier New", monospace;
  }
  .nodelabel {
    text-anchor: middle;
  }
  .inputPortLabel {
    text-anchor: end;
  }
  .splitjoinBody {
    fill:#000;
  }</style>
  <g s:type="inputExt" transform="translate(706,502)" s:width="30" s:height="20">
    <text x="15" y="-4" class="nodelabel" s:attribute="ref">clk</text>
    <s:alias val="$_inputExt_"/>
    <path d="M0,0 L0,20 L15,20 L30,10 L15,0 Z"/>
    <g s:x="28" s:y="10" s:pid="Y"/>
  </g>
  <g s:type="inputExt" transform="translate(63,16)" s:width="30" s:height="20">
    <text x="15" y="-4" class="nodelabel" s:attribute="ref">addr</text>
    <s:alias val="$_inputExt_"/>
    <path d="M0,0 L0,20 L15,20 L30,10 L15,0 Z"/>
    <g s:x="28" s:y="10" s:pid="Y"/>
  </g>
  <g s:type="inputExt" transform="translate(706,388)" s:width="30" s:height="20">
    <text x="15" y="-4" class="nodelabel" s:attribute="ref">write_en</text>
    <s:alias val="$_inputExt_"/>
    <path d="M0,0 L0,20 L15,20 L30,10 L15,0 Z"/>
    <g s:x="28" s:y="10" s:pid="Y"/>
  </g>
  <g s:type="inputExt" transform="translate(12,16)" s:width="30" s:height="20">
    <text x="15" y="-4" class="nodelabel" s:attribute="ref">rst</text>
    <s:alias val="$_inputExt_"/>
    <path d="M0,0 L0,20 L15,20 L30,10 L15,0 Z"/>
    <g s:x="28" s:y="10" s:pid="Y"/>
  </g>
  <g s:type="inputExt" transform="translate(549,1394)" s:width="30" s:height="20">
    <text x="15" y="-4" class="nodelabel" s:attribute="ref">din</text>
    <s:alias val="$_inputExt_"/>
    <path d="M0,0 L0,20 L15,20 L30,10 L15,0 Z"/>
    <g s:x="28" s:y="10" s:pid="Y"/>
  </g>
  <g s:type="outputExt" transform="translate(915,592.5)" s:width="30" s:height="20">
    <text x="15" y="-4" class="nodelabel" s:attribute="ref">dout</text>
    <s:alias val="$_outputExt_"/>
    <path d="M30,0 L30,20 L15,20 L0,10 L15,0 Z"/>
    <g s:x="0" s:y="10" s:pid="A"/>
  </g>
  <g s:type="dff" transform="translate(915,33)" s:width="30" s:height="40">
    <s:alias val="$dff"/>
    <s:alias val="$_DFF_"/>
    <rect width="30" height="40" x="0" y="0"/>
    <path d="M0,35 L5,30 L0,25"/>
    <g s:x="30" s:y="10" s:pid="Q"/>
    <g s:x="0" s:y="30" s:pid="CLK"/>
    <g s:x="0" s:y="10" s:pid="D"/>
  </g>
  <g s:type="dff" transform="translate(795,443)" s:width="30" s:height="40">
    <s:alias val="$dff"/>
    <s:alias val="$_DFF_"/>
    <rect width="30" height="40" x="0" y="0"/>
    <path d="M0,35 L5,30 L0,25"/>
    <g s:x="30" s:y="10" s:pid="Q"/>
    <g s:x="0" s:y="30" s:pid="CLK"/>
    <g s:x="0" s:y="10" s:pid="D"/>
  </g>
  <g s:type="mux" transform="translate(860,23)" s:width="20" s:height="40">
    <s:alias val="$pmux"/>
    <s:alias val="$mux"/>
    <s:alias val="$_MUX_"/>
    <path d="M0,0 L20,10 L20,30 L0,40 Z"/>
    <g s:x="0" s:y="10" s:pid="A"/>
    <g s:x="0" s:y="30" s:pid="B"/>
    <g s:x="10" s:y="35" s:pid="S"/>
    <g s:x="20" s:y="20" s:pid="Y"/>
  </g>
  <g s:type="mux" transform="translate(798.3333333333334,117.5)" s:width="20" s:height="40">
    <s:alias val="$pmux"/>
    <s:alias val="$mux"/>
    <s:alias val="$_MUX_"/>
    <path d="M0,0 L20,10 L20,30 L0,40 Z"/>
    <g s:x="0" s:y="10" s:pid="A"/>
    <g s:x="0" s:y="30" s:pid="B"/>
    <g s:x="10" s:y="35" s:pid="S"/>
    <g s:x="20" s:y="20" s:pid="Y"/>
  </g>
  <g s:type="generic" transform="translate(549,45)" s:width="30" s:height="40">
    <text x="15" y="-4" class="nodelabel" s:attribute="ref">CA_cell</text>
    <rect width="30" height="40" s:generic="body"/>
    <g transform="translate(0,10)" s:x="0" s:y="10" s:pid="in0">
      <text x="-3" y="-4" class="inputPortLabel">in</text>
    </g>
    <g transform="translate(0,30)" s:x="0" s:y="10" s:pid="in0">
      <text x="-3" y="-4" class="inputPortLabel">rule</text>
    </g>
    <g transform="translate(30,10)" s:x="30" s:y="10" s:pid="out0">
      <text x="5" y="-4" style="fill:#000; stroke:none">out</text>
    </g>
  </g>
  <g s:type="generic" transform="translate(549,209)" s:width="30" s:height="40">
    <text x="15" y="-4" class="nodelabel" s:attribute="ref">CA_cell</text>
    <rect width="30" height="40" s:generic="body"/>
    <g transform="translate(0,10)" s:x="0" s:y="10" s:pid="in0">
      <text x="-3" y="-4" class="inputPortLabel">in</text>
    </g>
    <g transform="translate(0,30)" s:x="0" s:y="10" s:pid="in0">
      <text x="-3" y="-4" class="inputPortLabel">rule</text>
    </g>
    <g transform="translate(30,10)" s:x="30" s:y="10" s:pid="out0">
      <text x="5" y="-4" style="fill:#000; stroke:none">out</text>
    </g>
  </g>
  <g s:type="generic" transform="translate(549,291)" s:width="30" s:height="40">
    <text x="15" y="-4" class="nodelabel" s:attribute="ref">CA_cell</text>
    <rect width="30" height="40" s:generic="body"/>
    <g transform="translate(0,10)" s:x="0" s:y="10" s:pid="in0">
      <text x="-3" y="-4" class="inputPortLabel">in</text>
    </g>
    <g transform="translate(0,30)" s:x="0" s:y="10" s:pid="in0">
      <text x="-3" y="-4" class="inputPortLabel">rule</text>
    </g>
    <g transform="translate(30,10)" s:x="30" s:y="10" s:pid="out0">
      <text x="5" y="-4" style="fill:#000; stroke:none">out</text>
    </g>
  </g>
  <g s:type="generic" transform="translate(549,373)" s:width="30" s:height="40">
    <text x="15" y="-4" class="nodelabel" s:attribute="ref">CA_cell</text>
    <rect width="30" height="40" s:generic="body"/>
    <g transform="translate(0,10)" s:x="0" s:y="10" s:pid="in0">
      <text x="-3" y="-4" class="inputPortLabel">in</text>
    </g>
    <g transform="translate(0,30)" s:x="0" s:y="10" s:pid="in0">
      <text x="-3" y="-4" class="inputPortLabel">rule</text>
    </g>
    <g transform="translate(30,10)" s:x="30" s:y="10" s:pid="out0">
      <text x="5" y="-4" style="fill:#000; stroke:none">out</text>
    </g>
  </g>
  <g s:type="generic" transform="translate(549,455)" s:width="30" s:height="40">
    <text x="15" y="-4" class="nodelabel" s:attribute="ref">CA_cell</text>
    <rect width="30" height="40" s:generic="body"/>
    <g transform="translate(0,10)" s:x="0" s:y="10" s:pid="in0">
      <text x="-3" y="-4" class="inputPortLabel">in</text>
    </g>
    <g transform="translate(0,30)" s:x="0" s:y="10" s:pid="in0">
      <text x="-3" y="-4" class="inputPortLabel">rule</text>
    </g>
    <g transform="translate(30,10)" s:x="30" s:y="10" s:pid="out0">
      <text x="5" y="-4" style="fill:#000; stroke:none">out</text>
    </g>
  </g>
  <g s:type="generic" transform="translate(549,1230)" s:width="30" s:height="40">
    <text x="15" y="-4" class="nodelabel" s:attribute="ref">CA_cell</text>
    <rect width="30" height="40" s:generic="body"/>
    <g transform="translate(0,10)" s:x="0" s:y="10" s:pid="in0">
      <text x="-3" y="-4" class="inputPortLabel">in</text>
    </g>
    <g transform="translate(0,30)" s:x="0" s:y="10" s:pid="in0">
      <text x="-3" y="-4" class="inputPortLabel">rule</text>
    </g>
    <g transform="translate(30,10)" s:x="30" s:y="10" s:pid="out0">
      <text x="5" y="-4" style="fill:#000; stroke:none">out</text>
    </g>
  </g>
  <g s:type="generic" transform="translate(549,1312)" s:width="30" s:height="40">
    <text x="15" y="-4" class="nodelabel" s:attribute="ref">CA_cell</text>
    <rect width="30" height="40" s:generic="body"/>
    <g transform="translate(0,10)" s:x="0" s:y="10" s:pid="in0">
      <text x="-3" y="-4" class="inputPortLabel">in</text>
    </g>
    <g transform="translate(0,30)" s:x="0" s:y="10" s:pid="in0">
      <text x="-3" y="-4" class="inputPortLabel">rule</text>
    </g>
    <g transform="translate(30,10)" s:x="30" s:y="10" s:pid="out0">
      <text x="5" y="-4" style="fill:#000; stroke:none">out</text>
    </g>
  </g>
  <g s:type="generic" transform="translate(549,127)" s:width="30" s:height="40">
    <text x="15" y="-4" class="nodelabel" s:attribute="ref">CA_cell</text>
    <rect width="30" height="40" s:generic="body"/>
    <g transform="translate(0,10)" s:x="0" s:y="10" s:pid="in0">
      <text x="-3" y="-4" class="inputPortLabel">in</text>
    </g>
    <g transform="translate(0,30)" s:x="0" s:y="10" s:pid="in0">
      <text x="-3" y="-4" class="inputPortLabel">rule</text>
    </g>
    <g transform="translate(30,10)" s:x="30" s:y="10" s:pid="out0">
      <text x="5" y="-4" style="fill:#000; stroke:none">out</text>
    </g>
  </g>
  <g s:type="generic" transform="translate(407,520)" s:width="30" s:height="40">
    <text x="15" y="-4" class="nodelabel" s:attribute="ref">CA_cell</text>
    <rect width="30" height="40" s:generic="body"/>
    <g transform="translate(0,10)" s:x="0" s:y="10" s:pid="in0">
      <text x="-3" y="-4" class="inputPortLabel">in</text>
    </g>
    <g transform="translate(0,30)" s:x="0" s:y="10" s:pid="in0">
      <text x="-3" y="-4" class="inputPortLabel">rule</text>
    </g>
    <g transform="translate(30,10)" s:x="30" s:y="10" s:pid="out0">
      <text x="5" y="-4" style="fill:#000; stroke:none">out</text>
    </g>
  </g>
  <g s:type="generic" transform="translate(407,602)" s:width="30" s:height="40">
    <text x="15" y="-4" class="nodelabel" s:attribute="ref">CA_cell</text>
    <rect width="30" height="40" s:generic="body"/>
    <g transform="translate(0,10)" s:x="0" s:y="10" s:pid="in0">
      <text x="-3" y="-4" class="inputPortLabel">in</text>
    </g>
    <g transform="translate(0,30)" s:x="0" s:y="10" s:pid="in0">
      <text x="-3" y="-4" class="inputPortLabel">rule</text>
    </g>
    <g transform="translate(30,10)" s:x="30" s:y="10" s:pid="out0">
      <text x="5" y="-4" style="fill:#000; stroke:none">out</text>
    </g>
  </g>
  <g s:type="generic" transform="translate(407,684)" s:width="30" s:height="40">
    <text x="15" y="-4" class="nodelabel" s:attribute="ref">CA_cell</text>
    <rect width="30" height="40" s:generic="body"/>
    <g transform="translate(0,10)" s:x="0" s:y="10" s:pid="in0">
      <text x="-3" y="-4" class="inputPortLabel">in</text>
    </g>
    <g transform="translate(0,30)" s:x="0" s:y="10" s:pid="in0">
      <text x="-3" y="-4" class="inputPortLabel">rule</text>
    </g>
    <g transform="translate(30,10)" s:x="30" s:y="10" s:pid="out0">
      <text x="5" y="-4" style="fill:#000; stroke:none">out</text>
    </g>
  </g>
  <g s:type="generic" transform="translate(407,814)" s:width="30" s:height="40">
    <text x="15" y="-4" class="nodelabel" s:attribute="ref">CA_cell</text>
    <rect width="30" height="40" s:generic="body"/>
    <g transform="translate(0,10)" s:x="0" s:y="10" s:pid="in0">
      <text x="-3" y="-4" class="inputPortLabel">in</text>
    </g>
    <g transform="translate(0,30)" s:x="0" s:y="10" s:pid="in0">
      <text x="-3" y="-4" class="inputPortLabel">rule</text>
    </g>
    <g transform="translate(30,10)" s:x="30" s:y="10" s:pid="out0">
      <text x="5" y="-4" style="fill:#000; stroke:none">out</text>
    </g>
  </g>
  <g s:type="generic" transform="translate(407,896)" s:width="30" s:height="40">
    <text x="15" y="-4" class="nodelabel" s:attribute="ref">CA_cell</text>
    <rect width="30" height="40" s:generic="body"/>
    <g transform="translate(0,10)" s:x="0" s:y="10" s:pid="in0">
      <text x="-3" y="-4" class="inputPortLabel">in</text>
    </g>
    <g transform="translate(0,30)" s:x="0" s:y="10" s:pid="in0">
      <text x="-3" y="-4" class="inputPortLabel">rule</text>
    </g>
    <g transform="translate(30,10)" s:x="30" s:y="10" s:pid="out0">
      <text x="5" y="-4" style="fill:#000; stroke:none">out</text>
    </g>
  </g>
  <g s:type="generic" transform="translate(407,978)" s:width="30" s:height="40">
    <text x="15" y="-4" class="nodelabel" s:attribute="ref">CA_cell</text>
    <rect width="30" height="40" s:generic="body"/>
    <g transform="translate(0,10)" s:x="0" s:y="10" s:pid="in0">
      <text x="-3" y="-4" class="inputPortLabel">in</text>
    </g>
    <g transform="translate(0,30)" s:x="0" s:y="10" s:pid="in0">
      <text x="-3" y="-4" class="inputPortLabel">rule</text>
    </g>
    <g transform="translate(30,10)" s:x="30" s:y="10" s:pid="out0">
      <text x="5" y="-4" style="fill:#000; stroke:none">out</text>
    </g>
  </g>
  <g s:type="generic" transform="translate(407,1060)" s:width="30" s:height="40">
    <text x="15" y="-4" class="nodelabel" s:attribute="ref">CA_cell</text>
    <rect width="30" height="40" s:generic="body"/>
    <g transform="translate(0,10)" s:x="0" s:y="10" s:pid="in0">
      <text x="-3" y="-4" class="inputPortLabel">in</text>
    </g>
    <g transform="translate(0,30)" s:x="0" s:y="10" s:pid="in0">
      <text x="-3" y="-4" class="inputPortLabel">rule</text>
    </g>
    <g transform="translate(30,10)" s:x="30" s:y="10" s:pid="out0">
      <text x="5" y="-4" style="fill:#000; stroke:none">out</text>
    </g>
  </g>
  <g s:type="generic" transform="translate(407,1142)" s:width="30" s:height="40">
    <text x="15" y="-4" class="nodelabel" s:attribute="ref">CA_cell</text>
    <rect width="30" height="40" s:generic="body"/>
    <g transform="translate(0,10)" s:x="0" s:y="10" s:pid="in0">
      <text x="-3" y="-4" class="inputPortLabel">in</text>
    </g>
    <g transform="translate(0,30)" s:x="0" s:y="10" s:pid="in0">
      <text x="-3" y="-4" class="inputPortLabel">rule</text>
    </g>
    <g transform="translate(30,10)" s:x="30" s:y="10" s:pid="out0">
      <text x="5" y="-4" style="fill:#000; stroke:none">out</text>
    </g>
  </g>
  <g s:type="constant" transform="translate(706,443)" s:width="30" s:height="20">
    <text x="15" y="-4" class="nodelabel" s:attribute="ref">1</text>
    <s:alias val="$_constant_"/>
    <rect width="30" height="20"/>
    <g s:x="30" s:y="10" s:pid="Y"/>
  </g>
  <g s:type="constant" transform="translate(795,23)" s:width="30" s:height="20">
    <text x="15" y="-4" class="nodelabel" s:attribute="ref">0x177</text>
    <s:alias val="$_constant_"/>
    <rect width="30" height="20"/>
    <g s:x="30" s:y="10" s:pid="Y"/>
  </g>
  <g s:type="constant" transform="translate(549,1449)" s:width="30" s:height="20">
    <text x="15" y="-4" class="nodelabel" s:attribute="ref">0x1</text>
    <s:alias val="$_constant_"/>
    <rect width="30" height="20"/>
    <g s:x="30" s:y="10" s:pid="Y"/>
  </g>
  <g s:type="constant" transform="translate(317,749)" s:width="30" s:height="20">
    <text x="15" y="-4" class="nodelabel" s:attribute="ref">0x1e</text>
    <s:alias val="$_constant_"/>
    <rect width="30" height="20"/>
    <g s:x="30" s:y="10" s:pid="Y"/>
  </g>
  <g s:type="join" transform="translate(553,582)" s:width="4" s:height="40">
    <rect width="5" height="160" class="splitjoinBody" s:generic="body"/>
    <s:alias val="$_join_"/>
    <g s:x="5" s:y="20" s:pid="out"/>
    <g transform="translate(0,10)" s:x="0" s:y="10" s:pid="in0">
      <text x="-3" y="-4" class="inputPortLabel">0</text>
    </g>
    <g transform="translate(0,30)" s:x="0" s:y="10" s:pid="in0">
      <text x="-3" y="-4" class="inputPortLabel">1</text>
    </g>
    <g transform="translate(0,50)" s:x="0" s:y="10" s:pid="in0">
      <text x="-3" y="-4" class="inputPortLabel">2</text>
    </g>
    <g transform="translate(0,70)" s:x="0" s:y="10" s:pid="in0">
      <text x="-3" y="-4" class="inputPortLabel">3</text>
    </g>
    <g transform="translate(0,90)" s:x="0" s:y="10" s:pid="in0">
      <text x="-3" y="-4" class="inputPortLabel">4</text>
    </g>
    <g transform="translate(0,110)" s:x="0" s:y="10" s:pid="in0">
      <text x="-3" y="-4" class="inputPortLabel">5</text>
    </g>
    <g transform="translate(0,130)" s:x="0" s:y="10" s:pid="in0">
      <text x="-3" y="-4" class="inputPortLabel">6</text>
    </g>
    <g transform="translate(0,150)" s:x="0" s:y="10" s:pid="in0">
      <text x="-3" y="-4" class="inputPortLabel">7</text>
    </g>
  </g>
  <g s:type="join" transform="translate(726.5,107)" s:width="4" s:height="40">
    <rect width="5" height="180" class="splitjoinBody" s:generic="body"/>
    <s:alias val="$_join_"/>
    <g s:x="5" s:y="20" s:pid="out"/>
    <g transform="translate(0,10)" s:x="0" s:y="10" s:pid="in0">
      <text x="-3" y="-4" class="inputPortLabel">0</text>
    </g>
    <g transform="translate(0,30)" s:x="0" s:y="10" s:pid="in0">
      <text x="-3" y="-4" class="inputPortLabel">1</text>
    </g>
    <g transform="translate(0,50)" s:x="0" s:y="10" s:pid="in0">
      <text x="-3" y="-4" class="inputPortLabel">2:9</text>
    </g>
    <g transform="translate(0,70)" s:x="0" s:y="10" s:pid="in0">
      <text x="-3" y="-4" class="inputPortLabel">10</text>
    </g>
    <g transform="translate(0,90)" s:x="0" s:y="10" s:pid="in0">
      <text x="-3" y="-4" class="inputPortLabel">11</text>
    </g>
    <g transform="translate(0,110)" s:x="0" s:y="10" s:pid="in0">
      <text x="-3" y="-4" class="inputPortLabel">12</text>
    </g>
    <g transform="translate(0,130)" s:x="0" s:y="10" s:pid="in0">
      <text x="-3" y="-4" class="inputPortLabel">13</text>
    </g>
    <g transform="translate(0,150)" s:x="0" s:y="10" s:pid="in0">
      <text x="-3" y="-4" class="inputPortLabel">14</text>
    </g>
    <g transform="translate(0,170)" s:x="0" s:y="10" s:pid="in0">
      <text x="-3" y="-4" class="inputPortLabel">15</text>
    </g>
  </g>
  <g s:type="join" transform="translate(729,309)" s:width="4" s:height="40">
    <rect width="5" height="40" class="splitjoinBody" s:generic="body"/>
    <s:alias val="$_join_"/>
    <g s:x="5" s:y="20" s:pid="out"/>
    <g transform="translate(0,10)" s:x="0" s:y="10" s:pid="in0">
      <text x="-3" y="-4" class="inputPortLabel">0:7</text>
    </g>
    <g transform="translate(0,30)" s:x="0" s:y="10" s:pid="in0">
      <text x="-3" y="-4" class="inputPortLabel">8:15</text>
    </g>
  </g>
  <g s:type="join" transform="translate(421,35)" s:width="4" s:height="40">
    <rect width="5" height="40" class="splitjoinBody" s:generic="body"/>
    <s:alias val="$_join_"/>
    <g s:x="5" s:y="20" s:pid="out"/>
    <g transform="translate(0,10)" s:x="0" s:y="10" s:pid="in0">
      <text x="-3" y="-4" class="inputPortLabel">0:1</text>
    </g>
  </g>
  <g s:type="join" transform="translate(332,25)" s:width="4" s:height="40">
    <rect width="5" height="40" class="splitjoinBody" s:generic="body"/>
    <s:alias val="$_join_"/>
    <g s:x="5" s:y="20" s:pid="out"/>
    <g transform="translate(0,10)" s:x="0" s:y="10" s:pid="in0">
      <text x="-3" y="-4" class="inputPortLabel">0</text>
    </g>
    <g transform="translate(0,30)" s:x="0" s:y="10" s:pid="in0">
      <text x="-3" y="-4" class="inputPortLabel">1</text>
    </g>
  </g>
  <g s:type="join" transform="translate(421,199)" s:width="4" s:height="40">
    <rect width="5" height="40" class="splitjoinBody" s:generic="body"/>
    <s:alias val="$_join_"/>
    <g s:x="5" s:y="20" s:pid="out"/>
    <g transform="translate(0,10)" s:x="0" s:y="10" s:pid="in0">
      <text x="-3" y="-4" class="inputPortLabel">0:1</text>
    </g>
  </g>
  <g s:type="join" transform="translate(332,189)" s:width="4" s:height="40">
    <rect width="5" height="40" class="splitjoinBody" s:generic="body"/>
    <s:alias val="$_join_"/>
    <g s:x="5" s:y="20" s:pid="out"/>
    <g transform="translate(0,10)" s:x="0" s:y="10" s:pid="in0">
      <text x="-3" y="-4" class="inputPortLabel">0</text>
    </g>
    <g transform="translate(0,30)" s:x="0" s:y="10" s:pid="in0">
      <text x="-3" y="-4" class="inputPortLabel">1</text>
    </g>
  </g>
  <g s:type="join" transform="translate(421,281)" s:width="4" s:height="40">
    <rect width="5" height="40" class="splitjoinBody" s:generic="body"/>
    <s:alias val="$_join_"/>
    <g s:x="5" s:y="20" s:pid="out"/>
    <g transform="translate(0,10)" s:x="0" s:y="10" s:pid="in0">
      <text x="-3" y="-4" class="inputPortLabel">0:1</text>
    </g>
  </g>
  <g s:type="join" transform="translate(332,271)" s:width="4" s:height="40">
    <rect width="5" height="40" class="splitjoinBody" s:generic="body"/>
    <s:alias val="$_join_"/>
    <g s:x="5" s:y="20" s:pid="out"/>
    <g transform="translate(0,10)" s:x="0" s:y="10" s:pid="in0">
      <text x="-3" y="-4" class="inputPortLabel">0</text>
    </g>
    <g transform="translate(0,30)" s:x="0" s:y="10" s:pid="in0">
      <text x="-3" y="-4" class="inputPortLabel">1</text>
    </g>
  </g>
  <g s:type="join" transform="translate(421,363)" s:width="4" s:height="40">
    <rect width="5" height="40" class="splitjoinBody" s:generic="body"/>
    <s:alias val="$_join_"/>
    <g s:x="5" s:y="20" s:pid="out"/>
    <g transform="translate(0,10)" s:x="0" s:y="10" s:pid="in0">
      <text x="-3" y="-4" class="inputPortLabel">0:1</text>
    </g>
  </g>
  <g s:type="join" transform="translate(332,353)" s:width="4" s:height="40">
    <rect width="5" height="40" class="splitjoinBody" s:generic="body"/>
    <s:alias val="$_join_"/>
    <g s:x="5" s:y="20" s:pid="out"/>
    <g transform="translate(0,10)" s:x="0" s:y="10" s:pid="in0">
      <text x="-3" y="-4" class="inputPortLabel">0</text>
    </g>
    <g transform="translate(0,30)" s:x="0" s:y="10" s:pid="in0">
      <text x="-3" y="-4" class="inputPortLabel">1</text>
    </g>
  </g>
  <g s:type="join" transform="translate(421,445)" s:width="4" s:height="40">
    <rect width="5" height="40" class="splitjoinBody" s:generic="body"/>
    <s:alias val="$_join_"/>
    <g s:x="5" s:y="20" s:pid="out"/>
    <g transform="translate(0,10)" s:x="0" s:y="10" s:pid="in0">
      <text x="-3" y="-4" class="inputPortLabel">0:1</text>
    </g>
  </g>
  <g s:type="join" transform="translate(332,435)" s:width="4" s:height="40">
    <rect width="5" height="40" class="splitjoinBody" s:generic="body"/>
    <s:alias val="$_join_"/>
    <g s:x="5" s:y="20" s:pid="out"/>
    <g transform="translate(0,10)" s:x="0" s:y="10" s:pid="in0">
      <text x="-3" y="-4" class="inputPortLabel">0</text>
    </g>
    <g transform="translate(0,30)" s:x="0" s:y="10" s:pid="in0">
      <text x="-3" y="-4" class="inputPortLabel">1</text>
    </g>
  </g>
  <g s:type="join" transform="translate(421,1220)" s:width="4" s:height="40">
    <rect width="5" height="40" class="splitjoinBody" s:generic="body"/>
    <s:alias val="$_join_"/>
    <g s:x="5" s:y="20" s:pid="out"/>
    <g transform="translate(0,10)" s:x="0" s:y="10" s:pid="in0">
      <text x="-3" y="-4" class="inputPortLabel">0:1</text>
    </g>
  </g>
  <g s:type="join" transform="translate(332,1210)" s:width="4" s:height="40">
    <rect width="5" height="40" class="splitjoinBody" s:generic="body"/>
    <s:alias val="$_join_"/>
    <g s:x="5" s:y="20" s:pid="out"/>
    <g transform="translate(0,10)" s:x="0" s:y="10" s:pid="in0">
      <text x="-3" y="-4" class="inputPortLabel">0</text>
    </g>
    <g transform="translate(0,30)" s:x="0" s:y="10" s:pid="in0">
      <text x="-3" y="-4" class="inputPortLabel">1</text>
    </g>
  </g>
  <g s:type="join" transform="translate(416.3333333333333,1302)" s:width="4" s:height="40">
    <rect width="5" height="40" class="splitjoinBody" s:generic="body"/>
    <s:alias val="$_join_"/>
    <g s:x="5" s:y="20" s:pid="out"/>
    <g transform="translate(0,10)" s:x="0" s:y="10" s:pid="in0">
      <text x="-3" y="-4" class="inputPortLabel">0</text>
    </g>
    <g transform="translate(0,30)" s:x="0" s:y="10" s:pid="in0">
      <text x="-3" y="-4" class="inputPortLabel">1:2</text>
    </g>
  </g>
  <g s:type="join" transform="translate(421,117)" s:width="4" s:height="40">
    <rect width="5" height="40" class="splitjoinBody" s:generic="body"/>
    <s:alias val="$_join_"/>
    <g s:x="5" s:y="20" s:pid="out"/>
    <g transform="translate(0,10)" s:x="0" s:y="10" s:pid="in0">
      <text x="-3" y="-4" class="inputPortLabel">0:1</text>
    </g>
  </g>
  <g s:type="join" transform="translate(332,107)" s:width="4" s:height="40">
    <rect width="5" height="40" class="splitjoinBody" s:generic="body"/>
    <s:alias val="$_join_"/>
    <g s:x="5" s:y="20" s:pid="out"/>
    <g transform="translate(0,10)" s:x="0" s:y="10" s:pid="in0">
      <text x="-3" y="-4" class="inputPortLabel">0</text>
    </g>
    <g transform="translate(0,30)" s:x="0" s:y="10" s:pid="in0">
      <text x="-3" y="-4" class="inputPortLabel">1</text>
    </g>
  </g>
  <g s:type="join" transform="translate(336,510)" s:width="4" s:height="40">
    <rect width="5" height="40" class="splitjoinBody" s:generic="body"/>
    <s:alias val="$_join_"/>
    <g s:x="5" s:y="20" s:pid="out"/>
    <g transform="translate(0,10)" s:x="0" s:y="10" s:pid="in0">
      <text x="-3" y="-4" class="inputPortLabel">0:1</text>
    </g>
  </g>
  <g s:type="join" transform="translate(276,500)" s:width="4" s:height="40">
    <rect width="5" height="40" class="splitjoinBody" s:generic="body"/>
    <s:alias val="$_join_"/>
    <g s:x="5" s:y="20" s:pid="out"/>
    <g transform="translate(0,10)" s:x="0" s:y="10" s:pid="in0">
      <text x="-3" y="-4" class="inputPortLabel">0</text>
    </g>
    <g transform="translate(0,30)" s:x="0" s:y="10" s:pid="in0">
      <text x="-3" y="-4" class="inputPortLabel">1</text>
    </g>
  </g>
  <g s:type="join" transform="translate(336,592)" s:width="4" s:height="40">
    <rect width="5" height="40" class="splitjoinBody" s:generic="body"/>
    <s:alias val="$_join_"/>
    <g s:x="5" s:y="20" s:pid="out"/>
    <g transform="translate(0,10)" s:x="0" s:y="10" s:pid="in0">
      <text x="-3" y="-4" class="inputPortLabel">0:1</text>
    </g>
  </g>
  <g s:type="join" transform="translate(276,582)" s:width="4" s:height="40">
    <rect width="5" height="40" class="splitjoinBody" s:generic="body"/>
    <s:alias val="$_join_"/>
    <g s:x="5" s:y="20" s:pid="out"/>
    <g transform="translate(0,10)" s:x="0" s:y="10" s:pid="in0">
      <text x="-3" y="-4" class="inputPortLabel">0</text>
    </g>
    <g transform="translate(0,30)" s:x="0" s:y="10" s:pid="in0">
      <text x="-3" y="-4" class="inputPortLabel">1</text>
    </g>
  </g>
  <g s:type="join" transform="translate(336,674)" s:width="4" s:height="40">
    <rect width="5" height="40" class="splitjoinBody" s:generic="body"/>
    <s:alias val="$_join_"/>
    <g s:x="5" s:y="20" s:pid="out"/>
    <g transform="translate(0,10)" s:x="0" s:y="10" s:pid="in0">
      <text x="-3" y="-4" class="inputPortLabel">0:1</text>
    </g>
  </g>
  <g s:type="join" transform="translate(276,664)" s:width="4" s:height="40">
    <rect width="5" height="40" class="splitjoinBody" s:generic="body"/>
    <s:alias val="$_join_"/>
    <g s:x="5" s:y="20" s:pid="out"/>
    <g transform="translate(0,10)" s:x="0" s:y="10" s:pid="in0">
      <text x="-3" y="-4" class="inputPortLabel">0</text>
    </g>
    <g transform="translate(0,30)" s:x="0" s:y="10" s:pid="in0">
      <text x="-3" y="-4" class="inputPortLabel">1</text>
    </g>
  </g>
  <g s:type="join" transform="translate(336,804)" s:width="4" s:height="40">
    <rect width="5" height="40" class="splitjoinBody" s:generic="body"/>
    <s:alias val="$_join_"/>
    <g s:x="5" s:y="20" s:pid="out"/>
    <g transform="translate(0,10)" s:x="0" s:y="10" s:pid="in0">
      <text x="-3" y="-4" class="inputPortLabel">0:1</text>
    </g>
  </g>
  <g s:type="join" transform="translate(276,794)" s:width="4" s:height="40">
    <rect width="5" height="40" class="splitjoinBody" s:generic="body"/>
    <s:alias val="$_join_"/>
    <g s:x="5" s:y="20" s:pid="out"/>
    <g transform="translate(0,10)" s:x="0" s:y="10" s:pid="in0">
      <text x="-3" y="-4" class="inputPortLabel">0</text>
    </g>
    <g transform="translate(0,30)" s:x="0" s:y="10" s:pid="in0">
      <text x="-3" y="-4" class="inputPortLabel">1</text>
    </g>
  </g>
  <g s:type="join" transform="translate(336,886)" s:width="4" s:height="40">
    <rect width="5" height="40" class="splitjoinBody" s:generic="body"/>
    <s:alias val="$_join_"/>
    <g s:x="5" s:y="20" s:pid="out"/>
    <g transform="translate(0,10)" s:x="0" s:y="10" s:pid="in0">
      <text x="-3" y="-4" class="inputPortLabel">0:1</text>
    </g>
  </g>
  <g s:type="join" transform="translate(276,876)" s:width="4" s:height="40">
    <rect width="5" height="40" class="splitjoinBody" s:generic="body"/>
    <s:alias val="$_join_"/>
    <g s:x="5" s:y="20" s:pid="out"/>
    <g transform="translate(0,10)" s:x="0" s:y="10" s:pid="in0">
      <text x="-3" y="-4" class="inputPortLabel">0</text>
    </g>
    <g transform="translate(0,30)" s:x="0" s:y="10" s:pid="in0">
      <text x="-3" y="-4" class="inputPortLabel">1</text>
    </g>
  </g>
  <g s:type="join" transform="translate(336,968)" s:width="4" s:height="40">
    <rect width="5" height="40" class="splitjoinBody" s:generic="body"/>
    <s:alias val="$_join_"/>
    <g s:x="5" s:y="20" s:pid="out"/>
    <g transform="translate(0,10)" s:x="0" s:y="10" s:pid="in0">
      <text x="-3" y="-4" class="inputPortLabel">0:1</text>
    </g>
  </g>
  <g s:type="join" transform="translate(276,958)" s:width="4" s:height="40">
    <rect width="5" height="40" class="splitjoinBody" s:generic="body"/>
    <s:alias val="$_join_"/>
    <g s:x="5" s:y="20" s:pid="out"/>
    <g transform="translate(0,10)" s:x="0" s:y="10" s:pid="in0">
      <text x="-3" y="-4" class="inputPortLabel">0</text>
    </g>
    <g transform="translate(0,30)" s:x="0" s:y="10" s:pid="in0">
      <text x="-3" y="-4" class="inputPortLabel">1</text>
    </g>
  </g>
  <g s:type="join" transform="translate(336,1050)" s:width="4" s:height="40">
    <rect width="5" height="40" class="splitjoinBody" s:generic="body"/>
    <s:alias val="$_join_"/>
    <g s:x="5" s:y="20" s:pid="out"/>
    <g transform="translate(0,10)" s:x="0" s:y="10" s:pid="in0">
      <text x="-3" y="-4" class="inputPortLabel">0:1</text>
    </g>
  </g>
  <g s:type="join" transform="translate(276,1155.5)" s:width="4" s:height="40">
    <rect width="5" height="40" class="splitjoinBody" s:generic="body"/>
    <s:alias val="$_join_"/>
    <g s:x="5" s:y="20" s:pid="out"/>
    <g transform="translate(0,10)" s:x="0" s:y="10" s:pid="in0">
      <text x="-3" y="-4" class="inputPortLabel">0</text>
    </g>
    <g transform="translate(0,30)" s:x="0" s:y="10" s:pid="in0">
      <text x="-3" y="-4" class="inputPortLabel">1</text>
    </g>
  </g>
  <g s:type="join" transform="translate(332,1132)" s:width="4" s:height="40">
    <rect width="5" height="40" class="splitjoinBody" s:generic="body"/>
    <s:alias val="$_join_"/>
    <g s:x="5" s:y="20" s:pid="out"/>
    <g transform="translate(0,10)" s:x="0" s:y="10" s:pid="in0">
      <text x="-3" y="-4" class="inputPortLabel">0</text>
    </g>
    <g transform="translate(0,30)" s:x="0" s:y="10" s:pid="in0">
      <text x="-3" y="-4" class="inputPortLabel">1:2</text>
    </g>
  </g>
  <g s:type="split" transform="translate(117,422)" s:width="5" s:height="40">
    <rect width="5" height="320" class="splitjoinBody" s:generic="body"/>
    <s:alias val="$_split_"/>
    <g s:x="0" s:y="20" s:pid="in"/>
    <g transform="translate(4,10)" s:x="4" s:y="10" s:pid="out0">
      <text x="5" y="-4">1</text>
    </g>
    <g transform="translate(4,30)" s:x="4" s:y="10" s:pid="out0">
      <text x="5" y="-4">0</text>
    </g>
    <g transform="translate(4,50)" s:x="4" s:y="10" s:pid="out0">
      <text x="5" y="-4">11</text>
    </g>
    <g transform="translate(4,70)" s:x="4" s:y="10" s:pid="out0">
      <text x="5" y="-4">10</text>
    </g>
    <g transform="translate(4,90)" s:x="4" s:y="10" s:pid="out0">
      <text x="5" y="-4">12</text>
    </g>
    <g transform="translate(4,110)" s:x="4" s:y="10" s:pid="out0">
      <text x="5" y="-4">13</text>
    </g>
    <g transform="translate(4,130)" s:x="4" s:y="10" s:pid="out0">
      <text x="5" y="-4">14</text>
    </g>
    <g transform="translate(4,150)" s:x="4" s:y="10" s:pid="out0">
      <text x="5" y="-4">15</text>
    </g>
    <g transform="translate(4,170)" s:x="4" s:y="10" s:pid="out0">
      <text x="5" y="-4">2</text>
    </g>
    <g transform="translate(4,190)" s:x="4" s:y="10" s:pid="out0">
      <text x="5" y="-4">3</text>
    </g>
    <g transform="translate(4,210)" s:x="4" s:y="10" s:pid="out0">
      <text x="5" y="-4">4</text>
    </g>
    <g transform="translate(4,230)" s:x="4" s:y="10" s:pid="out0">
      <text x="5" y="-4">5</text>
    </g>
    <g transform="translate(4,250)" s:x="4" s:y="10" s:pid="out0">
      <text x="5" y="-4">6</text>
    </g>
    <g transform="translate(4,270)" s:x="4" s:y="10" s:pid="out0">
      <text x="5" y="-4">7</text>
    </g>
    <g transform="translate(4,290)" s:x="4" s:y="10" s:pid="out0">
      <text x="5" y="-4">8</text>
    </g>
    <g transform="translate(4,310)" s:x="4" s:y="10" s:pid="out0">
      <text x="5" y="-4">9</text>
    </g>
  </g>
  <line x1="559" y1="602.5" x2="915" y2="602.5"/>
  <line x1="559" y1="602.5" x2="626" y2="602.5"/>
  <line x1="626" y1="602.5" x2="626" y2="157.5"/>
  <circle cx="626" cy="602.5" r="2" style="fill:#000"/>
  <line x1="626" y1="157.5" x2="726.5" y2="157.5"/>
  <line x1="734" y1="512" x2="770" y2="512"/>
  <line x1="770" y1="512" x2="770" y2="408"/>
  <line x1="770" y1="408" x2="890" y2="408"/>
  <line x1="890" y1="408" x2="890" y2="63"/>
  <line x1="890" y1="63" x2="915" y2="63"/>
  <line x1="734" y1="512" x2="770" y2="512"/>
  <line x1="770" y1="512" x2="770" y2="473"/>
  <circle cx="770" cy="473" r="2" style="fill:#000"/>
  <line x1="770" y1="473" x2="795" y2="473"/>
  <line x1="880" y1="43" x2="915" y2="43"/>
  <line x1="736" y1="453" x2="795" y2="453"/>
  <line x1="825" y1="33" x2="860" y2="33"/>
  <line x1="818.3333333333334" y1="137.5" x2="835" y2="137.5"/>
  <line x1="835" y1="137.5" x2="835" y2="53"/>
  <line x1="835" y1="53" x2="860" y2="53"/>
  <line x1="825" y1="453" x2="870" y2="453"/>
  <line x1="870" y1="453" x2="870" y2="58"/>
  <line x1="732.5" y1="127.5" x2="798.3333333333334" y2="127.5"/>
  <line x1="735" y1="329.5" x2="770" y2="329.5"/>
  <line x1="770" y1="329.5" x2="770" y2="147.5"/>
  <line x1="770" y1="147.5" x2="798.3333333333334" y2="147.5"/>
  <line x1="734" y1="398" x2="808.3333333333334" y2="398"/>
  <line x1="808.3333333333334" y1="398" x2="808.3333333333334" y2="152.5"/>
  <line x1="427" y1="55.5" x2="549" y2="55.5"/>
  <line x1="347" y1="759" x2="367" y2="759"/>
  <line x1="367" y1="759" x2="367" y2="85"/>
  <line x1="367" y1="85" x2="474" y2="85"/>
  <line x1="474" y1="85" x2="474" y2="75.5"/>
  <circle cx="367" cy="759" r="2" style="fill:#000"/>
  <line x1="474" y1="75.5" x2="549" y2="75.5"/>
  <line x1="347" y1="759" x2="367" y2="759"/>
  <line x1="367" y1="759" x2="367" y2="249"/>
  <line x1="367" y1="249" x2="474" y2="249"/>
  <line x1="474" y1="249" x2="474" y2="239.5"/>
  <circle cx="367" cy="249" r="2" style="fill:#000"/>
  <line x1="474" y1="239.5" x2="549" y2="239.5"/>
  <line x1="347" y1="759" x2="367" y2="759"/>
  <line x1="367" y1="759" x2="367" y2="331"/>
  <line x1="367" y1="331" x2="474" y2="331"/>
  <line x1="474" y1="331" x2="474" y2="321.5"/>
  <circle cx="367" cy="331" r="2" style="fill:#000"/>
  <line x1="474" y1="321.5" x2="549" y2="321.5"/>
  <line x1="347" y1="759" x2="367" y2="759"/>
  <line x1="367" y1="759" x2="367" y2="413"/>
  <line x1="367" y1="413" x2="474" y2="413"/>
  <line x1="474" y1="413" x2="474" y2="403.5"/>
  <circle cx="367" cy="413" r="2" style="fill:#000"/>
  <line x1="474" y1="403.5" x2="549" y2="403.5"/>
  <line x1="347" y1="759" x2="367" y2="759"/>
  <line x1="367" y1="759" x2="367" y2="495"/>
  <line x1="367" y1="495" x2="474" y2="495"/>
  <line x1="474" y1="495" x2="474" y2="485.5"/>
  <circle cx="367" cy="495" r="2" style="fill:#000"/>
  <line x1="474" y1="485.5" x2="549" y2="485.5"/>
  <line x1="347" y1="759" x2="367" y2="759"/>
  <line x1="367" y1="759" x2="367" y2="1270"/>
  <line x1="367" y1="1270" x2="474" y2="1270"/>
  <line x1="474" y1="1270" x2="474" y2="1260.5"/>
  <circle cx="367" cy="1270" r="2" style="fill:#000"/>
  <line x1="474" y1="1260.5" x2="549" y2="1260.5"/>
  <line x1="347" y1="759" x2="367" y2="759"/>
  <line x1="367" y1="759" x2="367" y2="1352"/>
  <line x1="367" y1="1352" x2="474" y2="1352"/>
  <line x1="474" y1="1352" x2="474" y2="1342.5"/>
  <line x1="474" y1="1342.5" x2="549" y2="1342.5"/>
  <line x1="347" y1="759" x2="367" y2="759"/>
  <line x1="367" y1="759" x2="367" y2="167"/>
  <line x1="367" y1="167" x2="474" y2="167"/>
  <line x1="474" y1="167" x2="474" y2="157.5"/>
  <circle cx="367" cy="167" r="2" style="fill:#000"/>
  <line x1="474" y1="157.5" x2="549" y2="157.5"/>
  <line x1="347" y1="759" x2="367" y2="759"/>
  <line x1="367" y1="759" x2="367" y2="550.5"/>
  <circle cx="367" cy="550.5" r="2" style="fill:#000"/>
  <line x1="367" y1="550.5" x2="407" y2="550.5"/>
  <line x1="347" y1="759" x2="367" y2="759"/>
  <line x1="367" y1="759" x2="367" y2="632.5"/>
  <circle cx="367" cy="632.5" r="2" style="fill:#000"/>
  <line x1="367" y1="632.5" x2="407" y2="632.5"/>
  <line x1="347" y1="759" x2="367" y2="759"/>
  <line x1="367" y1="759" x2="367" y2="714.5"/>
  <circle cx="367" cy="714.5" r="2" style="fill:#000"/>
  <line x1="367" y1="714.5" x2="407" y2="714.5"/>
  <line x1="347" y1="759" x2="367" y2="759"/>
  <line x1="367" y1="759" x2="367" y2="844.5"/>
  <circle cx="367" cy="844.5" r="2" style="fill:#000"/>
  <line x1="367" y1="844.5" x2="407" y2="844.5"/>
  <line x1="347" y1="759" x2="367" y2="759"/>
  <line x1="367" y1="759" x2="367" y2="926.5"/>
  <circle cx="367" cy="926.5" r="2" style="fill:#000"/>
  <line x1="367" y1="926.5" x2="407" y2="926.5"/>
  <line x1="347" y1="759" x2="367" y2="759"/>
  <line x1="367" y1="759" x2="367" y2="1008.5"/>
  <circle cx="367" cy="1008.5" r="2" style="fill:#000"/>
  <line x1="367" y1="1008.5" x2="407" y2="1008.5"/>
  <line x1="347" y1="759" x2="367" y2="759"/>
  <line x1="367" y1="759" x2="367" y2="1090.5"/>
  <circle cx="367" cy="1090.5" r="2" style="fill:#000"/>
  <line x1="367" y1="1090.5" x2="407" y2="1090.5"/>
  <line x1="347" y1="759" x2="367" y2="759"/>
  <line x1="367" y1="759" x2="367" y2="1172.5"/>
  <circle cx="367" cy="1172.5" r="2" style="fill:#000"/>
  <line x1="367" y1="1172.5" x2="407" y2="1172.5"/>
  <line x1="427" y1="219.5" x2="549" y2="219.5"/>
  <line x1="427" y1="301.5" x2="549" y2="301.5"/>
  <line x1="427" y1="383.5" x2="549" y2="383.5"/>
  <line x1="427" y1="465.5" x2="549" y2="465.5"/>
  <line x1="427" y1="1240.5" x2="549" y2="1240.5"/>
  <line x1="422.3333333333333" y1="1322.5" x2="549" y2="1322.5"/>
  <line x1="427" y1="137.5" x2="549" y2="137.5"/>
  <line x1="342" y1="530.5" x2="407" y2="530.5"/>
  <line x1="342" y1="612.5" x2="407" y2="612.5"/>
  <line x1="342" y1="694.5" x2="407" y2="694.5"/>
  <line x1="342" y1="824.5" x2="407" y2="824.5"/>
  <line x1="342" y1="906.5" x2="407" y2="906.5"/>
  <line x1="342" y1="988.5" x2="407" y2="988.5"/>
  <line x1="342" y1="1070.5" x2="407" y2="1070.5"/>
  <line x1="338" y1="1152.5" x2="407" y2="1152.5"/>
  <line x1="438" y1="530.5" x2="553.5" y2="530.5"/>
  <line x1="553.5" y1="530.5" x2="553.5" y2="592"/>
  <line x1="438" y1="612.5" x2="553" y2="612.5"/>
  <line x1="438" y1="694.5" x2="474" y2="694.5"/>
  <line x1="474" y1="694.5" x2="474" y2="632.5"/>
  <line x1="474" y1="632.5" x2="553" y2="632.5"/>
  <line x1="438" y1="824.5" x2="484" y2="824.5"/>
  <line x1="484" y1="824.5" x2="484" y2="652.5"/>
  <line x1="484" y1="652.5" x2="553" y2="652.5"/>
  <line x1="438" y1="906.5" x2="494" y2="906.5"/>
  <line x1="494" y1="906.5" x2="494" y2="672.5"/>
  <line x1="494" y1="672.5" x2="553" y2="672.5"/>
  <line x1="438" y1="988.5" x2="504" y2="988.5"/>
  <line x1="504" y1="988.5" x2="504" y2="692.5"/>
  <line x1="504" y1="692.5" x2="553" y2="692.5"/>
  <line x1="438" y1="1070.5" x2="514" y2="1070.5"/>
  <line x1="514" y1="1070.5" x2="514" y2="712.5"/>
  <line x1="514" y1="712.5" x2="553" y2="712.5"/>
  <line x1="438" y1="1152.5" x2="553.5" y2="1152.5"/>
  <line x1="553.5" y1="1152.5" x2="553.5" y2="733"/>
  <line x1="580" y1="55.5" x2="727" y2="55.5"/>
  <line x1="727" y1="55.5" x2="727" y2="117"/>
  <line x1="580" y1="137.5" x2="726.5" y2="137.5"/>
  <line x1="580" y1="219.5" x2="616" y2="219.5"/>
  <line x1="616" y1="219.5" x2="616" y2="177.5"/>
  <line x1="616" y1="177.5" x2="726.5" y2="177.5"/>
  <line x1="580" y1="301.5" x2="636" y2="301.5"/>
  <line x1="636" y1="301.5" x2="636" y2="197.5"/>
  <line x1="636" y1="197.5" x2="726.5" y2="197.5"/>
  <line x1="580" y1="383.5" x2="646" y2="383.5"/>
  <line x1="646" y1="383.5" x2="646" y2="217.5"/>
  <line x1="646" y1="217.5" x2="726.5" y2="217.5"/>
  <line x1="580" y1="465.5" x2="656" y2="465.5"/>
  <line x1="656" y1="465.5" x2="656" y2="237.5"/>
  <line x1="656" y1="237.5" x2="726.5" y2="237.5"/>
  <line x1="580" y1="1240.5" x2="666" y2="1240.5"/>
  <line x1="666" y1="1240.5" x2="666" y2="257.5"/>
  <line x1="666" y1="257.5" x2="726.5" y2="257.5"/>
  <line x1="580" y1="1322.5" x2="676" y2="1322.5"/>
  <line x1="676" y1="1322.5" x2="676" y2="297"/>
  <line x1="676" y1="297" x2="727" y2="297"/>
  <line x1="727" y1="297" x2="727" y2="278"/>
  <line x1="577" y1="1404" x2="686" y2="1404"/>
  <line x1="686" y1="1404" x2="686" y2="319.5"/>
  <line x1="686" y1="319.5" x2="729" y2="319.5"/>
  <line x1="579" y1="1459" x2="696" y2="1459"/>
  <line x1="696" y1="1459" x2="696" y2="339.5"/>
  <line x1="696" y1="339.5" x2="729" y2="339.5"/>
  <line x1="338" y1="45.5" x2="421" y2="45.5"/>
  <line x1="121.5" y1="432" x2="121.5" y2="35.5"/>
  <line x1="121.5" y1="35.5" x2="332" y2="35.5"/>
  <line x1="121.5" y1="432" x2="121.5" y2="35.5"/>
  <line x1="121.5" y1="35.5" x2="169" y2="35.5"/>
  <line x1="169" y1="35.5" x2="169" y2="137.5"/>
  <circle cx="169" cy="35.5" r="2" style="fill:#000"/>
  <line x1="169" y1="137.5" x2="332" y2="137.5"/>
  <line x1="121.5" y1="452" x2="121.5" y2="55.5"/>
  <line x1="121.5" y1="55.5" x2="332" y2="55.5"/>
  <line x1="121.5" y1="452" x2="121.5" y2="55.5"/>
  <line x1="121.5" y1="55.5" x2="139" y2="55.5"/>
  <line x1="139" y1="55.5" x2="139" y2="1312.5"/>
  <circle cx="139" cy="55.5" r="2" style="fill:#000"/>
  <line x1="139" y1="1312.5" x2="416.3333333333333" y2="1312.5"/>
  <line x1="338" y1="209.5" x2="421" y2="209.5"/>
  <line x1="122" y1="472.5" x2="169" y2="472.5"/>
  <line x1="169" y1="472.5" x2="169" y2="199.5"/>
  <line x1="169" y1="199.5" x2="332" y2="199.5"/>
  <line x1="122" y1="472.5" x2="169" y2="472.5"/>
  <line x1="169" y1="472.5" x2="169" y2="301.5"/>
  <circle cx="169" cy="301.5" r="2" style="fill:#000"/>
  <line x1="169" y1="301.5" x2="332" y2="301.5"/>
  <line x1="122" y1="492.5" x2="179" y2="492.5"/>
  <line x1="179" y1="492.5" x2="179" y2="219.5"/>
  <circle cx="179" cy="492.5" r="2" style="fill:#000"/>
  <line x1="179" y1="219.5" x2="332" y2="219.5"/>
  <line x1="122" y1="492.5" x2="179" y2="492.5"/>
  <line x1="179" y1="492.5" x2="179" y2="1142.5"/>
  <line x1="179" y1="1142.5" x2="332" y2="1142.5"/>
  <line x1="338" y1="291.5" x2="421" y2="291.5"/>
  <line x1="122" y1="512.5" x2="189" y2="512.5"/>
  <line x1="189" y1="512.5" x2="189" y2="281.5"/>
  <line x1="189" y1="281.5" x2="332" y2="281.5"/>
  <line x1="122" y1="512.5" x2="189" y2="512.5"/>
  <line x1="189" y1="512.5" x2="189" y2="383.5"/>
  <circle cx="189" cy="383.5" r="2" style="fill:#000"/>
  <line x1="189" y1="383.5" x2="332" y2="383.5"/>
  <line x1="338" y1="373.5" x2="421" y2="373.5"/>
  <line x1="122" y1="532.5" x2="199" y2="532.5"/>
  <line x1="199" y1="532.5" x2="199" y2="363.5"/>
  <line x1="199" y1="363.5" x2="332" y2="363.5"/>
  <line x1="122" y1="532.5" x2="199" y2="532.5"/>
  <line x1="199" y1="532.5" x2="199" y2="465.5"/>
  <circle cx="199" cy="465.5" r="2" style="fill:#000"/>
  <line x1="199" y1="465.5" x2="332" y2="465.5"/>
  <line x1="338" y1="455.5" x2="421" y2="455.5"/>
  <line x1="122" y1="552.5" x2="209" y2="552.5"/>
  <line x1="209" y1="552.5" x2="209" y2="445.5"/>
  <circle cx="209" cy="552.5" r="2" style="fill:#000"/>
  <line x1="209" y1="445.5" x2="332" y2="445.5"/>
  <line x1="122" y1="552.5" x2="209" y2="552.5"/>
  <line x1="209" y1="552.5" x2="209" y2="1240.5"/>
  <line x1="209" y1="1240.5" x2="332" y2="1240.5"/>
  <line x1="338" y1="1230.5" x2="421" y2="1230.5"/>
  <line x1="338" y1="1230.5" x2="357" y2="1230.5"/>
  <line x1="357" y1="1230.5" x2="357" y2="1332.5"/>
  <circle cx="357" cy="1230.5" r="2" style="fill:#000"/>
  <line x1="357" y1="1332.5" x2="416.3333333333333" y2="1332.5"/>
  <line x1="122" y1="572.5" x2="149" y2="572.5"/>
  <line x1="149" y1="572.5" x2="149" y2="1220.5"/>
  <line x1="149" y1="1220.5" x2="332" y2="1220.5"/>
  <line x1="338" y1="127.5" x2="421" y2="127.5"/>
  <line x1="122" y1="592.5" x2="159" y2="592.5"/>
  <line x1="159" y1="592.5" x2="159" y2="117.5"/>
  <line x1="159" y1="117.5" x2="332" y2="117.5"/>
  <line x1="122" y1="592.5" x2="159" y2="592.5"/>
  <line x1="159" y1="592.5" x2="159" y2="530.5"/>
  <circle cx="159" cy="530.5" r="2" style="fill:#000"/>
  <line x1="159" y1="530.5" x2="276" y2="530.5"/>
  <line x1="282" y1="520.5" x2="336" y2="520.5"/>
  <line x1="122" y1="612.5" x2="219" y2="612.5"/>
  <line x1="219" y1="612.5" x2="219" y2="510.5"/>
  <circle cx="219" cy="612.5" r="2" style="fill:#000"/>
  <line x1="219" y1="510.5" x2="276" y2="510.5"/>
  <line x1="122" y1="612.5" x2="276" y2="612.5"/>
  <line x1="282" y1="602.5" x2="336" y2="602.5"/>
  <line x1="122" y1="632.5" x2="259" y2="632.5"/>
  <line x1="259" y1="632.5" x2="259" y2="592.5"/>
  <circle cx="259" cy="632.5" r="2" style="fill:#000"/>
  <line x1="259" y1="592.5" x2="276" y2="592.5"/>
  <line x1="122" y1="632.5" x2="259" y2="632.5"/>
  <line x1="259" y1="632.5" x2="259" y2="694.5"/>
  <line x1="259" y1="694.5" x2="276" y2="694.5"/>
  <line x1="282" y1="684.5" x2="336" y2="684.5"/>
  <line x1="122" y1="652.5" x2="249" y2="652.5"/>
  <line x1="249" y1="652.5" x2="249" y2="674.5"/>
  <circle cx="249" cy="674.5" r="2" style="fill:#000"/>
  <line x1="249" y1="674.5" x2="276" y2="674.5"/>
  <line x1="122" y1="652.5" x2="249" y2="652.5"/>
  <line x1="249" y1="652.5" x2="249" y2="824.5"/>
  <line x1="249" y1="824.5" x2="276" y2="824.5"/>
  <line x1="282" y1="814.5" x2="336" y2="814.5"/>
  <line x1="122" y1="672.5" x2="239" y2="672.5"/>
  <line x1="239" y1="672.5" x2="239" y2="804.5"/>
  <circle cx="239" cy="804.5" r="2" style="fill:#000"/>
  <line x1="239" y1="804.5" x2="276" y2="804.5"/>
  <line x1="122" y1="672.5" x2="239" y2="672.5"/>
  <line x1="239" y1="672.5" x2="239" y2="906.5"/>
  <line x1="239" y1="906.5" x2="276" y2="906.5"/>
  <line x1="282" y1="896.5" x2="336" y2="896.5"/>
  <line x1="122" y1="692.5" x2="229" y2="692.5"/>
  <line x1="229" y1="692.5" x2="229" y2="886.5"/>
  <circle cx="229" cy="886.5" r="2" style="fill:#000"/>
  <line x1="229" y1="886.5" x2="276" y2="886.5"/>
  <line x1="122" y1="692.5" x2="229" y2="692.5"/>
  <line x1="229" y1="692.5" x2="229" y2="988.5"/>
  <line x1="229" y1="988.5" x2="276" y2="988.5"/>
  <line x1="282" y1="978.5" x2="336" y2="978.5"/>
  <line x1="121.5" y1="713" x2="121.5" y2="968.5"/>
  <line x1="121.5" y1="968.5" x2="276" y2="968.5"/>
  <line x1="121.5" y1="713" x2="121.5" y2="968.5"/>
  <line x1="121.5" y1="968.5" x2="219" y2="968.5"/>
  <line x1="219" y1="968.5" x2="219" y2="1186"/>
  <circle cx="219" cy="968.5" r="2" style="fill:#000"/>
  <line x1="219" y1="1186" x2="276" y2="1186"/>
  <line x1="282" y1="1176" x2="292" y2="1176"/>
  <line x1="292" y1="1176" x2="292" y2="1060.5"/>
  <line x1="292" y1="1060.5" x2="336" y2="1060.5"/>
  <line x1="282" y1="1176" x2="292" y2="1176"/>
  <line x1="292" y1="1176" x2="292" y2="1162.5"/>
  <circle cx="292" cy="1162.5" r="2" style="fill:#000"/>
  <line x1="292" y1="1162.5" x2="332" y2="1162.5"/>
  <line x1="121.5" y1="733" x2="121.5" y2="1166"/>
  <line x1="121.5" y1="1166" x2="276" y2="1166"/>
  <line x1="945" y1="43" x2="967" y2="43"/>
  <line x1="967" y1="43" x2="967" y2="12"/>
  <line x1="967" y1="12" x2="117.5" y2="12"/>
  <line x1="117.5" y1="12" x2="117.5" y2="442"/>
</svg>
