<?xml version="1.0" encoding="UTF-8" standalone="no"?>
<!DOCTYPE svg PUBLIC "-//W3C//DTD SVG 1.1//EN"
 "http://www.w3.org/Graphics/SVG/1.1/DTD/svg11.dtd">
<!-- Generated by graphviz version 2.38.0 (20140413.2041)
 -->
<!-- Title: REG Pages: 1 -->
<svg width="975pt" height="591pt"
 viewBox="0.00 0.00 975.11 591.00" xmlns="http://www.w3.org/2000/svg" xmlns:xlink="http://www.w3.org/1999/xlink">
<g id="graph0" class="graph" transform="scale(1 1) rotate(0) translate(4 587)">
<title>REG</title>
<polygon fill="white" stroke="none" points="-4,4 -4,-587 971.113,-587 971.113,4 -4,4"/>
<text text-anchor="middle" x="483.556" y="-7.8" font-family="Times,serif" font-size="14.00">REG</text>
<!-- n7 -->
<g id="node1" class="node"><title>n7</title>
<polygon fill="none" stroke="black" points="961.163,-221.544 961.163,-236.456 945.347,-247 922.979,-247 907.163,-236.456 907.163,-221.544 922.979,-211 945.347,-211 961.163,-221.544"/>
<text text-anchor="middle" x="934.163" y="-225.3" font-family="Times,serif" font-size="14.00">R</text>
</g>
<!-- c23 -->
<g id="node10" class="node"><title>c23</title>
<polygon fill="none" stroke="black" points="483.163,-259.5 483.163,-328.5 590.163,-328.5 590.163,-259.5 483.163,-259.5"/>
<text text-anchor="middle" x="496.163" y="-313.3" font-family="Times,serif" font-size="14.00">A</text>
<polyline fill="none" stroke="black" points="483.163,-305.5 509.163,-305.5 "/>
<text text-anchor="middle" x="496.163" y="-290.3" font-family="Times,serif" font-size="14.00">B</text>
<polyline fill="none" stroke="black" points="483.163,-282.5 509.163,-282.5 "/>
<text text-anchor="middle" x="496.163" y="-267.3" font-family="Times,serif" font-size="14.00">S</text>
<polyline fill="none" stroke="black" points="509.163,-259.5 509.163,-328.5 "/>
<text text-anchor="middle" x="536.663" y="-297.8" font-family="Times,serif" font-size="14.00">$2</text>
<text text-anchor="middle" x="536.663" y="-282.8" font-family="Times,serif" font-size="14.00">$pmux</text>
<polyline fill="none" stroke="black" points="564.163,-259.5 564.163,-328.5 "/>
<text text-anchor="middle" x="577.163" y="-290.3" font-family="Times,serif" font-size="14.00">Y</text>
</g>
<!-- n7&#45;&gt;c23 -->
<g id="edge18" class="edge"><title>n7:e&#45;&gt;c23:p19:w</title>
<path fill="none" stroke="#d95f02" stroke-width="3" d="M962.163,-229C970.176,-229 966.352,-240.895 961.163,-247 851.81,-375.68 758.034,-310.669 590.163,-329 542.668,-334.186 517.822,-361.351 482.663,-329 482.048,-328.434 481.47,-327.752 480.953,-327.003"/>
<polygon fill="#d95f02" stroke="#d95f02" stroke-width="3" points="484.446,-327.223 481.663,-317 477.463,-326.727 484.446,-327.223"/>
</g>
<!-- c28 -->
<g id="node20" class="node"><title>c28</title>
<polygon fill="none" stroke="black" points="626.163,-161.5 626.163,-230.5 726.163,-230.5 726.163,-161.5 626.163,-161.5"/>
<text text-anchor="middle" x="639.163" y="-215.3" font-family="Times,serif" font-size="14.00">A</text>
<polyline fill="none" stroke="black" points="626.163,-207.5 652.163,-207.5 "/>
<text text-anchor="middle" x="639.163" y="-192.3" font-family="Times,serif" font-size="14.00">B</text>
<polyline fill="none" stroke="black" points="626.163,-184.5 652.163,-184.5 "/>
<text text-anchor="middle" x="639.163" y="-169.3" font-family="Times,serif" font-size="14.00">S</text>
<polyline fill="none" stroke="black" points="652.163,-161.5 652.163,-230.5 "/>
<text text-anchor="middle" x="676.163" y="-199.8" font-family="Times,serif" font-size="14.00">$7</text>
<text text-anchor="middle" x="676.163" y="-184.8" font-family="Times,serif" font-size="14.00">$mux</text>
<polyline fill="none" stroke="black" points="700.163,-161.5 700.163,-230.5 "/>
<text text-anchor="middle" x="713.163" y="-192.3" font-family="Times,serif" font-size="14.00">Y</text>
</g>
<!-- n7&#45;&gt;c28 -->
<g id="edge19" class="edge"><title>n7:e&#45;&gt;c28:p19:w</title>
<path fill="none" stroke="#d95f02" stroke-width="3" d="M962.163,-229C970.176,-229 966.984,-241.494 961.163,-247 943.728,-263.493 931.154,-247.682 907.163,-247 844.643,-245.222 670.967,-274.642 626.163,-231 625.684,-230.533 625.225,-229.996 624.8,-229.412"/>
<polygon fill="#d95f02" stroke="#d95f02" stroke-width="3" points="628.312,-229.116 625.163,-219 621.317,-228.872 628.312,-229.116"/>
</g>
<!-- n8 -->
<g id="node2" class="node"><title>n8</title>
<polygon fill="none" stroke="black" points="63.5816,-33.5442 63.5816,-48.4558 47.7654,-59 25.3978,-59 9.58161,-48.4558 9.58161,-33.5442 25.3978,-23 47.7654,-23 63.5816,-33.5442"/>
<text text-anchor="middle" x="36.5816" y="-37.3" font-family="Times,serif" font-size="14.00">clk</text>
</g>
<!-- c18 -->
<g id="node9" class="node"><title>c18</title>
<polygon fill="none" stroke="black" points="762.163,-154 762.163,-200 871.163,-200 871.163,-154 762.163,-154"/>
<text text-anchor="middle" x="784.163" y="-184.8" font-family="Times,serif" font-size="14.00">CLK</text>
<polyline fill="none" stroke="black" points="762.163,-177 806.163,-177 "/>
<text text-anchor="middle" x="784.163" y="-161.8" font-family="Times,serif" font-size="14.00">D</text>
<polyline fill="none" stroke="black" points="806.163,-154 806.163,-200 "/>
<text text-anchor="middle" x="825.663" y="-180.8" font-family="Times,serif" font-size="14.00">$9</text>
<text text-anchor="middle" x="825.663" y="-165.8" font-family="Times,serif" font-size="14.00">$dff</text>
<polyline fill="none" stroke="black" points="845.163,-154 845.163,-200 "/>
<text text-anchor="middle" x="858.163" y="-173.3" font-family="Times,serif" font-size="14.00">Q</text>
</g>
<!-- n8&#45;&gt;c18 -->
<g id="edge20" class="edge"><title>n8:e&#45;&gt;c18:p15:w</title>
<path fill="none" stroke="#d95f02" d="M64.5816,-41C162.173,-41 186.571,-41 284.163,-41 284.163,-41 284.163,-41 537.663,-41 634.887,-41 649.695,-91.958 726.163,-152 740.966,-163.623 740.269,-181.075 752.205,-186.971"/>
<polygon fill="#d95f02" stroke="#d95f02" points="751.666,-190.433 762.163,-189 753.063,-183.574 751.666,-190.433"/>
</g>
<!-- n9 -->
<g id="node3" class="node"><title>n9</title>
<polygon fill="none" stroke="black" points="65.2688,-395.544 65.2688,-410.456 48.4643,-421 24.699,-421 7.89438,-410.456 7.89438,-395.544 24.699,-385 48.4643,-385 65.2688,-395.544"/>
<text text-anchor="middle" x="36.5816" y="-399.3" font-family="Times,serif" font-size="14.00">iAlu</text>
</g>
<!-- x0 -->
<g id="node11" class="node"><title>x0</title>
<path fill="none" stroke="black" d="M121.163,-438C121.163,-438 174.163,-438 174.163,-438 180.163,-438 186.163,-444 186.163,-450 186.163,-450 186.163,-518 186.163,-518 186.163,-524 180.163,-530 174.163,-530 174.163,-530 121.163,-530 121.163,-530 115.163,-530 109.163,-524 109.163,-518 109.163,-518 109.163,-450 109.163,-450 109.163,-444 115.163,-438 121.163,-438"/>
<text text-anchor="middle" x="147.663" y="-514.8" font-family="Times,serif" font-size="14.00">7:0 &#45; 31:24</text>
<polyline fill="none" stroke="black" points="109.163,-507 186.163,-507 "/>
<text text-anchor="middle" x="147.663" y="-491.8" font-family="Times,serif" font-size="14.00">7:0 &#45; 23:16</text>
<polyline fill="none" stroke="black" points="109.163,-484 186.163,-484 "/>
<text text-anchor="middle" x="147.663" y="-468.8" font-family="Times,serif" font-size="14.00">7:0 &#45; 15:8</text>
<polyline fill="none" stroke="black" points="109.163,-461 186.163,-461 "/>
<text text-anchor="middle" x="147.663" y="-445.8" font-family="Times,serif" font-size="14.00">7:0 &#45; 7:0</text>
</g>
<!-- n9&#45;&gt;x0 -->
<g id="edge21" class="edge"><title>n9:e&#45;&gt;x0:s0:w</title>
<path fill="none" stroke="#1b9e77" stroke-width="3" d="M66.5816,-403C90.3055,-403 84.3007,-436.357 99.1989,-446.26"/>
<polygon fill="#1b9e77" stroke="#1b9e77" stroke-width="3" points="98.5931,-449.724 109.163,-449 100.449,-442.974 98.5931,-449.724"/>
</g>
<!-- n10 -->
<g id="node4" class="node"><title>n10</title>
<polygon fill="none" stroke="black" points="68.8035,-449.544 68.8035,-464.456 49.9284,-475 23.2349,-475 4.3597,-464.456 4.3597,-449.544 23.2349,-439 49.9284,-439 68.8035,-449.544"/>
<text text-anchor="middle" x="36.5816" y="-453.3" font-family="Times,serif" font-size="14.00">iData</text>
</g>
<!-- n10&#45;&gt;x0 -->
<g id="edge4" class="edge"><title>n10:e&#45;&gt;x0:s1:w</title>
<path fill="none" stroke="#7570b3" stroke-width="3" d="M69.5816,-457C84.426,-457 88.7752,-466.339 99.192,-470.279"/>
<polygon fill="#7570b3" stroke="#7570b3" stroke-width="3" points="98.7137,-473.748 109.163,-472 99.9041,-466.85 98.7137,-473.748"/>
</g>
<!-- n11 -->
<g id="node5" class="node"><title>n11</title>
<polygon fill="none" stroke="black" points="73.245,-557.544 73.245,-572.456 51.7681,-583 21.3951,-583 -0.0817929,-572.456 -0.0817929,-557.544 21.3951,-547 51.7681,-547 73.245,-557.544"/>
<text text-anchor="middle" x="36.5816" y="-561.3" font-family="Times,serif" font-size="14.00">iInbox</text>
</g>
<!-- n11&#45;&gt;x0 -->
<g id="edge5" class="edge"><title>n11:e&#45;&gt;x0:s3:w</title>
<path fill="none" stroke="#e7298a" stroke-width="3" d="M73.1632,-565C94.865,-565 87.2993,-532.856 99.3977,-522.308"/>
<polygon fill="#e7298a" stroke="#e7298a" stroke-width="3" points="100.815,-525.524 109.163,-519 98.5689,-518.894 100.815,-525.524"/>
</g>
<!-- n12 -->
<g id="node6" class="node"><title>n12</title>
<polygon fill="none" stroke="black" points="71.9317,-503.544 71.9317,-518.456 51.2241,-529 21.9391,-529 1.23149,-518.456 1.23149,-503.544 21.9391,-493 51.2241,-493 71.9317,-503.544"/>
<text text-anchor="middle" x="36.5816" y="-507.3" font-family="Times,serif" font-size="14.00">iMem</text>
</g>
<!-- n12&#45;&gt;x0 -->
<g id="edge6" class="edge"><title>n12:e&#45;&gt;x0:s2:w</title>
<path fill="none" stroke="#e7298a" stroke-width="3" d="M73.1632,-511C86.4341,-511 90.326,-502.207 99.2005,-498.086"/>
<polygon fill="#e7298a" stroke="#e7298a" stroke-width="3" points="100.093,-501.475 109.163,-496 98.6582,-494.623 100.093,-501.475"/>
</g>
<!-- n13 -->
<g id="node7" class="node"><title>n13</title>
<polygon fill="none" stroke="black" points="71.9317,-306.544 71.9317,-321.456 51.2241,-332 21.9391,-332 1.23149,-321.456 1.23149,-306.544 21.9391,-296 51.2241,-296 71.9317,-306.544"/>
<text text-anchor="middle" x="36.5816" y="-310.3" font-family="Times,serif" font-size="14.00">muxR</text>
</g>
<!-- c24 -->
<g id="node14" class="node"><title>c24</title>
<polygon fill="none" stroke="black" points="222.663,-233 222.663,-279 347.663,-279 347.663,-233 222.663,-233"/>
<text text-anchor="middle" x="235.663" y="-263.8" font-family="Times,serif" font-size="14.00">A</text>
<polyline fill="none" stroke="black" points="222.663,-256 248.663,-256 "/>
<text text-anchor="middle" x="235.663" y="-240.8" font-family="Times,serif" font-size="14.00">B</text>
<polyline fill="none" stroke="black" points="248.663,-233 248.663,-279 "/>
<text text-anchor="middle" x="285.163" y="-259.8" font-family="Times,serif" font-size="14.00">$3_CMP0</text>
<text text-anchor="middle" x="285.163" y="-244.8" font-family="Times,serif" font-size="14.00">$eq</text>
<polyline fill="none" stroke="black" points="321.663,-233 321.663,-279 "/>
<text text-anchor="middle" x="334.663" y="-252.3" font-family="Times,serif" font-size="14.00">Y</text>
</g>
<!-- n13&#45;&gt;c24 -->
<g id="edge7" class="edge"><title>n13:e&#45;&gt;c24:p19:w</title>
<path fill="none" stroke="#7570b3" stroke-width="3" d="M73.1632,-314C90.6723,-314 92.6498,-303.82 109.163,-298 154.82,-281.908 168.384,-269.761 212.042,-268.176"/>
<polygon fill="#7570b3" stroke="#7570b3" stroke-width="3" points="212.226,-271.673 222.163,-268 212.104,-264.674 212.226,-271.673"/>
</g>
<!-- c25 -->
<g id="node16" class="node"><title>c25</title>
<polygon fill="none" stroke="black" points="222.663,-152 222.663,-198 347.663,-198 347.663,-152 222.663,-152"/>
<text text-anchor="middle" x="235.663" y="-182.8" font-family="Times,serif" font-size="14.00">A</text>
<polyline fill="none" stroke="black" points="222.663,-175 248.663,-175 "/>
<text text-anchor="middle" x="235.663" y="-159.8" font-family="Times,serif" font-size="14.00">B</text>
<polyline fill="none" stroke="black" points="248.663,-152 248.663,-198 "/>
<text text-anchor="middle" x="285.163" y="-178.8" font-family="Times,serif" font-size="14.00">$4_CMP0</text>
<text text-anchor="middle" x="285.163" y="-163.8" font-family="Times,serif" font-size="14.00">$eq</text>
<polyline fill="none" stroke="black" points="321.663,-152 321.663,-198 "/>
<text text-anchor="middle" x="334.663" y="-171.3" font-family="Times,serif" font-size="14.00">Y</text>
</g>
<!-- n13&#45;&gt;c25 -->
<g id="edge8" class="edge"><title>n13:e&#45;&gt;c25:p19:w</title>
<path fill="none" stroke="#7570b3" stroke-width="3" d="M73.1632,-314C123.76,-314 70.7208,-238.897 109.163,-206 145.212,-175.152 167.968,-185.291 212.092,-186.822"/>
<polygon fill="#7570b3" stroke="#7570b3" stroke-width="3" points="212.103,-190.322 222.163,-187 212.227,-183.324 212.103,-190.322"/>
</g>
<!-- c26 -->
<g id="node18" class="node"><title>c26</title>
<polygon fill="none" stroke="black" points="222.663,-314 222.663,-360 347.663,-360 347.663,-314 222.663,-314"/>
<text text-anchor="middle" x="235.663" y="-344.8" font-family="Times,serif" font-size="14.00">A</text>
<polyline fill="none" stroke="black" points="222.663,-337 248.663,-337 "/>
<text text-anchor="middle" x="235.663" y="-321.8" font-family="Times,serif" font-size="14.00">B</text>
<polyline fill="none" stroke="black" points="248.663,-314 248.663,-360 "/>
<text text-anchor="middle" x="285.163" y="-340.8" font-family="Times,serif" font-size="14.00">$5_CMP0</text>
<text text-anchor="middle" x="285.163" y="-325.8" font-family="Times,serif" font-size="14.00">$eq</text>
<polyline fill="none" stroke="black" points="321.663,-314 321.663,-360 "/>
<text text-anchor="middle" x="334.663" y="-333.3" font-family="Times,serif" font-size="14.00">Y</text>
</g>
<!-- n13&#45;&gt;c26 -->
<g id="edge9" class="edge"><title>n13:e&#45;&gt;c26:p19:w</title>
<path fill="none" stroke="#7570b3" stroke-width="3" d="M73.1632,-314C96.4277,-314 87.7919,-342.808 109.163,-352 152.07,-370.456 169.442,-352.002 212.043,-349.316"/>
<polygon fill="#7570b3" stroke="#7570b3" stroke-width="3" points="212.277,-352.811 222.163,-349 212.059,-345.814 212.277,-352.811"/>
</g>
<!-- c27 -->
<g id="node19" class="node"><title>c27</title>
<polygon fill="none" stroke="black" points="222.163,-384 222.163,-422 348.163,-422 348.163,-384 222.163,-384"/>
<text text-anchor="middle" x="235.163" y="-399.3" font-family="Times,serif" font-size="14.00">A</text>
<polyline fill="none" stroke="black" points="248.163,-384 248.163,-422 "/>
<text text-anchor="middle" x="285.163" y="-406.8" font-family="Times,serif" font-size="14.00">$6_CMP0</text>
<text text-anchor="middle" x="285.163" y="-391.8" font-family="Times,serif" font-size="14.00">$logic_not</text>
<polyline fill="none" stroke="black" points="322.163,-384 322.163,-422 "/>
<text text-anchor="middle" x="335.163" y="-399.3" font-family="Times,serif" font-size="14.00">Y</text>
</g>
<!-- n13&#45;&gt;c27 -->
<g id="edge10" class="edge"><title>n13:e&#45;&gt;c27:p19:w</title>
<path fill="none" stroke="#7570b3" stroke-width="3" d="M73.1632,-314C103.126,-314 85.1609,-353.065 109.163,-371 148.118,-400.108 167.263,-402.754 211.906,-402.98"/>
<polygon fill="#7570b3" stroke="#7570b3" stroke-width="3" points="212.156,-406.48 222.163,-403 212.17,-399.48 212.156,-406.48"/>
</g>
<!-- n14 -->
<g id="node8" class="node"><title>n14</title>
<polygon fill="none" stroke="black" points="63.5816,-87.5442 63.5816,-102.456 47.7654,-113 25.3978,-113 9.58161,-102.456 9.58161,-87.5442 25.3978,-77 47.7654,-77 63.5816,-87.5442"/>
<text text-anchor="middle" x="36.5816" y="-91.3" font-family="Times,serif" font-size="14.00">wR</text>
</g>
<!-- n14&#45;&gt;c28 -->
<g id="edge11" class="edge"><title>n14:e&#45;&gt;c28:p21:w</title>
<path fill="none" stroke="#d95f02" d="M64.5816,-95C162.173,-95 186.571,-95 284.163,-95 284.163,-95 284.163,-95 416.663,-95 512.525,-95 525.94,-167.612 616.005,-172.718"/>
<polygon fill="#d95f02" stroke="#d95f02" points="616.07,-176.221 626.163,-173 616.264,-169.223 616.07,-176.221"/>
</g>
<!-- c18&#45;&gt;n7 -->
<g id="edge17" class="edge"><title>c18:p17:e&#45;&gt;n7:w</title>
<path fill="none" stroke="#d95f02" stroke-width="3" d="M871.163,-177C895.1,-177 883.992,-214.708 897.524,-225.903"/>
<polygon fill="#d95f02" stroke="#d95f02" stroke-width="3" points="896.572,-229.273 907.163,-229 898.713,-222.609 896.572,-229.273"/>
</g>
<!-- c23&#45;&gt;c28 -->
<g id="edge12" class="edge"><title>c23:p22:e&#45;&gt;c28:p20:w</title>
<path fill="none" stroke="#1b9e77" stroke-width="3" d="M590.163,-294C632.577,-294 588.763,-212.12 616.356,-198.047"/>
<polygon fill="#1b9e77" stroke="#1b9e77" stroke-width="3" points="617.089,-201.469 626.163,-196 615.659,-194.617 617.089,-201.469"/>
</g>
<!-- x0&#45;&gt;c23 -->
<g id="edge1" class="edge"><title>x0:e&#45;&gt;c23:p20:w</title>
<path fill="none" stroke="#66a61e" stroke-width="3" d="M198.5,-483.855C264.249,-482.242 286.008,-467.006 348.163,-432 398.946,-403.399 408.272,-389.41 447.163,-346 462.55,-328.826 458.003,-304.837 471.388,-296.77"/>
<polygon fill="none" stroke="#66a61e" stroke-width="3" points="198.162,-483.859 192.21,-487.929 186.163,-484 192.116,-479.93 198.162,-483.859"/>
<polygon fill="none" stroke="#66a61e" stroke-width="3" points="471.482,-296.748 476.407,-291.48 483.163,-294 478.239,-299.268 471.482,-296.748"/>
</g>
<!-- x1 -->
<g id="node12" class="node"><title>x1</title>
<path fill="none" stroke="black" d="M396.163,-245C396.163,-245 435.163,-245 435.163,-245 441.163,-245 447.163,-251 447.163,-257 447.163,-257 447.163,-325 447.163,-325 447.163,-331 441.163,-337 435.163,-337 435.163,-337 396.163,-337 396.163,-337 390.163,-337 384.163,-331 384.163,-325 384.163,-325 384.163,-257 384.163,-257 384.163,-251 390.163,-245 396.163,-245"/>
<text text-anchor="middle" x="415.663" y="-321.8" font-family="Times,serif" font-size="14.00">0:0 &#45; 3:3</text>
<polyline fill="none" stroke="black" points="384.163,-314 447.163,-314 "/>
<text text-anchor="middle" x="415.663" y="-298.8" font-family="Times,serif" font-size="14.00">0:0 &#45; 2:2</text>
<polyline fill="none" stroke="black" points="384.163,-291 447.163,-291 "/>
<text text-anchor="middle" x="415.663" y="-275.8" font-family="Times,serif" font-size="14.00">0:0 &#45; 1:1</text>
<polyline fill="none" stroke="black" points="384.163,-268 447.163,-268 "/>
<text text-anchor="middle" x="415.663" y="-252.8" font-family="Times,serif" font-size="14.00">0:0 &#45; 0:0</text>
</g>
<!-- x1&#45;&gt;c23 -->
<g id="edge2" class="edge"><title>x1:e&#45;&gt;c23:p21:w</title>
<path fill="none" stroke="#1b9e77" stroke-width="3" d="M458.709,-287.332C463.609,-283.723 466.742,-278.246 471.649,-274.645"/>
<polygon fill="none" stroke="#1b9e77" stroke-width="3" points="458.6,-287.366 454.093,-292.995 447.163,-291 451.67,-285.371 458.6,-287.366"/>
<polygon fill="none" stroke="#1b9e77" stroke-width="3" points="471.723,-274.622 476.236,-268.997 483.163,-271 478.65,-276.624 471.723,-274.622"/>
</g>
<!-- v2 -->
<g id="node13" class="node"><title>v2</title>
<ellipse fill="none" stroke="black" cx="147.663" cy="-233" rx="27" ry="18"/>
<text text-anchor="middle" x="147.663" y="-229.3" font-family="Times,serif" font-size="14.00">2&#39;11</text>
</g>
<!-- v2&#45;&gt;c24 -->
<g id="edge22" class="edge"><title>v2:e&#45;&gt;c24:p20:w</title>
<path fill="none" stroke="#1b9e77" stroke-width="3" d="M175.663,-233C193.084,-233 198.924,-240.402 212.183,-243.062"/>
<polygon fill="#1b9e77" stroke="#1b9e77" stroke-width="3" points="211.88,-246.549 222.163,-244 212.535,-239.58 211.88,-246.549"/>
</g>
<!-- c24&#45;&gt;x1 -->
<g id="edge13" class="edge"><title>c24:p22:e&#45;&gt;x1:s0:w</title>
<path fill="none" stroke="#1b9e77" d="M348.163,-256C360.163,-256 365.413,-256 374.038,-256"/>
<polygon fill="#1b9e77" stroke="#1b9e77" points="374.163,-259.5 384.163,-256 374.163,-252.5 374.163,-259.5"/>
</g>
<!-- v3 -->
<g id="node15" class="node"><title>v3</title>
<ellipse fill="none" stroke="black" cx="147.663" cy="-141" rx="27" ry="18"/>
<text text-anchor="middle" x="147.663" y="-137.3" font-family="Times,serif" font-size="14.00">2&#39;10</text>
</g>
<!-- v3&#45;&gt;c25 -->
<g id="edge23" class="edge"><title>v3:e&#45;&gt;c25:p20:w</title>
<path fill="none" stroke="#7570b3" stroke-width="3" d="M175.663,-141C194.597,-141 198.382,-156.087 212.108,-161.274"/>
<polygon fill="#7570b3" stroke="#7570b3" stroke-width="3" points="211.715,-164.757 222.163,-163 212.9,-157.858 211.715,-164.757"/>
</g>
<!-- c25&#45;&gt;x1 -->
<g id="edge14" class="edge"><title>c25:p22:e&#45;&gt;x1:s1:w</title>
<path fill="none" stroke="#e6ab02" d="M348.163,-175C393.064,-175 344.648,-262.637 374.239,-277.015"/>
<polygon fill="#e6ab02" stroke="#e6ab02" points="373.671,-280.471 384.163,-279 375.044,-273.607 373.671,-280.471"/>
</g>
<!-- v4 -->
<g id="node17" class="node"><title>v4</title>
<ellipse fill="none" stroke="black" cx="147.663" cy="-325" rx="27" ry="18"/>
<text text-anchor="middle" x="147.663" y="-321.3" font-family="Times,serif" font-size="14.00">2&#39;01</text>
</g>
<!-- v4&#45;&gt;c26 -->
<g id="edge24" class="edge"><title>v4:e&#45;&gt;c26:p20:w</title>
<path fill="none" stroke="#666666" stroke-width="3" d="M175.663,-325C192.455,-325 199.014,-325 211.969,-325"/>
<polygon fill="#666666" stroke="#666666" stroke-width="3" points="212.163,-328.5 222.163,-325 212.163,-321.5 212.163,-328.5"/>
</g>
<!-- c26&#45;&gt;x1 -->
<g id="edge15" class="edge"><title>c26:p22:e&#45;&gt;x1:s2:w</title>
<path fill="none" stroke="#e6ab02" d="M348.163,-337C366.045,-337 364.106,-314.555 374.555,-306.138"/>
<polygon fill="#e6ab02" stroke="#e6ab02" points="375.744,-309.431 384.163,-303 373.571,-302.777 375.744,-309.431"/>
</g>
<!-- c27&#45;&gt;x1 -->
<g id="edge16" class="edge"><title>c27:p22:e&#45;&gt;x1:s3:w</title>
<path fill="none" stroke="#d95f02" d="M348.163,-403C381.809,-403 354.113,-341.923 374.34,-328.562"/>
<polygon fill="#d95f02" stroke="#d95f02" points="375.37,-331.91 384.163,-326 373.604,-325.137 375.37,-331.91"/>
</g>
<!-- c28&#45;&gt;c18 -->
<g id="edge3" class="edge"><title>c28:p22:e&#45;&gt;c18:p16:w</title>
<path fill="none" stroke="#1b9e77" stroke-width="3" d="M726.163,-196C743.154,-196 742.439,-175.927 752.513,-168.086"/>
<polygon fill="#1b9e77" stroke="#1b9e77" stroke-width="3" points="753.704,-171.379 762.163,-165 751.572,-164.712 753.704,-171.379"/>
</g>
</g>
</svg>
