<svg xmlns="http://www.w3.org/2000/svg" xmlns:xlink="http://www.w3.org/1999/xlink" xmlns:s="https://github.com/nturley/netlistsvg" width="521" height="362">
  <style>svg {
    stroke:#000;
    fill:none;
  }
  text {
    fill:#000;
    stroke:none;
    font-size:10px;
    font-weight: bold;
    font-family: "Courier New", monospace;
  }
  .nodelabel {
    text-anchor: middle;
  }
  .inputPortLabel {
    text-anchor: end;
  }
  .splitjoinBody {
    fill:#000;
  }</style>
  <g s:type="inputExt" transform="translate(337,303.5)" s:width="30" s:height="20">
    <text x="15" y="-4" class="nodelabel" s:attribute="ref">clk</text>
    <s:alias val="$_inputExt_"/>
    <path d="M0,0 L0,20 L15,20 L30,10 L15,0 Z"/>
    <g s:x="28" s:y="10" s:pid="Y"/>
  </g>
  <g s:type="inputExt" transform="translate(96,134)" s:width="30" s:height="20">
    <text x="15" y="-4" class="nodelabel" s:attribute="ref">iInbox</text>
    <s:alias val="$_inputExt_"/>
    <path d="M0,0 L0,20 L15,20 L30,10 L15,0 Z"/>
    <g s:x="28" s:y="10" s:pid="Y"/>
  </g>
  <g s:type="inputExt" transform="translate(96,16)" s:width="30" s:height="20">
    <text x="15" y="-4" class="nodelabel" s:attribute="ref">iAlu</text>
    <s:alias val="$_inputExt_"/>
    <path d="M0,0 L0,20 L15,20 L30,10 L15,0 Z"/>
    <g s:x="28" s:y="10" s:pid="Y"/>
  </g>
  <g s:type="inputExt" transform="translate(96,75)" s:width="30" s:height="20">
    <text x="15" y="-4" class="nodelabel" s:attribute="ref">iMem</text>
    <s:alias val="$_inputExt_"/>
    <path d="M0,0 L0,20 L15,20 L30,10 L15,0 Z"/>
    <g s:x="28" s:y="10" s:pid="Y"/>
  </g>
  <g s:type="inputExt" transform="translate(12,258)" s:width="30" s:height="20">
    <text x="15" y="-4" class="nodelabel" s:attribute="ref">muxR</text>
    <s:alias val="$_inputExt_"/>
    <path d="M0,0 L0,20 L15,20 L30,10 L15,0 Z"/>
    <g s:x="28" s:y="10" s:pid="Y"/>
  </g>
  <g s:type="inputExt" transform="translate(266,279.5)" s:width="30" s:height="20">
    <text x="15" y="-4" class="nodelabel" s:attribute="ref">wR</text>
    <s:alias val="$_inputExt_"/>
    <path d="M0,0 L0,20 L15,20 L30,10 L15,0 Z"/>
    <g s:x="28" s:y="10" s:pid="Y"/>
  </g>
  <g s:type="outputExt" transform="translate(476,45)" s:width="30" s:height="20">
    <text x="15" y="-4" class="nodelabel" s:attribute="ref">R</text>
    <s:alias val="$_outputExt_"/>
    <path d="M30,0 L30,20 L15,20 L0,10 L15,0 Z"/>
    <g s:x="0" s:y="10" s:pid="A"/>
  </g>
  <g s:type="dff" transform="translate(411,45)" s:width="30" s:height="40">
    <s:alias val="$dff"/>
    <s:alias val="$_DFF_"/>
    <rect width="30" height="40" x="0" y="0"/>
    <path d="M0,35 L5,30 L0,25"/>
    <g s:x="30" s:y="10" s:pid="Q"/>
    <g s:x="0" s:y="30" s:pid="CLK"/>
    <g s:x="0" s:y="10" s:pid="D"/>
  </g>
  <g s:type="mux" transform="translate(274,45)" s:width="20" s:height="40">
    <s:alias val="$pmux"/>
    <s:alias val="$mux"/>
    <s:alias val="$_MUX_"/>
    <path d="M0,0 L20,10 L20,30 L0,40 Z"/>
    <g s:x="0" s:y="10" s:pid="A"/>
    <g s:x="0" s:y="30" s:pid="B"/>
    <g s:x="10" s:y="35" s:pid="S"/>
    <g s:x="20" s:y="20" s:pid="Y"/>
  </g>
  <g s:type="eq" transform="translate(110.33333333333333,189)" s:width="25" s:height="25">
    <s:alias val="$eq"/>
    <circle r="12.5" cx="12.5" cy="12.5"/>
    <line x1="7.5" x2="17.5" y1="10" y2="10"/>
    <line x1="7.5" x2="17.5" y1="15" y2="15"/>
    <g s:x="3" s:y="5" s:pid="A"/>
    <g s:x="3" s:y="20" s:pid="B"/>
    <g s:x="25" s:y="12.5" s:pid="Y"/>
  </g>
  <g s:type="eq" transform="translate(110.33333333333333,263)" s:width="25" s:height="25">
    <s:alias val="$eq"/>
    <circle r="12.5" cx="12.5" cy="12.5"/>
    <line x1="7.5" x2="17.5" y1="10" y2="10"/>
    <line x1="7.5" x2="17.5" y1="15" y2="15"/>
    <g s:x="3" s:y="5" s:pid="A"/>
    <g s:x="3" s:y="20" s:pid="B"/>
    <g s:x="25" s:y="12.5" s:pid="Y"/>
  </g>
  <g s:type="generic" transform="translate(96,327)" s:width="30" s:height="40">
    <text x="15" y="-4" class="nodelabel" s:attribute="ref">$logic_not</text>
    <rect width="30" height="20" s:generic="body"/>
    <g transform="translate(0,10)" s:x="0" s:y="10" s:pid="in0">
      <text x="-3" y="-4" class="inputPortLabel">A</text>
    </g>
    <g transform="translate(30,10)" s:x="30" s:y="10" s:pid="out0">
      <text x="5" y="-4" style="fill:#000; stroke:none">Y</text>
    </g>
  </g>
  <g s:type="mux" transform="translate(346.6666666666667,35)" s:width="20" s:height="40">
    <s:alias val="$pmux"/>
    <s:alias val="$mux"/>
    <s:alias val="$_MUX_"/>
    <path d="M0,0 L20,10 L20,30 L0,40 Z"/>
    <g s:x="0" s:y="10" s:pid="A"/>
    <g s:x="0" s:y="30" s:pid="B"/>
    <g s:x="10" s:y="35" s:pid="S"/>
    <g s:x="20" s:y="20" s:pid="Y"/>
  </g>
  <g s:type="constant" transform="translate(12,199)" s:width="30" s:height="20">
    <text x="15" y="-4" class="nodelabel" s:attribute="ref">11</text>
    <s:alias val="$_constant_"/>
    <rect width="30" height="20"/>
    <g s:x="30" s:y="10" s:pid="Y"/>
  </g>
  <g s:type="constant" transform="translate(12,313)" s:width="30" s:height="20">
    <text x="15" y="-4" class="nodelabel" s:attribute="ref">1</text>
    <s:alias val="$_constant_"/>
    <rect width="30" height="20"/>
    <g s:x="30" s:y="10" s:pid="Y"/>
  </g>
  <g s:type="join" transform="translate(225,54.5)" s:width="4" s:height="40">
    <rect width="5" height="60" class="splitjoinBody" s:generic="body"/>
    <s:alias val="$_join_"/>
    <g s:x="5" s:y="20" s:pid="out"/>
    <g transform="translate(0,10)" s:x="0" s:y="10" s:pid="in0">
      <text x="-3" y="-4" class="inputPortLabel">0:7</text>
    </g>
    <g transform="translate(0,30)" s:x="0" s:y="10" s:pid="in0">
      <text x="-3" y="-4" class="inputPortLabel">8:15</text>
    </g>
    <g transform="translate(0,50)" s:x="0" s:y="10" s:pid="in0">
      <text x="-3" y="-4" class="inputPortLabel">16:23</text>
    </g>
  </g>
  <g s:type="join" transform="translate(220.75,245)" s:width="4" s:height="40">
    <rect width="5" height="60" class="splitjoinBody" s:generic="body"/>
    <s:alias val="$_join_"/>
    <g s:x="5" s:y="20" s:pid="out"/>
    <g transform="translate(0,10)" s:x="0" s:y="10" s:pid="in0">
      <text x="-3" y="-4" class="inputPortLabel">0</text>
    </g>
    <g transform="translate(0,30)" s:x="0" s:y="10" s:pid="in0">
      <text x="-3" y="-4" class="inputPortLabel">1</text>
    </g>
    <g transform="translate(0,50)" s:x="0" s:y="10" s:pid="in0">
      <text x="-3" y="-4" class="inputPortLabel">2</text>
    </g>
  </g>
  <line x1="441" y1="55" x2="476" y2="55"/>
  <line x1="441" y1="55" x2="451" y2="55"/>
  <line x1="451" y1="55" x2="451" y2="25"/>
  <line x1="451" y1="25" x2="312" y2="25"/>
  <line x1="312" y1="25" x2="312" y2="45"/>
  <circle cx="451" cy="55" r="2" style="fill:#000"/>
  <line x1="312" y1="45" x2="346.6666666666667" y2="45"/>
  <line x1="365" y1="313.5" x2="386" y2="313.5"/>
  <line x1="386" y1="313.5" x2="386" y2="75"/>
  <line x1="386" y1="75" x2="411" y2="75"/>
  <line x1="366.6666666666667" y1="55" x2="411" y2="55"/>
  <line x1="231" y1="75" x2="274" y2="75"/>
  <line x1="226.75" y1="265.5" x2="284" y2="265.5"/>
  <line x1="284" y1="265.5" x2="284" y2="80"/>
  <line x1="40" y1="268" x2="74" y2="268"/>
  <line x1="74" y1="268" x2="74" y2="194"/>
  <circle cx="74" cy="268" r="2" style="fill:#000"/>
  <line x1="74" y1="194" x2="113.33333333333333" y2="194"/>
  <line x1="40" y1="268" x2="113.33333333333333" y2="268"/>
  <line x1="40" y1="268" x2="74" y2="268"/>
  <line x1="74" y1="268" x2="74" y2="337.5"/>
  <line x1="74" y1="337.5" x2="96" y2="337.5"/>
  <line x1="42" y1="209" x2="113.33333333333333" y2="209"/>
  <line x1="42" y1="323" x2="64" y2="323"/>
  <line x1="64" y1="323" x2="64" y2="283"/>
  <line x1="64" y1="283" x2="113.33333333333333" y2="283"/>
  <line x1="294" y1="65" x2="346.6666666666667" y2="65"/>
  <line x1="294" y1="289.5" x2="356.6666666666667" y2="289.5"/>
  <line x1="356.6666666666667" y1="289.5" x2="356.6666666666667" y2="70"/>
  <line x1="124" y1="26" x2="181" y2="26"/>
  <line x1="181" y1="26" x2="181" y2="65"/>
  <line x1="181" y1="65" x2="225" y2="65"/>
  <line x1="124" y1="85" x2="225" y2="85"/>
  <line x1="124" y1="144" x2="181" y2="144"/>
  <line x1="181" y1="144" x2="181" y2="105"/>
  <line x1="181" y1="105" x2="225" y2="105"/>
  <line x1="135.33333333333331" y1="201.5" x2="181" y2="201.5"/>
  <line x1="181" y1="201.5" x2="181" y2="255.5"/>
  <line x1="181" y1="255.5" x2="220.75" y2="255.5"/>
  <line x1="135.33333333333331" y1="275.5" x2="220.75" y2="275.5"/>
  <line x1="127" y1="337.5" x2="181" y2="337.5"/>
  <line x1="181" y1="337.5" x2="181" y2="295.5"/>
  <line x1="181" y1="295.5" x2="220.75" y2="295.5"/>
</svg>
