<svg xmlns="http://www.w3.org/2000/svg" xmlns:xlink="http://www.w3.org/1999/xlink" xmlns:s="https://github.com/nturley/netlistsvg" width="1154" height="386.5">
  <style>svg {
    stroke:#000;
    fill:none;
  }
  text {
    fill:#000;
    stroke:none;
    font-size:10px;
    font-weight: bold;
    font-family: "Courier New", monospace;
  }
  .nodelabel {
    text-anchor: middle;
  }
  .inputPortLabel {
    text-anchor: end;
  }
  .splitjoinBody {
    fill:#000;
  }</style>
  <g s:type="add" transform="translate(907.3333333333334,22)" s:width="25" s:height="25" id="cell_$add$top.v:112$4">
    <s:alias val="$add"/>
    <circle r="12.5" cx="12.5" cy="12.5" class="cell_$add$top.v:112$4"/>
    <line x1="7.5" x2="17.5" y1="12.5" y2="12.5" class="cell_$add$top.v:112$4"/>
    <line x1="12.5" x2="12.5" y1="7.5" y2="17.5" class="cell_$add$top.v:112$4"/>
    <g s:x="3" s:y="5" s:pid="A"/>
    <g s:x="3" s:y="20" s:pid="B"/>
    <g s:x="25" s:y="12.5" s:pid="Y"/>
  </g>
  <g s:type="generic" transform="translate(309,112)" s:width="30" s:height="40" id="cell_$logic_not$top.v:112$3">
    <text x="15" y="-4" class="nodelabel cell_$logic_not$top.v:112$3" s:attribute="ref">$logic_not</text>
    <rect width="30" height="20" s:generic="body" class="cell_$logic_not$top.v:112$3"/>
    <g transform="translate(0,10)" s:x="0" s:y="10" s:pid="in0" id="port_$logic_not$top.v:112$3~A">
      <text x="-3" y="-4" class="inputPortLabel cell_$logic_not$top.v:112$3">A</text>
    </g>
    <g transform="translate(30,10)" s:x="30" s:y="10" s:pid="out0" id="port_$logic_not$top.v:112$3~Y">
      <text x="5" y="-4" style="fill:#000; stroke:none" class="cell_$logic_not$top.v:112$3">Y</text>
    </g>
  </g>
  <g s:type="not" transform="translate(904,282.5)" s:width="30" s:height="20" id="cell_$not$top.v:173$6">
    <s:alias val="$_NOT_"/>
    <s:alias val="$not"/>
    <path d="M0,0 L0,20 L20,10 Z" class="cell_$not$top.v:173$6"/>
    <circle cx="23" cy="10" r="3" class="cell_$not$top.v:173$6"/>
    <g s:x="0" s:y="10" s:pid="A"/>
    <g s:x="25" s:y="10" s:pid="Y"/>
  </g>
  <g s:type="not" transform="translate(904,220)" s:width="30" s:height="20" id="cell_$not$top.v:174$7">
    <s:alias val="$_NOT_"/>
    <s:alias val="$not"/>
    <path d="M0,0 L0,20 L20,10 Z" class="cell_$not$top.v:174$7"/>
    <circle cx="23" cy="10" r="3" class="cell_$not$top.v:174$7"/>
    <g s:x="0" s:y="10" s:pid="A"/>
    <g s:x="25" s:y="10" s:pid="Y"/>
  </g>
  <g s:type="dff" transform="translate(1024,24.5)" s:width="30" s:height="40" id="cell_$procdff$1187">
    <s:alias val="$dff"/>
    <s:alias val="$_DFF_"/>
    <rect width="30" height="40" x="0" y="0" class="cell_$procdff$1187"/>
    <path d="M0,35 L5,30 L0,25" class="cell_$procdff$1187"/>
    <g s:x="30" s:y="10" s:pid="Q"/>
    <g s:x="0" s:y="30" s:pid="CLK"/>
    <g s:x="0" s:y="10" s:pid="D"/>
  </g>
  <g s:type="generic" transform="translate(129,112)" s:width="30" s:height="40" id="cell_$reduce_and$top.v:114$5">
    <text x="15" y="-4" class="nodelabel cell_$reduce_and$top.v:114$5" s:attribute="ref">$reduce_and</text>
    <rect width="30" height="20" s:generic="body" class="cell_$reduce_and$top.v:114$5"/>
    <g transform="translate(0,10)" s:x="0" s:y="10" s:pid="in0" id="port_$reduce_and$top.v:114$5~A">
      <text x="-3" y="-4" class="inputPortLabel cell_$reduce_and$top.v:114$5">A</text>
    </g>
    <g transform="translate(30,10)" s:x="30" s:y="10" s:pid="out0" id="port_$reduce_and$top.v:114$5~Y">
      <text x="5" y="-4" style="fill:#000; stroke:none" class="cell_$reduce_and$top.v:114$5">Y</text>
    </g>
  </g>
  <g s:type="generic" transform="translate(596,159.5)" s:width="30" s:height="40" id="cell_CPU">
    <text x="15" y="-4" class="nodelabel cell_CPU" s:attribute="ref">$paramod$daa2d41268716cc2bd819c2c257642e245bf905f\hrmcpu</text>
    <rect width="30" height="180" s:generic="body" class="cell_CPU"/>
    <g transform="translate(0,10)" s:x="0" s:y="10" s:pid="in0" id="port_CPU~clk">
      <text x="-3" y="-4" class="inputPortLabel cell_CPU">clk</text>
    </g>
    <g transform="translate(0,30)" s:x="0" s:y="10" s:pid="in0" id="port_CPU~cpu_debug">
      <text x="-3" y="-4" class="inputPortLabel cell_CPU">cpu_debug</text>
    </g>
    <g transform="translate(0,50)" s:x="0" s:y="10" s:pid="in0" id="port_CPU~cpu_dmp_chip_select">
      <text x="-3" y="-4" class="inputPortLabel cell_CPU">cpu_dmp_chip_select</text>
    </g>
    <g transform="translate(0,70)" s:x="0" s:y="10" s:pid="in0" id="port_CPU~cpu_dmp_fifo_pos">
      <text x="-3" y="-4" class="inputPortLabel cell_CPU">cpu_dmp_fifo_pos</text>
    </g>
    <g transform="translate(0,90)" s:x="0" s:y="10" s:pid="in0" id="port_CPU~cpu_in_data">
      <text x="-3" y="-4" class="inputPortLabel cell_CPU">cpu_in_data</text>
    </g>
    <g transform="translate(0,110)" s:x="0" s:y="10" s:pid="in0" id="port_CPU~cpu_in_wr">
      <text x="-3" y="-4" class="inputPortLabel cell_CPU">cpu_in_wr</text>
    </g>
    <g transform="translate(0,130)" s:x="0" s:y="10" s:pid="in0" id="port_CPU~cpu_nxtInstr">
      <text x="-3" y="-4" class="inputPortLabel cell_CPU">cpu_nxtInstr</text>
    </g>
    <g transform="translate(0,150)" s:x="0" s:y="10" s:pid="in0" id="port_CPU~cpu_out_rd">
      <text x="-3" y="-4" class="inputPortLabel cell_CPU">cpu_out_rd</text>
    </g>
    <g transform="translate(0,170)" s:x="0" s:y="10" s:pid="in0" id="port_CPU~i_rst">
      <text x="-3" y="-4" class="inputPortLabel cell_CPU">i_rst</text>
    </g>
    <g transform="translate(30,10)" s:x="30" s:y="10" s:pid="out0" id="port_CPU~cpu_dmp_data">
      <text x="5" y="-4" style="fill:#000; stroke:none" class="cell_CPU">cpu_dmp_data</text>
    </g>
    <g transform="translate(30,30)" s:x="30" s:y="10" s:pid="out0" id="port_CPU~cpu_dmp_valid">
      <text x="5" y="-4" style="fill:#000; stroke:none" class="cell_CPU">cpu_dmp_valid</text>
    </g>
    <g transform="translate(30,50)" s:x="30" s:y="10" s:pid="out0" id="port_CPU~cpu_in_full">
      <text x="5" y="-4" style="fill:#000; stroke:none" class="cell_CPU">cpu_in_full</text>
    </g>
    <g transform="translate(30,70)" s:x="30" s:y="10" s:pid="out0" id="port_CPU~cpu_o_leds">
      <text x="5" y="-4" style="fill:#000; stroke:none" class="cell_CPU">cpu_o_leds</text>
    </g>
    <g transform="translate(30,90)" s:x="30" s:y="10" s:pid="out0" id="port_CPU~cpu_out_data">
      <text x="5" y="-4" style="fill:#000; stroke:none" class="cell_CPU">cpu_out_data</text>
    </g>
    <g transform="translate(30,110)" s:x="30" s:y="10" s:pid="out0" id="port_CPU~cpu_out_empty">
      <text x="5" y="-4" style="fill:#000; stroke:none" class="cell_CPU">cpu_out_empty</text>
    </g>
  </g>
  <g s:type="generic" transform="translate(357,245)" s:width="30" s:height="40" id="cell_rx">
    <text x="15" y="-4" class="nodelabel cell_rx" s:attribute="ref">$paramod\rxuartlite\CLOCKS_PER_BAUD=24'000000000000000001101000</text>
    <rect width="30" height="40" s:generic="body" class="cell_rx"/>
    <g transform="translate(0,10)" s:x="0" s:y="10" s:pid="in0" id="port_rx~i_clk">
      <text x="-3" y="-4" class="inputPortLabel cell_rx">i_clk</text>
    </g>
    <g transform="translate(0,30)" s:x="0" s:y="10" s:pid="in0" id="port_rx~i_uart_rx">
      <text x="-3" y="-4" class="inputPortLabel cell_rx">i_uart_rx</text>
    </g>
    <g transform="translate(30,10)" s:x="30" s:y="10" s:pid="out0" id="port_rx~o_data">
      <text x="5" y="-4" style="fill:#000; stroke:none" class="cell_rx">o_data</text>
    </g>
    <g transform="translate(30,30)" s:x="30" s:y="10" s:pid="out0" id="port_rx~o_wr">
      <text x="5" y="-4" style="fill:#000; stroke:none" class="cell_rx">o_wr</text>
    </g>
  </g>
  <g s:type="generic" transform="translate(783,219.5)" s:width="30" s:height="40" id="cell_tx">
    <text x="15" y="-4" class="nodelabel cell_tx" s:attribute="ref">$paramod\txuartlite\CLOCKS_PER_BAUD=24'000000000000000001101000</text>
    <rect width="30" height="60" s:generic="body" class="cell_tx"/>
    <g transform="translate(0,10)" s:x="0" s:y="10" s:pid="in0" id="port_tx~i_clk">
      <text x="-3" y="-4" class="inputPortLabel cell_tx">i_clk</text>
    </g>
    <g transform="translate(0,30)" s:x="0" s:y="10" s:pid="in0" id="port_tx~i_data">
      <text x="-3" y="-4" class="inputPortLabel cell_tx">i_data</text>
    </g>
    <g transform="translate(0,50)" s:x="0" s:y="10" s:pid="in0" id="port_tx~i_wr">
      <text x="-3" y="-4" class="inputPortLabel cell_tx">i_wr</text>
    </g>
    <g transform="translate(30,10)" s:x="30" s:y="10" s:pid="out0" id="port_tx~o_busy">
      <text x="5" y="-4" style="fill:#000; stroke:none" class="cell_tx">o_busy</text>
    </g>
    <g transform="translate(30,30)" s:x="30" s:y="10" s:pid="out0" id="port_tx~o_uart_tx">
      <text x="5" y="-4" style="fill:#000; stroke:none" class="cell_tx">o_uart_tx</text>
    </g>
  </g>
  <g s:type="generic" transform="translate(1024,199.5)" s:width="30" s:height="40" id="cell_txctl">
    <text x="15" y="-4" class="nodelabel cell_txctl" s:attribute="ref">out2txCtl</text>
    <rect width="30" height="60" s:generic="body" class="cell_txctl"/>
    <g transform="translate(0,10)" s:x="0" s:y="10" s:pid="in0" id="port_txctl~clk">
      <text x="-3" y="-4" class="inputPortLabel cell_txctl">clk</text>
    </g>
    <g transform="translate(0,30)" s:x="0" s:y="10" s:pid="in0" id="port_txctl~i_busy_n">
      <text x="-3" y="-4" class="inputPortLabel cell_txctl">i_busy_n</text>
    </g>
    <g transform="translate(0,50)" s:x="0" s:y="10" s:pid="in0" id="port_txctl~i_empty_n">
      <text x="-3" y="-4" class="inputPortLabel cell_txctl">i_empty_n</text>
    </g>
    <g transform="translate(30,10)" s:x="30" s:y="10" s:pid="out0" id="port_txctl~o_pop_value">
      <text x="5" y="-4" style="fill:#000; stroke:none" class="cell_txctl">o_pop_value</text>
    </g>
  </g>
  <g s:type="inputExt" transform="translate(129,47)" s:width="30" s:height="20" id="cell_clk">
    <text x="15" y="-4" class="nodelabel cell_clk" s:attribute="ref">clk</text>
    <s:alias val="$_inputExt_"/>
    <path d="M0,0 L0,20 L15,20 L30,10 L15,0 Z" class="cell_clk"/>
    <g s:x="28" s:y="10" s:pid="Y"/>
  </g>
  <g s:type="inputExt" transform="translate(129,265.5)" s:width="30" s:height="20" id="cell_RX">
    <text x="15" y="-4" class="nodelabel cell_RX" s:attribute="ref">RX</text>
    <s:alias val="$_inputExt_"/>
    <path d="M0,0 L0,20 L15,20 L30,10 L15,0 Z" class="cell_RX"/>
    <g s:x="28" s:y="10" s:pid="Y"/>
  </g>
  <g s:type="outputExt" transform="translate(1024,109.5)" s:width="30" s:height="20" id="cell_TX">
    <text x="15" y="-4" class="nodelabel cell_TX" s:attribute="ref">TX</text>
    <s:alias val="$_outputExt_"/>
    <path d="M30,0 L30,20 L15,20 L0,10 L15,0 Z" class="cell_TX"/>
    <g s:x="0" s:y="10" s:pid="A"/>
  </g>
  <g s:type="outputExt" transform="translate(1024,332.5)" s:width="30" s:height="20" id="cell_leds">
    <text x="15" y="-4" class="nodelabel cell_leds" s:attribute="ref">leds</text>
    <s:alias val="$_outputExt_"/>
    <path d="M30,0 L30,20 L15,20 L0,10 L15,0 Z" class="cell_leds"/>
    <g s:x="0" s:y="10" s:pid="A"/>
  </g>
  <g s:type="constant" transform="translate(309,180)" s:width="30" s:height="20" id="cell_0">
    <text x="15" y="-4" class="nodelabel cell_0" s:attribute="ref">0</text>
    <s:alias val="$_constant_"/>
    <rect width="30" height="20" class="cell_0"/>
    <g s:x="30" s:y="10" s:pid="Y"/>
  </g>
  <g s:type="join" transform="translate(79,102)" s:width="4" s:height="40" id="cell_$join$,18,17,16,15,14,13,">
    <rect width="5" height="120" class="splitjoinBody" s:generic="body"/>
    <s:alias val="$_join_"/>
    <g s:x="5" s:y="20" s:pid="out"/>
    <g transform="translate(0,10)" s:x="0" s:y="10" s:pid="in0">
      <text x="-3" y="-4" class="inputPortLabel">0</text>
    </g>
    <g transform="translate(0,30)" s:x="0" s:y="10" s:pid="in0">
      <text x="-3" y="-4" class="inputPortLabel">1</text>
    </g>
    <g transform="translate(0,50)" s:x="0" s:y="10" s:pid="in0">
      <text x="-3" y="-4" class="inputPortLabel">2</text>
    </g>
    <g transform="translate(0,70)" s:x="0" s:y="10" s:pid="in0">
      <text x="-3" y="-4" class="inputPortLabel">3</text>
    </g>
    <g transform="translate(0,90)" s:x="0" s:y="10" s:pid="in0">
      <text x="-3" y="-4" class="inputPortLabel">4</text>
    </g>
    <g transform="translate(0,110)" s:x="0" s:y="10" s:pid="in0">
      <text x="-3" y="-4" class="inputPortLabel">5</text>
    </g>
  </g>
  <g s:type="split" transform="translate(32,102)" s:width="5" s:height="40" id="cell_$split$,13,14,15,16,17,18,">
    <rect width="5" height="120" class="splitjoinBody" s:generic="body"/>
    <s:alias val="$_split_"/>
    <g s:x="0" s:y="20" s:pid="in"/>
    <g transform="translate(4,10)" s:x="4" s:y="10" s:pid="out0">
      <text x="5" y="-4">5</text>
    </g>
    <g transform="translate(4,30)" s:x="4" s:y="10" s:pid="out0">
      <text x="5" y="-4">4</text>
    </g>
    <g transform="translate(4,50)" s:x="4" s:y="10" s:pid="out0">
      <text x="5" y="-4">3</text>
    </g>
    <g transform="translate(4,70)" s:x="4" s:y="10" s:pid="out0">
      <text x="5" y="-4">2</text>
    </g>
    <g transform="translate(4,90)" s:x="4" s:y="10" s:pid="out0">
      <text x="5" y="-4">1</text>
    </g>
    <g transform="translate(4,110)" s:x="4" s:y="10" s:pid="out0">
      <text x="5" y="-4">0</text>
    </g>
  </g>
  <line x1="1054" x2="1142" y1="34.5" y2="34.5" class="net_13,14,15,16,17,18"/>
  <line x1="1142" x2="1142" y1="34.5" y2="12" class="net_13,14,15,16,17,18"/>
  <line x1="1142" x2="889" y1="12" y2="12" class="net_13,14,15,16,17,18"/>
  <line x1="889" x2="889" y1="12" y2="27" class="net_13,14,15,16,17,18"/>
  <circle cx="1142" cy="34.5" r="2" style="fill:#000" class="net_13,14,15,16,17,18"/>
  <line x1="889" x2="910.3333333333334" y1="27" y2="27" class="net_13,14,15,16,17,18"/>
  <line x1="1054" x2="1142" y1="34.5" y2="34.5" class="net_13,14,15,16,17,18"/>
  <line x1="1142" x2="1142" y1="34.5" y2="373.5" class="net_13,14,15,16,17,18"/>
  <line x1="1142" x2="12" y1="373.5" y2="373.5" class="net_13,14,15,16,17,18"/>
  <line x1="12" x2="12" y1="373.5" y2="122.5" class="net_13,14,15,16,17,18"/>
  <line x1="12" x2="32" y1="122.5" y2="122.5" class="net_13,14,15,16,17,18"/>
  <line x1="340" x2="451" y1="122.5" y2="122.5" class="net_19"/>
  <line x1="451" x2="451" y1="122.5" y2="42" class="net_19"/>
  <circle cx="451" cy="122.5" r="2" style="fill:#000" class="net_19"/>
  <line x1="451" x2="910.3333333333334" y1="42" y2="42" class="net_19"/>
  <line x1="340" x2="451" y1="122.5" y2="122.5" class="net_19"/>
  <line x1="451" x2="451" y1="122.5" y2="330" class="net_19"/>
  <line x1="451" x2="596" y1="330" y2="330" class="net_19"/>
  <line x1="160" x2="309" y1="122.5" y2="122.5" class="net_26"/>
  <line x1="627" x2="726" y1="270" y2="270" class="net_27"/>
  <line x1="726" x2="726" y1="270" y2="292.5" class="net_27"/>
  <line x1="726" x2="904" y1="292.5" y2="292.5" class="net_27"/>
  <line x1="814" x2="904" y1="230" y2="230" class="net_29"/>
  <line x1="157" x2="944" y1="57" y2="57" class="net_2"/>
  <line x1="944" x2="944" y1="57" y2="54.5" class="net_2"/>
  <line x1="944" x2="1024" y1="54.5" y2="54.5" class="net_2"/>
  <line x1="157" x2="461" y1="57" y2="57" class="net_2"/>
  <line x1="461" x2="461" y1="57" y2="170" class="net_2"/>
  <circle cx="461" cy="57" r="2" style="fill:#000" class="net_2"/>
  <line x1="461" x2="596" y1="170" y2="170" class="net_2"/>
  <line x1="157" x2="277" y1="57" y2="57" class="net_2"/>
  <line x1="277" x2="277" y1="57" y2="255.5" class="net_2"/>
  <circle cx="277" cy="57" r="2" style="fill:#000" class="net_2"/>
  <line x1="277" x2="357" y1="255.5" y2="255.5" class="net_2"/>
  <line x1="157" x2="726" y1="57" y2="57" class="net_2"/>
  <line x1="726" x2="726" y1="57" y2="230" class="net_2"/>
  <circle cx="726" cy="57" r="2" style="fill:#000" class="net_2"/>
  <line x1="726" x2="783" y1="230" y2="230" class="net_2"/>
  <line x1="157" x2="889" y1="57" y2="57" class="net_2"/>
  <line x1="889" x2="889" y1="57" y2="130.5" class="net_2"/>
  <line x1="889" x2="944" y1="130.5" y2="130.5" class="net_2"/>
  <line x1="944" x2="944" y1="130.5" y2="210" class="net_2"/>
  <circle cx="889" cy="57" r="2" style="fill:#000" class="net_2"/>
  <line x1="944" x2="1024" y1="210" y2="210" class="net_2"/>
  <line x1="932.3333333333334" x2="1024" y1="34.5" y2="34.5" class="net_20,21,22,23,24,25"/>
  <line x1="85" x2="129" y1="122.5" y2="122.5" class="net_18,17,16,15,14,13"/>
  <line x1="339" x2="596" y1="190" y2="190" class="net_67"/>
  <line x1="339" x2="471" y1="190" y2="190" class="net_67"/>
  <line x1="471" x2="471" y1="190" y2="290" class="net_67"/>
  <circle cx="471" cy="190" r="2" style="fill:#000" class="net_67"/>
  <line x1="471" x2="596" y1="290" y2="290" class="net_67"/>
  <line x1="388" x2="461" y1="255.5" y2="255.5" class="net_48,49,50,51,52,53,54,55"/>
  <line x1="461" x2="461" y1="255.5" y2="250" class="net_48,49,50,51,52,53,54,55"/>
  <line x1="461" x2="596" y1="250" y2="250" class="net_48,49,50,51,52,53,54,55"/>
  <line x1="388" x2="461" y1="275.5" y2="275.5" class="net_57"/>
  <line x1="461" x2="461" y1="275.5" y2="270" class="net_57"/>
  <line x1="461" x2="596" y1="270" y2="270" class="net_57"/>
  <line x1="1055" x2="1132" y1="210" y2="210" class="net_66"/>
  <line x1="1132" x2="1132" y1="210" y2="362.5" class="net_66"/>
  <line x1="1132" x2="471" y1="362.5" y2="362.5" class="net_66"/>
  <line x1="471" x2="471" y1="362.5" y2="310" class="net_66"/>
  <line x1="471" x2="596" y1="310" y2="310" class="net_66"/>
  <line x1="1055" x2="1132" y1="210" y2="210" class="net_66"/>
  <line x1="1132" x2="1132" y1="210" y2="312.5" class="net_66"/>
  <line x1="1132" x2="736" y1="312.5" y2="312.5" class="net_66"/>
  <line x1="736" x2="736" y1="312.5" y2="270" class="net_66"/>
  <circle cx="1132" cy="312.5" r="2" style="fill:#000" class="net_66"/>
  <line x1="736" x2="783" y1="270" y2="270" class="net_66"/>
  <line x1="157" x2="357" y1="275.5" y2="275.5" class="net_3"/>
  <line x1="627" x2="783" y1="250" y2="250" class="net_58,59,60,61,62,63,64,65"/>
  <line x1="929" x2="1024" y1="230" y2="230" class="net_30"/>
  <line x1="929" x2="944" y1="292.5" y2="292.5" class="net_28"/>
  <line x1="944" x2="944" y1="292.5" y2="250" class="net_28"/>
  <line x1="944" x2="1024" y1="250" y2="250" class="net_28"/>
  <line x1="814" x2="879" y1="250" y2="250" class="net_4"/>
  <line x1="879" x2="879" y1="250" y2="119.5" class="net_4"/>
  <line x1="879" x2="1024" y1="119.5" y2="119.5" class="net_4"/>
  <line x1="627" x2="716" y1="230" y2="230" class="net_5,6,7,8,9,10,11,12"/>
  <line x1="716" x2="716" y1="230" y2="342.5" class="net_5,6,7,8,9,10,11,12"/>
  <line x1="716" x2="1024" y1="342.5" y2="342.5" class="net_5,6,7,8,9,10,11,12"/>
  <line x1="36.5" x2="36.5" y1="112" y2="90" class="net_18"/>
  <line x1="36.5" x2="79.5" y1="90" y2="90" class="net_18"/>
  <line x1="79.5" x2="79.5" y1="90" y2="112" class="net_18"/>
  <line x1="37" x2="79" y1="132.5" y2="132.5" class="net_17"/>
  <line x1="37" x2="79" y1="152.5" y2="152.5" class="net_16"/>
  <line x1="37" x2="79" y1="172.5" y2="172.5" class="net_15"/>
  <line x1="37" x2="79" y1="192.5" y2="192.5" class="net_14"/>
  <line x1="36.5" x2="36.5" y1="213" y2="232" class="net_13"/>
  <line x1="36.5" x2="79.5" y1="232" y2="232" class="net_13"/>
  <line x1="79.5" x2="79.5" y1="232" y2="213" class="net_13"/>
</svg>
