<?xml version="1.0" encoding="UTF-8" standalone="no"?>
<!DOCTYPE svg PUBLIC "-//W3C//DTD SVG 1.1//EN"
 "http://www.w3.org/Graphics/SVG/1.1/DTD/svg11.dtd">
<!-- Generated by graphviz version 2.38.0 (20140413.2041)
 -->
<!-- Title: top Pages: 1 -->
<svg width="3744pt" height="599pt"
 viewBox="0.00 0.00 3743.87 599.00" xmlns="http://www.w3.org/2000/svg" xmlns:xlink="http://www.w3.org/1999/xlink">
<g id="graph0" class="graph" transform="scale(1 1) rotate(0) translate(4 595)">
<title>top</title>
<polygon fill="white" stroke="none" points="-4,4 -4,-595 3739.87,-595 3739.87,4 -4,4"/>
<text text-anchor="middle" x="1867.94" y="-7.8" font-family="Times,serif" font-size="14.00">top</text>
<!-- n1 -->
<g id="node1" class="node"><title>n1</title>
<polygon fill="none" stroke="black" points="54,-75.5442 54,-90.4558 38.1838,-101 15.8162,-101 3.55271e-15,-90.4558 0,-75.5442 15.8162,-65 38.1838,-65 54,-75.5442"/>
<text text-anchor="middle" x="27" y="-79.3" font-family="Times,serif" font-size="14.00">RX</text>
</g>
<!-- c44 -->
<g id="node33" class="node"><title>c44</title>
<polygon fill="none" stroke="black" points="90,-105 90,-151 653,-151 653,-105 90,-105"/>
<text text-anchor="middle" x="123" y="-135.8" font-family="Times,serif" font-size="14.00">i_clk</text>
<polyline fill="none" stroke="black" points="90,-128 156,-128 "/>
<text text-anchor="middle" x="123" y="-112.8" font-family="Times,serif" font-size="14.00">i_uart_rx</text>
<polyline fill="none" stroke="black" points="156,-105 156,-151 "/>
<text text-anchor="middle" x="378" y="-131.8" font-family="Times,serif" font-size="14.00">rx</text>
<text text-anchor="middle" x="378" y="-116.8" font-family="Times,serif" font-size="14.00">$paramod\rxuartlite\CLOCKS_PER_BAUD=24&#39;000000000000000001101000</text>
<polyline fill="none" stroke="black" points="600,-105 600,-151 "/>
<text text-anchor="middle" x="626.5" y="-135.8" font-family="Times,serif" font-size="14.00">o_data</text>
<polyline fill="none" stroke="black" points="600,-128 653,-128 "/>
<text text-anchor="middle" x="626.5" y="-112.8" font-family="Times,serif" font-size="14.00">o_wr</text>
</g>
<!-- n1&#45;&gt;c44 -->
<g id="edge1" class="edge"><title>n1:e&#45;&gt;c44:p41:w</title>
<path fill="none" stroke="#66a61e" d="M54,-83C71.4658,-83 70.0789,-104.368 80.1803,-112.715"/>
<polygon fill="#66a61e" stroke="#66a61e" points="79.4062,-116.147 90,-116 81.6269,-109.508 79.4062,-116.147"/>
</g>
<!-- x3 -->
<g id="node37" class="node"><title>x3</title>
<path fill="none" stroke="black" d="M386.5,-68C386.5,-68 356.5,-68 356.5,-68 350.5,-68 344.5,-62 344.5,-56 344.5,-56 344.5,-44 344.5,-44 344.5,-38 350.5,-32 356.5,-32 356.5,-32 386.5,-32 386.5,-32 392.5,-32 398.5,-38 398.5,-44 398.5,-44 398.5,-56 398.5,-56 398.5,-62 392.5,-68 386.5,-68"/>
<text text-anchor="middle" x="371.5" y="-46.3" font-family="Times,serif" font-size="14.00">BUF</text>
</g>
<!-- n1&#45;&gt;x3 -->
<g id="edge2" class="edge"><title>n1:e&#45;&gt;x3:w:w</title>
<path fill="none" stroke="#66a61e" d="M54,-83C180.085,-83 212.323,-51.7173 333.459,-50.0676"/>
<polygon fill="#66a61e" stroke="#66a61e" points="333.524,-53.5674 343.5,-50 333.477,-46.5675 333.524,-53.5674"/>
</g>
<!-- n2 -->
<g id="node2" class="node"><title>n2</title>
<polygon fill="none" stroke="black" points="3735.87,-417.544 3735.87,-432.456 3720.06,-443 3697.69,-443 3681.87,-432.456 3681.87,-417.544 3697.69,-407 3720.06,-407 3735.87,-417.544"/>
<text text-anchor="middle" x="3708.87" y="-421.3" font-family="Times,serif" font-size="14.00">TX</text>
</g>
<!-- n3 -->
<g id="node3" class="node"><title>n3</title>
<polygon fill="none" stroke="black" points="54,-371.544 54,-386.456 38.1838,-397 15.8162,-397 3.55271e-15,-386.456 0,-371.544 15.8162,-361 38.1838,-361 54,-371.544"/>
<text text-anchor="middle" x="27" y="-375.3" font-family="Times,serif" font-size="14.00">clk</text>
</g>
<!-- c34 -->
<g id="node31" class="node"><title>c34</title>
<polygon fill="none" stroke="black" points="879.418,-225.5 879.418,-386.5 1448.42,-386.5 1448.42,-225.5 879.418,-225.5"/>
<text text-anchor="middle" x="921.918" y="-371.3" font-family="Times,serif" font-size="14.00">clk</text>
<polyline fill="none" stroke="black" points="879.418,-363.5 964.418,-363.5 "/>
<text text-anchor="middle" x="921.918" y="-348.3" font-family="Times,serif" font-size="14.00">cpu_debug</text>
<polyline fill="none" stroke="black" points="879.418,-340.5 964.418,-340.5 "/>
<text text-anchor="middle" x="921.918" y="-325.3" font-family="Times,serif" font-size="14.00">cpu_in_data</text>
<polyline fill="none" stroke="black" points="879.418,-317.5 964.418,-317.5 "/>
<text text-anchor="middle" x="921.918" y="-302.3" font-family="Times,serif" font-size="14.00">cpu_in_wr</text>
<polyline fill="none" stroke="black" points="879.418,-294.5 964.418,-294.5 "/>
<text text-anchor="middle" x="921.918" y="-279.3" font-family="Times,serif" font-size="14.00">cpu_nxtInstr</text>
<polyline fill="none" stroke="black" points="879.418,-271.5 964.418,-271.5 "/>
<text text-anchor="middle" x="921.918" y="-256.3" font-family="Times,serif" font-size="14.00">cpu_out_rd</text>
<polyline fill="none" stroke="black" points="879.418,-248.5 964.418,-248.5 "/>
<text text-anchor="middle" x="921.918" y="-233.3" font-family="Times,serif" font-size="14.00">i_rst</text>
<polyline fill="none" stroke="black" points="964.418,-225.5 964.418,-386.5 "/>
<text text-anchor="middle" x="1155.92" y="-309.8" font-family="Times,serif" font-size="14.00">CPU</text>
<text text-anchor="middle" x="1155.92" y="-294.8" font-family="Times,serif" font-size="14.00">$paramod$799e678e2f9a247f62248c639350179c934029f6\hrmcpu</text>
<polyline fill="none" stroke="black" points="1347.42,-225.5 1347.42,-386.5 "/>
<text text-anchor="middle" x="1397.92" y="-356.3" font-family="Times,serif" font-size="14.00">cpu_in_full</text>
<polyline fill="none" stroke="black" points="1347.42,-333.5 1448.42,-333.5 "/>
<text text-anchor="middle" x="1397.92" y="-302.8" font-family="Times,serif" font-size="14.00">cpu_out_data</text>
<polyline fill="none" stroke="black" points="1347.42,-279.5 1448.42,-279.5 "/>
<text text-anchor="middle" x="1397.92" y="-248.8" font-family="Times,serif" font-size="14.00">cpu_out_empty</text>
</g>
<!-- n3&#45;&gt;c34 -->
<g id="edge27" class="edge"><title>n3:e&#45;&gt;c34:p3:w</title>
<path fill="none" stroke="#7570b3" d="M54,-379C417.453,-379 510.836,-375.074 869.279,-375.001"/>
<polygon fill="#7570b3" stroke="#7570b3" points="869.419,-378.501 879.418,-375 869.418,-371.501 869.419,-378.501"/>
</g>
<!-- c39 -->
<g id="node32" class="node"><title>c39</title>
<polygon fill="none" stroke="black" points="283.5,-466.5 283.5,-535.5 459.5,-535.5 459.5,-466.5 283.5,-466.5"/>
<text text-anchor="middle" x="300" y="-514.8" font-family="Times,serif" font-size="14.00">PB</text>
<polyline fill="none" stroke="black" points="283.5,-501.5 316.5,-501.5 "/>
<text text-anchor="middle" x="300" y="-480.3" font-family="Times,serif" font-size="14.00">clk</text>
<polyline fill="none" stroke="black" points="316.5,-466.5 316.5,-535.5 "/>
<text text-anchor="middle" x="353" y="-504.8" font-family="Times,serif" font-size="14.00">db_sw1</text>
<text text-anchor="middle" x="353" y="-489.8" font-family="Times,serif" font-size="14.00">debouncer</text>
<polyline fill="none" stroke="black" points="389.5,-466.5 389.5,-535.5 "/>
<text text-anchor="middle" x="424.5" y="-520.3" font-family="Times,serif" font-size="14.00">PB_down</text>
<polyline fill="none" stroke="black" points="389.5,-512.5 459.5,-512.5 "/>
<text text-anchor="middle" x="424.5" y="-497.3" font-family="Times,serif" font-size="14.00">PB_state</text>
<polyline fill="none" stroke="black" points="389.5,-489.5 459.5,-489.5 "/>
<text text-anchor="middle" x="424.5" y="-474.3" font-family="Times,serif" font-size="14.00">PB_up</text>
</g>
<!-- n3&#45;&gt;c39 -->
<g id="edge28" class="edge"><title>n3:e&#45;&gt;c39:p3:w</title>
<path fill="none" stroke="#7570b3" d="M54,-379C82.1091,-379 67.073,-414.737 90,-431 159.552,-480.335 191.247,-483.795 272.358,-483.99"/>
<polygon fill="#7570b3" stroke="#7570b3" points="272.496,-487.49 282.5,-484 272.504,-480.49 272.496,-487.49"/>
</g>
<!-- n3&#45;&gt;c44 -->
<g id="edge29" class="edge"><title>n3:e&#45;&gt;c44:p40:w</title>
<path fill="none" stroke="#7570b3" d="M54,-379C157.749,-379 -5.52945,-156.059 79.9656,-140.819"/>
<polygon fill="#7570b3" stroke="#7570b3" points="80.3177,-144.302 90,-140 79.7485,-137.325 80.3177,-144.302"/>
</g>
<!-- c49 -->
<g id="node34" class="node"><title>c49</title>
<polygon fill="none" stroke="black" points="1684.03,-353.5 1684.03,-422.5 2245.03,-422.5 2245.03,-353.5 1684.03,-353.5"/>
<text text-anchor="middle" x="1709.03" y="-407.3" font-family="Times,serif" font-size="14.00">i_clk</text>
<polyline fill="none" stroke="black" points="1684.03,-399.5 1734.03,-399.5 "/>
<text text-anchor="middle" x="1709.03" y="-384.3" font-family="Times,serif" font-size="14.00">i_data</text>
<polyline fill="none" stroke="black" points="1684.03,-376.5 1734.03,-376.5 "/>
<text text-anchor="middle" x="1709.03" y="-361.3" font-family="Times,serif" font-size="14.00">i_wr</text>
<polyline fill="none" stroke="black" points="1734.03,-353.5 1734.03,-422.5 "/>
<text text-anchor="middle" x="1955.53" y="-391.8" font-family="Times,serif" font-size="14.00">tx</text>
<text text-anchor="middle" x="1955.53" y="-376.8" font-family="Times,serif" font-size="14.00">$paramod\txuartlite\CLOCKS_PER_BAUD=24&#39;000000000000000001101000</text>
<polyline fill="none" stroke="black" points="2177.03,-353.5 2177.03,-422.5 "/>
<text text-anchor="middle" x="2211.03" y="-401.8" font-family="Times,serif" font-size="14.00">o_busy</text>
<polyline fill="none" stroke="black" points="2177.03,-388.5 2245.03,-388.5 "/>
<text text-anchor="middle" x="2211.03" y="-367.3" font-family="Times,serif" font-size="14.00">o_uart_tx</text>
</g>
<!-- n3&#45;&gt;c49 -->
<g id="edge30" class="edge"><title>n3:e&#45;&gt;c49:p40:w</title>
<path fill="none" stroke="#7570b3" d="M54,-379C71.0113,-379 73.3006,-388.758 90,-392 384.793,-449.237 464.911,-417 765.209,-417 765.209,-417 765.209,-417 1164.92,-417 1392.27,-417 1451.57,-411.174 1674,-411.004"/>
<polygon fill="#7570b3" stroke="#7570b3" points="1674.03,-414.504 1684.03,-411 1674.03,-407.504 1674.03,-414.504"/>
</g>
<!-- c53 -->
<g id="node35" class="node"><title>c53</title>
<polygon fill="none" stroke="black" points="2896.4,-165.5 2896.4,-234.5 3125.4,-234.5 3125.4,-165.5 2896.4,-165.5"/>
<text text-anchor="middle" x="2933.9" y="-219.3" font-family="Times,serif" font-size="14.00">clk</text>
<polyline fill="none" stroke="black" points="2896.4,-211.5 2971.4,-211.5 "/>
<text text-anchor="middle" x="2933.9" y="-196.3" font-family="Times,serif" font-size="14.00">i_busy_n</text>
<polyline fill="none" stroke="black" points="2896.4,-188.5 2971.4,-188.5 "/>
<text text-anchor="middle" x="2933.9" y="-173.3" font-family="Times,serif" font-size="14.00">i_empty_n</text>
<polyline fill="none" stroke="black" points="2971.4,-165.5 2971.4,-234.5 "/>
<text text-anchor="middle" x="3005.4" y="-203.8" font-family="Times,serif" font-size="14.00">txctl</text>
<text text-anchor="middle" x="3005.4" y="-188.8" font-family="Times,serif" font-size="14.00">out2txCtl</text>
<polyline fill="none" stroke="black" points="3039.4,-165.5 3039.4,-234.5 "/>
<text text-anchor="middle" x="3082.4" y="-196.3" font-family="Times,serif" font-size="14.00">o_pop_value</text>
</g>
<!-- n3&#45;&gt;c53 -->
<g id="edge31" class="edge"><title>n3:e&#45;&gt;c53:p3:w</title>
<path fill="none" stroke="#7570b3" d="M54,-379C74.4063,-379 744.803,-195 765.209,-195 765.209,-195 765.209,-195 2549.66,-195 2700.79,-195 2740.05,-221.756 2886.16,-222.958"/>
<polygon fill="#7570b3" stroke="#7570b3" points="2886.39,-226.459 2896.4,-223 2886.42,-219.459 2886.39,-226.459"/>
</g>
<!-- n4 -->
<g id="node4" class="node"><title>n4</title>
<polygon fill="none" stroke="black" points="766.209,-589 704.542,-571 766.209,-553 827.876,-571 766.209,-589"/>
<text text-anchor="middle" x="766.209" y="-567.3" font-family="Times,serif" font-size="14.00">cpu_i_rst</text>
</g>
<!-- n4&#45;&gt;c34 -->
<g id="edge33" class="edge"><title>n4:e&#45;&gt;c34:p33:w</title>
<path fill="none" stroke="#666666" d="M829.209,-571C900.601,-571 813.701,-268.821 869.635,-239.311"/>
<polygon fill="#666666" stroke="#666666" points="870.491,-242.705 879.418,-237 868.882,-235.893 870.491,-242.705"/>
</g>
<!-- x6 -->
<g id="node40" class="node"><title>x6</title>
<path fill="none" stroke="black" d="M1178.92,-589C1178.92,-589 1148.92,-589 1148.92,-589 1142.92,-589 1136.92,-583 1136.92,-577 1136.92,-577 1136.92,-565 1136.92,-565 1136.92,-559 1142.92,-553 1148.92,-553 1148.92,-553 1178.92,-553 1178.92,-553 1184.92,-553 1190.92,-559 1190.92,-565 1190.92,-565 1190.92,-577 1190.92,-577 1190.92,-583 1184.92,-589 1178.92,-589"/>
<text text-anchor="middle" x="1163.92" y="-567.3" font-family="Times,serif" font-size="14.00">BUF</text>
</g>
<!-- n4&#45;&gt;x6 -->
<g id="edge34" class="edge"><title>n4:e&#45;&gt;x6:w:w</title>
<path fill="none" stroke="#666666" d="M829.209,-571C962.063,-571 997.807,-571 1125.73,-571"/>
<polygon fill="#666666" stroke="#666666" points="1125.92,-574.5 1135.92,-571 1125.92,-567.5 1125.92,-574.5"/>
</g>
<!-- n5 -->
<g id="node5" class="node"><title>n5</title>
<polygon fill="none" stroke="black" points="766.209,-167 690.129,-149 766.209,-131 842.29,-149 766.209,-167"/>
<text text-anchor="middle" x="766.209" y="-145.3" font-family="Times,serif" font-size="14.00">cpu_in_data</text>
</g>
<!-- n5&#45;&gt;c34 -->
<g id="edge36" class="edge"><title>n5:e&#45;&gt;c34:p5:w</title>
<path fill="none" stroke="#a6761d" stroke-width="3" d="M843.209,-149C920.987,-149 809.263,-312.521 869.275,-327.851"/>
<polygon fill="#a6761d" stroke="#a6761d" stroke-width="3" points="869.088,-331.352 879.418,-329 869.876,-324.396 869.088,-331.352"/>
</g>
<!-- x4 -->
<g id="node38" class="node"><title>x4</title>
<path fill="none" stroke="black" d="M1178.92,-167C1178.92,-167 1148.92,-167 1148.92,-167 1142.92,-167 1136.92,-161 1136.92,-155 1136.92,-155 1136.92,-143 1136.92,-143 1136.92,-137 1142.92,-131 1148.92,-131 1148.92,-131 1178.92,-131 1178.92,-131 1184.92,-131 1190.92,-137 1190.92,-143 1190.92,-143 1190.92,-155 1190.92,-155 1190.92,-161 1184.92,-167 1178.92,-167"/>
<text text-anchor="middle" x="1163.92" y="-145.3" font-family="Times,serif" font-size="14.00">BUF</text>
</g>
<!-- n5&#45;&gt;x4 -->
<g id="edge37" class="edge"><title>n5:e&#45;&gt;x4:w:w</title>
<path fill="none" stroke="#a6761d" stroke-width="3" d="M843.209,-149C969.872,-149 1004.04,-149 1125.83,-149"/>
<polygon fill="#a6761d" stroke="#a6761d" stroke-width="3" points="1125.92,-152.5 1135.92,-149 1125.92,-145.5 1125.92,-152.5"/>
</g>
<!-- n6 -->
<g id="node6" class="node"><title>n6</title>
<polygon fill="none" stroke="black" points="1566.22,-389 1493.5,-371 1566.22,-353 1638.95,-371 1566.22,-389"/>
<text text-anchor="middle" x="1566.22" y="-367.3" font-family="Times,serif" font-size="14.00">cpu_in_full</text>
</g>
<!-- n7 -->
<g id="node7" class="node"><title>n7</title>
<polygon fill="none" stroke="black" points="766.209,-113 698.174,-95 766.209,-77 834.244,-95 766.209,-113"/>
<text text-anchor="middle" x="766.209" y="-91.3" font-family="Times,serif" font-size="14.00">cpu_in_wr</text>
</g>
<!-- n7&#45;&gt;c34 -->
<g id="edge40" class="edge"><title>n7:e&#45;&gt;c34:p7:w</title>
<path fill="none" stroke="#a6761d" d="M835.209,-95C927.281,-95 794.75,-289.838 869.275,-305.059"/>
<polygon fill="#a6761d" stroke="#a6761d" points="869.138,-308.562 879.418,-306 869.784,-301.591 869.138,-308.562"/>
</g>
<!-- x5 -->
<g id="node39" class="node"><title>x5</title>
<path fill="none" stroke="black" d="M1178.92,-113C1178.92,-113 1148.92,-113 1148.92,-113 1142.92,-113 1136.92,-107 1136.92,-101 1136.92,-101 1136.92,-89 1136.92,-89 1136.92,-83 1142.92,-77 1148.92,-77 1148.92,-77 1178.92,-77 1178.92,-77 1184.92,-77 1190.92,-83 1190.92,-89 1190.92,-89 1190.92,-101 1190.92,-101 1190.92,-107 1184.92,-113 1178.92,-113"/>
<text text-anchor="middle" x="1163.92" y="-91.3" font-family="Times,serif" font-size="14.00">BUF</text>
</g>
<!-- n7&#45;&gt;x5 -->
<g id="edge41" class="edge"><title>n7:e&#45;&gt;x5:w:w</title>
<path fill="none" stroke="#a6761d" d="M835.209,-95C965.334,-95 1000.44,-95 1125.55,-95"/>
<polygon fill="#a6761d" stroke="#a6761d" points="1125.92,-98.5001 1135.92,-95 1125.92,-91.5001 1125.92,-98.5001"/>
</g>
<!-- n8 -->
<g id="node8" class="node"><title>n8</title>
<polygon fill="none" stroke="black" points="1566.22,-335 1484.61,-317 1566.22,-299 1647.83,-317 1566.22,-335"/>
<text text-anchor="middle" x="1566.22" y="-313.3" font-family="Times,serif" font-size="14.00">cpu_out_data</text>
</g>
<!-- n8&#45;&gt;c49 -->
<g id="edge43" class="edge"><title>n8:e&#45;&gt;c49:p45:w</title>
<path fill="none" stroke="#e6ab02" stroke-width="3" d="M1648.03,-317C1679.26,-317 1655.83,-372.334 1674.25,-385.303"/>
<polygon fill="#e6ab02" stroke="#e6ab02" stroke-width="3" points="1673.46,-388.714 1684.03,-388 1675.32,-381.966 1673.46,-388.714"/>
</g>
<!-- x7 -->
<g id="node41" class="node"><title>x7</title>
<path fill="none" stroke="black" d="M1979.53,-259C1979.53,-259 1949.53,-259 1949.53,-259 1943.53,-259 1937.53,-253 1937.53,-247 1937.53,-247 1937.53,-235 1937.53,-235 1937.53,-229 1943.53,-223 1949.53,-223 1949.53,-223 1979.53,-223 1979.53,-223 1985.53,-223 1991.53,-229 1991.53,-235 1991.53,-235 1991.53,-247 1991.53,-247 1991.53,-253 1985.53,-259 1979.53,-259"/>
<text text-anchor="middle" x="1964.53" y="-237.3" font-family="Times,serif" font-size="14.00">BUF</text>
</g>
<!-- n8&#45;&gt;x7 -->
<g id="edge44" class="edge"><title>n8:e&#45;&gt;x7:w:w</title>
<path fill="none" stroke="#e6ab02" stroke-width="3" d="M1648.03,-317C1777.13,-317 1802.63,-244.955 1926.26,-241.156"/>
<polygon fill="#e6ab02" stroke="#e6ab02" stroke-width="3" points="1926.58,-244.651 1936.53,-241 1926.48,-237.652 1926.58,-244.651"/>
</g>
<!-- n9 -->
<g id="node9" class="node"><title>n9</title>
<polygon fill="none" stroke="black" points="1964.53,-166 1871.86,-148 1964.53,-130 2057.2,-148 1964.53,-166"/>
<text text-anchor="middle" x="1964.53" y="-144.3" font-family="Times,serif" font-size="14.00">cpu_out_empty</text>
</g>
<!-- c29 -->
<g id="node27" class="node"><title>c29</title>
<polygon fill="none" stroke="black" points="2301.63,-128 2301.63,-166 2394.63,-166 2394.63,-128 2301.63,-128"/>
<text text-anchor="middle" x="2314.63" y="-143.3" font-family="Times,serif" font-size="14.00">A</text>
<polyline fill="none" stroke="black" points="2327.63,-128 2327.63,-166 "/>
<text text-anchor="middle" x="2348.13" y="-150.8" font-family="Times,serif" font-size="14.00">$1</text>
<text text-anchor="middle" x="2348.13" y="-135.8" font-family="Times,serif" font-size="14.00">$not</text>
<polyline fill="none" stroke="black" points="2368.63,-128 2368.63,-166 "/>
<text text-anchor="middle" x="2381.63" y="-143.3" font-family="Times,serif" font-size="14.00">Y</text>
</g>
<!-- n9&#45;&gt;c29 -->
<g id="edge46" class="edge"><title>n9:e&#45;&gt;c29:p27:w</title>
<path fill="none" stroke="#1b9e77" d="M2058.53,-148C2162.45,-148 2190.94,-147.063 2289.99,-147.003"/>
<polygon fill="#1b9e77" stroke="#1b9e77" points="2290.13,-150.503 2300.13,-147 2290.13,-143.503 2290.13,-150.503"/>
</g>
<!-- n10 -->
<g id="node10" class="node"><title>n10</title>
<polygon fill="none" stroke="black" points="3233.1,-305 3161.21,-287 3233.1,-269 3304.99,-287 3233.1,-305"/>
<text text-anchor="middle" x="3233.1" y="-283.3" font-family="Times,serif" font-size="14.00">cpu_out_rd</text>
</g>
<!-- n10&#45;&gt;c34 -->
<g id="edge4" class="edge"><title>n10:e&#45;&gt;c34:p10:w</title>
<path fill="none" stroke="#1b9e77" d="M3306.1,-287C3314.11,-287 3310.92,-299.494 3305.1,-305 3258.7,-348.888 3225.25,-306.476 3161.4,-305 2988.31,-300.999 2945.39,-287 2772.24,-287 2347.13,-287 2347.13,-287 2347.13,-287 2052.3,-287 1977.99,-290.568 1684.03,-268 1594.88,-261.156 1569.99,-268.919 1484.42,-243 1467.3,-237.814 1465.83,-229.11 1448.42,-225 1417.63,-217.731 901.608,-202.95 878.918,-225 870.984,-232.711 865.961,-247.148 869.311,-254.85"/>
<polygon fill="#1b9e77" stroke="#1b9e77" points="867.54,-257.869 877.918,-260 871.134,-251.862 867.54,-257.869"/>
</g>
<!-- n10&#45;&gt;c49 -->
<g id="edge5" class="edge"><title>n10:e&#45;&gt;c49:p46:w</title>
<path fill="none" stroke="#1b9e77" d="M3306.1,-287C3314.11,-287 3310.81,-299.386 3305.1,-305 3136.02,-471.064 3009.24,-325 2772.24,-325 2547.66,-325 2547.66,-325 2547.66,-325 2451.59,-325 1753.16,-286.817 1683.53,-353 1682.92,-353.576 1682.35,-354.265 1681.84,-355.018"/>
<polygon fill="#1b9e77" stroke="#1b9e77" points="1678.35,-355.266 1682.53,-365 1685.33,-354.782 1678.35,-355.266"/>
</g>
<!-- x8 -->
<g id="node42" class="node"><title>x8</title>
<path fill="none" stroke="black" d="M3382.79,-332C3382.79,-332 3352.79,-332 3352.79,-332 3346.79,-332 3340.79,-326 3340.79,-320 3340.79,-320 3340.79,-308 3340.79,-308 3340.79,-302 3346.79,-296 3352.79,-296 3352.79,-296 3382.79,-296 3382.79,-296 3388.79,-296 3394.79,-302 3394.79,-308 3394.79,-308 3394.79,-320 3394.79,-320 3394.79,-326 3388.79,-332 3382.79,-332"/>
<text text-anchor="middle" x="3367.79" y="-310.3" font-family="Times,serif" font-size="14.00">BUF</text>
</g>
<!-- n10&#45;&gt;x8 -->
<g id="edge6" class="edge"><title>n10:e&#45;&gt;x8:w:w</title>
<path fill="none" stroke="#1b9e77" d="M3304.79,-287C3320.73,-287 3321.43,-304.145 3331.17,-311.111"/>
<polygon fill="#1b9e77" stroke="#1b9e77" points="3330.21,-314.475 3340.79,-314 3332.22,-307.771 3330.21,-314.475"/>
</g>
<!-- x9 -->
<g id="node43" class="node"><title>x9</title>
<path fill="none" stroke="black" d="M3382.79,-278C3382.79,-278 3352.79,-278 3352.79,-278 3346.79,-278 3340.79,-272 3340.79,-266 3340.79,-266 3340.79,-254 3340.79,-254 3340.79,-248 3346.79,-242 3352.79,-242 3352.79,-242 3382.79,-242 3382.79,-242 3388.79,-242 3394.79,-248 3394.79,-254 3394.79,-254 3394.79,-266 3394.79,-266 3394.79,-272 3388.79,-278 3382.79,-278"/>
<text text-anchor="middle" x="3367.79" y="-256.3" font-family="Times,serif" font-size="14.00">BUF</text>
</g>
<!-- n10&#45;&gt;x9 -->
<g id="edge7" class="edge"><title>n10:e&#45;&gt;x9:w:w</title>
<path fill="none" stroke="#1b9e77" d="M3304.79,-287C3320.73,-287 3321.43,-269.855 3331.17,-262.889"/>
<polygon fill="#1b9e77" stroke="#1b9e77" points="3332.22,-266.229 3340.79,-260 3330.21,-259.525 3332.22,-266.229"/>
</g>
<!-- n11 -->
<g id="node11" class="node"><title>n11</title>
<polygon fill="none" stroke="black" points="3735.87,-471.544 3735.87,-486.456 3720.06,-497 3697.69,-497 3681.87,-486.456 3681.87,-471.544 3697.69,-461 3720.06,-461 3735.87,-471.544"/>
<text text-anchor="middle" x="3708.87" y="-475.3" font-family="Times,serif" font-size="14.00">leds</text>
</g>
<!-- n12 -->
<g id="node12" class="node"><title>n12</title>
<polygon fill="none" stroke="black" points="766.209,-59 688.79,-41 766.209,-23 843.628,-41 766.209,-59"/>
<text text-anchor="middle" x="766.209" y="-37.3" font-family="Times,serif" font-size="14.00">rx_i_uart_rx</text>
</g>
<!-- n13 -->
<g id="node13" class="node"><title>n13</title>
<polygon fill="none" stroke="black" points="1566.22,-167 1501.2,-149 1566.22,-131 1631.24,-149 1566.22,-167"/>
<text text-anchor="middle" x="1566.22" y="-145.3" font-family="Times,serif" font-size="14.00">rx_o_data</text>
</g>
<!-- n14 -->
<g id="node14" class="node"><title>n14</title>
<polygon fill="none" stroke="black" points="1566.22,-113 1509.25,-95 1566.22,-77 1623.2,-95 1566.22,-113"/>
<text text-anchor="middle" x="1566.22" y="-91.3" font-family="Times,serif" font-size="14.00">rx_o_wr</text>
</g>
<!-- n15 -->
<g id="node15" class="node"><title>n15</title>
<polygon fill="none" stroke="black" points="54,-511.544 54,-526.456 38.1838,-537 15.8162,-537 3.55271e-15,-526.456 0,-511.544 15.8162,-501 38.1838,-501 54,-511.544"/>
<text text-anchor="middle" x="27" y="-515.3" font-family="Times,serif" font-size="14.00">sw1</text>
</g>
<!-- n15&#45;&gt;c39 -->
<g id="edge11" class="edge"><title>n15:e&#45;&gt;c39:p35:w</title>
<path fill="none" stroke="#e7298a" d="M54,-519C152.084,-519 179.12,-519 272.347,-519"/>
<polygon fill="#e7298a" stroke="#e7298a" points="272.5,-522.5 282.5,-519 272.5,-515.5 272.5,-522.5"/>
</g>
<!-- n16 -->
<g id="node16" class="node"><title>n16</title>
<polygon fill="none" stroke="black" points="1566.22,-589 1518.63,-571 1566.22,-553 1613.82,-571 1566.22,-589"/>
<text text-anchor="middle" x="1566.22" y="-567.3" font-family="Times,serif" font-size="14.00">sw1_d</text>
</g>
<!-- n17 -->
<g id="node17" class="node"><title>n17</title>
<polygon fill="none" stroke="black" points="766.209,-535 720.293,-517 766.209,-499 812.125,-517 766.209,-535"/>
<text text-anchor="middle" x="766.209" y="-513.3" font-family="Times,serif" font-size="14.00">sw1_s</text>
</g>
<!-- n18 -->
<g id="node18" class="node"><title>n18</title>
<polygon fill="none" stroke="black" points="766.209,-481 718.616,-463 766.209,-445 813.802,-463 766.209,-481"/>
<text text-anchor="middle" x="766.209" y="-459.3" font-family="Times,serif" font-size="14.00">sw1_u</text>
</g>
<!-- n19 -->
<g id="node19" class="node"><title>n19</title>
<polygon fill="none" stroke="black" points="54,-565.544 54,-580.456 38.1838,-591 15.8162,-591 3.55271e-15,-580.456 0,-565.544 15.8162,-555 38.1838,-555 54,-565.544"/>
<text text-anchor="middle" x="27" y="-569.3" font-family="Times,serif" font-size="14.00">sw2</text>
</g>
<!-- n20 -->
<g id="node20" class="node"><title>n20</title>
<polygon fill="none" stroke="black" points="2348.13,-259 2286.46,-241 2348.13,-223 2409.79,-241 2348.13,-259"/>
<text text-anchor="middle" x="2348.13" y="-237.3" font-family="Times,serif" font-size="14.00">tx_i_data</text>
</g>
<!-- n21 -->
<g id="node21" class="node"><title>n21</title>
<polygon fill="none" stroke="black" points="3538.33,-332 3483.87,-314 3538.33,-296 3592.79,-314 3538.33,-332"/>
<text text-anchor="middle" x="3538.33" y="-310.3" font-family="Times,serif" font-size="14.00">tx_i_wr</text>
</g>
<!-- n22 -->
<g id="node22" class="node"><title>n22</title>
<polygon fill="none" stroke="black" points="2348.13,-440 2280.93,-422 2348.13,-404 2415.32,-422 2348.13,-440"/>
<text text-anchor="middle" x="2348.13" y="-418.3" font-family="Times,serif" font-size="14.00">tx_o_busy</text>
</g>
<!-- c30 -->
<g id="node28" class="node"><title>c30</title>
<polygon fill="none" stroke="black" points="2502.16,-408 2502.16,-446 2595.16,-446 2595.16,-408 2502.16,-408"/>
<text text-anchor="middle" x="2515.16" y="-423.3" font-family="Times,serif" font-size="14.00">A</text>
<polyline fill="none" stroke="black" points="2528.16,-408 2528.16,-446 "/>
<text text-anchor="middle" x="2548.66" y="-430.8" font-family="Times,serif" font-size="14.00">$2</text>
<text text-anchor="middle" x="2548.66" y="-415.8" font-family="Times,serif" font-size="14.00">$not</text>
<polyline fill="none" stroke="black" points="2569.16,-408 2569.16,-446 "/>
<text text-anchor="middle" x="2582.16" y="-423.3" font-family="Times,serif" font-size="14.00">Y</text>
</g>
<!-- n22&#45;&gt;c30 -->
<g id="edge19" class="edge"><title>n22:e&#45;&gt;c30:p27:w</title>
<path fill="none" stroke="#d95f02" d="M2415.23,-422C2449.55,-422 2460.52,-426.071 2490.28,-426.866"/>
<polygon fill="#d95f02" stroke="#d95f02" points="2490.61,-430.371 2500.66,-427 2490.7,-423.371 2490.61,-430.371"/>
</g>
<!-- n23 -->
<g id="node23" class="node"><title>n23</title>
<polygon fill="none" stroke="black" points="2548.66,-389 2469.56,-371 2548.66,-353 2627.75,-371 2548.66,-389"/>
<text text-anchor="middle" x="2548.66" y="-367.3" font-family="Times,serif" font-size="14.00">tx_o_uart_tx</text>
</g>
<!-- x2 -->
<g id="node36" class="node"><title>x2</title>
<path fill="none" stroke="black" d="M2786.24,-443C2786.24,-443 2756.24,-443 2756.24,-443 2750.24,-443 2744.24,-437 2744.24,-431 2744.24,-431 2744.24,-419 2744.24,-419 2744.24,-413 2750.24,-407 2756.24,-407 2756.24,-407 2786.24,-407 2786.24,-407 2792.24,-407 2798.24,-413 2798.24,-419 2798.24,-419 2798.24,-431 2798.24,-431 2798.24,-437 2792.24,-443 2786.24,-443"/>
<text text-anchor="middle" x="2771.24" y="-421.3" font-family="Times,serif" font-size="14.00">BUF</text>
</g>
<!-- n23&#45;&gt;x2 -->
<g id="edge21" class="edge"><title>n23:e&#45;&gt;x2:w:w</title>
<path fill="none" stroke="#d95f02" d="M2628.66,-371C2655.26,-371 2658.03,-386.623 2682.09,-398 2705.59,-409.117 2712.04,-421.451 2733.19,-424.361"/>
<polygon fill="#d95f02" stroke="#d95f02" points="2733.04,-427.859 2743.24,-425 2733.49,-420.873 2733.04,-427.859"/>
</g>
<!-- n24 -->
<g id="node24" class="node"><title>n24</title>
<polygon fill="none" stroke="black" points="2771.24,-389 2681.93,-371 2771.24,-353 2860.56,-371 2771.24,-389"/>
<text text-anchor="middle" x="2771.24" y="-367.3" font-family="Times,serif" font-size="14.00">txctl_i_busy_n</text>
</g>
<!-- n24&#45;&gt;c53 -->
<g id="edge23" class="edge"><title>n24:e&#45;&gt;c53:p50:w</title>
<path fill="none" stroke="#d95f02" d="M2860.4,-371C2934.28,-371 2829.92,-216.292 2886.39,-201.183"/>
<polygon fill="#d95f02" stroke="#d95f02" points="2886.88,-204.649 2896.4,-200 2886.06,-197.698 2886.88,-204.649"/>
</g>
<!-- n25 -->
<g id="node25" class="node"><title>n25</title>
<polygon fill="none" stroke="black" points="2548.66,-166 2451.29,-148 2548.66,-130 2646.02,-148 2548.66,-166"/>
<text text-anchor="middle" x="2548.66" y="-144.3" font-family="Times,serif" font-size="14.00">txctl_i_empty_n</text>
</g>
<!-- n25&#45;&gt;c53 -->
<g id="edge25" class="edge"><title>n25:e&#45;&gt;c53:p51:w</title>
<path fill="none" stroke="#1b9e77" d="M2646.09,-148C2754.58,-148 2782.68,-175.216 2886.15,-176.917"/>
<polygon fill="#1b9e77" stroke="#1b9e77" points="2886.38,-180.419 2896.4,-177 2886.43,-173.419 2886.38,-180.419"/>
</g>
<!-- n26 -->
<g id="node26" class="node"><title>n26</title>
<polygon fill="none" stroke="black" points="3538.33,-278 3430.75,-260 3538.33,-242 3645.92,-260 3538.33,-278"/>
<text text-anchor="middle" x="3538.33" y="-256.3" font-family="Times,serif" font-size="14.00">txctl_o_pop_value</text>
</g>
<!-- c29&#45;&gt;n25 -->
<g id="edge24" class="edge"><title>c29:p28:e&#45;&gt;n25:w</title>
<path fill="none" stroke="#1b9e77" d="M2396.13,-147C2416.79,-147 2424.37,-147.712 2440.95,-147.934"/>
<polygon fill="#1b9e77" stroke="#1b9e77" points="2441.2,-151.436 2451.23,-148 2441.25,-144.436 2441.2,-151.436"/>
</g>
<!-- c30&#45;&gt;n24 -->
<g id="edge22" class="edge"><title>c30:p28:e&#45;&gt;n24:w</title>
<path fill="none" stroke="#d95f02" d="M2596.66,-427C2622.13,-427 2624.88,-412.108 2646.09,-398 2659.36,-389.172 2661.64,-377.268 2672.14,-372.797"/>
<polygon fill="#d95f02" stroke="#d95f02" points="2672.87,-376.222 2682.09,-371 2671.62,-369.333 2672.87,-376.222"/>
</g>
<!-- v0 -->
<g id="node29" class="node"><title>v0</title>
<ellipse fill="none" stroke="black" cx="766.209" cy="-333" rx="27" ry="18"/>
<text text-anchor="middle" x="766.209" y="-329.3" font-family="Times,serif" font-size="14.00">1&#39;0</text>
</g>
<!-- v0&#45;&gt;c34 -->
<g id="edge47" class="edge"><title>v0:e&#45;&gt;c34:p31:w</title>
<path fill="none" stroke="#66a61e" d="M794.209,-333C829.372,-333 838.917,-348.604 869.277,-351.53"/>
<polygon fill="#66a61e" stroke="#66a61e" points="869.267,-355.034 879.418,-352 869.591,-348.041 869.267,-355.034"/>
</g>
<!-- v1 -->
<g id="node30" class="node"><title>v1</title>
<ellipse fill="none" stroke="black" cx="766.209" cy="-279" rx="27" ry="18"/>
<text text-anchor="middle" x="766.209" y="-275.3" font-family="Times,serif" font-size="14.00">1&#39;0</text>
</g>
<!-- v1&#45;&gt;c34 -->
<g id="edge48" class="edge"><title>v1:e&#45;&gt;c34:p32:w</title>
<path fill="none" stroke="#a6761d" d="M794.209,-279C828.419,-279 839.401,-282.257 869.074,-282.893"/>
<polygon fill="#a6761d" stroke="#a6761d" points="869.383,-286.396 879.418,-283 869.455,-279.397 869.383,-286.396"/>
</g>
<!-- c34&#45;&gt;n6 -->
<g id="edge38" class="edge"><title>c34:p6:e&#45;&gt;n6:w</title>
<path fill="none" stroke="#7570b3" d="M1448.42,-360C1464.57,-360 1470.09,-367.123 1482.1,-369.905"/>
<polygon fill="#7570b3" stroke="#7570b3" points="1481.91,-373.405 1492.22,-371 1482.66,-366.445 1481.91,-373.405"/>
</g>
<!-- c34&#45;&gt;n8 -->
<g id="edge42" class="edge"><title>c34:p8:e&#45;&gt;n8:w</title>
<path fill="none" stroke="#e6ab02" stroke-width="3" d="M1448.42,-307C1461,-307 1465.65,-312.743 1474.39,-315.524"/>
<polygon fill="#e6ab02" stroke="#e6ab02" stroke-width="3" points="1474.02,-319.007 1484.42,-317 1475.03,-312.081 1474.02,-319.007"/>
</g>
<!-- c34&#45;&gt;n9 -->
<g id="edge45" class="edge"><title>c34:p9:e&#45;&gt;n9:w</title>
<path fill="none" stroke="#1b9e77" d="M1448.42,-252C1638.24,-252 1676.01,-151.624 1860.48,-148.095"/>
<polygon fill="#1b9e77" stroke="#1b9e77" points="1860.56,-151.595 1870.53,-148 1860.5,-144.595 1860.56,-151.595"/>
</g>
<!-- c39&#45;&gt;n4 -->
<g id="edge32" class="edge"><title>c39:p36:e&#45;&gt;n4:w</title>
<path fill="none" stroke="#666666" d="M460.5,-524C566.941,-524 591.815,-568.108 693.158,-570.865"/>
<polygon fill="#666666" stroke="#666666" points="693.163,-574.365 703.209,-571 693.257,-567.366 693.163,-574.365"/>
</g>
<!-- c39&#45;&gt;n17 -->
<g id="edge13" class="edge"><title>c39:p37:e&#45;&gt;n17:w</title>
<path fill="none" stroke="#d95f02" d="M460.5,-501C572.214,-501 602.214,-516.046 708.981,-516.957"/>
<polygon fill="#d95f02" stroke="#d95f02" points="709.195,-520.458 719.209,-517 709.224,-513.458 709.195,-520.458"/>
</g>
<!-- c39&#45;&gt;n18 -->
<g id="edge14" class="edge"><title>c39:p38:e&#45;&gt;n18:w</title>
<path fill="none" stroke="#1b9e77" d="M460.5,-478C571.328,-478 601.139,-463.894 707.062,-463.04"/>
<polygon fill="#1b9e77" stroke="#1b9e77" points="707.223,-466.54 717.209,-463 707.195,-459.54 707.223,-466.54"/>
</g>
<!-- c44&#45;&gt;n5 -->
<g id="edge35" class="edge"><title>c44:p42:e&#45;&gt;n5:w</title>
<path fill="none" stroke="#a6761d" stroke-width="3" d="M653,-140C665.567,-140 670.358,-145.169 679.159,-147.672"/>
<polygon fill="#a6761d" stroke="#a6761d" stroke-width="3" points="678.837,-151.16 689.209,-149 679.754,-144.22 678.837,-151.16"/>
</g>
<!-- c44&#45;&gt;n7 -->
<g id="edge39" class="edge"><title>c44:p43:e&#45;&gt;n7:w</title>
<path fill="none" stroke="#a6761d" d="M653,-116C670.844,-116 674.524,-101.869 687.278,-96.7904"/>
<polygon fill="#a6761d" stroke="#a6761d" points="687.989,-100.219 697.209,-95 686.747,-93.3298 687.989,-100.219"/>
</g>
<!-- c49&#45;&gt;n22 -->
<g id="edge18" class="edge"><title>c49:p47:e&#45;&gt;n22:w</title>
<path fill="none" stroke="#d95f02" d="M2245.03,-406C2258.43,-406 2262.15,-415.379 2271.02,-419.775"/>
<polygon fill="#d95f02" stroke="#d95f02" points="2270.51,-423.248 2281.03,-422 2272.03,-416.414 2270.51,-423.248"/>
</g>
<!-- c49&#45;&gt;n23 -->
<g id="edge20" class="edge"><title>c49:p48:e&#45;&gt;n23:w</title>
<path fill="none" stroke="#d95f02" d="M2245.03,-371C2340.92,-371 2367.43,-371 2458.44,-371"/>
<polygon fill="#d95f02" stroke="#d95f02" points="2458.66,-374.5 2468.66,-371 2458.66,-367.5 2458.66,-374.5"/>
</g>
<!-- c53&#45;&gt;n10 -->
<g id="edge3" class="edge"><title>c53:p52:e&#45;&gt;n10:w</title>
<path fill="none" stroke="#1b9e77" d="M3125.4,-200C3163.16,-200 3128.02,-270.838 3151.54,-284.673"/>
<polygon fill="#1b9e77" stroke="#1b9e77" points="3150.87,-288.11 3161.4,-287 3152.47,-281.297 3150.87,-288.11"/>
</g>
<!-- x2&#45;&gt;n2 -->
<g id="edge15" class="edge"><title>x2:e:e&#45;&gt;n2:w</title>
<path fill="none" stroke="#1b9e77" d="M2799.24,-425C2991.62,-425 3039.72,-425 3232.1,-425 3232.1,-425 3232.1,-425 3368.79,-425 3504.54,-425 3540.97,-425 3671.87,-425"/>
<polygon fill="#1b9e77" stroke="#1b9e77" points="3671.87,-428.5 3681.87,-425 3671.87,-421.5 3671.87,-428.5"/>
</g>
<!-- x3&#45;&gt;n12 -->
<g id="edge8" class="edge"><title>x3:e:e&#45;&gt;n12:w</title>
<path fill="none" stroke="#1b9e77" d="M399.5,-50C524.709,-50 558.447,-41.4855 678.653,-41.0198"/>
<polygon fill="#1b9e77" stroke="#1b9e77" points="679.007,-44.5192 689,-41 678.993,-37.5193 679.007,-44.5192"/>
</g>
<!-- x4&#45;&gt;n13 -->
<g id="edge9" class="edge"><title>x4:e:e&#45;&gt;n13:w</title>
<path fill="none" stroke="#7570b3" stroke-width="3" d="M1191.92,-149C1325.46,-149 1361.39,-149 1489.98,-149"/>
<polygon fill="#7570b3" stroke="#7570b3" stroke-width="3" points="1490.22,-152.5 1500.22,-149 1490.22,-145.5 1490.22,-152.5"/>
</g>
<!-- x5&#45;&gt;n14 -->
<g id="edge10" class="edge"><title>x5:e:e&#45;&gt;n14:w</title>
<path fill="none" stroke="#e7298a" d="M1191.92,-95C1329.07,-95 1365.86,-95 1498.11,-95"/>
<polygon fill="#e7298a" stroke="#e7298a" points="1498.22,-98.5001 1508.22,-95 1498.22,-91.5001 1498.22,-98.5001"/>
</g>
<!-- x6&#45;&gt;n16 -->
<g id="edge12" class="edge"><title>x6:e:e&#45;&gt;n16:w</title>
<path fill="none" stroke="#7570b3" d="M1191.92,-571C1332.97,-571 1370.81,-571 1506.82,-571"/>
<polygon fill="#7570b3" stroke="#7570b3" points="1507.22,-574.5 1517.22,-571 1507.22,-567.5 1507.22,-574.5"/>
</g>
<!-- x7&#45;&gt;n20 -->
<g id="edge16" class="edge"><title>x7:e:e&#45;&gt;n20:w</title>
<path fill="none" stroke="#e6ab02" stroke-width="3" d="M1992.53,-241C2119.14,-241 2153.3,-241 2275.04,-241"/>
<polygon fill="#e6ab02" stroke="#e6ab02" stroke-width="3" points="2275.13,-244.5 2285.13,-241 2275.13,-237.5 2275.13,-244.5"/>
</g>
<!-- x8&#45;&gt;n21 -->
<g id="edge17" class="edge"><title>x8:e:e&#45;&gt;n21:w</title>
<path fill="none" stroke="#e6ab02" d="M3394.79,-314C3430.45,-314 3441.88,-314 3473,-314"/>
<polygon fill="#e6ab02" stroke="#e6ab02" points="3473.33,-317.5 3483.33,-314 3473.33,-310.5 3473.33,-317.5"/>
</g>
<!-- x9&#45;&gt;n26 -->
<g id="edge26" class="edge"><title>x9:e:e&#45;&gt;n26:w</title>
<path fill="none" stroke="#1b9e77" d="M3394.79,-260C3406.79,-260 3412.04,-260 3420.67,-260"/>
<polygon fill="#1b9e77" stroke="#1b9e77" points="3420.79,-263.5 3430.79,-260 3420.79,-256.5 3420.79,-263.5"/>
</g>
</g>
</svg>
