<?xml version="1.0" encoding="UTF-8" standalone="no"?>
<!DOCTYPE svg PUBLIC "-//W3C//DTD SVG 1.1//EN"
 "http://www.w3.org/Graphics/SVG/1.1/DTD/svg11.dtd">
<!-- Generated by graphviz version 2.38.0 (20140413.2041)
 -->
<!-- Title: top Pages: 1 -->
<svg width="3903pt" height="628pt"
 viewBox="0.00 0.00 3903.03 628.36" xmlns="http://www.w3.org/2000/svg" xmlns:xlink="http://www.w3.org/1999/xlink">
<g id="graph0" class="graph" transform="scale(1 1) rotate(0) translate(4 624.359)">
<title>top</title>
<polygon fill="white" stroke="none" points="-4,4 -4,-624.359 3899.03,-624.359 3899.03,4 -4,4"/>
<text text-anchor="middle" x="1947.52" y="-7.8" font-family="Times,serif" font-size="14.00">top</text>
<!-- n2 -->
<g id="node1" class="node"><title>n2</title>
<polygon fill="none" stroke="black" points="54,-87.5442 54,-102.456 38.1838,-113 15.8162,-113 3.55271e-15,-102.456 0,-87.5442 15.8162,-77 38.1838,-77 54,-87.5442"/>
<text text-anchor="middle" x="27" y="-91.3" font-family="Times,serif" font-size="14.00">RX</text>
</g>
<!-- c46 -->
<g id="node33" class="node"><title>c46</title>
<polygon fill="none" stroke="black" points="90,-137 90,-183 653,-183 653,-137 90,-137"/>
<text text-anchor="middle" x="123" y="-167.8" font-family="Times,serif" font-size="14.00">i_clk</text>
<polyline fill="none" stroke="black" points="90,-160 156,-160 "/>
<text text-anchor="middle" x="123" y="-144.8" font-family="Times,serif" font-size="14.00">i_uart_rx</text>
<polyline fill="none" stroke="black" points="156,-137 156,-183 "/>
<text text-anchor="middle" x="378" y="-163.8" font-family="Times,serif" font-size="14.00">rx</text>
<text text-anchor="middle" x="378" y="-148.8" font-family="Times,serif" font-size="14.00">$paramod\rxuartlite\CLOCKS_PER_BAUD=24&#39;000000000000000001101000</text>
<polyline fill="none" stroke="black" points="600,-137 600,-183 "/>
<text text-anchor="middle" x="626.5" y="-167.8" font-family="Times,serif" font-size="14.00">o_data</text>
<polyline fill="none" stroke="black" points="600,-160 653,-160 "/>
<text text-anchor="middle" x="626.5" y="-144.8" font-family="Times,serif" font-size="14.00">o_wr</text>
</g>
<!-- n2&#45;&gt;c46 -->
<g id="edge26" class="edge"><title>n2:e&#45;&gt;c46:p43:w</title>
<path fill="none" stroke="#e6ab02" d="M54,-95C78.2488,-95 66.6552,-133.433 80.2633,-144.843"/>
<polygon fill="#e6ab02" stroke="#e6ab02" points="79.408,-148.245 90,-148 81.5669,-141.587 79.408,-148.245"/>
</g>
<!-- x3 -->
<g id="node37" class="node"><title>x3</title>
<path fill="none" stroke="black" d="M386.5,-59C386.5,-59 356.5,-59 356.5,-59 350.5,-59 344.5,-53 344.5,-47 344.5,-47 344.5,-35 344.5,-35 344.5,-29 350.5,-23 356.5,-23 356.5,-23 386.5,-23 386.5,-23 392.5,-23 398.5,-29 398.5,-35 398.5,-35 398.5,-47 398.5,-47 398.5,-53 392.5,-59 386.5,-59"/>
<text text-anchor="middle" x="371.5" y="-37.3" font-family="Times,serif" font-size="14.00">BUF</text>
</g>
<!-- n2&#45;&gt;x3 -->
<g id="edge27" class="edge"><title>n2:e&#45;&gt;x3:w:w</title>
<path fill="none" stroke="#e6ab02" d="M54,-95C72.7511,-95 72.304,-79.2012 90,-73 193.926,-36.5809 227.887,-40.7031 333.404,-40.9861"/>
<polygon fill="#e6ab02" stroke="#e6ab02" points="333.495,-44.4861 343.5,-41 333.505,-37.4861 333.495,-44.4861"/>
</g>
<!-- n3 -->
<g id="node2" class="node"><title>n3</title>
<polygon fill="none" stroke="black" points="3889.27,-501.544 3889.27,-516.456 3873.45,-527 3851.09,-527 3835.27,-516.456 3835.27,-501.544 3851.09,-491 3873.45,-491 3889.27,-501.544"/>
<text text-anchor="middle" x="3862.27" y="-505.3" font-family="Times,serif" font-size="14.00">TX</text>
</g>
<!-- n4 -->
<g id="node3" class="node"><title>n4</title>
<polygon fill="none" stroke="black" points="54,-225.544 54,-240.456 38.1838,-251 15.8162,-251 3.55271e-15,-240.456 0,-225.544 15.8162,-215 38.1838,-215 54,-225.544"/>
<text text-anchor="middle" x="27" y="-229.3" font-family="Times,serif" font-size="14.00">clk</text>
</g>
<!-- c34 -->
<g id="node28" class="node"><title>c34</title>
<polygon fill="none" stroke="black" points="3631.73,-163 3631.73,-209 3751.73,-209 3751.73,-163 3631.73,-163"/>
<text text-anchor="middle" x="3653.73" y="-193.8" font-family="Times,serif" font-size="14.00">CLK</text>
<polyline fill="none" stroke="black" points="3631.73,-186 3675.73,-186 "/>
<text text-anchor="middle" x="3653.73" y="-170.8" font-family="Times,serif" font-size="14.00">D</text>
<polyline fill="none" stroke="black" points="3675.73,-163 3675.73,-209 "/>
<text text-anchor="middle" x="3700.73" y="-189.8" font-family="Times,serif" font-size="14.00">$1192</text>
<text text-anchor="middle" x="3700.73" y="-174.8" font-family="Times,serif" font-size="14.00">$dff</text>
<polyline fill="none" stroke="black" points="3725.73,-163 3725.73,-209 "/>
<text text-anchor="middle" x="3738.73" y="-182.3" font-family="Times,serif" font-size="14.00">Q</text>
</g>
<!-- n4&#45;&gt;c34 -->
<g id="edge40" class="edge"><title>n4:e&#45;&gt;c34:p31:w</title>
<path fill="none" stroke="#7570b3" d="M54,-233C103.754,-233 50.3726,-157.085 90,-127 218,-29.8217 651.377,-87 812.086,-87 812.086,-87 812.086,-87 3339.49,-87 3474.5,-87 3491.41,-192.435 3620.41,-197.789"/>
<polygon fill="#7570b3" stroke="#7570b3" points="3620.66,-201.295 3630.73,-198 3620.8,-194.296 3620.66,-201.295"/>
</g>
<!-- c41 -->
<g id="node32" class="node"><title>c41</title>
<polygon fill="none" stroke="black" points="973.172,-342.5 973.172,-549.5 1593.17,-549.5 1593.17,-342.5 973.172,-342.5"/>
<text text-anchor="middle" x="1040.67" y="-534.3" font-family="Times,serif" font-size="14.00">clk</text>
<polyline fill="none" stroke="black" points="973.172,-526.5 1108.17,-526.5 "/>
<text text-anchor="middle" x="1040.67" y="-511.3" font-family="Times,serif" font-size="14.00">cpu_debug</text>
<polyline fill="none" stroke="black" points="973.172,-503.5 1108.17,-503.5 "/>
<text text-anchor="middle" x="1040.67" y="-488.3" font-family="Times,serif" font-size="14.00">cpu_dmp_chip_select</text>
<polyline fill="none" stroke="black" points="973.172,-480.5 1108.17,-480.5 "/>
<text text-anchor="middle" x="1040.67" y="-465.3" font-family="Times,serif" font-size="14.00">cpu_dmp_fifo_pos</text>
<polyline fill="none" stroke="black" points="973.172,-457.5 1108.17,-457.5 "/>
<text text-anchor="middle" x="1040.67" y="-442.3" font-family="Times,serif" font-size="14.00">cpu_in_data</text>
<polyline fill="none" stroke="black" points="973.172,-434.5 1108.17,-434.5 "/>
<text text-anchor="middle" x="1040.67" y="-419.3" font-family="Times,serif" font-size="14.00">cpu_in_wr</text>
<polyline fill="none" stroke="black" points="973.172,-411.5 1108.17,-411.5 "/>
<text text-anchor="middle" x="1040.67" y="-396.3" font-family="Times,serif" font-size="14.00">cpu_nxtInstr</text>
<polyline fill="none" stroke="black" points="973.172,-388.5 1108.17,-388.5 "/>
<text text-anchor="middle" x="1040.67" y="-373.3" font-family="Times,serif" font-size="14.00">cpu_out_rd</text>
<polyline fill="none" stroke="black" points="973.172,-365.5 1108.17,-365.5 "/>
<text text-anchor="middle" x="1040.67" y="-350.3" font-family="Times,serif" font-size="14.00">i_rst</text>
<polyline fill="none" stroke="black" points="1108.17,-342.5 1108.17,-549.5 "/>
<text text-anchor="middle" x="1300.17" y="-449.8" font-family="Times,serif" font-size="14.00">CPU</text>
<text text-anchor="middle" x="1300.17" y="-434.8" font-family="Times,serif" font-size="14.00">$paramod$daa2d41268716cc2bd819c2c257642e245bf905f\hrmcpu</text>
<polyline fill="none" stroke="black" points="1492.17,-342.5 1492.17,-549.5 "/>
<text text-anchor="middle" x="1542.67" y="-525.3" font-family="Times,serif" font-size="14.00">cpu_dmp_data</text>
<polyline fill="none" stroke="black" points="1492.17,-508.5 1593.17,-508.5 "/>
<text text-anchor="middle" x="1542.67" y="-484.3" font-family="Times,serif" font-size="14.00">cpu_dmp_valid</text>
<polyline fill="none" stroke="black" points="1492.17,-467.5 1593.17,-467.5 "/>
<text text-anchor="middle" x="1542.67" y="-442.8" font-family="Times,serif" font-size="14.00">cpu_in_full</text>
<polyline fill="none" stroke="black" points="1492.17,-425.5 1593.17,-425.5 "/>
<text text-anchor="middle" x="1542.67" y="-401.3" font-family="Times,serif" font-size="14.00">cpu_out_data</text>
<polyline fill="none" stroke="black" points="1492.17,-384.5 1593.17,-384.5 "/>
<text text-anchor="middle" x="1542.67" y="-359.8" font-family="Times,serif" font-size="14.00">cpu_out_empty</text>
</g>
<!-- n4&#45;&gt;c41 -->
<g id="edge41" class="edge"><title>n4:e&#45;&gt;c41:p4:w</title>
<path fill="none" stroke="#7570b3" d="M54,-233C94.2093,-233 61.8699,-287.269 90,-316 294.936,-525.317 402.819,-528.446 689,-591 796.755,-614.553 839.7,-642.624 937.172,-591 958.601,-579.651 948.99,-549.197 963.249,-540.406"/>
<polygon fill="#7570b3" stroke="#7570b3" points="964.279,-543.758 973.172,-538 962.629,-536.955 964.279,-543.758"/>
</g>
<!-- n4&#45;&gt;c46 -->
<g id="edge42" class="edge"><title>n4:e&#45;&gt;c46:p42:w</title>
<path fill="none" stroke="#7570b3" d="M54,-233C81.2994,-233 64.6502,-187.127 80.2758,-174.942"/>
<polygon fill="#7570b3" stroke="#7570b3" points="81.4421,-178.246 90,-172 79.4149,-171.546 81.4421,-178.246"/>
</g>
<!-- c51 -->
<g id="node34" class="node"><title>c51</title>
<polygon fill="none" stroke="black" points="1850.84,-369.5 1850.84,-438.5 2411.84,-438.5 2411.84,-369.5 1850.84,-369.5"/>
<text text-anchor="middle" x="1875.84" y="-423.3" font-family="Times,serif" font-size="14.00">i_clk</text>
<polyline fill="none" stroke="black" points="1850.84,-415.5 1900.84,-415.5 "/>
<text text-anchor="middle" x="1875.84" y="-400.3" font-family="Times,serif" font-size="14.00">i_data</text>
<polyline fill="none" stroke="black" points="1850.84,-392.5 1900.84,-392.5 "/>
<text text-anchor="middle" x="1875.84" y="-377.3" font-family="Times,serif" font-size="14.00">i_wr</text>
<polyline fill="none" stroke="black" points="1900.84,-369.5 1900.84,-438.5 "/>
<text text-anchor="middle" x="2122.34" y="-407.8" font-family="Times,serif" font-size="14.00">tx</text>
<text text-anchor="middle" x="2122.34" y="-392.8" font-family="Times,serif" font-size="14.00">$paramod\txuartlite\CLOCKS_PER_BAUD=24&#39;000000000000000001101000</text>
<polyline fill="none" stroke="black" points="2343.84,-369.5 2343.84,-438.5 "/>
<text text-anchor="middle" x="2377.84" y="-417.8" font-family="Times,serif" font-size="14.00">o_busy</text>
<polyline fill="none" stroke="black" points="2343.84,-404.5 2411.84,-404.5 "/>
<text text-anchor="middle" x="2377.84" y="-383.3" font-family="Times,serif" font-size="14.00">o_uart_tx</text>
</g>
<!-- n4&#45;&gt;c51 -->
<g id="edge43" class="edge"><title>n4:e&#45;&gt;c51:p42:w</title>
<path fill="none" stroke="#7570b3" d="M54,-233C71.1673,-233 73.2244,-243.354 90,-247 743.902,-389.125 929.354,-248.544 1593.17,-333 1692.81,-345.677 1730.35,-322.683 1814.84,-377 1834.28,-389.494 1827.05,-416.5 1840.77,-424.634"/>
<polygon fill="#7570b3" stroke="#7570b3" points="1840.31,-428.122 1850.84,-427 1841.91,-421.307 1840.31,-428.122"/>
</g>
<!-- c55 -->
<g id="node35" class="node"><title>c55</title>
<polygon fill="none" stroke="black" points="3001.8,-163.5 3001.8,-232.5 3230.8,-232.5 3230.8,-163.5 3001.8,-163.5"/>
<text text-anchor="middle" x="3039.3" y="-217.3" font-family="Times,serif" font-size="14.00">clk</text>
<polyline fill="none" stroke="black" points="3001.8,-209.5 3076.8,-209.5 "/>
<text text-anchor="middle" x="3039.3" y="-194.3" font-family="Times,serif" font-size="14.00">i_busy_n</text>
<polyline fill="none" stroke="black" points="3001.8,-186.5 3076.8,-186.5 "/>
<text text-anchor="middle" x="3039.3" y="-171.3" font-family="Times,serif" font-size="14.00">i_empty_n</text>
<polyline fill="none" stroke="black" points="3076.8,-163.5 3076.8,-232.5 "/>
<text text-anchor="middle" x="3110.8" y="-201.8" font-family="Times,serif" font-size="14.00">txctl</text>
<text text-anchor="middle" x="3110.8" y="-186.8" font-family="Times,serif" font-size="14.00">out2txCtl</text>
<polyline fill="none" stroke="black" points="3144.8,-163.5 3144.8,-232.5 "/>
<text text-anchor="middle" x="3187.8" y="-194.3" font-family="Times,serif" font-size="14.00">o_pop_value</text>
</g>
<!-- n4&#45;&gt;c55 -->
<g id="edge44" class="edge"><title>n4:e&#45;&gt;c55:p4:w</title>
<path fill="none" stroke="#7570b3" d="M54,-233C390.927,-233 475.159,-233 812.086,-233 812.086,-233 812.086,-233 2689.44,-233 2824.84,-233 2861.05,-221.602 2991.41,-221.023"/>
<polygon fill="#7570b3" stroke="#7570b3" points="2991.81,-224.522 3001.8,-221 2991.79,-217.522 2991.81,-224.522"/>
</g>
<!-- n5 -->
<g id="node4" class="node"><title>n5</title>
<polygon fill="none" stroke="black" points="813.086,-528 688.914,-510 813.086,-492 937.259,-510 813.086,-528"/>
<text text-anchor="middle" x="813.086" y="-506.3" font-family="Times,serif" font-size="14.00">cpu_dmp_chip_select</text>
</g>
<!-- n5&#45;&gt;c41 -->
<g id="edge45" class="edge"><title>n5:e&#45;&gt;c41:p5:w</title>
<path fill="none" stroke="#a6761d" stroke-width="3" d="M937.172,-510C951.008,-510 954.276,-499.232 963.323,-494.353"/>
<polygon fill="#a6761d" stroke="#a6761d" stroke-width="3" points="964.26,-497.728 973.172,-492 962.633,-490.92 964.26,-497.728"/>
</g>
<!-- n6 -->
<g id="node5" class="node"><title>n6</title>
<polygon fill="none" stroke="black" points="1722.01,-584 1632.69,-566 1722.01,-548 1811.32,-566 1722.01,-584"/>
<text text-anchor="middle" x="1722.01" y="-562.3" font-family="Times,serif" font-size="14.00">cpu_dmp_data</text>
</g>
<!-- n7 -->
<g id="node6" class="node"><title>n7</title>
<polygon fill="none" stroke="black" points="813.086,-474 703.827,-456 813.086,-438 922.346,-456 813.086,-474"/>
<text text-anchor="middle" x="813.086" y="-452.3" font-family="Times,serif" font-size="14.00">cpu_dmp_fifo_pos</text>
</g>
<!-- n7&#45;&gt;c41 -->
<g id="edge47" class="edge"><title>n7:e&#45;&gt;c41:p7:w</title>
<path fill="none" stroke="#1b9e77" stroke-width="3" d="M923.086,-456C942.311,-456 948.323,-465.084 963.213,-468.065"/>
<polygon fill="#1b9e77" stroke="#1b9e77" stroke-width="3" points="962.889,-471.55 973.172,-469 963.543,-464.581 962.889,-471.55"/>
</g>
<!-- n8 -->
<g id="node7" class="node"><title>n8</title>
<polygon fill="none" stroke="black" points="1722.01,-530 1629.34,-512 1722.01,-494 1814.68,-512 1722.01,-530"/>
<text text-anchor="middle" x="1722.01" y="-508.3" font-family="Times,serif" font-size="14.00">cpu_dmp_valid</text>
</g>
<!-- n9 -->
<g id="node8" class="node"><title>n9</title>
<polygon fill="none" stroke="black" points="813.086,-366 751.419,-348 813.086,-330 874.753,-348 813.086,-366"/>
<text text-anchor="middle" x="813.086" y="-344.3" font-family="Times,serif" font-size="14.00">cpu_i_rst</text>
</g>
<!-- n9&#45;&gt;c41 -->
<g id="edge49" class="edge"><title>n9:e&#45;&gt;c41:p40:w</title>
<path fill="none" stroke="#a6761d" d="M876.086,-348C915.772,-348 927.978,-353.056 963.156,-353.885"/>
<polygon fill="#a6761d" stroke="#a6761d" points="963.133,-357.385 973.172,-354 963.213,-350.386 963.133,-357.385"/>
</g>
<!-- n10 -->
<g id="node9" class="node"><title>n10</title>
<polygon fill="none" stroke="black" points="813.086,-205 737.006,-187 813.086,-169 889.167,-187 813.086,-205"/>
<text text-anchor="middle" x="813.086" y="-183.3" font-family="Times,serif" font-size="14.00">cpu_in_data</text>
</g>
<!-- n10&#45;&gt;c41 -->
<g id="edge3" class="edge"><title>n10:e&#45;&gt;c41:p10:w</title>
<path fill="none" stroke="#1b9e77" stroke-width="3" d="M890.086,-187C953.212,-187 917.966,-260.867 937.172,-321 953.629,-372.523 920.201,-437.048 963.164,-445.151"/>
<polygon fill="#1b9e77" stroke="#1b9e77" stroke-width="3" points="962.912,-448.642 973.172,-446 963.504,-441.667 962.912,-448.642"/>
</g>
<!-- x4 -->
<g id="node38" class="node"><title>x4</title>
<path fill="none" stroke="black" d="M1298.17,-205C1298.17,-205 1268.17,-205 1268.17,-205 1262.17,-205 1256.17,-199 1256.17,-193 1256.17,-193 1256.17,-181 1256.17,-181 1256.17,-175 1262.17,-169 1268.17,-169 1268.17,-169 1298.17,-169 1298.17,-169 1304.17,-169 1310.17,-175 1310.17,-181 1310.17,-181 1310.17,-193 1310.17,-193 1310.17,-199 1304.17,-205 1298.17,-205"/>
<text text-anchor="middle" x="1283.17" y="-183.3" font-family="Times,serif" font-size="14.00">BUF</text>
</g>
<!-- n10&#45;&gt;x4 -->
<g id="edge4" class="edge"><title>n10:e&#45;&gt;x4:w:w</title>
<path fill="none" stroke="#1b9e77" stroke-width="3" d="M890.086,-187C1048.86,-187 1091.11,-187 1244.88,-187"/>
<polygon fill="#1b9e77" stroke="#1b9e77" stroke-width="3" points="1245.17,-190.5 1255.17,-187 1245.17,-183.5 1245.17,-190.5"/>
</g>
<!-- n11 -->
<g id="node10" class="node"><title>n11</title>
<polygon fill="none" stroke="black" points="1722.01,-476 1649.28,-458 1722.01,-440 1794.73,-458 1722.01,-476"/>
<text text-anchor="middle" x="1722.01" y="-454.3" font-family="Times,serif" font-size="14.00">cpu_in_full</text>
</g>
<!-- n12 -->
<g id="node11" class="node"><title>n12</title>
<polygon fill="none" stroke="black" points="813.086,-151 745.051,-133 813.086,-115 881.122,-133 813.086,-151"/>
<text text-anchor="middle" x="813.086" y="-129.3" font-family="Times,serif" font-size="14.00">cpu_in_wr</text>
</g>
<!-- n12&#45;&gt;c41 -->
<g id="edge7" class="edge"><title>n12:e&#45;&gt;c41:p12:w</title>
<path fill="none" stroke="#7570b3" d="M882.086,-133C909.352,-133 921.207,-137.898 937.172,-160 969.555,-204.83 921.015,-396.756 963.426,-420.572"/>
<polygon fill="#7570b3" stroke="#7570b3" points="962.623,-423.978 973.172,-423 964.315,-417.186 962.623,-423.978"/>
</g>
<!-- x5 -->
<g id="node39" class="node"><title>x5</title>
<path fill="none" stroke="black" d="M1298.17,-151C1298.17,-151 1268.17,-151 1268.17,-151 1262.17,-151 1256.17,-145 1256.17,-139 1256.17,-139 1256.17,-127 1256.17,-127 1256.17,-121 1262.17,-115 1268.17,-115 1268.17,-115 1298.17,-115 1298.17,-115 1304.17,-115 1310.17,-121 1310.17,-127 1310.17,-127 1310.17,-139 1310.17,-139 1310.17,-145 1304.17,-151 1298.17,-151"/>
<text text-anchor="middle" x="1283.17" y="-129.3" font-family="Times,serif" font-size="14.00">BUF</text>
</g>
<!-- n12&#45;&gt;x5 -->
<g id="edge8" class="edge"><title>n12:e&#45;&gt;x5:w:w</title>
<path fill="none" stroke="#7570b3" d="M882.086,-133C1044.5,-133 1087.6,-133 1245.13,-133"/>
<polygon fill="#7570b3" stroke="#7570b3" points="1245.17,-136.5 1255.17,-133 1245.17,-129.5 1245.17,-136.5"/>
</g>
<!-- n13 -->
<g id="node12" class="node"><title>n13</title>
<polygon fill="none" stroke="black" points="1722.01,-422 1640.4,-404 1722.01,-386 1803.62,-404 1722.01,-422"/>
<text text-anchor="middle" x="1722.01" y="-400.3" font-family="Times,serif" font-size="14.00">cpu_out_data</text>
</g>
<!-- c37 -->
<g id="node29" class="node"><title>c37</title>
<polygon fill="none" stroke="black" points="3446.19,-270.5 3446.19,-339.5 3548.19,-339.5 3548.19,-270.5 3446.19,-270.5"/>
<text text-anchor="middle" x="3459.19" y="-324.3" font-family="Times,serif" font-size="14.00">A</text>
<polyline fill="none" stroke="black" points="3446.19,-316.5 3472.19,-316.5 "/>
<text text-anchor="middle" x="3459.19" y="-301.3" font-family="Times,serif" font-size="14.00">B</text>
<polyline fill="none" stroke="black" points="3446.19,-293.5 3472.19,-293.5 "/>
<text text-anchor="middle" x="3459.19" y="-278.3" font-family="Times,serif" font-size="14.00">S</text>
<polyline fill="none" stroke="black" points="3472.19,-270.5 3472.19,-339.5 "/>
<text text-anchor="middle" x="3497.19" y="-308.8" font-family="Times,serif" font-size="14.00">$1097</text>
<text text-anchor="middle" x="3497.19" y="-293.8" font-family="Times,serif" font-size="14.00">$mux</text>
<polyline fill="none" stroke="black" points="3522.19,-270.5 3522.19,-339.5 "/>
<text text-anchor="middle" x="3535.19" y="-301.3" font-family="Times,serif" font-size="14.00">Y</text>
</g>
<!-- n13&#45;&gt;c37 -->
<g id="edge10" class="edge"><title>n13:e&#45;&gt;c37:p35:w</title>
<path fill="none" stroke="#e7298a" stroke-width="3" d="M1805.01,-404C1833.25,-404 1825.19,-436.205 1850.84,-448 2093.06,-559.351 2181.57,-493.096 2447.84,-506 2518.02,-509.401 2536.02,-512.979 2605.94,-506 2887.84,-477.861 2957.53,-454.755 3230.8,-380 3325.23,-354.167 3343.62,-308.273 3436.08,-305.166"/>
<polygon fill="#e7298a" stroke="#e7298a" stroke-width="3" points="3436.25,-308.664 3446.19,-305 3436.13,-301.665 3436.25,-308.664"/>
</g>
<!-- n13&#45;&gt;c51 -->
<g id="edge11" class="edge"><title>n13:e&#45;&gt;c51:p47:w</title>
<path fill="none" stroke="#e7298a" stroke-width="3" d="M1805.01,-404C1821.56,-404 1828.02,-404 1840.79,-404"/>
<polygon fill="#e7298a" stroke="#e7298a" stroke-width="3" points="1840.84,-407.5 1850.84,-404 1840.84,-400.5 1840.84,-407.5"/>
</g>
<!-- x6 -->
<g id="node40" class="node"><title>x6</title>
<path fill="none" stroke="black" d="M2146.34,-589C2146.34,-589 2116.34,-589 2116.34,-589 2110.34,-589 2104.34,-583 2104.34,-577 2104.34,-577 2104.34,-565 2104.34,-565 2104.34,-559 2110.34,-553 2116.34,-553 2116.34,-553 2146.34,-553 2146.34,-553 2152.34,-553 2158.34,-559 2158.34,-565 2158.34,-565 2158.34,-577 2158.34,-577 2158.34,-583 2152.34,-589 2146.34,-589"/>
<text text-anchor="middle" x="2131.34" y="-567.3" font-family="Times,serif" font-size="14.00">BUF</text>
</g>
<!-- n13&#45;&gt;x6 -->
<g id="edge12" class="edge"><title>n13:e&#45;&gt;x6:w:w</title>
<path fill="none" stroke="#e7298a" stroke-width="3" d="M1805.01,-404C1868.37,-404 1801.87,-498.786 1850.84,-539 1935.61,-608.618 1987.04,-573.307 2093.23,-571.105"/>
<polygon fill="#e7298a" stroke="#e7298a" stroke-width="3" points="2093.38,-574.604 2103.34,-571 2093.31,-567.604 2093.38,-574.604"/>
</g>
<!-- n14 -->
<g id="node13" class="node"><title>n14</title>
<polygon fill="none" stroke="black" points="2131.34,-298 2038.67,-280 2131.34,-262 2224.01,-280 2131.34,-298"/>
<text text-anchor="middle" x="2131.34" y="-276.3" font-family="Times,serif" font-size="14.00">cpu_out_empty</text>
</g>
<!-- c29 -->
<g id="node26" class="node"><title>c29</title>
<polygon fill="none" stroke="black" points="2641.94,-262 2641.94,-300 2734.94,-300 2734.94,-262 2641.94,-262"/>
<text text-anchor="middle" x="2654.94" y="-277.3" font-family="Times,serif" font-size="14.00">A</text>
<polyline fill="none" stroke="black" points="2667.94,-262 2667.94,-300 "/>
<text text-anchor="middle" x="2688.44" y="-284.8" font-family="Times,serif" font-size="14.00">$2</text>
<text text-anchor="middle" x="2688.44" y="-269.8" font-family="Times,serif" font-size="14.00">$not</text>
<polyline fill="none" stroke="black" points="2708.94,-262 2708.94,-300 "/>
<text text-anchor="middle" x="2721.94" y="-277.3" font-family="Times,serif" font-size="14.00">Y</text>
</g>
<!-- n14&#45;&gt;c29 -->
<g id="edge14" class="edge"><title>n14:e&#45;&gt;c29:p27:w</title>
<path fill="none" stroke="#e7298a" d="M2225.34,-280C2407.06,-280 2455.02,-280.963 2631.77,-280.999"/>
<polygon fill="#e7298a" stroke="#e7298a" points="2631.94,-284.499 2641.94,-281 2631.94,-277.499 2631.94,-284.499"/>
</g>
<!-- n15 -->
<g id="node14" class="node"><title>n15</title>
<polygon fill="none" stroke="black" points="3338.49,-276 3266.6,-258 3338.49,-240 3410.38,-258 3338.49,-276"/>
<text text-anchor="middle" x="3338.49" y="-254.3" font-family="Times,serif" font-size="14.00">cpu_out_rd</text>
</g>
<!-- n15&#45;&gt;c37 -->
<g id="edge16" class="edge"><title>n15:e&#45;&gt;c37:p36:w</title>
<path fill="none" stroke="#7570b3" d="M3410.19,-258C3425.36,-258 3427.03,-272.943 3436.51,-279.247"/>
<polygon fill="#7570b3" stroke="#7570b3" points="3435.61,-282.631 3446.19,-282 3437.53,-275.898 3435.61,-282.631"/>
</g>
<!-- n15&#45;&gt;c41 -->
<g id="edge17" class="edge"><title>n15:e&#45;&gt;c41:p15:w</title>
<path fill="none" stroke="#7570b3" d="M3411.49,-258C3419.51,-258 3416.18,-270.353 3410.49,-276 3383.83,-302.481 2772.49,-307.731 2734.94,-309 2722.71,-309.413 981.868,-333.39 973.172,-342 965.311,-349.785 960.257,-364.191 963.583,-371.869"/>
<polygon fill="#7570b3" stroke="#7570b3" points="961.793,-374.876 972.172,-377 965.383,-368.867 961.793,-374.876"/>
</g>
<!-- n15&#45;&gt;c51 -->
<g id="edge18" class="edge"><title>n15:e&#45;&gt;c51:p48:w</title>
<path fill="none" stroke="#7570b3" d="M3411.49,-258C3419.51,-258 3415.24,-269.548 3410.49,-276 3359.95,-344.635 3313.56,-322.604 3230.8,-343 3124.28,-369.25 2837.63,-427.482 2641.94,-406 2625.64,-404.212 2622.05,-400.991 2605.94,-398 2520.18,-382.085 2498.82,-375.462 2411.84,-369 2380.73,-366.689 1873.3,-347.878 1850.34,-369 1849.73,-369.566 1849.15,-370.248 1848.63,-370.997"/>
<polygon fill="#7570b3" stroke="#7570b3" points="1845.14,-371.273 1849.34,-381 1852.12,-370.777 1845.14,-371.273"/>
</g>
<!-- x7 -->
<g id="node41" class="node"><title>x7</title>
<path fill="none" stroke="black" d="M3512.19,-59C3512.19,-59 3482.19,-59 3482.19,-59 3476.19,-59 3470.19,-53 3470.19,-47 3470.19,-47 3470.19,-35 3470.19,-35 3470.19,-29 3476.19,-23 3482.19,-23 3482.19,-23 3512.19,-23 3512.19,-23 3518.19,-23 3524.19,-29 3524.19,-35 3524.19,-35 3524.19,-47 3524.19,-47 3524.19,-53 3518.19,-59 3512.19,-59"/>
<text text-anchor="middle" x="3497.19" y="-37.3" font-family="Times,serif" font-size="14.00">BUF</text>
</g>
<!-- n15&#45;&gt;x7 -->
<g id="edge19" class="edge"><title>n15:e&#45;&gt;x7:w:w</title>
<path fill="none" stroke="#7570b3" d="M3410.19,-258C3456.45,-258 3424.79,-72.0156 3459.49,-44.4086"/>
<polygon fill="#7570b3" stroke="#7570b3" points="3460.91,-47.6177 3469.19,-41 3458.59,-41.0137 3460.91,-47.6177"/>
</g>
<!-- x8 -->
<g id="node42" class="node"><title>x8</title>
<path fill="none" stroke="black" d="M3512.19,-252C3512.19,-252 3482.19,-252 3482.19,-252 3476.19,-252 3470.19,-246 3470.19,-240 3470.19,-240 3470.19,-228 3470.19,-228 3470.19,-222 3476.19,-216 3482.19,-216 3482.19,-216 3512.19,-216 3512.19,-216 3518.19,-216 3524.19,-222 3524.19,-228 3524.19,-228 3524.19,-240 3524.19,-240 3524.19,-246 3518.19,-252 3512.19,-252"/>
<text text-anchor="middle" x="3497.19" y="-230.3" font-family="Times,serif" font-size="14.00">BUF</text>
</g>
<!-- n15&#45;&gt;x8 -->
<g id="edge20" class="edge"><title>n15:e&#45;&gt;x8:w:w</title>
<path fill="none" stroke="#7570b3" d="M3410.19,-258C3434.74,-258 3439.79,-239.952 3459.16,-235.158"/>
<polygon fill="#7570b3" stroke="#7570b3" points="3459.65,-238.624 3469.19,-234 3458.85,-231.67 3459.65,-238.624"/>
</g>
<!-- n16 -->
<g id="node15" class="node"><title>n16</title>
<polygon fill="none" stroke="black" points="3889.27,-243.544 3889.27,-258.456 3873.45,-269 3851.09,-269 3835.27,-258.456 3835.27,-243.544 3851.09,-233 3873.45,-233 3889.27,-243.544"/>
<text text-anchor="middle" x="3862.27" y="-247.3" font-family="Times,serif" font-size="14.00">leds</text>
</g>
<!-- n16&#45;&gt;c37 -->
<g id="edge22" class="edge"><title>n16:e&#45;&gt;c37:p27:w</title>
<path fill="none" stroke="#d95f02" stroke-width="3" d="M3890.27,-251C3898.28,-251 3894.5,-262.927 3889.27,-269 3788.28,-386.372 3702.21,-324.139 3548.19,-340 3503.09,-344.644 3479.55,-370.696 3446.19,-340 3445.57,-339.434 3444.99,-338.752 3444.48,-338.003"/>
<polygon fill="#d95f02" stroke="#d95f02" stroke-width="3" points="3447.97,-338.223 3445.19,-328 3440.99,-337.727 3447.97,-338.223"/>
</g>
<!-- n17 -->
<g id="node16" class="node"><title>n17</title>
<polygon fill="none" stroke="black" points="813.086,-59 735.667,-41 813.086,-23 890.505,-41 813.086,-59"/>
<text text-anchor="middle" x="813.086" y="-37.3" font-family="Times,serif" font-size="14.00">rx_i_uart_rx</text>
</g>
<!-- n18 -->
<g id="node17" class="node"><title>n18</title>
<polygon fill="none" stroke="black" points="1722.01,-205 1656.99,-187 1722.01,-169 1787.03,-187 1722.01,-205"/>
<text text-anchor="middle" x="1722.01" y="-183.3" font-family="Times,serif" font-size="14.00">rx_o_data</text>
</g>
<!-- n19 -->
<g id="node18" class="node"><title>n19</title>
<polygon fill="none" stroke="black" points="1722.01,-151 1665.03,-133 1722.01,-115 1778.98,-133 1722.01,-151"/>
<text text-anchor="middle" x="1722.01" y="-129.3" font-family="Times,serif" font-size="14.00">rx_o_wr</text>
</g>
<!-- n20 -->
<g id="node19" class="node"><title>n20</title>
<polygon fill="none" stroke="black" points="2526.89,-589 2465.22,-571 2526.89,-553 2588.56,-571 2526.89,-589"/>
<text text-anchor="middle" x="2526.89" y="-567.3" font-family="Times,serif" font-size="14.00">tx_i_data</text>
</g>
<!-- n21 -->
<g id="node20" class="node"><title>n21</title>
<polygon fill="none" stroke="black" points="3691.73,-59 3637.27,-41 3691.73,-23 3746.19,-41 3691.73,-59"/>
<text text-anchor="middle" x="3691.73" y="-37.3" font-family="Times,serif" font-size="14.00">tx_i_wr</text>
</g>
<!-- n22 -->
<g id="node21" class="node"><title>n22</title>
<polygon fill="none" stroke="black" points="2526.89,-443 2459.69,-425 2526.89,-407 2594.09,-425 2526.89,-443"/>
<text text-anchor="middle" x="2526.89" y="-421.3" font-family="Times,serif" font-size="14.00">tx_o_busy</text>
</g>
<!-- c30 -->
<g id="node27" class="node"><title>c30</title>
<polygon fill="none" stroke="black" points="2641.94,-358 2641.94,-396 2734.94,-396 2734.94,-358 2641.94,-358"/>
<text text-anchor="middle" x="2654.94" y="-373.3" font-family="Times,serif" font-size="14.00">A</text>
<polyline fill="none" stroke="black" points="2667.94,-358 2667.94,-396 "/>
<text text-anchor="middle" x="2688.44" y="-380.8" font-family="Times,serif" font-size="14.00">$3</text>
<text text-anchor="middle" x="2688.44" y="-365.8" font-family="Times,serif" font-size="14.00">$not</text>
<polyline fill="none" stroke="black" points="2708.94,-358 2708.94,-396 "/>
<text text-anchor="middle" x="2721.94" y="-373.3" font-family="Times,serif" font-size="14.00">Y</text>
</g>
<!-- n22&#45;&gt;c30 -->
<g id="edge31" class="edge"><title>n22:e&#45;&gt;c30:p27:w</title>
<path fill="none" stroke="#d95f02" d="M2594.89,-425C2620.79,-425 2614.69,-388.903 2632.09,-379.315"/>
<polygon fill="#d95f02" stroke="#d95f02" points="2633,-382.695 2641.94,-377 2631.4,-375.881 2633,-382.695"/>
</g>
<!-- n23 -->
<g id="node22" class="node"><title>n23</title>
<polygon fill="none" stroke="black" points="2526.89,-497 2447.79,-479 2526.89,-461 2605.98,-479 2526.89,-497"/>
<text text-anchor="middle" x="2526.89" y="-475.3" font-family="Times,serif" font-size="14.00">tx_o_uart_tx</text>
</g>
<!-- x2 -->
<g id="node36" class="node"><title>x2</title>
<path fill="none" stroke="black" d="M3131.3,-527C3131.3,-527 3101.3,-527 3101.3,-527 3095.3,-527 3089.3,-521 3089.3,-515 3089.3,-515 3089.3,-503 3089.3,-503 3089.3,-497 3095.3,-491 3101.3,-491 3101.3,-491 3131.3,-491 3131.3,-491 3137.3,-491 3143.3,-497 3143.3,-503 3143.3,-503 3143.3,-515 3143.3,-515 3143.3,-521 3137.3,-527 3131.3,-527"/>
<text text-anchor="middle" x="3116.3" y="-505.3" font-family="Times,serif" font-size="14.00">BUF</text>
</g>
<!-- n23&#45;&gt;x2 -->
<g id="edge33" class="edge"><title>n23:e&#45;&gt;x2:w:w</title>
<path fill="none" stroke="#1b9e77" d="M2605.94,-479C2817.27,-479 2871.76,-508.041 3078.04,-508.977"/>
<polygon fill="#1b9e77" stroke="#1b9e77" points="3078.29,-512.477 3088.3,-509 3078.31,-505.477 3078.29,-512.477"/>
</g>
<!-- n24 -->
<g id="node23" class="node"><title>n24</title>
<polygon fill="none" stroke="black" points="2868.37,-205 2779.05,-187 2868.37,-169 2957.68,-187 2868.37,-205"/>
<text text-anchor="middle" x="2868.37" y="-183.3" font-family="Times,serif" font-size="14.00">txctl_i_busy_n</text>
</g>
<!-- n24&#45;&gt;c55 -->
<g id="edge35" class="edge"><title>n24:e&#45;&gt;c55:p52:w</title>
<path fill="none" stroke="#1b9e77" d="M2959.37,-187C2974.89,-187 2980.25,-193.985 2991.64,-196.823"/>
<polygon fill="#1b9e77" stroke="#1b9e77" points="2991.46,-200.325 3001.8,-198 2992.27,-193.372 2991.46,-200.325"/>
</g>
<!-- n25 -->
<g id="node24" class="node"><title>n25</title>
<polygon fill="none" stroke="black" points="2868.37,-151 2771.01,-133 2868.37,-115 2965.73,-133 2868.37,-151"/>
<text text-anchor="middle" x="2868.37" y="-129.3" font-family="Times,serif" font-size="14.00">txctl_i_empty_n</text>
</g>
<!-- n25&#45;&gt;c55 -->
<g id="edge37" class="edge"><title>n25:e&#45;&gt;c55:p53:w</title>
<path fill="none" stroke="#7570b3" d="M2965.8,-133C2986.16,-133 2980.63,-161.803 2992.08,-171.704"/>
<polygon fill="#7570b3" stroke="#7570b3" points="2991.2,-175.102 3001.8,-175 2993.45,-168.473 2991.2,-175.102"/>
</g>
<!-- n26 -->
<g id="node25" class="node"><title>n26</title>
<polygon fill="none" stroke="black" points="3691.73,-264 3584.15,-246 3691.73,-228 3799.31,-246 3691.73,-264"/>
<text text-anchor="middle" x="3691.73" y="-242.3" font-family="Times,serif" font-size="14.00">txctl_o_pop_value</text>
</g>
<!-- c29&#45;&gt;n25 -->
<g id="edge36" class="edge"><title>c29:p28:e&#45;&gt;n25:w</title>
<path fill="none" stroke="#7570b3" d="M2734.94,-281C2798.8,-281 2713.96,-149.291 2760.98,-134.371"/>
<polygon fill="#7570b3" stroke="#7570b3" points="2761.51,-137.831 2770.94,-133 2760.55,-130.897 2761.51,-137.831"/>
</g>
<!-- c30&#45;&gt;n24 -->
<g id="edge34" class="edge"><title>c30:p28:e&#45;&gt;n24:w</title>
<path fill="none" stroke="#1b9e77" d="M2734.94,-377C2817.74,-377 2701.67,-202.977 2767.38,-188.022"/>
<polygon fill="#1b9e77" stroke="#1b9e77" points="2767.78,-191.5 2777.37,-187 2767.06,-184.537 2767.78,-191.5"/>
</g>
<!-- c34&#45;&gt;n16 -->
<g id="edge21" class="edge"><title>c34:p33:e&#45;&gt;n16:w</title>
<path fill="none" stroke="#d95f02" stroke-width="3" d="M3752.73,-186C3778.09,-186 3779.42,-203.22 3799.27,-219 3812.88,-229.824 3814.01,-244.184 3825.43,-249.189"/>
<polygon fill="#d95f02" stroke="#d95f02" stroke-width="3" points="3824.8,-252.631 3835.27,-251 3826.07,-245.747 3824.8,-252.631"/>
</g>
<!-- c37&#45;&gt;c34 -->
<g id="edge1" class="edge"><title>c37:p28:e&#45;&gt;c34:p32:w</title>
<path fill="none" stroke="#66a61e" stroke-width="3" d="M3548.19,-305C3589.62,-305 3560.81,-253.214 3584.19,-219 3598.26,-198.397 3601.29,-179.687 3620.61,-175.08"/>
<polygon fill="#66a61e" stroke="#66a61e" stroke-width="3" points="3621.16,-178.542 3630.73,-174 3620.41,-171.581 3621.16,-178.542"/>
</g>
<!-- v0 -->
<g id="node30" class="node"><title>v0</title>
<ellipse fill="none" stroke="black" cx="813.086" cy="-564" rx="27" ry="18"/>
<text text-anchor="middle" x="813.086" y="-560.3" font-family="Times,serif" font-size="14.00">1&#39;0</text>
</g>
<!-- v0&#45;&gt;c41 -->
<g id="edge50" class="edge"><title>v0:e&#45;&gt;c41:p38:w</title>
<path fill="none" stroke="#7570b3" d="M841.086,-564C885.445,-564 896.512,-554.732 937.172,-537 950.6,-531.144 953.575,-521.01 963.175,-516.857"/>
<polygon fill="#7570b3" stroke="#7570b3" points="963.98,-520.267 973.172,-515 962.701,-513.385 963.98,-520.267"/>
</g>
<!-- v1 -->
<g id="node31" class="node"><title>v1</title>
<ellipse fill="none" stroke="black" cx="813.086" cy="-402" rx="27" ry="18"/>
<text text-anchor="middle" x="813.086" y="-398.3" font-family="Times,serif" font-size="14.00">1&#39;0</text>
</g>
<!-- v1&#45;&gt;c41 -->
<g id="edge51" class="edge"><title>v1:e&#45;&gt;c41:p39:w</title>
<path fill="none" stroke="#e6ab02" d="M841.086,-402C896.243,-402 912.524,-400.235 962.973,-400.021"/>
<polygon fill="#e6ab02" stroke="#e6ab02" points="963.18,-403.521 973.172,-400 963.165,-396.521 963.18,-403.521"/>
</g>
<!-- c41&#45;&gt;n6 -->
<g id="edge46" class="edge"><title>c41:p6:e&#45;&gt;n6:w</title>
<path fill="none" stroke="#e6ab02" stroke-width="3" d="M1593.17,-529C1612.47,-529 1609.74,-553.898 1621.12,-562.845"/>
<polygon fill="#e6ab02" stroke="#e6ab02" stroke-width="3" points="1620.42,-566.295 1631.01,-566 1622.54,-559.626 1620.42,-566.295"/>
</g>
<!-- c41&#45;&gt;n8 -->
<g id="edge48" class="edge"><title>c41:p8:e&#45;&gt;n8:w</title>
<path fill="none" stroke="#66a61e" d="M1593.17,-488C1608.35,-488 1610.02,-502.943 1619.49,-509.247"/>
<polygon fill="#66a61e" stroke="#66a61e" points="1618.6,-512.631 1629.17,-512 1620.51,-505.898 1618.6,-512.631"/>
</g>
<!-- c41&#45;&gt;n11 -->
<g id="edge5" class="edge"><title>c41:p11:e&#45;&gt;n11:w</title>
<path fill="none" stroke="#1b9e77" d="M1593.17,-447C1614.15,-447 1621.07,-454.831 1637.65,-457.278"/>
<polygon fill="#1b9e77" stroke="#1b9e77" points="1637.79,-460.796 1648.01,-458 1638.27,-453.813 1637.79,-460.796"/>
</g>
<!-- c41&#45;&gt;n13 -->
<g id="edge9" class="edge"><title>c41:p13:e&#45;&gt;n13:w</title>
<path fill="none" stroke="#e7298a" stroke-width="3" d="M1593.17,-405C1609.73,-405 1616.19,-404.34 1628.96,-404.092"/>
<polygon fill="#e7298a" stroke="#e7298a" stroke-width="3" points="1629.04,-407.592 1639.01,-404 1628.98,-400.592 1629.04,-407.592"/>
</g>
<!-- c41&#45;&gt;n14 -->
<g id="edge13" class="edge"><title>c41:p14:e&#45;&gt;n14:w</title>
<path fill="none" stroke="#e7298a" d="M1593.17,-363C1614,-363 1610.09,-341.339 1629.17,-333 1793.69,-261.117 1852.23,-279.281 2027.29,-279.98"/>
<polygon fill="#e7298a" stroke="#e7298a" points="2027.34,-283.48 2037.34,-280 2027.35,-276.48 2027.34,-283.48"/>
</g>
<!-- c46&#45;&gt;n10 -->
<g id="edge2" class="edge"><title>c46:p44:e&#45;&gt;n10:w</title>
<path fill="none" stroke="#1b9e77" stroke-width="3" d="M653,-172C686.86,-172 696.711,-184.213 725.882,-186.599"/>
<polygon fill="#1b9e77" stroke="#1b9e77" stroke-width="3" points="725.956,-190.104 736.086,-187 726.231,-183.11 725.956,-190.104"/>
</g>
<!-- c46&#45;&gt;n12 -->
<g id="edge6" class="edge"><title>c46:p45:e&#45;&gt;n12:w</title>
<path fill="none" stroke="#7570b3" d="M653,-148C690.342,-148 701.177,-135.574 733.756,-133.341"/>
<polygon fill="#7570b3" stroke="#7570b3" points="734.207,-136.829 744.086,-133 733.976,-129.832 734.207,-136.829"/>
</g>
<!-- c51&#45;&gt;n22 -->
<g id="edge30" class="edge"><title>c51:p49:e&#45;&gt;n22:w</title>
<path fill="none" stroke="#d95f02" d="M2411.84,-422C2428.87,-422 2435.45,-423.98 2448.56,-424.723"/>
<polygon fill="#d95f02" stroke="#d95f02" points="2448.8,-428.231 2458.89,-425 2448.99,-421.233 2448.8,-428.231"/>
</g>
<!-- c51&#45;&gt;n23 -->
<g id="edge32" class="edge"><title>c51:p50:e&#45;&gt;n23:w</title>
<path fill="none" stroke="#1b9e77" d="M2411.84,-387C2451.63,-387 2412.81,-462.559 2437.86,-476.726"/>
<polygon fill="#1b9e77" stroke="#1b9e77" points="2437.31,-480.191 2447.84,-479 2438.87,-473.366 2437.31,-480.191"/>
</g>
<!-- c55&#45;&gt;n15 -->
<g id="edge15" class="edge"><title>c55:p54:e&#45;&gt;n15:w</title>
<path fill="none" stroke="#7570b3" d="M3230.8,-198C3257.77,-198 3241.65,-243.121 3257.17,-255.106"/>
<polygon fill="#7570b3" stroke="#7570b3" points="3256.21,-258.473 3266.8,-258 3258.23,-251.769 3256.21,-258.473"/>
</g>
<!-- x2&#45;&gt;n3 -->
<g id="edge39" class="edge"><title>x2:e:e&#45;&gt;n3:w</title>
<path fill="none" stroke="#a6761d" d="M3144.3,-509C3447.95,-509 3526.42,-509 3825.01,-509"/>
<polygon fill="#a6761d" stroke="#a6761d" points="3825.27,-512.5 3835.27,-509 3825.27,-505.5 3825.27,-512.5"/>
</g>
<!-- x3&#45;&gt;n17 -->
<g id="edge23" class="edge"><title>x3:e:e&#45;&gt;n17:w</title>
<path fill="none" stroke="#1b9e77" d="M399.5,-41C544.72,-41 583.577,-41 723.811,-41"/>
<polygon fill="#1b9e77" stroke="#1b9e77" points="724.086,-44.5001 734.086,-41 724.086,-37.5001 724.086,-44.5001"/>
</g>
<!-- x4&#45;&gt;n18 -->
<g id="edge24" class="edge"><title>x4:e:e&#45;&gt;n18:w</title>
<path fill="none" stroke="#1b9e77" stroke-width="3" d="M1311.17,-187C1460.99,-187 1500.97,-187 1645.85,-187"/>
<polygon fill="#1b9e77" stroke="#1b9e77" stroke-width="3" points="1646.01,-190.5 1656.01,-187 1646.01,-183.5 1646.01,-190.5"/>
</g>
<!-- x5&#45;&gt;n19 -->
<g id="edge25" class="edge"><title>x5:e:e&#45;&gt;n19:w</title>
<path fill="none" stroke="#e6ab02" d="M1311.17,-133C1464.47,-133 1505.37,-133 1653.62,-133"/>
<polygon fill="#e6ab02" stroke="#e6ab02" points="1654.01,-136.5 1664.01,-133 1654.01,-129.5 1654.01,-136.5"/>
</g>
<!-- x6&#45;&gt;n20 -->
<g id="edge28" class="edge"><title>x6:e:e&#45;&gt;n20:w</title>
<path fill="none" stroke="#d95f02" stroke-width="3" d="M2159.34,-571C2291.26,-571 2326.75,-571 2453.77,-571"/>
<polygon fill="#d95f02" stroke="#d95f02" stroke-width="3" points="2453.89,-574.5 2463.89,-571 2453.89,-567.5 2453.89,-574.5"/>
</g>
<!-- x7&#45;&gt;n21 -->
<g id="edge29" class="edge"><title>x7:e:e&#45;&gt;n21:w</title>
<path fill="none" stroke="#d95f02" d="M3525.19,-41C3571.18,-41 3585.17,-41 3626.54,-41"/>
<polygon fill="#d95f02" stroke="#d95f02" points="3626.73,-44.5001 3636.73,-41 3626.73,-37.5001 3626.73,-44.5001"/>
</g>
<!-- x8&#45;&gt;n26 -->
<g id="edge38" class="edge"><title>x8:e:e&#45;&gt;n26:w</title>
<path fill="none" stroke="#666666" d="M3525.19,-234C3548.18,-234 3555.47,-242.862 3574.04,-245.355"/>
<polygon fill="#666666" stroke="#666666" points="3573.99,-248.858 3584.19,-246 3574.43,-241.872 3573.99,-248.858"/>
</g>
</g>
</svg>
