<?xml version="1.0" encoding="UTF-8" standalone="no"?>
<!DOCTYPE svg PUBLIC "-//W3C//DTD SVG 1.1//EN"
 "http://www.w3.org/Graphics/SVG/1.1/DTD/svg11.dtd">
<!-- Generated by graphviz version 2.38.0 (20140413.2041)
 -->
<!-- Title: top Pages: 1 -->
<svg width="4768pt" height="825pt"
 viewBox="0.00 0.00 4768.31 824.77" xmlns="http://www.w3.org/2000/svg" xmlns:xlink="http://www.w3.org/1999/xlink">
<g id="graph0" class="graph" transform="scale(1 1) rotate(0) translate(4 820.768)">
<title>top</title>
<polygon fill="white" stroke="none" points="-4,4 -4,-820.768 4764.31,-820.768 4764.31,4 -4,4"/>
<text text-anchor="middle" x="2380.15" y="-7.8" font-family="Times,serif" font-size="14.00">top</text>
<!-- n2 -->
<g id="node1" class="node"><title>n2</title>
<polygon fill="none" stroke="black" points="54,-578.312 54,-593.223 38.1838,-603.768 15.8162,-603.768 3.55271e-15,-593.223 0,-578.312 15.8162,-567.768 38.1838,-567.768 54,-578.312"/>
<text text-anchor="middle" x="27" y="-582.068" font-family="Times,serif" font-size="14.00">RX</text>
</g>
<!-- c50 -->
<g id="node42" class="node"><title>c50</title>
<polygon fill="none" stroke="black" points="90,-451.768 90,-497.768 653,-497.768 653,-451.768 90,-451.768"/>
<text text-anchor="middle" x="123" y="-482.568" font-family="Times,serif" font-size="14.00">i_clk</text>
<polyline fill="none" stroke="black" points="90,-474.768 156,-474.768 "/>
<text text-anchor="middle" x="123" y="-459.568" font-family="Times,serif" font-size="14.00">i_uart_rx</text>
<polyline fill="none" stroke="black" points="156,-451.768 156,-497.768 "/>
<text text-anchor="middle" x="378" y="-478.568" font-family="Times,serif" font-size="14.00">rx</text>
<text text-anchor="middle" x="378" y="-463.568" font-family="Times,serif" font-size="14.00">$paramod\rxuartlite\CLOCKS_PER_BAUD=24&#39;000000000000000001101000</text>
<polyline fill="none" stroke="black" points="600,-451.768 600,-497.768 "/>
<text text-anchor="middle" x="626.5" y="-482.568" font-family="Times,serif" font-size="14.00">o_data</text>
<polyline fill="none" stroke="black" points="600,-474.768 653,-474.768 "/>
<text text-anchor="middle" x="626.5" y="-459.568" font-family="Times,serif" font-size="14.00">o_wr</text>
</g>
<!-- n2&#45;&gt;c50 -->
<g id="edge28" class="edge"><title>n2:e&#45;&gt;c50:p47:w</title>
<path fill="none" stroke="#d95f02" d="M54,-585.768C106.955,-585.768 43.3307,-479.456 79.8917,-464.506"/>
<polygon fill="#d95f02" stroke="#d95f02" points="80.7381,-467.912 90,-462.768 79.5514,-461.014 80.7381,-467.912"/>
</g>
<!-- x10 -->
<g id="node51" class="node"><title>x10</title>
<path fill="none" stroke="black" d="M386.5,-708.768C386.5,-708.768 356.5,-708.768 356.5,-708.768 350.5,-708.768 344.5,-702.768 344.5,-696.768 344.5,-696.768 344.5,-684.768 344.5,-684.768 344.5,-678.768 350.5,-672.768 356.5,-672.768 356.5,-672.768 386.5,-672.768 386.5,-672.768 392.5,-672.768 398.5,-678.768 398.5,-684.768 398.5,-684.768 398.5,-696.768 398.5,-696.768 398.5,-702.768 392.5,-708.768 386.5,-708.768"/>
<text text-anchor="middle" x="371.5" y="-687.068" font-family="Times,serif" font-size="14.00">BUF</text>
</g>
<!-- n2&#45;&gt;x10 -->
<g id="edge29" class="edge"><title>n2:e&#45;&gt;x10:w:w</title>
<path fill="none" stroke="#d95f02" d="M54,-585.768C90.1752,-585.768 60.539,-637.775 90,-658.768 179.684,-722.673 227.025,-692.729 333.365,-690.857"/>
<polygon fill="#d95f02" stroke="#d95f02" points="333.531,-694.356 343.5,-690.768 333.469,-687.356 333.531,-694.356"/>
</g>
<!-- n3 -->
<g id="node2" class="node"><title>n3</title>
<polygon fill="none" stroke="black" points="4760.31,-72.3118 4760.31,-87.2234 4744.49,-97.7676 4722.13,-97.7676 4706.31,-87.2234 4706.31,-72.3118 4722.13,-61.7676 4744.49,-61.7676 4760.31,-72.3118"/>
<text text-anchor="middle" x="4733.31" y="-76.0676" font-family="Times,serif" font-size="14.00">TX</text>
</g>
<!-- n4 -->
<g id="node3" class="node"><title>n4</title>
<polygon fill="none" stroke="black" points="54,-352.312 54,-367.223 38.1838,-377.768 15.8162,-377.768 3.55271e-15,-367.223 0,-352.312 15.8162,-341.768 38.1838,-341.768 54,-352.312"/>
<text text-anchor="middle" x="27" y="-356.068" font-family="Times,serif" font-size="14.00">clk</text>
</g>
<!-- c42 -->
<g id="node36" class="node"><title>c42</title>
<polygon fill="none" stroke="black" points="311.5,-226.768 311.5,-272.768 431.5,-272.768 431.5,-226.768 311.5,-226.768"/>
<text text-anchor="middle" x="333.5" y="-257.568" font-family="Times,serif" font-size="14.00">CLK</text>
<polyline fill="none" stroke="black" points="311.5,-249.768 355.5,-249.768 "/>
<text text-anchor="middle" x="333.5" y="-234.568" font-family="Times,serif" font-size="14.00">D</text>
<polyline fill="none" stroke="black" points="355.5,-226.768 355.5,-272.768 "/>
<text text-anchor="middle" x="380.5" y="-253.568" font-family="Times,serif" font-size="14.00">$1478</text>
<text text-anchor="middle" x="380.5" y="-238.568" font-family="Times,serif" font-size="14.00">$dff</text>
<polyline fill="none" stroke="black" points="405.5,-226.768 405.5,-272.768 "/>
<text text-anchor="middle" x="418.5" y="-246.068" font-family="Times,serif" font-size="14.00">Q</text>
</g>
<!-- n4&#45;&gt;c42 -->
<g id="edge55" class="edge"><title>n4:e&#45;&gt;c42:p39:w</title>
<path fill="none" stroke="#e6ab02" d="M54,-359.768C71.1673,-359.768 73.9786,-351.934 90,-345.768 184.621,-309.347 204.362,-264.835 300.336,-261.919"/>
<polygon fill="#e6ab02" stroke="#e6ab02" points="300.553,-265.416 310.5,-261.768 300.449,-258.417 300.553,-265.416"/>
</g>
<!-- c45 -->
<g id="node41" class="node"><title>c45</title>
<polygon fill="none" stroke="black" points="1830.79,-358.268 1830.79,-565.268 2450.79,-565.268 2450.79,-358.268 1830.79,-358.268"/>
<text text-anchor="middle" x="1898.29" y="-550.068" font-family="Times,serif" font-size="14.00">clk</text>
<polyline fill="none" stroke="black" points="1830.79,-542.268 1965.79,-542.268 "/>
<text text-anchor="middle" x="1898.29" y="-527.068" font-family="Times,serif" font-size="14.00">cpu_debug</text>
<polyline fill="none" stroke="black" points="1830.79,-519.268 1965.79,-519.268 "/>
<text text-anchor="middle" x="1898.29" y="-504.068" font-family="Times,serif" font-size="14.00">cpu_dmp_chip_select</text>
<polyline fill="none" stroke="black" points="1830.79,-496.268 1965.79,-496.268 "/>
<text text-anchor="middle" x="1898.29" y="-481.068" font-family="Times,serif" font-size="14.00">cpu_dmp_fifo_pos</text>
<polyline fill="none" stroke="black" points="1830.79,-473.268 1965.79,-473.268 "/>
<text text-anchor="middle" x="1898.29" y="-458.068" font-family="Times,serif" font-size="14.00">cpu_in_data</text>
<polyline fill="none" stroke="black" points="1830.79,-450.268 1965.79,-450.268 "/>
<text text-anchor="middle" x="1898.29" y="-435.068" font-family="Times,serif" font-size="14.00">cpu_in_wr</text>
<polyline fill="none" stroke="black" points="1830.79,-427.268 1965.79,-427.268 "/>
<text text-anchor="middle" x="1898.29" y="-412.068" font-family="Times,serif" font-size="14.00">cpu_nxtInstr</text>
<polyline fill="none" stroke="black" points="1830.79,-404.268 1965.79,-404.268 "/>
<text text-anchor="middle" x="1898.29" y="-389.068" font-family="Times,serif" font-size="14.00">cpu_out_rd</text>
<polyline fill="none" stroke="black" points="1830.79,-381.268 1965.79,-381.268 "/>
<text text-anchor="middle" x="1898.29" y="-366.068" font-family="Times,serif" font-size="14.00">i_rst</text>
<polyline fill="none" stroke="black" points="1965.79,-358.268 1965.79,-565.268 "/>
<text text-anchor="middle" x="2157.79" y="-465.568" font-family="Times,serif" font-size="14.00">CPU</text>
<text text-anchor="middle" x="2157.79" y="-450.568" font-family="Times,serif" font-size="14.00">$paramod$daa2d41268716cc2bd819c2c257642e245bf905f\hrmcpu</text>
<polyline fill="none" stroke="black" points="2349.79,-358.268 2349.79,-565.268 "/>
<text text-anchor="middle" x="2400.29" y="-544.568" font-family="Times,serif" font-size="14.00">cpu_dmp_data</text>
<polyline fill="none" stroke="black" points="2349.79,-531.268 2450.79,-531.268 "/>
<text text-anchor="middle" x="2400.29" y="-510.068" font-family="Times,serif" font-size="14.00">cpu_dmp_valid</text>
<polyline fill="none" stroke="black" points="2349.79,-496.268 2450.79,-496.268 "/>
<text text-anchor="middle" x="2400.29" y="-475.568" font-family="Times,serif" font-size="14.00">cpu_in_full</text>
<polyline fill="none" stroke="black" points="2349.79,-462.268 2450.79,-462.268 "/>
<text text-anchor="middle" x="2400.29" y="-441.068" font-family="Times,serif" font-size="14.00">cpu_o_leds</text>
<polyline fill="none" stroke="black" points="2349.79,-427.268 2450.79,-427.268 "/>
<text text-anchor="middle" x="2400.29" y="-406.568" font-family="Times,serif" font-size="14.00">cpu_out_data</text>
<polyline fill="none" stroke="black" points="2349.79,-393.268 2450.79,-393.268 "/>
<text text-anchor="middle" x="2400.29" y="-372.068" font-family="Times,serif" font-size="14.00">cpu_out_empty</text>
</g>
<!-- n4&#45;&gt;c45 -->
<g id="edge56" class="edge"><title>n4:e&#45;&gt;c45:p4:w</title>
<path fill="none" stroke="#e6ab02" d="M54,-359.768C121.264,-359.768 41.5289,-460.131 90,-506.768 310.72,-719.136 458.913,-644.768 765.209,-644.768 765.209,-644.768 765.209,-644.768 1448.62,-644.768 1602.71,-644.768 1665.99,-710.338 1794.79,-625.768 1821.31,-608.356 1800.98,-565.211 1820.97,-555.66"/>
<polygon fill="#e6ab02" stroke="#e6ab02" points="1821.64,-559.096 1830.79,-553.768 1820.31,-552.223 1821.64,-559.096"/>
</g>
<!-- n4&#45;&gt;c50 -->
<g id="edge57" class="edge"><title>n4:e&#45;&gt;c50:p46:w</title>
<path fill="none" stroke="#e6ab02" d="M54,-359.768C108.772,-359.768 41.5168,-470.46 80.0823,-485.162"/>
<polygon fill="#e6ab02" stroke="#e6ab02" points="79.5691,-488.624 90,-486.768 80.688,-481.714 79.5691,-488.624"/>
</g>
<!-- c55 -->
<g id="node43" class="node"><title>c55</title>
<polygon fill="none" stroke="black" points="2708.46,-146.268 2708.46,-215.268 3269.46,-215.268 3269.46,-146.268 2708.46,-146.268"/>
<text text-anchor="middle" x="2733.46" y="-200.068" font-family="Times,serif" font-size="14.00">i_clk</text>
<polyline fill="none" stroke="black" points="2708.46,-192.268 2758.46,-192.268 "/>
<text text-anchor="middle" x="2733.46" y="-177.068" font-family="Times,serif" font-size="14.00">i_data</text>
<polyline fill="none" stroke="black" points="2708.46,-169.268 2758.46,-169.268 "/>
<text text-anchor="middle" x="2733.46" y="-154.068" font-family="Times,serif" font-size="14.00">i_wr</text>
<polyline fill="none" stroke="black" points="2758.46,-146.268 2758.46,-215.268 "/>
<text text-anchor="middle" x="2979.96" y="-184.568" font-family="Times,serif" font-size="14.00">tx</text>
<text text-anchor="middle" x="2979.96" y="-169.568" font-family="Times,serif" font-size="14.00">$paramod\txuartlite\CLOCKS_PER_BAUD=24&#39;000000000000000001101000</text>
<polyline fill="none" stroke="black" points="3201.46,-146.268 3201.46,-215.268 "/>
<text text-anchor="middle" x="3235.46" y="-194.568" font-family="Times,serif" font-size="14.00">o_busy</text>
<polyline fill="none" stroke="black" points="3201.46,-181.268 3269.46,-181.268 "/>
<text text-anchor="middle" x="3235.46" y="-160.068" font-family="Times,serif" font-size="14.00">o_uart_tx</text>
</g>
<!-- n4&#45;&gt;c55 -->
<g id="edge58" class="edge"><title>n4:e&#45;&gt;c55:p46:w</title>
<path fill="none" stroke="#e6ab02" d="M54,-359.768C119.539,-359.768 42.3364,-261.751 90,-216.768 312.193,-7.06977 459.688,-87.7676 765.209,-87.7676 765.209,-87.7676 765.209,-87.7676 2141.79,-87.7676 2379.63,-87.7676 2471.89,-28.9522 2672.46,-156.768 2691.19,-168.699 2685.21,-193.956 2698.69,-201.558"/>
<polygon fill="#e6ab02" stroke="#e6ab02" points="2697.94,-204.975 2708.46,-203.768 2699.48,-198.148 2697.94,-204.975"/>
</g>
<!-- c59 -->
<g id="node44" class="node"><title>c59</title>
<polygon fill="none" stroke="black" points="3920.84,-232.268 3920.84,-301.268 4149.84,-301.268 4149.84,-232.268 3920.84,-232.268"/>
<text text-anchor="middle" x="3958.34" y="-286.068" font-family="Times,serif" font-size="14.00">clk</text>
<polyline fill="none" stroke="black" points="3920.84,-278.268 3995.84,-278.268 "/>
<text text-anchor="middle" x="3958.34" y="-263.068" font-family="Times,serif" font-size="14.00">i_busy_n</text>
<polyline fill="none" stroke="black" points="3920.84,-255.268 3995.84,-255.268 "/>
<text text-anchor="middle" x="3958.34" y="-240.068" font-family="Times,serif" font-size="14.00">i_empty_n</text>
<polyline fill="none" stroke="black" points="3995.84,-232.268 3995.84,-301.268 "/>
<text text-anchor="middle" x="4029.84" y="-270.568" font-family="Times,serif" font-size="14.00">txctl</text>
<text text-anchor="middle" x="4029.84" y="-255.568" font-family="Times,serif" font-size="14.00">out2txCtl</text>
<polyline fill="none" stroke="black" points="4063.84,-232.268 4063.84,-301.268 "/>
<text text-anchor="middle" x="4106.84" y="-263.068" font-family="Times,serif" font-size="14.00">o_pop_value</text>
</g>
<!-- n4&#45;&gt;c59 -->
<g id="edge59" class="edge"><title>n4:e&#45;&gt;c59:p4:w</title>
<path fill="none" stroke="#e6ab02" d="M54,-359.768C490.391,-359.768 599.385,-349.151 1035.68,-339.768 1526.41,-329.213 1648.95,-314.768 2139.79,-314.768 2139.79,-314.768 2139.79,-314.768 3574.09,-314.768 3712.52,-314.768 3746.96,-306.08 3884.84,-293.768 3896.86,-292.694 3902.05,-290.981 3910.68,-290.191"/>
<polygon fill="#e6ab02" stroke="#e6ab02" points="3910.99,-293.681 3920.84,-289.768 3910.7,-286.687 3910.99,-293.681"/>
</g>
<!-- n5 -->
<g id="node4" class="node"><title>n5</title>
<polygon fill="none" stroke="black" points="957.547,-762.768 887.835,-744.768 957.547,-726.768 1027.26,-744.768 957.547,-762.768"/>
<text text-anchor="middle" x="957.547" y="-741.068" font-family="Times,serif" font-size="14.00">cpu_debug</text>
</g>
<!-- n6 -->
<g id="node5" class="node"><title>n6</title>
<polygon fill="none" stroke="black" points="1670.71,-562.768 1546.53,-544.768 1670.71,-526.768 1794.88,-544.768 1670.71,-562.768"/>
<text text-anchor="middle" x="1670.71" y="-541.068" font-family="Times,serif" font-size="14.00">cpu_dmp_chip_select</text>
</g>
<!-- n6&#45;&gt;c45 -->
<g id="edge61" class="edge"><title>n6:e&#45;&gt;c45:p6:w</title>
<path fill="none" stroke="#d95f02" stroke-width="3" d="M1794.79,-544.768C1813.61,-544.768 1810.34,-519.87 1821.22,-510.922"/>
<polygon fill="#d95f02" stroke="#d95f02" stroke-width="3" points="1822.39,-514.223 1830.79,-507.768 1820.2,-507.575 1822.39,-514.223"/>
</g>
<!-- n7 -->
<g id="node6" class="node"><title>n7</title>
<polygon fill="none" stroke="black" points="2579.63,-616.768 2490.31,-598.768 2579.63,-580.768 2668.94,-598.768 2579.63,-616.768"/>
<text text-anchor="middle" x="2579.63" y="-595.068" font-family="Times,serif" font-size="14.00">cpu_dmp_data</text>
</g>
<!-- n8 -->
<g id="node7" class="node"><title>n8</title>
<polygon fill="none" stroke="black" points="1670.71,-508.768 1561.45,-490.768 1670.71,-472.768 1779.97,-490.768 1670.71,-508.768"/>
<text text-anchor="middle" x="1670.71" y="-487.068" font-family="Times,serif" font-size="14.00">cpu_dmp_fifo_pos</text>
</g>
<!-- n8&#45;&gt;c45 -->
<g id="edge63" class="edge"><title>n8:e&#45;&gt;c45:p8:w</title>
<path fill="none" stroke="#e6ab02" stroke-width="3" d="M1780.71,-490.768C1799.27,-490.768 1806.06,-486.653 1820.58,-485.238"/>
<polygon fill="#e6ab02" stroke="#e6ab02" stroke-width="3" points="1820.97,-488.725 1830.79,-484.768 1820.64,-481.732 1820.97,-488.725"/>
</g>
<!-- n9 -->
<g id="node8" class="node"><title>n9</title>
<polygon fill="none" stroke="black" points="2579.63,-562.768 2486.96,-544.768 2579.63,-526.768 2672.3,-544.768 2579.63,-562.768"/>
<text text-anchor="middle" x="2579.63" y="-541.068" font-family="Times,serif" font-size="14.00">cpu_dmp_valid</text>
</g>
<!-- n10 -->
<g id="node9" class="node"><title>n10</title>
<polygon fill="none" stroke="black" points="1670.71,-279.768 1609.04,-261.768 1670.71,-243.768 1732.37,-261.768 1670.71,-279.768"/>
<text text-anchor="middle" x="1670.71" y="-258.068" font-family="Times,serif" font-size="14.00">cpu_i_rst</text>
</g>
<!-- x0 -->
<g id="node32" class="node"><title>x0</title>
<path fill="none" stroke="black" d="M2121.29,-154.768C2121.29,-154.768 2160.29,-154.768 2160.29,-154.768 2166.29,-154.768 2172.29,-160.768 2172.29,-166.768 2172.29,-166.768 2172.29,-188.768 2172.29,-188.768 2172.29,-194.768 2166.29,-200.768 2160.29,-200.768 2160.29,-200.768 2121.29,-200.768 2121.29,-200.768 2115.29,-200.768 2109.29,-194.768 2109.29,-188.768 2109.29,-188.768 2109.29,-166.768 2109.29,-166.768 2109.29,-160.768 2115.29,-154.768 2121.29,-154.768"/>
<text text-anchor="middle" x="2140.79" y="-185.568" font-family="Times,serif" font-size="14.00">0 &#45;&gt; 5:1</text>
<polyline fill="none" stroke="black" points="2109.29,-177.768 2172.29,-177.768 "/>
<text text-anchor="middle" x="2140.79" y="-162.568" font-family="Times,serif" font-size="14.00">0:0 &#45; 0:0</text>
</g>
<!-- n10&#45;&gt;x0 -->
<g id="edge6" class="edge"><title>n10:e&#45;&gt;x0:s0:w</title>
<path fill="none" stroke="#7570b3" d="M1733.71,-261.768C1901.83,-261.768 1934.82,-169.665 2097.41,-165.887"/>
<polygon fill="#7570b3" stroke="#7570b3" points="2097.83,-169.382 2107.79,-165.768 2097.75,-162.383 2097.83,-169.382"/>
</g>
<!-- n10&#45;&gt;c45 -->
<g id="edge5" class="edge"><title>n10:e&#45;&gt;c45:p44:w</title>
<path fill="none" stroke="#7570b3" d="M1733.71,-261.768C1747.7,-261.768 1798.3,-342.985 1822.02,-364.559"/>
<polygon fill="#7570b3" stroke="#7570b3" points="1820.41,-367.674 1830.79,-369.768 1823.98,-361.654 1820.41,-367.674"/>
</g>
<!-- n11 -->
<g id="node10" class="node"><title>n11</title>
<polygon fill="none" stroke="black" points="766.209,-519.768 690.129,-501.768 766.209,-483.768 842.29,-501.768 766.209,-519.768"/>
<text text-anchor="middle" x="766.209" y="-498.068" font-family="Times,serif" font-size="14.00">cpu_in_data</text>
</g>
<!-- n11&#45;&gt;c45 -->
<g id="edge8" class="edge"><title>n11:e&#45;&gt;c45:p11:w</title>
<path fill="none" stroke="#e7298a" stroke-width="3" d="M843.209,-501.768C1156.29,-501.768 1233.68,-473.316 1546.62,-463.768 1669.41,-460.021 1702.69,-461.671 1820.64,-461.764"/>
<polygon fill="#e7298a" stroke="#e7298a" stroke-width="3" points="1820.79,-465.264 1830.79,-461.768 1820.79,-458.264 1820.79,-465.264"/>
</g>
<!-- x11 -->
<g id="node52" class="node"><title>x11</title>
<path fill="none" stroke="black" d="M972.547,-561.768C972.547,-561.768 942.547,-561.768 942.547,-561.768 936.547,-561.768 930.547,-555.768 930.547,-549.768 930.547,-549.768 930.547,-537.768 930.547,-537.768 930.547,-531.768 936.547,-525.768 942.547,-525.768 942.547,-525.768 972.547,-525.768 972.547,-525.768 978.547,-525.768 984.547,-531.768 984.547,-537.768 984.547,-537.768 984.547,-549.768 984.547,-549.768 984.547,-555.768 978.547,-561.768 972.547,-561.768"/>
<text text-anchor="middle" x="957.547" y="-540.068" font-family="Times,serif" font-size="14.00">BUF</text>
</g>
<!-- n11&#45;&gt;x11 -->
<g id="edge9" class="edge"><title>n11:e&#45;&gt;x11:w:w</title>
<path fill="none" stroke="#e7298a" stroke-width="3" d="M843.209,-501.768C882.214,-501.768 886.396,-536.859 919.416,-542.89"/>
<polygon fill="#e7298a" stroke="#e7298a" stroke-width="3" points="919.282,-546.392 929.547,-543.768 919.886,-539.418 919.282,-546.392"/>
</g>
<!-- n12 -->
<g id="node11" class="node"><title>n12</title>
<polygon fill="none" stroke="black" points="2579.63,-508.768 2506.9,-490.768 2579.63,-472.768 2652.36,-490.768 2579.63,-508.768"/>
<text text-anchor="middle" x="2579.63" y="-487.068" font-family="Times,serif" font-size="14.00">cpu_in_full</text>
</g>
<!-- n13 -->
<g id="node12" class="node"><title>n13</title>
<polygon fill="none" stroke="black" points="766.209,-465.768 698.174,-447.768 766.209,-429.768 834.244,-447.768 766.209,-465.768"/>
<text text-anchor="middle" x="766.209" y="-444.068" font-family="Times,serif" font-size="14.00">cpu_in_wr</text>
</g>
<!-- n13&#45;&gt;c45 -->
<g id="edge12" class="edge"><title>n13:e&#45;&gt;c45:p13:w</title>
<path fill="none" stroke="#7570b3" d="M835.209,-447.768C857.358,-447.768 858.11,-430.81 879.418,-424.768 990.997,-393.13 1023.7,-405.768 1139.68,-405.768 1139.68,-405.768 1139.68,-405.768 1298.15,-405.768 1519.16,-405.768 1575.78,-401.135 1794.79,-430.768 1807.1,-432.433 1812.02,-436.168 1820.81,-437.88"/>
<polygon fill="#7570b3" stroke="#7570b3" points="1820.52,-441.369 1830.79,-438.768 1821.14,-434.396 1820.52,-441.369"/>
</g>
<!-- x12 -->
<g id="node53" class="node"><title>x12</title>
<path fill="none" stroke="black" d="M972.547,-469.768C972.547,-469.768 942.547,-469.768 942.547,-469.768 936.547,-469.768 930.547,-463.768 930.547,-457.768 930.547,-457.768 930.547,-445.768 930.547,-445.768 930.547,-439.768 936.547,-433.768 942.547,-433.768 942.547,-433.768 972.547,-433.768 972.547,-433.768 978.547,-433.768 984.547,-439.768 984.547,-445.768 984.547,-445.768 984.547,-457.768 984.547,-457.768 984.547,-463.768 978.547,-469.768 972.547,-469.768"/>
<text text-anchor="middle" x="957.547" y="-448.068" font-family="Times,serif" font-size="14.00">BUF</text>
</g>
<!-- n13&#45;&gt;x12 -->
<g id="edge13" class="edge"><title>n13:e&#45;&gt;x12:w:w</title>
<path fill="none" stroke="#7570b3" d="M835.209,-447.768C873.568,-447.768 885.56,-451.11 919.387,-451.684"/>
<polygon fill="#7570b3" stroke="#7570b3" points="919.518,-455.185 929.547,-451.768 919.576,-448.185 919.518,-455.185"/>
</g>
<!-- n14 -->
<g id="node13" class="node"><title>n14</title>
<polygon fill="none" stroke="black" points="957.547,-816.768 879.29,-798.768 957.547,-780.768 1035.8,-798.768 957.547,-816.768"/>
<text text-anchor="middle" x="957.547" y="-795.068" font-family="Times,serif" font-size="14.00">cpu_nxtInstr</text>
</g>
<!-- n15 -->
<g id="node14" class="node"><title>n15</title>
<polygon fill="none" stroke="black" points="3795.68,-462.768 3723.79,-444.768 3795.68,-426.768 3867.57,-444.768 3795.68,-462.768"/>
<text text-anchor="middle" x="3795.68" y="-441.068" font-family="Times,serif" font-size="14.00">cpu_o_leds</text>
</g>
<!-- x9 -->
<g id="node50" class="node"><title>x9</title>
<path fill="none" stroke="black" d="M4050.34,-462.768C4050.34,-462.768 4020.34,-462.768 4020.34,-462.768 4014.34,-462.768 4008.34,-456.768 4008.34,-450.768 4008.34,-450.768 4008.34,-438.768 4008.34,-438.768 4008.34,-432.768 4014.34,-426.768 4020.34,-426.768 4020.34,-426.768 4050.34,-426.768 4050.34,-426.768 4056.34,-426.768 4062.34,-432.768 4062.34,-438.768 4062.34,-438.768 4062.34,-450.768 4062.34,-450.768 4062.34,-456.768 4056.34,-462.768 4050.34,-462.768"/>
<text text-anchor="middle" x="4035.34" y="-441.068" font-family="Times,serif" font-size="14.00">BUF</text>
</g>
<!-- n15&#45;&gt;x9 -->
<g id="edge16" class="edge"><title>n15:e&#45;&gt;x9:w:w</title>
<path fill="none" stroke="#1b9e77" stroke-width="3" d="M3868.68,-444.768C3926.81,-444.768 3943.82,-444.768 3997.29,-444.768"/>
<polygon fill="#1b9e77" stroke="#1b9e77" stroke-width="3" points="3997.34,-448.268 4007.34,-444.768 3997.34,-441.268 3997.34,-448.268"/>
</g>
<!-- n16 -->
<g id="node15" class="node"><title>n16</title>
<polygon fill="none" stroke="black" points="2579.63,-416.768 2498.02,-398.768 2579.63,-380.768 2661.24,-398.768 2579.63,-416.768"/>
<text text-anchor="middle" x="2579.63" y="-395.068" font-family="Times,serif" font-size="14.00">cpu_out_data</text>
</g>
<!-- n16&#45;&gt;c55 -->
<g id="edge18" class="edge"><title>n16:e&#45;&gt;c55:p51:w</title>
<path fill="none" stroke="#1b9e77" stroke-width="3" d="M2662.63,-398.768C2757.96,-398.768 2620.4,-196.647 2698.45,-181.646"/>
<polygon fill="#1b9e77" stroke="#1b9e77" stroke-width="3" points="2698.81,-185.128 2708.46,-180.768 2698.2,-178.155 2698.81,-185.128"/>
</g>
<!-- x13 -->
<g id="node54" class="node"><title>x13</title>
<path fill="none" stroke="black" d="M3003.96,-416.768C3003.96,-416.768 2973.96,-416.768 2973.96,-416.768 2967.96,-416.768 2961.96,-410.768 2961.96,-404.768 2961.96,-404.768 2961.96,-392.768 2961.96,-392.768 2961.96,-386.768 2967.96,-380.768 2973.96,-380.768 2973.96,-380.768 3003.96,-380.768 3003.96,-380.768 3009.96,-380.768 3015.96,-386.768 3015.96,-392.768 3015.96,-392.768 3015.96,-404.768 3015.96,-404.768 3015.96,-410.768 3009.96,-416.768 3003.96,-416.768"/>
<text text-anchor="middle" x="2988.96" y="-395.068" font-family="Times,serif" font-size="14.00">BUF</text>
</g>
<!-- n16&#45;&gt;x13 -->
<g id="edge19" class="edge"><title>n16:e&#45;&gt;x13:w:w</title>
<path fill="none" stroke="#1b9e77" stroke-width="3" d="M2662.63,-398.768C2791.73,-398.768 2826.55,-398.768 2950.68,-398.768"/>
<polygon fill="#1b9e77" stroke="#1b9e77" stroke-width="3" points="2950.96,-402.268 2960.96,-398.768 2950.96,-395.268 2950.96,-402.268"/>
</g>
<!-- n17 -->
<g id="node16" class="node"><title>n17</title>
<polygon fill="none" stroke="black" points="2988.96,-278.768 2896.29,-260.768 2988.96,-242.768 3081.63,-260.768 2988.96,-278.768"/>
<text text-anchor="middle" x="2988.96" y="-257.068" font-family="Times,serif" font-size="14.00">cpu_out_empty</text>
</g>
<!-- c37 -->
<g id="node34" class="node"><title>c37</title>
<polygon fill="none" stroke="black" points="3326.06,-192.768 3326.06,-230.768 3419.06,-230.768 3419.06,-192.768 3326.06,-192.768"/>
<text text-anchor="middle" x="3339.06" y="-208.068" font-family="Times,serif" font-size="14.00">A</text>
<polyline fill="none" stroke="black" points="3352.06,-192.768 3352.06,-230.768 "/>
<text text-anchor="middle" x="3372.56" y="-215.568" font-family="Times,serif" font-size="14.00">$6</text>
<text text-anchor="middle" x="3372.56" y="-200.568" font-family="Times,serif" font-size="14.00">$not</text>
<polyline fill="none" stroke="black" points="3393.06,-192.768 3393.06,-230.768 "/>
<text text-anchor="middle" x="3406.06" y="-208.068" font-family="Times,serif" font-size="14.00">Y</text>
</g>
<!-- n17&#45;&gt;c37 -->
<g id="edge21" class="edge"><title>n17:e&#45;&gt;c37:p32:w</title>
<path fill="none" stroke="#e6ab02" d="M3082.96,-260.768C3167.38,-260.768 3186.92,-242.464 3269.46,-224.768 3290.41,-220.276 3297.39,-214.007 3314.54,-212.245"/>
<polygon fill="#e6ab02" stroke="#e6ab02" points="3314.74,-215.74 3324.56,-211.768 3314.41,-208.747 3314.74,-215.74"/>
</g>
<!-- n18 -->
<g id="node17" class="node"><title>n18</title>
<polygon fill="none" stroke="black" points="4257.53,-284.768 4185.64,-266.768 4257.53,-248.768 4329.42,-266.768 4257.53,-284.768"/>
<text text-anchor="middle" x="4257.53" y="-263.068" font-family="Times,serif" font-size="14.00">cpu_out_rd</text>
</g>
<!-- n18&#45;&gt;c45 -->
<g id="edge23" class="edge"><title>n18:e&#45;&gt;c45:p18:w</title>
<path fill="none" stroke="#e6ab02" d="M4330.53,-266.768C4338.54,-266.768 4334.94,-278.858 4329.53,-284.768 4275.04,-344.288 4229.84,-300.224 4149.84,-310.768 3993.13,-331.42 3954.74,-352.768 3796.68,-352.768 2987.96,-352.768 2987.96,-352.768 2987.96,-352.768 2923.68,-352.768 1876.8,-312.864 1830.79,-357.768 1822.88,-365.495 1817.85,-379.925 1821.19,-387.622"/>
<polygon fill="#e6ab02" stroke="#e6ab02" points="1819.41,-390.638 1829.79,-392.768 1823.01,-384.631 1819.41,-390.638"/>
</g>
<!-- n18&#45;&gt;c55 -->
<g id="edge24" class="edge"><title>n18:e&#45;&gt;c55:p52:w</title>
<path fill="none" stroke="#e6ab02" d="M4330.53,-266.768C4347.07,-266.768 4337.73,-372.212 4185.84,-284.768 4158.22,-268.87 4175.08,-242.213 4149.84,-222.768 4020.89,-123.434 3959.45,-125.768 3796.68,-125.768 3572.09,-125.768 3572.09,-125.768 3572.09,-125.768 3187.93,-125.768 2987.63,117.604 2707.96,-145.768 2707.35,-146.341 2706.78,-147.028 2706.27,-147.779"/>
<polygon fill="#e6ab02" stroke="#e6ab02" points="2702.78,-148.035 2706.96,-157.768 2709.76,-147.548 2702.78,-148.035"/>
</g>
<!-- x14 -->
<g id="node55" class="node"><title>x14</title>
<path fill="none" stroke="black" d="M4407.23,-311.768C4407.23,-311.768 4377.23,-311.768 4377.23,-311.768 4371.23,-311.768 4365.23,-305.768 4365.23,-299.768 4365.23,-299.768 4365.23,-287.768 4365.23,-287.768 4365.23,-281.768 4371.23,-275.768 4377.23,-275.768 4377.23,-275.768 4407.23,-275.768 4407.23,-275.768 4413.23,-275.768 4419.23,-281.768 4419.23,-287.768 4419.23,-287.768 4419.23,-299.768 4419.23,-299.768 4419.23,-305.768 4413.23,-311.768 4407.23,-311.768"/>
<text text-anchor="middle" x="4392.23" y="-290.068" font-family="Times,serif" font-size="14.00">BUF</text>
</g>
<!-- n18&#45;&gt;x14 -->
<g id="edge25" class="edge"><title>n18:e&#45;&gt;x14:w:w</title>
<path fill="none" stroke="#e6ab02" d="M4329.23,-266.768C4345.16,-266.768 4345.86,-283.913 4355.61,-290.878"/>
<polygon fill="#e6ab02" stroke="#e6ab02" points="4354.64,-294.243 4365.23,-293.768 4356.66,-287.539 4354.64,-294.243"/>
</g>
<!-- x15 -->
<g id="node56" class="node"><title>x15</title>
<path fill="none" stroke="black" d="M4407.23,-257.768C4407.23,-257.768 4377.23,-257.768 4377.23,-257.768 4371.23,-257.768 4365.23,-251.768 4365.23,-245.768 4365.23,-245.768 4365.23,-233.768 4365.23,-233.768 4365.23,-227.768 4371.23,-221.768 4377.23,-221.768 4377.23,-221.768 4407.23,-221.768 4407.23,-221.768 4413.23,-221.768 4419.23,-227.768 4419.23,-233.768 4419.23,-233.768 4419.23,-245.768 4419.23,-245.768 4419.23,-251.768 4413.23,-257.768 4407.23,-257.768"/>
<text text-anchor="middle" x="4392.23" y="-236.068" font-family="Times,serif" font-size="14.00">BUF</text>
</g>
<!-- n18&#45;&gt;x15 -->
<g id="edge26" class="edge"><title>n18:e&#45;&gt;x15:w:w</title>
<path fill="none" stroke="#e6ab02" d="M4329.23,-266.768C4345.16,-266.768 4345.86,-249.622 4355.61,-242.657"/>
<polygon fill="#e6ab02" stroke="#e6ab02" points="4356.66,-245.997 4365.23,-239.768 4354.64,-239.293 4356.66,-245.997"/>
</g>
<!-- n19 -->
<g id="node18" class="node"><title>n19</title>
<polygon fill="none" stroke="black" points="4760.31,-437.312 4760.31,-452.223 4744.49,-462.768 4722.13,-462.768 4706.31,-452.223 4706.31,-437.312 4722.13,-426.768 4744.49,-426.768 4760.31,-437.312"/>
<text text-anchor="middle" x="4733.31" y="-441.068" font-family="Times,serif" font-size="14.00">leds</text>
</g>
<!-- n20 -->
<g id="node19" class="node"><title>n20</title>
<polygon fill="none" stroke="black" points="1297.15,-279.768 1245.7,-261.768 1297.15,-243.768 1348.59,-261.768 1297.15,-279.768"/>
<text text-anchor="middle" x="1297.15" y="-258.068" font-family="Times,serif" font-size="14.00">reset_n</text>
</g>
<!-- c36 -->
<g id="node33" class="node"><title>c36</title>
<polygon fill="none" stroke="black" points="1384.62,-242.768 1384.62,-280.768 1510.62,-280.768 1510.62,-242.768 1384.62,-242.768"/>
<text text-anchor="middle" x="1397.62" y="-258.068" font-family="Times,serif" font-size="14.00">A</text>
<polyline fill="none" stroke="black" points="1410.62,-242.768 1410.62,-280.768 "/>
<text text-anchor="middle" x="1447.62" y="-265.568" font-family="Times,serif" font-size="14.00">$3</text>
<text text-anchor="middle" x="1447.62" y="-250.568" font-family="Times,serif" font-size="14.00">$logic_not</text>
<polyline fill="none" stroke="black" points="1484.62,-242.768 1484.62,-280.768 "/>
<text text-anchor="middle" x="1497.62" y="-258.068" font-family="Times,serif" font-size="14.00">Y</text>
</g>
<!-- n20&#45;&gt;c36 -->
<g id="edge31" class="edge"><title>n20:e&#45;&gt;c36:p32:w</title>
<path fill="none" stroke="#d95f02" d="M1348.62,-261.768C1360.62,-261.768 1365.87,-261.768 1374.5,-261.768"/>
<polygon fill="#d95f02" stroke="#d95f02" points="1374.62,-265.268 1384.62,-261.768 1374.62,-258.268 1374.62,-265.268"/>
</g>
<!-- n21 -->
<g id="node20" class="node"><title>n21</title>
<polygon fill="none" stroke="black" points="766.209,-267.768 705.38,-249.768 766.209,-231.768 827.038,-249.768 766.209,-267.768"/>
<text text-anchor="middle" x="766.209" y="-246.068" font-family="Times,serif" font-size="14.00">reset_reg</text>
</g>
<!-- c35 -->
<g id="node31" class="node"><title>c35</title>
<polygon fill="none" stroke="black" points="2532.13,-166.768 2532.13,-212.768 2627.13,-212.768 2627.13,-166.768 2532.13,-166.768"/>
<text text-anchor="middle" x="2545.13" y="-197.568" font-family="Times,serif" font-size="14.00">A</text>
<polyline fill="none" stroke="black" points="2532.13,-189.768 2558.13,-189.768 "/>
<text text-anchor="middle" x="2545.13" y="-174.568" font-family="Times,serif" font-size="14.00">B</text>
<polyline fill="none" stroke="black" points="2558.13,-166.768 2558.13,-212.768 "/>
<text text-anchor="middle" x="2579.63" y="-193.568" font-family="Times,serif" font-size="14.00">$4</text>
<text text-anchor="middle" x="2579.63" y="-178.568" font-family="Times,serif" font-size="14.00">$add</text>
<polyline fill="none" stroke="black" points="2601.13,-166.768 2601.13,-212.768 "/>
<text text-anchor="middle" x="2614.13" y="-186.068" font-family="Times,serif" font-size="14.00">Y</text>
</g>
<!-- n21&#45;&gt;c35 -->
<g id="edge33" class="edge"><title>n21:e&#45;&gt;c35:p32:w</title>
<path fill="none" stroke="#1b9e77" d="M828.209,-249.768C865.689,-249.768 845.82,-199.376 879.418,-182.768 941.675,-151.993 966.238,-181.589 1035.68,-182.768 1664.64,-193.443 1822.52,-241.168 2450.79,-209.768 2482.79,-208.168 2492.95,-202.985 2520.54,-201.949"/>
<polygon fill="#1b9e77" stroke="#1b9e77" points="2520.69,-205.447 2530.63,-201.768 2520.57,-198.448 2520.69,-205.447"/>
</g>
<!-- x1 -->
<g id="node38" class="node"><title>x1</title>
<path fill="none" stroke="black" d="M938.047,-192.768C938.047,-192.768 977.047,-192.768 977.047,-192.768 983.047,-192.768 989.047,-198.768 989.047,-204.768 989.047,-204.768 989.047,-318.768 989.047,-318.768 989.047,-324.768 983.047,-330.768 977.047,-330.768 977.047,-330.768 938.047,-330.768 938.047,-330.768 932.047,-330.768 926.047,-324.768 926.047,-318.768 926.047,-318.768 926.047,-204.768 926.047,-204.768 926.047,-198.768 932.047,-192.768 938.047,-192.768"/>
<text text-anchor="middle" x="957.547" y="-315.568" font-family="Times,serif" font-size="14.00">0:0 &#45; 5:5</text>
<polyline fill="none" stroke="black" points="926.047,-307.768 989.047,-307.768 "/>
<text text-anchor="middle" x="957.547" y="-292.568" font-family="Times,serif" font-size="14.00">1:1 &#45; 4:4</text>
<polyline fill="none" stroke="black" points="926.047,-284.768 989.047,-284.768 "/>
<text text-anchor="middle" x="957.547" y="-269.568" font-family="Times,serif" font-size="14.00">2:2 &#45; 3:3</text>
<polyline fill="none" stroke="black" points="926.047,-261.768 989.047,-261.768 "/>
<text text-anchor="middle" x="957.547" y="-246.568" font-family="Times,serif" font-size="14.00">3:3 &#45; 2:2</text>
<polyline fill="none" stroke="black" points="926.047,-238.768 989.047,-238.768 "/>
<text text-anchor="middle" x="957.547" y="-223.568" font-family="Times,serif" font-size="14.00">4:4 &#45; 1:1</text>
<polyline fill="none" stroke="black" points="926.047,-215.768 989.047,-215.768 "/>
<text text-anchor="middle" x="957.547" y="-200.568" font-family="Times,serif" font-size="14.00">5:5 &#45; 0:0</text>
</g>
<!-- n21&#45;&gt;x1 -->
<g id="edge34" class="edge"><title>n21:e&#45;&gt;x1:s0:w</title>
<path fill="none" stroke="#1b9e77" d="M828.209,-249.768C871.95,-249.768 876.593,-210.674 914.225,-204.566"/>
<polygon fill="#1b9e77" stroke="#1b9e77" points="914.847,-208.028 924.547,-203.768 914.307,-201.049 914.847,-208.028"/>
</g>
<!-- n21&#45;&gt;x1 -->
<g id="edge35" class="edge"><title>n21:e&#45;&gt;x1:s1:w</title>
<path fill="none" stroke="#1b9e77" d="M828.209,-249.768C868.618,-249.768 878.925,-230.386 914.395,-227.207"/>
<polygon fill="#1b9e77" stroke="#1b9e77" points="914.707,-230.696 924.547,-226.768 914.405,-223.703 914.707,-230.696"/>
</g>
<!-- n21&#45;&gt;x1 -->
<g id="edge36" class="edge"><title>n21:e&#45;&gt;x1:s2:w</title>
<path fill="none" stroke="#1b9e77" d="M828.209,-249.768C867.346,-249.768 879.653,-249.768 914.179,-249.768"/>
<polygon fill="#1b9e77" stroke="#1b9e77" points="914.547,-253.268 924.547,-249.768 914.547,-246.268 914.547,-253.268"/>
</g>
<!-- n21&#45;&gt;x1 -->
<g id="edge37" class="edge"><title>n21:e&#45;&gt;x1:s3:w</title>
<path fill="none" stroke="#1b9e77" d="M828.209,-249.768C868.715,-249.768 878.852,-269.992 914.376,-273.31"/>
<polygon fill="#1b9e77" stroke="#1b9e77" points="914.399,-276.814 924.547,-273.768 914.714,-269.821 914.399,-276.814"/>
</g>
<!-- n21&#45;&gt;x1 -->
<g id="edge38" class="edge"><title>n21:e&#45;&gt;x1:s4:w</title>
<path fill="none" stroke="#1b9e77" d="M828.209,-249.768C872.128,-249.768 876.457,-289.711 914.19,-295.952"/>
<polygon fill="#1b9e77" stroke="#1b9e77" points="914.303,-299.472 924.547,-296.768 914.853,-292.493 914.303,-299.472"/>
</g>
<!-- n21&#45;&gt;x1 -->
<g id="edge39" class="edge"><title>n21:e&#45;&gt;x1:s5:w</title>
<path fill="none" stroke="#1b9e77" d="M828.209,-249.768C877.517,-249.768 872.63,-310.524 914.528,-318.831"/>
<polygon fill="#1b9e77" stroke="#1b9e77" points="914.264,-322.322 924.547,-319.768 914.916,-315.352 914.264,-322.322"/>
</g>
<!-- n22 -->
<g id="node21" class="node"><title>n22</title>
<polygon fill="none" stroke="black" points="766.209,-708.768 688.79,-690.768 766.209,-672.768 843.628,-690.768 766.209,-708.768"/>
<text text-anchor="middle" x="766.209" y="-687.068" font-family="Times,serif" font-size="14.00">rx_i_uart_rx</text>
</g>
<!-- n23 -->
<g id="node22" class="node"><title>n23</title>
<polygon fill="none" stroke="black" points="1140.68,-561.768 1075.65,-543.768 1140.68,-525.768 1205.7,-543.768 1140.68,-561.768"/>
<text text-anchor="middle" x="1140.68" y="-540.068" font-family="Times,serif" font-size="14.00">rx_o_data</text>
</g>
<!-- n24 -->
<g id="node23" class="node"><title>n24</title>
<polygon fill="none" stroke="black" points="1140.68,-469.768 1083.7,-451.768 1140.68,-433.768 1197.65,-451.768 1140.68,-469.768"/>
<text text-anchor="middle" x="1140.68" y="-448.068" font-family="Times,serif" font-size="14.00">rx_o_wr</text>
</g>
<!-- n25 -->
<g id="node24" class="node"><title>n25</title>
<polygon fill="none" stroke="black" points="3372.56,-416.768 3310.89,-398.768 3372.56,-380.768 3434.23,-398.768 3372.56,-416.768"/>
<text text-anchor="middle" x="3372.56" y="-395.068" font-family="Times,serif" font-size="14.00">tx_i_data</text>
</g>
<!-- n26 -->
<g id="node25" class="node"><title>n26</title>
<polygon fill="none" stroke="black" points="4562.77,-311.768 4508.31,-293.768 4562.77,-275.768 4617.23,-293.768 4562.77,-311.768"/>
<text text-anchor="middle" x="4562.77" y="-290.068" font-family="Times,serif" font-size="14.00">tx_i_wr</text>
</g>
<!-- n27 -->
<g id="node26" class="node"><title>n27</title>
<polygon fill="none" stroke="black" points="3372.56,-285.768 3305.36,-267.768 3372.56,-249.768 3439.76,-267.768 3372.56,-285.768"/>
<text text-anchor="middle" x="3372.56" y="-264.068" font-family="Times,serif" font-size="14.00">tx_o_busy</text>
</g>
<!-- c38 -->
<g id="node35" class="node"><title>c38</title>
<polygon fill="none" stroke="black" points="3526.59,-247.768 3526.59,-285.768 3619.59,-285.768 3619.59,-247.768 3526.59,-247.768"/>
<text text-anchor="middle" x="3539.59" y="-263.068" font-family="Times,serif" font-size="14.00">A</text>
<polyline fill="none" stroke="black" points="3552.59,-247.768 3552.59,-285.768 "/>
<text text-anchor="middle" x="3573.09" y="-270.568" font-family="Times,serif" font-size="14.00">$7</text>
<text text-anchor="middle" x="3573.09" y="-255.568" font-family="Times,serif" font-size="14.00">$not</text>
<polyline fill="none" stroke="black" points="3593.59,-247.768 3593.59,-285.768 "/>
<text text-anchor="middle" x="3606.59" y="-263.068" font-family="Times,serif" font-size="14.00">Y</text>
</g>
<!-- n27&#45;&gt;c38 -->
<g id="edge46" class="edge"><title>n27:e&#45;&gt;c38:p32:w</title>
<path fill="none" stroke="#a6761d" d="M3439.66,-267.768C3473.92,-267.768 3484.99,-266.953 3514.73,-266.794"/>
<polygon fill="#a6761d" stroke="#a6761d" points="3515.1,-270.294 3525.09,-266.768 3515.08,-263.294 3515.1,-270.294"/>
</g>
<!-- n28 -->
<g id="node27" class="node"><title>n28</title>
<polygon fill="none" stroke="black" points="3573.09,-97.7676 3494,-79.7676 3573.09,-61.7676 3652.19,-79.7676 3573.09,-97.7676"/>
<text text-anchor="middle" x="3573.09" y="-76.0676" font-family="Times,serif" font-size="14.00">tx_o_uart_tx</text>
</g>
<!-- x4 -->
<g id="node45" class="node"><title>x4</title>
<path fill="none" stroke="black" d="M3810.68,-97.7676C3810.68,-97.7676 3780.68,-97.7676 3780.68,-97.7676 3774.68,-97.7676 3768.68,-91.7676 3768.68,-85.7676 3768.68,-85.7676 3768.68,-73.7676 3768.68,-73.7676 3768.68,-67.7676 3774.68,-61.7676 3780.68,-61.7676 3780.68,-61.7676 3810.68,-61.7676 3810.68,-61.7676 3816.68,-61.7676 3822.68,-67.7676 3822.68,-73.7676 3822.68,-73.7676 3822.68,-85.7676 3822.68,-85.7676 3822.68,-91.7676 3816.68,-97.7676 3810.68,-97.7676"/>
<text text-anchor="middle" x="3795.68" y="-76.0676" font-family="Times,serif" font-size="14.00">BUF</text>
</g>
<!-- n28&#45;&gt;x4 -->
<g id="edge48" class="edge"><title>n28:e&#45;&gt;x4:w:w</title>
<path fill="none" stroke="#e6ab02" d="M3653.09,-79.7676C3700.44,-79.7676 3714.77,-79.7676 3757.48,-79.7676"/>
<polygon fill="#e6ab02" stroke="#e6ab02" points="3757.68,-83.2677 3767.68,-79.7676 3757.68,-76.2677 3757.68,-83.2677"/>
</g>
<!-- n29 -->
<g id="node28" class="node"><title>n29</title>
<polygon fill="none" stroke="black" points="3795.68,-284.768 3706.36,-266.768 3795.68,-248.768 3885,-266.768 3795.68,-284.768"/>
<text text-anchor="middle" x="3795.68" y="-263.068" font-family="Times,serif" font-size="14.00">txctl_i_busy_n</text>
</g>
<!-- n29&#45;&gt;c59 -->
<g id="edge50" class="edge"><title>n29:e&#45;&gt;c59:p56:w</title>
<path fill="none" stroke="#1b9e77" d="M3884.84,-266.768C3896.84,-266.768 3902.09,-266.768 3910.71,-266.768"/>
<polygon fill="#1b9e77" stroke="#1b9e77" points="3910.84,-270.268 3920.84,-266.768 3910.84,-263.268 3910.84,-270.268"/>
</g>
<!-- n30 -->
<g id="node29" class="node"><title>n30</title>
<polygon fill="none" stroke="black" points="3573.09,-228.768 3475.73,-210.768 3573.09,-192.768 3670.45,-210.768 3573.09,-228.768"/>
<text text-anchor="middle" x="3573.09" y="-207.068" font-family="Times,serif" font-size="14.00">txctl_i_empty_n</text>
</g>
<!-- n30&#45;&gt;c59 -->
<g id="edge53" class="edge"><title>n30:e&#45;&gt;c59:p57:w</title>
<path fill="none" stroke="#a6761d" d="M3670.52,-210.768C3683.15,-210.768 3864.6,-237.521 3910.86,-242.851"/>
<polygon fill="#a6761d" stroke="#a6761d" points="3910.56,-246.338 3920.84,-243.768 3911.2,-239.367 3910.56,-246.338"/>
</g>
<!-- n31 -->
<g id="node30" class="node"><title>n31</title>
<polygon fill="none" stroke="black" points="4562.77,-257.768 4455.18,-239.768 4562.77,-221.768 4670.35,-239.768 4562.77,-257.768"/>
<text text-anchor="middle" x="4562.77" y="-236.068" font-family="Times,serif" font-size="14.00">txctl_o_pop_value</text>
</g>
<!-- c35&#45;&gt;c42 -->
<g id="edge3" class="edge"><title>c35:p34:e&#45;&gt;c42:p40:w</title>
<path fill="none" stroke="#1b9e77" stroke-width="3" d="M2628.63,-189.768C2650.03,-189.768 2634.66,-250.692 2532.13,-213.268 2487.73,-197.063 2494.99,-161.512 2450.79,-144.768 2288.85,-83.4094 1844.89,-125.768 1671.71,-125.768 956.547,-125.768 956.547,-125.768 956.547,-125.768 811.474,-125.768 410.545,-120.266 311.5,-226.268 311.172,-226.619 310.851,-227.006 310.544,-227.418"/>
<polygon fill="#1b9e77" stroke="#1b9e77" stroke-width="3" points="307.042,-227.753 310.5,-237.768 314.042,-227.782 307.042,-227.753"/>
</g>
<!-- x0&#45;&gt;c35 -->
<g id="edge1" class="edge"><title>x0:e&#45;&gt;c35:p33:w</title>
<path fill="none" stroke="#66a61e" stroke-width="3" d="M2186.09,-177.768C2330.5,-177.768 2373.86,-177.768 2518.21,-177.768"/>
<polygon fill="none" stroke="#66a61e" stroke-width="3" points="2185.79,-177.768 2179.79,-181.768 2173.79,-177.768 2179.79,-173.768 2185.79,-177.768"/>
<polygon fill="none" stroke="#66a61e" stroke-width="3" points="2518.63,-177.768 2524.63,-173.768 2530.63,-177.768 2524.63,-181.768 2518.63,-177.768"/>
</g>
<!-- c36&#45;&gt;n10 -->
<g id="edge4" class="edge"><title>c36:p34:e&#45;&gt;n10:w</title>
<path fill="none" stroke="#7570b3" d="M1510.62,-261.768C1550.23,-261.768 1562.57,-261.768 1597.71,-261.768"/>
<polygon fill="#7570b3" stroke="#7570b3" points="1597.71,-265.268 1607.71,-261.768 1597.71,-258.268 1597.71,-265.268"/>
</g>
<!-- c37&#45;&gt;n30 -->
<g id="edge52" class="edge"><title>c37:p34:e&#45;&gt;n30:w</title>
<path fill="none" stroke="#a6761d" d="M3420.56,-211.768C3441.23,-211.768 3448.81,-211.056 3465.39,-210.833"/>
<polygon fill="#a6761d" stroke="#a6761d" points="3465.68,-214.331 3475.66,-210.768 3465.64,-207.332 3465.68,-214.331"/>
</g>
<!-- c38&#45;&gt;n29 -->
<g id="edge49" class="edge"><title>c38:p34:e&#45;&gt;n29:w</title>
<path fill="none" stroke="#1b9e77" d="M3621.09,-266.768C3655.35,-266.768 3666.43,-266.768 3696.16,-266.768"/>
<polygon fill="#1b9e77" stroke="#1b9e77" points="3696.52,-270.268 3706.52,-266.768 3696.52,-263.268 3696.52,-270.268"/>
</g>
<!-- c42&#45;&gt;n21 -->
<g id="edge32" class="edge"><title>c42:p41:e&#45;&gt;n21:w</title>
<path fill="none" stroke="#1b9e77" d="M432.5,-249.768C549.84,-249.768 581.667,-249.768 694.163,-249.768"/>
<polygon fill="#1b9e77" stroke="#1b9e77" points="694.209,-253.268 704.209,-249.768 694.209,-246.268 694.209,-253.268"/>
</g>
<!-- c43 -->
<g id="node37" class="node"><title>c43</title>
<polygon fill="none" stroke="black" points="1071.68,-242.768 1071.68,-280.768 1209.68,-280.768 1209.68,-242.768 1071.68,-242.768"/>
<text text-anchor="middle" x="1084.68" y="-258.068" font-family="Times,serif" font-size="14.00">A</text>
<polyline fill="none" stroke="black" points="1097.68,-242.768 1097.68,-280.768 "/>
<text text-anchor="middle" x="1140.68" y="-265.568" font-family="Times,serif" font-size="14.00">$5</text>
<text text-anchor="middle" x="1140.68" y="-250.568" font-family="Times,serif" font-size="14.00">$reduce_and</text>
<polyline fill="none" stroke="black" points="1183.68,-242.768 1183.68,-280.768 "/>
<text text-anchor="middle" x="1196.68" y="-258.068" font-family="Times,serif" font-size="14.00">Y</text>
</g>
<!-- c43&#45;&gt;n20 -->
<g id="edge30" class="edge"><title>c43:p34:e&#45;&gt;n20:w</title>
<path fill="none" stroke="#d95f02" d="M1209.68,-261.768C1221.68,-261.768 1226.93,-261.768 1235.55,-261.768"/>
<polygon fill="#d95f02" stroke="#d95f02" points="1235.68,-265.268 1245.68,-261.768 1235.68,-258.268 1235.68,-265.268"/>
</g>
<!-- x1&#45;&gt;c43 -->
<g id="edge2" class="edge"><title>x1:e&#45;&gt;c43:p32:w</title>
<path fill="none" stroke="#1b9e77" stroke-width="3" d="M1002.55,-261.768C1025.44,-261.768 1036.63,-261.768 1059.44,-261.768"/>
<polygon fill="none" stroke="#1b9e77" stroke-width="3" points="1002.55,-261.768 996.547,-265.768 990.547,-261.768 996.547,-257.768 1002.55,-261.768"/>
<polygon fill="none" stroke="#1b9e77" stroke-width="3" points="1059.68,-261.768 1065.68,-257.768 1071.68,-261.768 1065.68,-265.768 1059.68,-261.768"/>
</g>
<!-- v2 -->
<g id="node39" class="node"><title>v2</title>
<ellipse fill="none" stroke="black" cx="1670.71" cy="-598.768" rx="27" ry="18"/>
<text text-anchor="middle" x="1670.71" y="-595.068" font-family="Times,serif" font-size="14.00">1&#39;0</text>
</g>
<!-- v2&#45;&gt;c45 -->
<g id="edge65" class="edge"><title>v2:e&#45;&gt;c45:p5:w</title>
<path fill="none" stroke="#66a61e" d="M1698.71,-598.768C1743.07,-598.768 1757.26,-595.409 1794.79,-571.768 1811.79,-561.065 1808.69,-539.971 1820.9,-533.036"/>
<polygon fill="#66a61e" stroke="#66a61e" points="1821.83,-536.414 1830.79,-530.768 1820.26,-529.591 1821.83,-536.414"/>
</g>
<!-- v3 -->
<g id="node40" class="node"><title>v3</title>
<ellipse fill="none" stroke="black" cx="1670.71" cy="-360.768" rx="27" ry="18"/>
<text text-anchor="middle" x="1670.71" y="-357.068" font-family="Times,serif" font-size="14.00">1&#39;0</text>
</g>
<!-- v3&#45;&gt;c45 -->
<g id="edge66" class="edge"><title>v3:e&#45;&gt;c45:p14:w</title>
<path fill="none" stroke="#1b9e77" d="M1698.71,-360.768C1743.72,-360.768 1754.17,-373.392 1794.79,-392.768 1808.18,-399.153 1811.03,-409.599 1820.7,-413.864"/>
<polygon fill="#1b9e77" stroke="#1b9e77" points="1820.32,-417.354 1830.79,-415.768 1821.61,-410.475 1820.32,-417.354"/>
</g>
<!-- c45&#45;&gt;n7 -->
<g id="edge62" class="edge"><title>c45:p7:e&#45;&gt;n7:w</title>
<path fill="none" stroke="#d95f02" stroke-width="3" d="M2450.79,-548.768C2474.52,-548.768 2465.07,-585.026 2478.94,-595.79"/>
<polygon fill="#d95f02" stroke="#d95f02" stroke-width="3" points="2478.04,-599.174 2488.63,-598.768 2480.1,-592.483 2478.04,-599.174"/>
</g>
<!-- c45&#45;&gt;n9 -->
<g id="edge64" class="edge"><title>c45:p9:e&#45;&gt;n9:w</title>
<path fill="none" stroke="#1b9e77" d="M2450.79,-513.768C2467.78,-513.768 2467.07,-533.841 2477.14,-541.682"/>
<polygon fill="#1b9e77" stroke="#1b9e77" points="2476.2,-545.056 2486.79,-544.768 2478.33,-538.388 2476.2,-545.056"/>
</g>
<!-- c45&#45;&gt;n12 -->
<g id="edge10" class="edge"><title>c45:p12:e&#45;&gt;n12:w</title>
<path fill="none" stroke="#e7298a" d="M2450.79,-479.768C2471.77,-479.768 2478.69,-487.599 2495.27,-490.046"/>
<polygon fill="#e7298a" stroke="#e7298a" points="2495.41,-493.564 2505.63,-490.768 2495.9,-486.581 2495.41,-493.564"/>
</g>
<!-- c45&#45;&gt;n15 -->
<g id="edge15" class="edge"><title>c45:p15:e&#45;&gt;n15:w</title>
<path fill="none" stroke="#1b9e77" stroke-width="3" d="M2450.79,-444.768C2689.54,-444.768 2749.22,-444.768 2987.96,-444.768 2987.96,-444.768 2987.96,-444.768 3373.56,-444.768 3525.24,-444.768 3565.71,-444.768 3712.4,-444.768"/>
<polygon fill="#1b9e77" stroke="#1b9e77" stroke-width="3" points="3712.68,-448.268 3722.68,-444.768 3712.68,-441.268 3712.68,-448.268"/>
</g>
<!-- c45&#45;&gt;n16 -->
<g id="edge17" class="edge"><title>c45:p16:e&#45;&gt;n16:w</title>
<path fill="none" stroke="#1b9e77" stroke-width="3" d="M2450.79,-409.768C2467.81,-409.768 2473.6,-402.506 2486.41,-399.783"/>
<polygon fill="#1b9e77" stroke="#1b9e77" stroke-width="3" points="2487.02,-403.24 2496.63,-398.768 2486.33,-396.274 2487.02,-403.24"/>
</g>
<!-- c45&#45;&gt;n17 -->
<g id="edge20" class="edge"><title>c45:p17:e&#45;&gt;n17:w</title>
<path fill="none" stroke="#e6ab02" d="M2450.79,-375.768C2473.74,-375.768 2466.59,-349.646 2486.79,-338.768 2646.39,-252.827 2707.98,-260.446 2884.81,-260.758"/>
<polygon fill="#e6ab02" stroke="#e6ab02" points="2884.96,-264.258 2894.96,-260.768 2884.97,-257.258 2884.96,-264.258"/>
</g>
<!-- c50&#45;&gt;n11 -->
<g id="edge7" class="edge"><title>c50:p48:e&#45;&gt;n11:w</title>
<path fill="none" stroke="#e7298a" stroke-width="3" d="M653,-486.768C666.337,-486.768 670.266,-495.56 679.193,-499.682"/>
<polygon fill="#e7298a" stroke="#e7298a" stroke-width="3" points="678.706,-503.155 689.209,-501.768 680.133,-496.302 678.706,-503.155"/>
</g>
<!-- c50&#45;&gt;n13 -->
<g id="edge11" class="edge"><title>c50:p49:e&#45;&gt;n13:w</title>
<path fill="none" stroke="#7570b3" d="M653,-462.768C669.858,-462.768 674.809,-452.865 687.203,-449.152"/>
<polygon fill="#7570b3" stroke="#7570b3" points="687.783,-452.605 697.209,-447.768 686.824,-445.671 687.783,-452.605"/>
</g>
<!-- c55&#45;&gt;n27 -->
<g id="edge45" class="edge"><title>c55:p53:e&#45;&gt;n27:w</title>
<path fill="none" stroke="#a6761d" d="M3269.46,-198.768C3299.73,-198.768 3278.11,-251.596 3295.4,-264.803"/>
<polygon fill="#a6761d" stroke="#a6761d" points="3294.88,-268.298 3305.46,-267.768 3296.86,-261.583 3294.88,-268.298"/>
</g>
<!-- c55&#45;&gt;n28 -->
<g id="edge47" class="edge"><title>c55:p54:e&#45;&gt;n28:w</title>
<path fill="none" stroke="#e6ab02" d="M3269.46,-163.768C3372.11,-163.768 3386.07,-85.2531 3482.82,-80.0393"/>
<polygon fill="#e6ab02" stroke="#e6ab02" points="3483.19,-83.5309 3493.09,-79.7676 3483,-76.5334 3483.19,-83.5309"/>
</g>
<!-- c59&#45;&gt;n18 -->
<g id="edge22" class="edge"><title>c59:p58:e&#45;&gt;n18:w</title>
<path fill="none" stroke="#e6ab02" d="M4149.84,-266.768C4161.84,-266.768 4167.09,-266.768 4175.71,-266.768"/>
<polygon fill="#e6ab02" stroke="#e6ab02" points="4175.84,-270.268 4185.84,-266.768 4175.84,-263.268 4175.84,-270.268"/>
</g>
<!-- x4&#45;&gt;n3 -->
<g id="edge51" class="edge"><title>x4:e:e&#45;&gt;n3:w</title>
<path fill="none" stroke="#66a61e" d="M3823.68,-79.7676C4016.06,-79.7676 4064.15,-79.7676 4256.53,-79.7676 4256.53,-79.7676 4256.53,-79.7676 4393.23,-79.7676 4528.98,-79.7676 4565.4,-79.7676 4696.3,-79.7676"/>
<polygon fill="#66a61e" stroke="#66a61e" points="4696.31,-83.2677 4706.31,-79.7676 4696.31,-76.2677 4696.31,-83.2677"/>
</g>
<!-- v5 -->
<g id="node46" class="node"><title>v5</title>
<ellipse fill="none" stroke="black" cx="371.5" cy="-744.768" rx="27" ry="18"/>
<text text-anchor="middle" x="371.5" y="-741.068" font-family="Times,serif" font-size="14.00">1&#39;0</text>
</g>
<!-- x6 -->
<g id="node47" class="node"><title>x6</title>
<path fill="none" stroke="black" d="M781.209,-762.768C781.209,-762.768 751.209,-762.768 751.209,-762.768 745.209,-762.768 739.209,-756.768 739.209,-750.768 739.209,-750.768 739.209,-738.768 739.209,-738.768 739.209,-732.768 745.209,-726.768 751.209,-726.768 751.209,-726.768 781.209,-726.768 781.209,-726.768 787.209,-726.768 793.209,-732.768 793.209,-738.768 793.209,-738.768 793.209,-750.768 793.209,-750.768 793.209,-756.768 787.209,-762.768 781.209,-762.768"/>
<text text-anchor="middle" x="766.209" y="-741.068" font-family="Times,serif" font-size="14.00">BUF</text>
</g>
<!-- v5&#45;&gt;x6 -->
<g id="edge67" class="edge"><title>v5:e&#45;&gt;x6:w:w</title>
<path fill="none" stroke="#e7298a" d="M399.5,-744.768C546.509,-744.768 585.846,-744.768 727.808,-744.768"/>
<polygon fill="#e7298a" stroke="#e7298a" points="728.209,-748.268 738.209,-744.768 728.209,-741.268 728.209,-748.268"/>
</g>
<!-- x6&#45;&gt;n5 -->
<g id="edge60" class="edge"><title>x6:e:e&#45;&gt;n5:w</title>
<path fill="none" stroke="#7570b3" d="M794.209,-744.768C831.561,-744.768 843.416,-744.768 876.186,-744.768"/>
<polygon fill="#7570b3" stroke="#7570b3" points="876.547,-748.268 886.547,-744.768 876.547,-741.268 876.547,-748.268"/>
</g>
<!-- v7 -->
<g id="node48" class="node"><title>v7</title>
<ellipse fill="none" stroke="black" cx="371.5" cy="-798.768" rx="27" ry="18"/>
<text text-anchor="middle" x="371.5" y="-795.068" font-family="Times,serif" font-size="14.00">1&#39;0</text>
</g>
<!-- x8 -->
<g id="node49" class="node"><title>x8</title>
<path fill="none" stroke="black" d="M781.209,-816.768C781.209,-816.768 751.209,-816.768 751.209,-816.768 745.209,-816.768 739.209,-810.768 739.209,-804.768 739.209,-804.768 739.209,-792.768 739.209,-792.768 739.209,-786.768 745.209,-780.768 751.209,-780.768 751.209,-780.768 781.209,-780.768 781.209,-780.768 787.209,-780.768 793.209,-786.768 793.209,-792.768 793.209,-792.768 793.209,-804.768 793.209,-804.768 793.209,-810.768 787.209,-816.768 781.209,-816.768"/>
<text text-anchor="middle" x="766.209" y="-795.068" font-family="Times,serif" font-size="14.00">BUF</text>
</g>
<!-- v7&#45;&gt;x8 -->
<g id="edge68" class="edge"><title>v7:e&#45;&gt;x8:w:w</title>
<path fill="none" stroke="#666666" d="M399.5,-798.768C546.509,-798.768 585.846,-798.768 727.808,-798.768"/>
<polygon fill="#666666" stroke="#666666" points="728.209,-802.268 738.209,-798.768 728.209,-795.268 728.209,-802.268"/>
</g>
<!-- x8&#45;&gt;n14 -->
<g id="edge14" class="edge"><title>x8:e:e&#45;&gt;n14:w</title>
<path fill="none" stroke="#d95f02" d="M794.209,-798.768C828.382,-798.768 839.428,-798.768 869.083,-798.768"/>
<polygon fill="#d95f02" stroke="#d95f02" points="869.418,-802.268 879.418,-798.768 869.418,-795.268 869.418,-802.268"/>
</g>
<!-- x9&#45;&gt;n19 -->
<g id="edge27" class="edge"><title>x9:e:e&#45;&gt;n19:w</title>
<path fill="none" stroke="#d95f02" stroke-width="3" d="M4063.34,-444.768C4345.61,-444.768 4418.77,-444.768 4695.94,-444.768"/>
<polygon fill="#d95f02" stroke="#d95f02" stroke-width="3" points="4696.31,-448.268 4706.31,-444.768 4696.31,-441.268 4696.31,-448.268"/>
</g>
<!-- x10&#45;&gt;n22 -->
<g id="edge40" class="edge"><title>x10:e:e&#45;&gt;n22:w</title>
<path fill="none" stroke="#1b9e77" d="M399.5,-690.768C524.648,-690.768 558.502,-690.768 678.658,-690.768"/>
<polygon fill="#1b9e77" stroke="#1b9e77" points="679,-694.268 689,-690.768 679,-687.268 679,-694.268"/>
</g>
<!-- x11&#45;&gt;n23 -->
<g id="edge41" class="edge"><title>x11:e:e&#45;&gt;n23:w</title>
<path fill="none" stroke="#7570b3" stroke-width="3" d="M985.547,-543.768C1021.6,-543.768 1033.04,-543.768 1064.67,-543.768"/>
<polygon fill="#7570b3" stroke="#7570b3" stroke-width="3" points="1064.68,-547.268 1074.68,-543.768 1064.68,-540.268 1064.68,-547.268"/>
</g>
<!-- x12&#45;&gt;n24 -->
<g id="edge42" class="edge"><title>x12:e:e&#45;&gt;n24:w</title>
<path fill="none" stroke="#666666" d="M985.547,-451.768C1025.17,-451.768 1037.52,-451.768 1072.67,-451.768"/>
<polygon fill="#666666" stroke="#666666" points="1072.68,-455.268 1082.68,-451.768 1072.68,-448.268 1072.68,-455.268"/>
</g>
<!-- x13&#45;&gt;n25 -->
<g id="edge43" class="edge"><title>x13:e:e&#45;&gt;n25:w</title>
<path fill="none" stroke="#a6761d" stroke-width="3" d="M3016.96,-398.768C3143.58,-398.768 3177.74,-398.768 3299.47,-398.768"/>
<polygon fill="#a6761d" stroke="#a6761d" stroke-width="3" points="3299.56,-402.268 3309.56,-398.768 3299.56,-395.268 3299.56,-402.268"/>
</g>
<!-- x14&#45;&gt;n26 -->
<g id="edge44" class="edge"><title>x14:e:e&#45;&gt;n26:w</title>
<path fill="none" stroke="#7570b3" d="M4419.23,-293.768C4454.89,-293.768 4466.31,-293.768 4497.43,-293.768"/>
<polygon fill="#7570b3" stroke="#7570b3" points="4497.77,-297.268 4507.77,-293.768 4497.77,-290.268 4497.77,-297.268"/>
</g>
<!-- x15&#45;&gt;n31 -->
<g id="edge54" class="edge"><title>x15:e:e&#45;&gt;n31:w</title>
<path fill="none" stroke="#7570b3" d="M4419.23,-239.768C4431.23,-239.768 4436.48,-239.768 4445.1,-239.768"/>
<polygon fill="#7570b3" stroke="#7570b3" points="4445.23,-243.268 4455.23,-239.768 4445.23,-236.268 4445.23,-243.268"/>
</g>
</g>
</svg>
