<svg xmlns="http://www.w3.org/2000/svg" xmlns:xlink="http://www.w3.org/1999/xlink" xmlns:s="https://github.com/nturley/netlistsvg" width="774" height="757">
  <style>svg {
    stroke:#000;
    fill:none;
  }
  text {
    fill:#000;
    stroke:none;
    font-size:10px;
    font-weight: bold;
    font-family: "Courier New", monospace;
  }
  .nodelabel {
    text-anchor: middle;
  }
  .inputPortLabel {
    text-anchor: end;
  }
  .splitjoinBody {
    fill:#000;
  }</style>
  <g s:type="generic" transform="translate(104,87)" s:width="30" s:height="40" id="cell_$eq$WAIT.v:38$6">
    <text x="15" y="-4" class="nodelabel cell_$eq$WAIT.v:38$6" s:attribute="ref">$logic_not</text>
    <rect width="30" height="20" s:generic="body" class="cell_$eq$WAIT.v:38$6"/>
    <g transform="translate(0,10)" s:x="0" s:y="10" s:pid="in0" id="port_$eq$WAIT.v:38$6~A">
      <text x="-3" y="-4" class="inputPortLabel cell_$eq$WAIT.v:38$6">A</text>
    </g>
    <g transform="translate(30,10)" s:x="30" s:y="10" s:pid="out0" id="port_$eq$WAIT.v:38$6~Y">
      <text x="5" y="-4" style="fill:#000; stroke:none" class="cell_$eq$WAIT.v:38$6">Y</text>
    </g>
  </g>
  <g s:type="and" transform="translate(401,440.5)" s:width="30" s:height="25" id="cell_$logic_and$WAIT.v:36$3">
    <s:alias val="$and"/>
    <s:alias val="$logic_and"/>
    <s:alias val="$_AND_"/>
    <path d="M0,0 L0,25 L15,25 A15 12.5 0 0 0 15,0 Z" class="cell_$logic_and$WAIT.v:36$3"/>
    <g s:x="0" s:y="5" s:pid="A"/>
    <g s:x="0" s:y="20" s:pid="B"/>
    <g s:x="30" s:y="12.5" s:pid="Y"/>
  </g>
  <g s:type="generic" transform="translate(261,450)" s:width="30" s:height="40" id="cell_$ne$WAIT.v:36$2">
    <text x="15" y="-4" class="nodelabel cell_$ne$WAIT.v:36$2" s:attribute="ref">$reduce_bool</text>
    <rect width="30" height="20" s:generic="body" class="cell_$ne$WAIT.v:36$2"/>
    <g transform="translate(0,10)" s:x="0" s:y="10" s:pid="in0" id="port_$ne$WAIT.v:36$2~A">
      <text x="-3" y="-4" class="inputPortLabel cell_$ne$WAIT.v:36$2">A</text>
    </g>
    <g transform="translate(30,10)" s:x="30" s:y="10" s:pid="out0" id="port_$ne$WAIT.v:36$2~Y">
      <text x="5" y="-4" style="fill:#000; stroke:none" class="cell_$ne$WAIT.v:36$2">Y</text>
    </g>
  </g>
  <g s:type="generic" transform="translate(261,118)" s:width="30" s:height="40" id="cell_$ne$WAIT.v:37$5">
    <text x="15" y="-4" class="nodelabel cell_$ne$WAIT.v:37$5" s:attribute="ref">$reduce_bool</text>
    <rect width="30" height="20" s:generic="body" class="cell_$ne$WAIT.v:37$5"/>
    <g transform="translate(0,10)" s:x="0" s:y="10" s:pid="in0" id="port_$ne$WAIT.v:37$5~A">
      <text x="-3" y="-4" class="inputPortLabel cell_$ne$WAIT.v:37$5">A</text>
    </g>
    <g transform="translate(30,10)" s:x="30" s:y="10" s:pid="out0" id="port_$ne$WAIT.v:37$5~Y">
      <text x="5" y="-4" style="fill:#000; stroke:none" class="cell_$ne$WAIT.v:37$5">Y</text>
    </g>
  </g>
  <g s:type="or" transform="translate(471,123.5)" s:width="30" s:height="25" id="cell_$or$WAIT.v:51$10">
    <s:alias val="$or"/>
    <s:alias val="$logic_or"/>
    <s:alias val="$_OR_"/>
    <path d="M0,25 L0,25 L15,25 A15 12.5 0 0 0 15,0 L0,0" class="cell_$or$WAIT.v:51$10"/>
    <path d="M0,0 A30 25 0 0 1 0,25" class="cell_$or$WAIT.v:51$10"/>
    <g s:x="3" s:y="5" s:pid="A"/>
    <g s:x="3" s:y="20" s:pid="B"/>
    <g s:x="30" s:y="12.5" s:pid="Y"/>
  </g>
  <g s:type="dff" transform="translate(657,661)" s:width="30" s:height="40" id="cell_$procdff$46">
    <s:alias val="$dff"/>
    <s:alias val="$_DFF_"/>
    <rect width="30" height="40" x="0" y="0" class="cell_$procdff$46"/>
    <path d="M0,35 L5,30 L0,25" class="cell_$procdff$46"/>
    <g s:x="30" s:y="10" s:pid="Q"/>
    <g s:x="0" s:y="30" s:pid="CLK"/>
    <g s:x="0" s:y="10" s:pid="D"/>
  </g>
  <g s:type="dff" transform="translate(722,223.5)" s:width="30" s:height="40" id="cell_$procdff$47">
    <s:alias val="$dff"/>
    <s:alias val="$_DFF_"/>
    <rect width="30" height="40" x="0" y="0" class="cell_$procdff$47"/>
    <path d="M0,35 L5,30 L0,25" class="cell_$procdff$47"/>
    <g s:x="30" s:y="10" s:pid="Q"/>
    <g s:x="0" s:y="30" s:pid="CLK"/>
    <g s:x="0" s:y="10" s:pid="D"/>
  </g>
  <g s:type="mux" transform="translate(282,379.5)" s:width="20" s:height="40" id="cell_$procmux$15">
    <s:alias val="$pmux"/>
    <s:alias val="$mux"/>
    <s:alias val="$_MUX_"/>
    <path d="M0,0 L20,10 L20,30 L0,40 Z" class="cell_$procmux$15"/>
    <g s:x="0" s:y="10" s:pid="A"/>
    <g s:x="0" s:y="30" s:pid="B"/>
    <g s:x="10" s:y="35" s:pid="S"/>
    <g s:x="20" s:y="20" s:pid="Y"/>
  </g>
  <g s:type="mux" transform="translate(404.3333333333333,369.5)" s:width="20" s:height="40" id="cell_$procmux$17">
    <s:alias val="$pmux"/>
    <s:alias val="$mux"/>
    <s:alias val="$_MUX_"/>
    <path d="M0,0 L20,10 L20,30 L0,40 Z" class="cell_$procmux$17"/>
    <g s:x="0" s:y="10" s:pid="A"/>
    <g s:x="0" s:y="30" s:pid="B"/>
    <g s:x="10" s:y="35" s:pid="S"/>
    <g s:x="20" s:y="20" s:pid="Y"/>
  </g>
  <g s:type="mux" transform="translate(474.3333333333333,483)" s:width="20" s:height="40" id="cell_$procmux$20">
    <s:alias val="$pmux"/>
    <s:alias val="$mux"/>
    <s:alias val="$_MUX_"/>
    <path d="M0,0 L20,10 L20,30 L0,40 Z" class="cell_$procmux$20"/>
    <g s:x="0" s:y="10" s:pid="A"/>
    <g s:x="0" s:y="30" s:pid="B"/>
    <g s:x="10" s:y="35" s:pid="S"/>
    <g s:x="20" s:y="20" s:pid="Y"/>
  </g>
  <g s:type="mux" transform="translate(536,399.5)" s:width="20" s:height="40" id="cell_$procmux$23">
    <s:alias val="$pmux"/>
    <s:alias val="$mux"/>
    <s:alias val="$_MUX_"/>
    <path d="M0,0 L20,10 L20,30 L0,40 Z" class="cell_$procmux$23"/>
    <g s:x="0" s:y="10" s:pid="A"/>
    <g s:x="0" s:y="30" s:pid="B"/>
    <g s:x="10" s:y="35" s:pid="S"/>
    <g s:x="20" s:y="20" s:pid="Y"/>
  </g>
  <g s:type="mux" transform="translate(282,254.5)" s:width="20" s:height="40" id="cell_$procmux$27">
    <s:alias val="$pmux"/>
    <s:alias val="$mux"/>
    <s:alias val="$_MUX_"/>
    <path d="M0,0 L20,10 L20,30 L0,40 Z" class="cell_$procmux$27"/>
    <g s:x="0" s:y="10" s:pid="A"/>
    <g s:x="0" s:y="30" s:pid="B"/>
    <g s:x="10" s:y="35" s:pid="S"/>
    <g s:x="20" s:y="20" s:pid="Y"/>
  </g>
  <g s:type="mux" transform="translate(404.3333333333333,244.5)" s:width="20" s:height="40" id="cell_$procmux$29">
    <s:alias val="$pmux"/>
    <s:alias val="$mux"/>
    <s:alias val="$_MUX_"/>
    <path d="M0,0 L20,10 L20,30 L0,40 Z" class="cell_$procmux$29"/>
    <g s:x="0" s:y="10" s:pid="A"/>
    <g s:x="0" s:y="30" s:pid="B"/>
    <g s:x="10" s:y="35" s:pid="S"/>
    <g s:x="20" s:y="20" s:pid="Y"/>
  </g>
  <g s:type="mux" transform="translate(474.3333333333333,254.5)" s:width="20" s:height="40" id="cell_$procmux$32">
    <s:alias val="$pmux"/>
    <s:alias val="$mux"/>
    <s:alias val="$_MUX_"/>
    <path d="M0,0 L20,10 L20,30 L0,40 Z" class="cell_$procmux$32"/>
    <g s:x="0" s:y="10" s:pid="A"/>
    <g s:x="0" s:y="30" s:pid="B"/>
    <g s:x="10" s:y="35" s:pid="S"/>
    <g s:x="20" s:y="20" s:pid="Y"/>
  </g>
  <g s:type="mux" transform="translate(536,264.5)" s:width="20" s:height="40" id="cell_$procmux$35">
    <s:alias val="$pmux"/>
    <s:alias val="$mux"/>
    <s:alias val="$_MUX_"/>
    <path d="M0,0 L20,10 L20,30 L0,40 Z" class="cell_$procmux$35"/>
    <g s:x="0" s:y="10" s:pid="A"/>
    <g s:x="0" s:y="30" s:pid="B"/>
    <g s:x="10" s:y="35" s:pid="S"/>
    <g s:x="20" s:y="20" s:pid="Y"/>
  </g>
  <g s:type="mux" transform="translate(536,193.5)" s:width="20" s:height="40" id="cell_$procmux$38">
    <s:alias val="$pmux"/>
    <s:alias val="$mux"/>
    <s:alias val="$_MUX_"/>
    <path d="M0,0 L20,10 L20,30 L0,40 Z" class="cell_$procmux$38"/>
    <g s:x="0" s:y="10" s:pid="A"/>
    <g s:x="0" s:y="30" s:pid="B"/>
    <g s:x="10" s:y="35" s:pid="S"/>
    <g s:x="20" s:y="20" s:pid="Y"/>
  </g>
  <g s:type="mux" transform="translate(602,203.5)" s:width="20" s:height="40" id="cell_$procmux$41">
    <s:alias val="$pmux"/>
    <s:alias val="$mux"/>
    <s:alias val="$_MUX_"/>
    <path d="M0,0 L20,10 L20,30 L0,40 Z" class="cell_$procmux$41"/>
    <g s:x="0" s:y="10" s:pid="A"/>
    <g s:x="0" s:y="30" s:pid="B"/>
    <g s:x="10" s:y="35" s:pid="S"/>
    <g s:x="20" s:y="20" s:pid="Y"/>
  </g>
  <g s:type="mux" transform="translate(660.3333333333334,213.5)" s:width="20" s:height="40" id="cell_$procmux$44">
    <s:alias val="$pmux"/>
    <s:alias val="$mux"/>
    <s:alias val="$_MUX_"/>
    <path d="M0,0 L20,10 L20,30 L0,40 Z" class="cell_$procmux$44"/>
    <g s:x="0" s:y="10" s:pid="A"/>
    <g s:x="0" s:y="30" s:pid="B"/>
    <g s:x="10" s:y="35" s:pid="S"/>
    <g s:x="20" s:y="20" s:pid="Y"/>
  </g>
  <g s:type="sub" transform="translate(402.6666666666667,500.5)" s:width="25" s:height="25" id="cell_$sub$WAIT.v:36$4">
    <s:alias val="$sub"/>
    <circle r="12.5" cx="12.5" cy="12.5" class="cell_$sub$WAIT.v:36$4"/>
    <line x1="7.5" x2="17.5" y1="12.5" y2="12.5" class="cell_$sub$WAIT.v:36$4"/>
    <g s:x="3" s:y="5" s:pid="A"/>
    <g s:x="3" s:y="20" s:pid="B"/>
    <g s:x="25" s:y="12.5" s:pid="Y"/>
  </g>
  <g s:type="sub" transform="translate(123.33333333333333,162)" s:width="25" s:height="25" id="cell_$sub$WAIT.v:40$7">
    <s:alias val="$sub"/>
    <circle r="12.5" cx="12.5" cy="12.5" class="cell_$sub$WAIT.v:40$7"/>
    <line x1="7.5" x2="17.5" y1="12.5" y2="12.5" class="cell_$sub$WAIT.v:40$7"/>
    <g s:x="3" s:y="5" s:pid="A"/>
    <g s:x="3" s:y="20" s:pid="B"/>
    <g s:x="25" s:y="12.5" s:pid="Y"/>
  </g>
  <g s:type="sub" transform="translate(722,666)" s:width="25" s:height="25" id="cell_$sub$WAIT.v:41$8">
    <s:alias val="$sub"/>
    <circle r="12.5" cx="12.5" cy="12.5" class="cell_$sub$WAIT.v:41$8"/>
    <line x1="7.5" x2="17.5" y1="12.5" y2="12.5" class="cell_$sub$WAIT.v:41$8"/>
    <g s:x="3" s:y="5" s:pid="A"/>
    <g s:x="3" s:y="20" s:pid="B"/>
    <g s:x="25" s:y="12.5" s:pid="Y"/>
  </g>
  <g s:type="inputExt" transform="translate(104,450.5)" s:width="30" s:height="20" id="cell_din">
    <text x="15" y="-4" class="nodelabel cell_din" s:attribute="ref">din</text>
    <s:alias val="$_inputExt_"/>
    <path d="M0,0 L0,20 L15,20 L30,10 L15,0 Z" class="cell_din"/>
    <g s:x="28" s:y="10" s:pid="Y"/>
  </g>
  <g s:type="inputExt" transform="translate(261,324.5)" s:width="30" s:height="20" id="cell_start">
    <text x="15" y="-4" class="nodelabel cell_start" s:attribute="ref">start</text>
    <s:alias val="$_inputExt_"/>
    <path d="M0,0 L0,20 L15,20 L30,10 L15,0 Z" class="cell_start"/>
    <g s:x="28" s:y="10" s:pid="Y"/>
  </g>
  <g s:type="outputExt" transform="translate(722,126)" s:width="30" s:height="20" id="cell_busy">
    <text x="15" y="-4" class="nodelabel cell_busy" s:attribute="ref">busy</text>
    <s:alias val="$_outputExt_"/>
    <path d="M30,0 L30,20 L15,20 L0,10 L15,0 Z" class="cell_busy"/>
    <g s:x="0" s:y="10" s:pid="A"/>
  </g>
  <g s:type="inputExt" transform="translate(591,640)" s:width="30" s:height="20" id="cell_clk">
    <text x="15" y="-4" class="nodelabel cell_clk" s:attribute="ref">clk</text>
    <s:alias val="$_inputExt_"/>
    <path d="M0,0 L0,20 L15,20 L30,10 L15,0 Z" class="cell_clk"/>
    <g s:x="28" s:y="10" s:pid="Y"/>
  </g>
  <g s:type="inputExt" transform="translate(471,324.5)" s:width="30" s:height="20" id="cell_rst">
    <text x="15" y="-4" class="nodelabel cell_rst" s:attribute="ref">rst</text>
    <s:alias val="$_inputExt_"/>
    <path d="M0,0 L0,20 L15,20 L30,10 L15,0 Z" class="cell_rst"/>
    <g s:x="28" s:y="10" s:pid="Y"/>
  </g>
  <g s:type="constant" transform="translate(261,186)" s:width="30" s:height="20" id="cell_00000000">
    <text x="15" y="-4" class="nodelabel cell_00000000" s:attribute="ref">0x0</text>
    <s:alias val="$_constant_"/>
    <rect width="30" height="20" class="cell_00000000"/>
    <g s:x="30" s:y="10" s:pid="Y"/>
  </g>
  <g s:type="constant" transform="translate(104,22)" s:width="30" s:height="20" id="cell_10010010011110111111">
    <text x="15" y="-4" class="nodelabel cell_10010010011110111111" s:attribute="ref">0x927bf</text>
    <s:alias val="$_constant_"/>
    <rect width="30" height="20" class="cell_10010010011110111111"/>
    <g s:x="30" s:y="10" s:pid="Y"/>
  </g>
  <g s:type="constant" transform="translate(261,53)" s:width="30" s:height="20" id="cell_00000000000000000000">
    <text x="15" y="-4" class="nodelabel cell_00000000000000000000" s:attribute="ref">0x0</text>
    <s:alias val="$_constant_"/>
    <rect width="30" height="20" class="cell_00000000000000000000"/>
    <g s:x="30" s:y="10" s:pid="Y"/>
  </g>
  <g s:type="constant" transform="translate(471,193.5)" s:width="30" s:height="20" id="cell_0">
    <text x="15" y="-4" class="nodelabel cell_0" s:attribute="ref">0</text>
    <s:alias val="$_constant_"/>
    <rect width="30" height="20" class="cell_0"/>
    <g s:x="30" s:y="10" s:pid="Y"/>
  </g>
  <g s:type="constant" transform="translate(32,172)" s:width="30" s:height="20" id="cell_1">
    <text x="15" y="-4" class="nodelabel cell_1" s:attribute="ref">1</text>
    <s:alias val="$_constant_"/>
    <rect width="30" height="20" class="cell_1"/>
    <g s:x="30" s:y="10" s:pid="Y"/>
  </g>
  <g s:type="join" transform="translate(616,555)" s:width="4" s:height="40" id="cell_$join$,47,48,49,50,51,52,53,54,55,56,57,58,59,60,61,62,63,64,65,66,67,68,69,70,71,72,73,74,">
    <rect width="5" height="40" class="splitjoinBody" s:generic="body"/>
    <s:alias val="$_join_"/>
    <g s:x="5" s:y="20" s:pid="out"/>
    <g transform="translate(0,10)" s:x="0" s:y="10" s:pid="in0">
      <text x="-3" y="-4" class="inputPortLabel">0:19</text>
    </g>
    <g transform="translate(0,30)" s:x="0" s:y="10" s:pid="in0">
      <text x="-3" y="-4" class="inputPortLabel">20:27</text>
    </g>
  </g>
  <g s:type="split" transform="translate(32,87)" s:width="5" s:height="40" id="cell_$split$,14,15,16,17,18,19,20,21,22,23,24,25,26,27,28,29,30,31,32,33,37,38,39,40,41,42,43,44,">
    <rect width="5" height="40" class="splitjoinBody" s:generic="body"/>
    <s:alias val="$_split_"/>
    <g s:x="0" s:y="20" s:pid="in"/>
    <g transform="translate(4,10)" s:x="4" s:y="10" s:pid="out0">
      <text x="5" y="-4">0:19</text>
    </g>
    <g transform="translate(4,30)" s:x="4" s:y="10" s:pid="out0">
      <text x="5" y="-4">20:27</text>
    </g>
  </g>
  <g s:type="split" transform="translate(129,234)" s:width="5" s:height="40" id="cell_$split$,124,125,126,127,128,129,130,131,132,133,134,135,136,137,138,139,140,141,142,143,76,77,78,79,80,81,82,83,">
    <rect width="5" height="40" class="splitjoinBody" s:generic="body"/>
    <s:alias val="$_split_"/>
    <g s:x="0" s:y="20" s:pid="in"/>
    <g transform="translate(4,10)" s:x="4" s:y="10" s:pid="out0">
      <text x="5" y="-4">20:27</text>
    </g>
    <g transform="translate(4,30)" s:x="4" s:y="10" s:pid="out0">
      <text x="5" y="-4">0:19</text>
    </g>
  </g>
  <line x1="37" x2="104" y1="97.5" y2="97.5" class="net_14,15,16,17,18,19,20,21,22,23,24,25,26,27,28,29,30,31,32,33"/>
  <line x1="289" x2="361" y1="334.5" y2="334.5" class="net_10"/>
  <line x1="361" x2="361" y1="334.5" y2="445.5" class="net_10"/>
  <line x1="361" x2="401" y1="445.5" y2="445.5" class="net_10"/>
  <line x1="292" x2="401" y1="460.5" y2="460.5" class="net_35"/>
  <line x1="132" x2="261" y1="460.5" y2="460.5" class="net_2,3,4,5,6,7,8,9"/>
  <line x1="132" x2="234" y1="460.5" y2="460.5" class="net_2,3,4,5,6,7,8,9"/>
  <line x1="234" x2="234" y1="460.5" y2="505.5" class="net_2,3,4,5,6,7,8,9"/>
  <circle cx="234" cy="460.5" r="2" style="fill:#000" class="net_2,3,4,5,6,7,8,9"/>
  <line x1="234" x2="405.6666666666667" y1="505.5" y2="505.5" class="net_2,3,4,5,6,7,8,9"/>
  <line x1="687" x2="707" y1="671" y2="671" class="net_14,15,16,17,18,19,20,21,22,23,24,25,26,27,28,29,30,31,32,33,37,38,39,40,41,42,43,44"/>
  <line x1="707" x2="707" y1="671" y2="722" class="net_14,15,16,17,18,19,20,21,22,23,24,25,26,27,28,29,30,31,32,33,37,38,39,40,41,42,43,44"/>
  <line x1="707" x2="224" y1="722" y2="722" class="net_14,15,16,17,18,19,20,21,22,23,24,25,26,27,28,29,30,31,32,33,37,38,39,40,41,42,43,44"/>
  <line x1="224" x2="224" y1="722" y2="128.5" class="net_14,15,16,17,18,19,20,21,22,23,24,25,26,27,28,29,30,31,32,33,37,38,39,40,41,42,43,44"/>
  <circle cx="707" cy="722" r="2" style="fill:#000" class="net_14,15,16,17,18,19,20,21,22,23,24,25,26,27,28,29,30,31,32,33,37,38,39,40,41,42,43,44"/>
  <circle cx="707" cy="671" r="2" style="fill:#000" class="net_14,15,16,17,18,19,20,21,22,23,24,25,26,27,28,29,30,31,32,33,37,38,39,40,41,42,43,44"/>
  <line x1="224" x2="261" y1="128.5" y2="128.5" class="net_14,15,16,17,18,19,20,21,22,23,24,25,26,27,28,29,30,31,32,33,37,38,39,40,41,42,43,44"/>
  <line x1="687" x2="725" y1="671" y2="671" class="net_14,15,16,17,18,19,20,21,22,23,24,25,26,27,28,29,30,31,32,33,37,38,39,40,41,42,43,44"/>
  <line x1="687" x2="707" y1="671" y2="671" class="net_14,15,16,17,18,19,20,21,22,23,24,25,26,27,28,29,30,31,32,33,37,38,39,40,41,42,43,44"/>
  <line x1="707" x2="707" y1="671" y2="744" class="net_14,15,16,17,18,19,20,21,22,23,24,25,26,27,28,29,30,31,32,33,37,38,39,40,41,42,43,44"/>
  <line x1="707" x2="12" y1="744" y2="744" class="net_14,15,16,17,18,19,20,21,22,23,24,25,26,27,28,29,30,31,32,33,37,38,39,40,41,42,43,44"/>
  <line x1="12" x2="12" y1="744" y2="107.5" class="net_14,15,16,17,18,19,20,21,22,23,24,25,26,27,28,29,30,31,32,33,37,38,39,40,41,42,43,44"/>
  <line x1="12" x2="32" y1="107.5" y2="107.5" class="net_14,15,16,17,18,19,20,21,22,23,24,25,26,27,28,29,30,31,32,33,37,38,39,40,41,42,43,44"/>
  <line x1="292" x2="474" y1="128.5" y2="128.5" class="net_45"/>
  <line x1="292" x2="381" y1="128.5" y2="128.5" class="net_45"/>
  <line x1="381" x2="381" y1="128.5" y2="419.5" class="net_45"/>
  <line x1="381" x2="414.3333333333333" y1="419.5" y2="419.5" class="net_45"/>
  <circle cx="381" cy="128.5" r="2" style="fill:#000" class="net_45"/>
  <line x1="414.3333333333333" x2="414.3333333333333" y1="419.5" y2="404.5" class="net_45"/>
  <line x1="292" x2="381" y1="128.5" y2="128.5" class="net_45"/>
  <line x1="381" x2="381" y1="128.5" y2="294.5" class="net_45"/>
  <line x1="381" x2="414.3333333333333" y1="294.5" y2="294.5" class="net_45"/>
  <circle cx="381" cy="294.5" r="2" style="fill:#000" class="net_45"/>
  <line x1="414.3333333333333" x2="414.3333333333333" y1="294.5" y2="279.5" class="net_45"/>
  <line x1="292" x2="451" y1="128.5" y2="128.5" class="net_45"/>
  <line x1="451" x2="451" y1="128.5" y2="243.5" class="net_45"/>
  <line x1="451" x2="546" y1="243.5" y2="243.5" class="net_45"/>
  <circle cx="451" cy="128.5" r="2" style="fill:#000" class="net_45"/>
  <line x1="546" x2="546" y1="243.5" y2="228.5" class="net_45"/>
  <line x1="752" x2="762" y1="233.5" y2="233.5" class="net_46"/>
  <line x1="762" x2="762" y1="233.5" y2="106" class="net_46"/>
  <line x1="762" x2="461" y1="106" y2="106" class="net_46"/>
  <line x1="461" x2="461" y1="106" y2="143.5" class="net_46"/>
  <line x1="461" x2="474" y1="143.5" y2="143.5" class="net_46"/>
  <line x1="619" x2="632" y1="650" y2="650" class="net_12"/>
  <line x1="632" x2="632" y1="650" y2="691" class="net_12"/>
  <circle cx="632" cy="650" r="2" style="fill:#000" class="net_12"/>
  <line x1="632" x2="657" y1="691" y2="691" class="net_12"/>
  <line x1="619" x2="697" y1="650" y2="650" class="net_12"/>
  <line x1="697" x2="697" y1="650" y2="253.5" class="net_12"/>
  <line x1="697" x2="722" y1="253.5" y2="253.5" class="net_12"/>
  <line x1="622" x2="642" y1="575.5" y2="575.5" class="net_47,48,49,50,51,52,53,54,55,56,57,58,59,60,61,62,63,64,65,66,67,68,69,70,71,72,73,74"/>
  <line x1="642" x2="642" y1="575.5" y2="671" class="net_47,48,49,50,51,52,53,54,55,56,57,58,59,60,61,62,63,64,65,66,67,68,69,70,71,72,73,74"/>
  <line x1="642" x2="657" y1="671" y2="671" class="net_47,48,49,50,51,52,53,54,55,56,57,58,59,60,61,62,63,64,65,66,67,68,69,70,71,72,73,74"/>
  <line x1="680.3333333333334" x2="722" y1="233.5" y2="233.5" class="net_75"/>
  <line x1="134" x2="214" y1="244.5" y2="244.5" class="net_76,77,78,79,80,81,82,83"/>
  <line x1="214" x2="214" y1="244.5" y2="389.5" class="net_76,77,78,79,80,81,82,83"/>
  <line x1="214" x2="282" y1="389.5" y2="389.5" class="net_76,77,78,79,80,81,82,83"/>
  <line x1="148.33333333333331" x2="204" y1="174.5" y2="174.5" class="net_84,85,86,87,88,89,90,91"/>
  <line x1="204" x2="204" y1="174.5" y2="409.5" class="net_84,85,86,87,88,89,90,91"/>
  <line x1="204" x2="282" y1="409.5" y2="409.5" class="net_84,85,86,87,88,89,90,91"/>
  <line x1="135" x2="234" y1="97.5" y2="97.5" class="net_34"/>
  <line x1="234" x2="234" y1="97.5" y2="429.5" class="net_34"/>
  <line x1="234" x2="292" y1="429.5" y2="429.5" class="net_34"/>
  <line x1="292" x2="292" y1="429.5" y2="414.5" class="net_34"/>
  <line x1="135" x2="234" y1="97.5" y2="97.5" class="net_34"/>
  <line x1="234" x2="234" y1="97.5" y2="304.5" class="net_34"/>
  <line x1="234" x2="292" y1="304.5" y2="304.5" class="net_34"/>
  <circle cx="234" cy="304.5" r="2" style="fill:#000" class="net_34"/>
  <line x1="292" x2="292" y1="304.5" y2="289.5" class="net_34"/>
  <line x1="291" x2="371" y1="196" y2="196" class="net_206,207,208,209,210,211,212,213"/>
  <line x1="371" x2="371" y1="196" y2="379.5" class="net_206,207,208,209,210,211,212,213"/>
  <circle cx="371" cy="379.5" r="2" style="fill:#000" class="net_206,207,208,209,210,211,212,213"/>
  <line x1="371" x2="404.3333333333333" y1="379.5" y2="379.5" class="net_206,207,208,209,210,211,212,213"/>
  <line x1="291" x2="371" y1="196" y2="196" class="net_206,207,208,209,210,211,212,213"/>
  <line x1="371" x2="371" y1="196" y2="429.5" class="net_206,207,208,209,210,211,212,213"/>
  <line x1="371" x2="536" y1="429.5" y2="429.5" class="net_206,207,208,209,210,211,212,213"/>
  <line x1="302" x2="404.3333333333333" y1="399.5" y2="399.5" class="net_92,93,94,95,96,97,98,99"/>
  <line x1="424.3333333333333" x2="451" y1="389.5" y2="389.5" class="net_100,101,102,103,104,105,106,107"/>
  <line x1="451" x2="451" y1="389.5" y2="493" class="net_100,101,102,103,104,105,106,107"/>
  <line x1="451" x2="474.3333333333333" y1="493" y2="493" class="net_100,101,102,103,104,105,106,107"/>
  <line x1="427.6666666666667" x2="474.3333333333333" y1="513" y2="513" class="net_108,109,110,111,112,113,114,115"/>
  <line x1="431" x2="441" y1="453" y2="453" class="net_36"/>
  <line x1="441" x2="441" y1="453" y2="533" class="net_36"/>
  <line x1="441" x2="484.3333333333333" y1="533" y2="533" class="net_36"/>
  <circle cx="441" cy="453" r="2" style="fill:#000" class="net_36"/>
  <circle cx="441" cy="533" r="2" style="fill:#000" class="net_36"/>
  <line x1="484.3333333333333" x2="484.3333333333333" y1="533" y2="518" class="net_36"/>
  <line x1="431" x2="441" y1="453" y2="453" class="net_36"/>
  <line x1="441" x2="441" y1="453" y2="304.5" class="net_36"/>
  <line x1="441" x2="484.3333333333333" y1="304.5" y2="304.5" class="net_36"/>
  <line x1="484.3333333333333" x2="484.3333333333333" y1="304.5" y2="289.5" class="net_36"/>
  <line x1="431" x2="441" y1="453" y2="453" class="net_36"/>
  <line x1="441" x2="441" y1="453" y2="543" class="net_36"/>
  <line x1="441" x2="612" y1="543" y2="543" class="net_36"/>
  <line x1="612" x2="612" y1="543" y2="238.5" class="net_36"/>
  <line x1="494.3333333333333" x2="511" y1="503" y2="503" class="net_116,117,118,119,120,121,122,123"/>
  <line x1="511" x2="511" y1="503" y2="409.5" class="net_116,117,118,119,120,121,122,123"/>
  <line x1="511" x2="536" y1="409.5" y2="409.5" class="net_116,117,118,119,120,121,122,123"/>
  <line x1="499" x2="521" y1="334.5" y2="334.5" class="net_13"/>
  <line x1="521" x2="521" y1="334.5" y2="449.5" class="net_13"/>
  <line x1="521" x2="546" y1="449.5" y2="449.5" class="net_13"/>
  <circle cx="521" cy="334.5" r="2" style="fill:#000" class="net_13"/>
  <line x1="546" x2="546" y1="449.5" y2="434.5" class="net_13"/>
  <line x1="499" x2="546" y1="334.5" y2="334.5" class="net_13"/>
  <line x1="546" x2="546" y1="334.5" y2="299.5" class="net_13"/>
  <line x1="499" x2="521" y1="334.5" y2="334.5" class="net_13"/>
  <line x1="521" x2="521" y1="334.5" y2="344.5" class="net_13"/>
  <line x1="521" x2="670.3333333333334" y1="344.5" y2="344.5" class="net_13"/>
  <circle cx="521" cy="344.5" r="2" style="fill:#000" class="net_13"/>
  <line x1="670.3333333333334" x2="670.3333333333334" y1="344.5" y2="248.5" class="net_13"/>
  <line x1="134" x2="282" y1="264.5" y2="264.5" class="net_124,125,126,127,128,129,130,131,132,133,134,135,136,137,138,139,140,141,142,143"/>
  <line x1="134" x2="244" y1="32" y2="32" class="net_222,223,224,225,226,227,228,229,230,231,232,233,234,235,236,237,238,239,240,241"/>
  <line x1="244" x2="244" y1="32" y2="284.5" class="net_222,223,224,225,226,227,228,229,230,231,232,233,234,235,236,237,238,239,240,241"/>
  <circle cx="244" cy="32" r="2" style="fill:#000" class="net_222,223,224,225,226,227,228,229,230,231,232,233,234,235,236,237,238,239,240,241"/>
  <line x1="244" x2="282" y1="284.5" y2="284.5" class="net_222,223,224,225,226,227,228,229,230,231,232,233,234,235,236,237,238,239,240,241"/>
  <line x1="134" x2="441" y1="32" y2="32" class="net_222,223,224,225,226,227,228,229,230,231,232,233,234,235,236,237,238,239,240,241"/>
  <line x1="441" x2="441" y1="32" y2="284.5" class="net_222,223,224,225,226,227,228,229,230,231,232,233,234,235,236,237,238,239,240,241"/>
  <line x1="441" x2="474.3333333333333" y1="284.5" y2="284.5" class="net_222,223,224,225,226,227,228,229,230,231,232,233,234,235,236,237,238,239,240,241"/>
  <line x1="291" x2="391" y1="63" y2="63" class="net_242,243,244,245,246,247,248,249,250,251,252,253,254,255,256,257,258,259,260,261"/>
  <line x1="391" x2="391" y1="63" y2="254.5" class="net_242,243,244,245,246,247,248,249,250,251,252,253,254,255,256,257,258,259,260,261"/>
  <circle cx="391" cy="63" r="2" style="fill:#000" class="net_242,243,244,245,246,247,248,249,250,251,252,253,254,255,256,257,258,259,260,261"/>
  <line x1="391" x2="404.3333333333333" y1="254.5" y2="254.5" class="net_242,243,244,245,246,247,248,249,250,251,252,253,254,255,256,257,258,259,260,261"/>
  <line x1="291" x2="511" y1="63" y2="63" class="net_242,243,244,245,246,247,248,249,250,251,252,253,254,255,256,257,258,259,260,261"/>
  <line x1="511" x2="511" y1="63" y2="294.5" class="net_242,243,244,245,246,247,248,249,250,251,252,253,254,255,256,257,258,259,260,261"/>
  <line x1="511" x2="536" y1="294.5" y2="294.5" class="net_242,243,244,245,246,247,248,249,250,251,252,253,254,255,256,257,258,259,260,261"/>
  <line x1="302" x2="404.3333333333333" y1="274.5" y2="274.5" class="net_144,145,146,147,148,149,150,151,152,153,154,155,156,157,158,159,160,161,162,163"/>
  <line x1="424.3333333333333" x2="474.3333333333333" y1="264.5" y2="264.5" class="net_164,165,166,167,168,169,170,171,172,173,174,175,176,177,178,179,180,181,182,183"/>
  <line x1="494.3333333333333" x2="536" y1="274.5" y2="274.5" class="net_184,185,186,187,188,189,190,191,192,193,194,195,196,197,198,199,200,201,202,203"/>
  <line x1="501" x2="536" y1="203.5" y2="203.5" class="net_302"/>
  <line x1="501" x2="521" y1="136" y2="136" class="net_11"/>
  <line x1="521" x2="521" y1="136" y2="223.5" class="net_11"/>
  <circle cx="521" cy="136" r="2" style="fill:#000" class="net_11"/>
  <line x1="521" x2="536" y1="223.5" y2="223.5" class="net_11"/>
  <line x1="501" x2="566" y1="136" y2="136" class="net_11"/>
  <line x1="566" x2="566" y1="136" y2="233.5" class="net_11"/>
  <circle cx="566" cy="136" r="2" style="fill:#000" class="net_11"/>
  <line x1="566" x2="602" y1="233.5" y2="233.5" class="net_11"/>
  <line x1="501" x2="632" y1="136" y2="136" class="net_11"/>
  <line x1="632" x2="632" y1="136" y2="243.5" class="net_11"/>
  <circle cx="632" cy="136" r="2" style="fill:#000" class="net_11"/>
  <line x1="632" x2="660.3333333333334" y1="243.5" y2="243.5" class="net_11"/>
  <line x1="501" x2="722" y1="136" y2="136" class="net_11"/>
  <line x1="556" x2="602" y1="213.5" y2="213.5" class="net_204"/>
  <line x1="622" x2="660.3333333333334" y1="223.5" y2="223.5" class="net_205"/>
  <line x1="62" x2="82" y1="182" y2="182" class="net_303"/>
  <line x1="82" x2="82" y1="182" y2="711" class="net_303"/>
  <line x1="82" x2="361" y1="711" y2="711" class="net_303"/>
  <line x1="361" x2="361" y1="711" y2="520.5" class="net_303"/>
  <circle cx="82" cy="182" r="2" style="fill:#000" class="net_303"/>
  <circle cx="361" cy="711" r="2" style="fill:#000" class="net_303"/>
  <line x1="361" x2="405.6666666666667" y1="520.5" y2="520.5" class="net_303"/>
  <line x1="62" x2="126.33333333333333" y1="182" y2="182" class="net_303"/>
  <line x1="62" x2="82" y1="182" y2="182" class="net_303"/>
  <line x1="82" x2="82" y1="182" y2="711" class="net_303"/>
  <line x1="82" x2="697" y1="711" y2="711" class="net_303"/>
  <line x1="697" x2="697" y1="711" y2="686" class="net_303"/>
  <line x1="697" x2="725" y1="686" y2="686" class="net_303"/>
  <line x1="37" x2="72" y1="117.5" y2="117.5" class="net_37,38,39,40,41,42,43,44"/>
  <line x1="72" x2="72" y1="117.5" y2="167" class="net_37,38,39,40,41,42,43,44"/>
  <line x1="72" x2="126.33333333333333" y1="167" y2="167" class="net_37,38,39,40,41,42,43,44"/>
  <line x1="556" x2="576" y1="284.5" y2="284.5" class="net_47,48,49,50,51,52,53,54,55,56,57,58,59,60,61,62,63,64,65,66"/>
  <line x1="576" x2="576" y1="284.5" y2="565.5" class="net_47,48,49,50,51,52,53,54,55,56,57,58,59,60,61,62,63,64,65,66"/>
  <line x1="576" x2="616" y1="565.5" y2="565.5" class="net_47,48,49,50,51,52,53,54,55,56,57,58,59,60,61,62,63,64,65,66"/>
  <line x1="556" x2="566" y1="419.5" y2="419.5" class="net_67,68,69,70,71,72,73,74"/>
  <line x1="566" x2="566" y1="419.5" y2="585.5" class="net_67,68,69,70,71,72,73,74"/>
  <line x1="566" x2="616" y1="585.5" y2="585.5" class="net_67,68,69,70,71,72,73,74"/>
  <line x1="747" x2="762" y1="678.5" y2="678.5" class="net_124,125,126,127,128,129,130,131,132,133,134,135,136,137,138,139,140,141,142,143,76,77,78,79,80,81,82,83"/>
  <line x1="762" x2="762" y1="678.5" y2="733" class="net_124,125,126,127,128,129,130,131,132,133,134,135,136,137,138,139,140,141,142,143,76,77,78,79,80,81,82,83"/>
  <line x1="762" x2="72" y1="733" y2="733" class="net_124,125,126,127,128,129,130,131,132,133,134,135,136,137,138,139,140,141,142,143,76,77,78,79,80,81,82,83"/>
  <line x1="72" x2="72" y1="733" y2="254.5" class="net_124,125,126,127,128,129,130,131,132,133,134,135,136,137,138,139,140,141,142,143,76,77,78,79,80,81,82,83"/>
  <line x1="72" x2="129" y1="254.5" y2="254.5" class="net_124,125,126,127,128,129,130,131,132,133,134,135,136,137,138,139,140,141,142,143,76,77,78,79,80,81,82,83"/>
</svg>
