<svg xmlns="http://www.w3.org/2000/svg" xmlns:xlink="http://www.w3.org/1999/xlink" xmlns:s="https://github.com/nturley/netlistsvg" width="762" height="875">
  <style>svg {
    stroke:#000;
    fill:none;
  }
  text {
    fill:#000;
    stroke:none;
    font-size:10px;
    font-weight: bold;
    font-family: "Courier New", monospace;
  }
  .nodelabel {
    text-anchor: middle;
  }
  .inputPortLabel {
    text-anchor: end;
  }
  .splitjoinBody {
    fill:#000;
  }</style>
  <g s:type="inputExt" transform="translate(336,689)" s:width="30" s:height="20">
    <text x="15" y="-4" class="nodelabel" s:attribute="ref">clk</text>
    <s:alias val="$_inputExt_"/>
    <path d="M0,0 L0,20 L15,20 L30,10 L15,0 Z"/>
    <g s:x="28" s:y="10" s:pid="Y"/>
  </g>
  <g s:type="inputExt" transform="translate(12,210.5)" s:width="30" s:height="20">
    <text x="15" y="-4" class="nodelabel" s:attribute="ref">addr</text>
    <s:alias val="$_inputExt_"/>
    <path d="M0,0 L0,20 L15,20 L30,10 L15,0 Z"/>
    <g s:x="28" s:y="10" s:pid="Y"/>
  </g>
  <g s:type="inputExt" transform="translate(89,843)" s:width="30" s:height="20">
    <text x="15" y="-4" class="nodelabel" s:attribute="ref">write_en</text>
    <s:alias val="$_inputExt_"/>
    <path d="M0,0 L0,20 L15,20 L30,10 L15,0 Z"/>
    <g s:x="28" s:y="10" s:pid="Y"/>
  </g>
  <g s:type="inputExt" transform="translate(257,665)" s:width="30" s:height="20">
    <text x="15" y="-4" class="nodelabel" s:attribute="ref">rst</text>
    <s:alias val="$_inputExt_"/>
    <path d="M0,0 L0,20 L15,20 L30,10 L15,0 Z"/>
    <g s:x="28" s:y="10" s:pid="Y"/>
  </g>
  <g s:type="inputExt" transform="translate(183,583.5)" s:width="30" s:height="20">
    <text x="15" y="-4" class="nodelabel" s:attribute="ref">din</text>
    <s:alias val="$_inputExt_"/>
    <path d="M0,0 L0,20 L15,20 L30,10 L15,0 Z"/>
    <g s:x="28" s:y="10" s:pid="Y"/>
  </g>
  <g s:type="outputExt" transform="translate(708,58)" s:width="30" s:height="20">
    <text x="15" y="-4" class="nodelabel" s:attribute="ref">dout</text>
    <s:alias val="$_outputExt_"/>
    <path d="M30,0 L30,20 L15,20 L0,10 L15,0 Z"/>
    <g s:x="0" s:y="10" s:pid="A"/>
  </g>
  <g s:type="and" transform="translate(540,648.5)" s:width="30" s:height="25">
    <s:alias val="$and"/>
    <s:alias val="$logic_and"/>
    <s:alias val="$_AND_"/>
    <path d="M0,0 L0,25 L15,25 A15 12.5 0 0 0 15,0 Z"/>
    <g s:x="0" s:y="5" s:pid="A"/>
    <g s:x="0" s:y="20" s:pid="B"/>
    <g s:x="30" s:y="12.5" s:pid="Y"/>
  </g>
  <g s:type="eq" transform="translate(98.66666666666667,530)" s:width="25" s:height="25">
    <s:alias val="$eq"/>
    <circle r="12.5" cx="12.5" cy="12.5"/>
    <line x1="7.5" x2="17.5" y1="10" y2="10"/>
    <line x1="7.5" x2="17.5" y1="15" y2="15"/>
    <g s:x="3" s:y="5" s:pid="A"/>
    <g s:x="3" s:y="20" s:pid="B"/>
    <g s:x="25" s:y="12.5" s:pid="Y"/>
  </g>
  <g s:type="eq" transform="translate(98.66666666666667,779)" s:width="25" s:height="25">
    <s:alias val="$eq"/>
    <circle r="12.5" cx="12.5" cy="12.5"/>
    <line x1="7.5" x2="17.5" y1="10" y2="10"/>
    <line x1="7.5" x2="17.5" y1="15" y2="15"/>
    <g s:x="3" s:y="5" s:pid="A"/>
    <g s:x="3" s:y="20" s:pid="B"/>
    <g s:x="25" s:y="12.5" s:pid="Y"/>
  </g>
  <g s:type="and" transform="translate(186,638.5)" s:width="30" s:height="25">
    <s:alias val="$and"/>
    <s:alias val="$logic_and"/>
    <s:alias val="$_AND_"/>
    <path d="M0,0 L0,25 L15,25 A15 12.5 0 0 0 15,0 Z"/>
    <g s:x="0" s:y="5" s:pid="A"/>
    <g s:x="0" s:y="20" s:pid="B"/>
    <g s:x="30" s:y="12.5" s:pid="Y"/>
  </g>
  <g s:type="and" transform="translate(186,771.5)" s:width="30" s:height="25">
    <s:alias val="$and"/>
    <s:alias val="$logic_and"/>
    <s:alias val="$_AND_"/>
    <path d="M0,0 L0,25 L15,25 A15 12.5 0 0 0 15,0 Z"/>
    <g s:x="0" s:y="5" s:pid="A"/>
    <g s:x="0" s:y="20" s:pid="B"/>
    <g s:x="30" s:y="12.5" s:pid="Y"/>
  </g>
  <g s:type="not" transform="translate(606.5,651)" s:width="30" s:height="20">
    <s:alias val="$_NOT_"/>
    <s:alias val="$not"/>
    <path d="M0,0 L0,20 L20,10 Z"/>
    <circle cx="23" cy="10" r="3"/>
    <g s:x="0" s:y="10" s:pid="A"/>
    <g s:x="25" s:y="10" s:pid="Y"/>
  </g>
  <g s:type="not" transform="translate(606.5,591)" s:width="30" s:height="20">
    <s:alias val="$_NOT_"/>
    <s:alias val="$not"/>
    <path d="M0,0 L0,20 L20,10 Z"/>
    <circle cx="23" cy="10" r="3"/>
    <g s:x="0" s:y="10" s:pid="A"/>
    <g s:x="25" s:y="10" s:pid="Y"/>
  </g>
  <g s:type="not" transform="translate(606.5,277.5)" s:width="30" s:height="20">
    <s:alias val="$_NOT_"/>
    <s:alias val="$not"/>
    <path d="M0,0 L0,20 L20,10 Z"/>
    <circle cx="23" cy="10" r="3"/>
    <g s:x="0" s:y="10" s:pid="A"/>
    <g s:x="25" s:y="10" s:pid="Y"/>
  </g>
  <g s:type="or" transform="translate(540,588.5)" s:width="30" s:height="25">
    <s:alias val="$or"/>
    <s:alias val="$logic_or"/>
    <s:alias val="$_OR_"/>
    <path d="M0,25 L0,25 L15,25 A15 12.5 0 0 0 15,0 L0,0"/>
    <path d="M0,0 A30 25 0 0 1 0,25"/>
    <g s:x="3" s:y="5" s:pid="A"/>
    <g s:x="3" s:y="20" s:pid="B"/>
    <g s:x="30" s:y="12.5" s:pid="Y"/>
  </g>
  <g s:type="dff" transform="translate(410,669)" s:width="30" s:height="40">
    <s:alias val="$dff"/>
    <s:alias val="$_DFF_"/>
    <rect width="30" height="40" x="0" y="0"/>
    <path d="M0,35 L5,30 L0,25"/>
    <g s:x="30" s:y="10" s:pid="Q"/>
    <g s:x="0" s:y="30" s:pid="CLK"/>
    <g s:x="0" s:y="10" s:pid="D"/>
  </g>
  <g s:type="dff" transform="translate(410,583.5)" s:width="30" s:height="40">
    <s:alias val="$dff"/>
    <s:alias val="$_DFF_"/>
    <rect width="30" height="40" x="0" y="0"/>
    <path d="M0,35 L5,30 L0,25"/>
    <g s:x="30" s:y="10" s:pid="Q"/>
    <g s:x="0" s:y="30" s:pid="CLK"/>
    <g s:x="0" s:y="10" s:pid="D"/>
  </g>
  <g s:type="mux" transform="translate(611.5,48)" s:width="20" s:height="40">
    <s:alias val="$pmux"/>
    <s:alias val="$mux"/>
    <s:alias val="$_MUX_"/>
    <path d="M0,0 L20,10 L20,30 L0,40 Z"/>
    <g s:x="0" s:y="10" s:pid="A"/>
    <g s:x="0" s:y="30" s:pid="B"/>
    <g s:x="10" s:y="35" s:pid="S"/>
    <g s:x="20" s:y="20" s:pid="Y"/>
  </g>
  <g s:type="eq" transform="translate(411.6666666666667,12)" s:width="25" s:height="25">
    <s:alias val="$eq"/>
    <circle r="12.5" cx="12.5" cy="12.5"/>
    <line x1="7.5" x2="17.5" y1="10" y2="10"/>
    <line x1="7.5" x2="17.5" y1="15" y2="15"/>
    <g s:x="3" s:y="5" s:pid="A"/>
    <g s:x="3" s:y="20" s:pid="B"/>
    <g s:x="25" s:y="12.5" s:pid="Y"/>
  </g>
  <g s:type="eq" transform="translate(411.6666666666667,95.5)" s:width="25" s:height="25">
    <s:alias val="$eq"/>
    <circle r="12.5" cx="12.5" cy="12.5"/>
    <line x1="7.5" x2="17.5" y1="10" y2="10"/>
    <line x1="7.5" x2="17.5" y1="15" y2="15"/>
    <g s:x="3" s:y="5" s:pid="A"/>
    <g s:x="3" s:y="20" s:pid="B"/>
    <g s:x="25" s:y="12.5" s:pid="Y"/>
  </g>
  <g s:type="eq" transform="translate(411.6666666666667,155.5)" s:width="25" s:height="25">
    <s:alias val="$eq"/>
    <circle r="12.5" cx="12.5" cy="12.5"/>
    <line x1="7.5" x2="17.5" y1="10" y2="10"/>
    <line x1="7.5" x2="17.5" y1="15" y2="15"/>
    <g s:x="3" s:y="5" s:pid="A"/>
    <g s:x="3" s:y="20" s:pid="B"/>
    <g s:x="25" s:y="12.5" s:pid="Y"/>
  </g>
  <g s:type="eq" transform="translate(411.6666666666667,215.5)" s:width="25" s:height="25">
    <s:alias val="$eq"/>
    <circle r="12.5" cx="12.5" cy="12.5"/>
    <line x1="7.5" x2="17.5" y1="10" y2="10"/>
    <line x1="7.5" x2="17.5" y1="15" y2="15"/>
    <g s:x="3" s:y="5" s:pid="A"/>
    <g s:x="3" s:y="20" s:pid="B"/>
    <g s:x="25" s:y="12.5" s:pid="Y"/>
  </g>
  <g s:type="eq" transform="translate(411.6666666666667,275.5)" s:width="25" s:height="25">
    <s:alias val="$eq"/>
    <circle r="12.5" cx="12.5" cy="12.5"/>
    <line x1="7.5" x2="17.5" y1="10" y2="10"/>
    <line x1="7.5" x2="17.5" y1="15" y2="15"/>
    <g s:x="3" s:y="5" s:pid="A"/>
    <g s:x="3" s:y="20" s:pid="B"/>
    <g s:x="25" s:y="12.5" s:pid="Y"/>
  </g>
  <g s:type="eq" transform="translate(411.6666666666667,335.5)" s:width="25" s:height="25">
    <s:alias val="$eq"/>
    <circle r="12.5" cx="12.5" cy="12.5"/>
    <line x1="7.5" x2="17.5" y1="10" y2="10"/>
    <line x1="7.5" x2="17.5" y1="15" y2="15"/>
    <g s:x="3" s:y="5" s:pid="A"/>
    <g s:x="3" s:y="20" s:pid="B"/>
    <g s:x="25" s:y="12.5" s:pid="Y"/>
  </g>
  <g s:type="eq" transform="translate(411.6666666666667,395.5)" s:width="25" s:height="25">
    <s:alias val="$eq"/>
    <circle r="12.5" cx="12.5" cy="12.5"/>
    <line x1="7.5" x2="17.5" y1="10" y2="10"/>
    <line x1="7.5" x2="17.5" y1="15" y2="15"/>
    <g s:x="3" s:y="5" s:pid="A"/>
    <g s:x="3" s:y="20" s:pid="B"/>
    <g s:x="25" s:y="12.5" s:pid="Y"/>
  </g>
  <g s:type="eq" transform="translate(411.6666666666667,455.5)" s:width="25" s:height="25">
    <s:alias val="$eq"/>
    <circle r="12.5" cx="12.5" cy="12.5"/>
    <line x1="7.5" x2="17.5" y1="10" y2="10"/>
    <line x1="7.5" x2="17.5" y1="15" y2="15"/>
    <g s:x="3" s:y="5" s:pid="A"/>
    <g s:x="3" s:y="20" s:pid="B"/>
    <g s:x="25" s:y="12.5" s:pid="Y"/>
  </g>
  <g s:type="mux" transform="translate(266.66666666666663,734)" s:width="20" s:height="40">
    <s:alias val="$pmux"/>
    <s:alias val="$mux"/>
    <s:alias val="$_MUX_"/>
    <path d="M0,0 L20,10 L20,30 L0,40 Z"/>
    <g s:x="0" s:y="10" s:pid="A"/>
    <g s:x="0" s:y="30" s:pid="B"/>
    <g s:x="10" s:y="35" s:pid="S"/>
    <g s:x="20" s:y="20" s:pid="Y"/>
  </g>
  <g s:type="mux" transform="translate(342.3333333333333,744)" s:width="20" s:height="40">
    <s:alias val="$pmux"/>
    <s:alias val="$mux"/>
    <s:alias val="$_MUX_"/>
    <path d="M0,0 L20,10 L20,30 L0,40 Z"/>
    <g s:x="0" s:y="10" s:pid="A"/>
    <g s:x="0" s:y="30" s:pid="B"/>
    <g s:x="10" s:y="35" s:pid="S"/>
    <g s:x="20" s:y="20" s:pid="Y"/>
  </g>
  <g s:type="mux" transform="translate(266.66666666666663,563.5)" s:width="20" s:height="40">
    <s:alias val="$pmux"/>
    <s:alias val="$mux"/>
    <s:alias val="$_MUX_"/>
    <path d="M0,0 L20,10 L20,30 L0,40 Z"/>
    <g s:x="0" s:y="10" s:pid="A"/>
    <g s:x="0" s:y="30" s:pid="B"/>
    <g s:x="10" s:y="35" s:pid="S"/>
    <g s:x="20" s:y="20" s:pid="Y"/>
  </g>
  <g s:type="mux" transform="translate(342.3333333333333,573.5)" s:width="20" s:height="40">
    <s:alias val="$pmux"/>
    <s:alias val="$mux"/>
    <s:alias val="$_MUX_"/>
    <path d="M0,0 L20,10 L20,30 L0,40 Z"/>
    <g s:x="0" s:y="10" s:pid="A"/>
    <g s:x="0" s:y="30" s:pid="B"/>
    <g s:x="10" s:y="35" s:pid="S"/>
    <g s:x="20" s:y="20" s:pid="Y"/>
  </g>
  <g s:type="reduce_xor" transform="translate(605,332.5)" s:width="33" s:height="25">
    <s:alias val="$xor"/>
    <s:alias val="$reduce_xor"/>
    <s:alias val="$_XOR_"/>
    <path d="M3,0 A30 25 0 0 1 3,25 A30 25 0 0 0 33,12.5 A30 25 0 0 0 3,0"/>
    <path d="M0,0 A30 25 0 0 1 0,25"/>
    <g s:x="3" s:y="5" s:pid="A"/>
    <g s:x="3" s:y="20" s:pid="B"/>
    <g s:x="33" s:y="12.5" s:pid="Y"/>
  </g>
  <g s:type="constant" transform="translate(12,540)" s:width="30" s:height="20">
    <text x="15" y="-4" class="nodelabel" s:attribute="ref">0xf</text>
    <s:alias val="$_constant_"/>
    <rect width="30" height="20"/>
    <g s:x="30" s:y="10" s:pid="Y"/>
  </g>
  <g s:type="constant" transform="translate(12,789)" s:width="30" s:height="20">
    <text x="15" y="-4" class="nodelabel" s:attribute="ref">0x10</text>
    <s:alias val="$_constant_"/>
    <rect width="30" height="20"/>
    <g s:x="30" s:y="10" s:pid="Y"/>
  </g>
  <g s:type="constant" transform="translate(257,512.5)" s:width="30" s:height="20">
    <text x="15" y="-4" class="nodelabel" s:attribute="ref">0x0</text>
    <s:alias val="$_constant_"/>
    <rect width="30" height="20"/>
    <g s:x="30" s:y="10" s:pid="Y"/>
  </g>
  <g s:type="constant" transform="translate(605,692)" s:width="30" s:height="20">
    <text x="15" y="-4" class="nodelabel" s:attribute="ref">0</text>
    <s:alias val="$_constant_"/>
    <rect width="30" height="20"/>
    <g s:x="30" s:y="10" s:pid="Y"/>
  </g>
  <g s:type="constant" transform="translate(336,28)" s:width="30" s:height="20">
    <text x="15" y="-4" class="nodelabel" s:attribute="ref">0x18</text>
    <s:alias val="$_constant_"/>
    <rect width="30" height="20"/>
    <g s:x="30" s:y="10" s:pid="Y"/>
  </g>
  <g s:type="constant" transform="translate(336,111.5)" s:width="30" s:height="20">
    <text x="15" y="-4" class="nodelabel" s:attribute="ref">0x17</text>
    <s:alias val="$_constant_"/>
    <rect width="30" height="20"/>
    <g s:x="30" s:y="10" s:pid="Y"/>
  </g>
  <g s:type="constant" transform="translate(336,171.5)" s:width="30" s:height="20">
    <text x="15" y="-4" class="nodelabel" s:attribute="ref">0x16</text>
    <s:alias val="$_constant_"/>
    <rect width="30" height="20"/>
    <g s:x="30" s:y="10" s:pid="Y"/>
  </g>
  <g s:type="constant" transform="translate(336,231.5)" s:width="30" s:height="20">
    <text x="15" y="-4" class="nodelabel" s:attribute="ref">0x15</text>
    <s:alias val="$_constant_"/>
    <rect width="30" height="20"/>
    <g s:x="30" s:y="10" s:pid="Y"/>
  </g>
  <g s:type="constant" transform="translate(336,291.5)" s:width="30" s:height="20">
    <text x="15" y="-4" class="nodelabel" s:attribute="ref">0x14</text>
    <s:alias val="$_constant_"/>
    <rect width="30" height="20"/>
    <g s:x="30" s:y="10" s:pid="Y"/>
  </g>
  <g s:type="constant" transform="translate(336,351.5)" s:width="30" s:height="20">
    <text x="15" y="-4" class="nodelabel" s:attribute="ref">0x13</text>
    <s:alias val="$_constant_"/>
    <rect width="30" height="20"/>
    <g s:x="30" s:y="10" s:pid="Y"/>
  </g>
  <g s:type="constant" transform="translate(336,411.5)" s:width="30" s:height="20">
    <text x="15" y="-4" class="nodelabel" s:attribute="ref">0x12</text>
    <s:alias val="$_constant_"/>
    <rect width="30" height="20"/>
    <g s:x="30" s:y="10" s:pid="Y"/>
  </g>
  <g s:type="constant" transform="translate(336,471.5)" s:width="30" s:height="20">
    <text x="15" y="-4" class="nodelabel" s:attribute="ref">0x11</text>
    <s:alias val="$_constant_"/>
    <rect width="30" height="20"/>
    <g s:x="30" s:y="10" s:pid="Y"/>
  </g>
  <g s:type="join" transform="translate(708,314.5)" s:width="4" s:height="40">
    <rect width="5" height="180" class="splitjoinBody" s:generic="body"/>
    <s:alias val="$_join_"/>
    <g s:x="5" s:y="20" s:pid="out"/>
    <g transform="translate(0,10)" s:x="0" s:y="10" s:pid="in0">
      <text x="-3" y="-4" class="inputPortLabel">0:7</text>
    </g>
    <g transform="translate(0,30)" s:x="0" s:y="10" s:pid="in0">
      <text x="-3" y="-4" class="inputPortLabel">8:15</text>
    </g>
    <g transform="translate(0,50)" s:x="0" s:y="10" s:pid="in0">
      <text x="-3" y="-4" class="inputPortLabel">16:23</text>
    </g>
    <g transform="translate(0,70)" s:x="0" s:y="10" s:pid="in0">
      <text x="-3" y="-4" class="inputPortLabel">24:31</text>
    </g>
    <g transform="translate(0,90)" s:x="0" s:y="10" s:pid="in0">
      <text x="-3" y="-4" class="inputPortLabel">32:39</text>
    </g>
    <g transform="translate(0,110)" s:x="0" s:y="10" s:pid="in0">
      <text x="-3" y="-4" class="inputPortLabel">40:47</text>
    </g>
    <g transform="translate(0,130)" s:x="0" s:y="10" s:pid="in0">
      <text x="-3" y="-4" class="inputPortLabel">48</text>
    </g>
    <g transform="translate(0,150)" s:x="0" s:y="10" s:pid="in0">
      <text x="-3" y="-4" class="inputPortLabel">49:55</text>
    </g>
    <g transform="translate(0,170)" s:x="0" s:y="10" s:pid="in0">
      <text x="-3" y="-4" class="inputPortLabel">56:62</text>
    </g>
  </g>
  <g s:type="join" transform="translate(542.8888888888889,77.5)" s:width="4" s:height="40">
    <rect width="5" height="200" class="splitjoinBody" s:generic="body"/>
    <s:alias val="$_join_"/>
    <g s:x="5" s:y="20" s:pid="out"/>
    <g transform="translate(0,10)" s:x="0" s:y="10" s:pid="in0">
      <text x="-3" y="-4" class="inputPortLabel">0</text>
    </g>
    <g transform="translate(0,30)" s:x="0" s:y="10" s:pid="in0">
      <text x="-3" y="-4" class="inputPortLabel">1</text>
    </g>
    <g transform="translate(0,50)" s:x="0" s:y="10" s:pid="in0">
      <text x="-3" y="-4" class="inputPortLabel">2</text>
    </g>
    <g transform="translate(0,70)" s:x="0" s:y="10" s:pid="in0">
      <text x="-3" y="-4" class="inputPortLabel">3</text>
    </g>
    <g transform="translate(0,90)" s:x="0" s:y="10" s:pid="in0">
      <text x="-3" y="-4" class="inputPortLabel">4</text>
    </g>
    <g transform="translate(0,110)" s:x="0" s:y="10" s:pid="in0">
      <text x="-3" y="-4" class="inputPortLabel">5</text>
    </g>
    <g transform="translate(0,130)" s:x="0" s:y="10" s:pid="in0">
      <text x="-3" y="-4" class="inputPortLabel">6</text>
    </g>
    <g transform="translate(0,150)" s:x="0" s:y="10" s:pid="in0">
      <text x="-3" y="-4" class="inputPortLabel">7</text>
    </g>
    <g transform="translate(0,170)" s:x="0" s:y="10" s:pid="in0">
      <text x="-3" y="-4" class="inputPortLabel">8</text>
    </g>
    <g transform="translate(0,190)" s:x="0" s:y="10" s:pid="in0">
      <text x="-3" y="-4" class="inputPortLabel">9</text>
    </g>
  </g>
  <g s:type="split" transform="translate(614,749)" s:width="5" s:height="40">
    <rect width="5" height="40" class="splitjoinBody" s:generic="body"/>
    <s:alias val="$_split_"/>
    <g s:x="0" s:y="20" s:pid="in"/>
    <g transform="translate(4,10)" s:x="4" s:y="10" s:pid="out0">
      <text x="5" y="-4">0:6</text>
    </g>
    <g transform="translate(4,30)" s:x="4" s:y="10" s:pid="out0">
      <text x="5" y="-4">1:7</text>
    </g>
  </g>
  <line x1="631.5" y1="68" x2="708" y2="68"/>
  <line x1="440" y1="593.5" x2="520" y2="593.5"/>
  <line x1="520" y1="593.5" x2="520" y2="653.5"/>
  <circle cx="520" cy="653.5" r="2" style="fill:#000"/>
  <line x1="520" y1="653.5" x2="540" y2="653.5"/>
  <line x1="440" y1="593.5" x2="520" y2="593.5"/>
  <line x1="520" y1="593.5" x2="520" y2="287.5"/>
  <line x1="520" y1="287.5" x2="606.5" y2="287.5"/>
  <line x1="440" y1="593.5" x2="543" y2="593.5"/>
  <line x1="440" y1="593.5" x2="520" y2="593.5"/>
  <line x1="520" y1="593.5" x2="520" y2="553.5"/>
  <line x1="520" y1="553.5" x2="242" y2="553.5"/>
  <line x1="242" y1="553.5" x2="242" y2="573.5"/>
  <circle cx="520" cy="553.5" r="2" style="fill:#000"/>
  <circle cx="520" cy="593.5" r="2" style="fill:#000"/>
  <line x1="242" y1="573.5" x2="266.66666666666663" y2="573.5"/>
  <line x1="440" y1="593.5" x2="520" y2="593.5"/>
  <line x1="520" y1="593.5" x2="520" y2="287.5"/>
  <line x1="520" y1="287.5" x2="580" y2="287.5"/>
  <line x1="580" y1="287.5" x2="580" y2="337.5"/>
  <circle cx="580" cy="287.5" r="2" style="fill:#000"/>
  <line x1="580" y1="337.5" x2="608" y2="337.5"/>
  <line x1="440" y1="593.5" x2="520" y2="593.5"/>
  <line x1="520" y1="593.5" x2="520" y2="769.5"/>
  <line x1="520" y1="769.5" x2="614" y2="769.5"/>
  <line x1="440" y1="679" x2="530" y2="679"/>
  <line x1="530" y1="679" x2="530" y2="668.5"/>
  <circle cx="530" cy="679" r="2" style="fill:#000"/>
  <circle cx="530" cy="668.5" r="2" style="fill:#000"/>
  <line x1="530" y1="668.5" x2="540" y2="668.5"/>
  <line x1="440" y1="679" x2="530" y2="679"/>
  <line x1="530" y1="679" x2="530" y2="608.5"/>
  <circle cx="530" cy="608.5" r="2" style="fill:#000"/>
  <line x1="530" y1="608.5" x2="543" y2="608.5"/>
  <line x1="440" y1="679" x2="530" y2="679"/>
  <line x1="530" y1="679" x2="530" y2="804"/>
  <line x1="530" y1="804" x2="232" y2="804"/>
  <line x1="232" y1="804" x2="232" y2="744"/>
  <line x1="232" y1="744" x2="266.66666666666663" y2="744"/>
  <line x1="440" y1="679" x2="530" y2="679"/>
  <line x1="530" y1="679" x2="530" y2="352.5"/>
  <line x1="530" y1="352.5" x2="608" y2="352.5"/>
  <line x1="40" y1="220.5" x2="64" y2="220.5"/>
  <line x1="64" y1="220.5" x2="64" y2="535"/>
  <circle cx="64" cy="220.5" r="2" style="fill:#000"/>
  <circle cx="64" cy="535" r="2" style="fill:#000"/>
  <line x1="64" y1="535" x2="101.66666666666667" y2="535"/>
  <line x1="40" y1="220.5" x2="64" y2="220.5"/>
  <line x1="64" y1="220.5" x2="64" y2="784"/>
  <line x1="64" y1="784" x2="101.66666666666667" y2="784"/>
  <line x1="40" y1="220.5" x2="326" y2="220.5"/>
  <line x1="326" y1="220.5" x2="326" y2="17"/>
  <circle cx="326" cy="220.5" r="2" style="fill:#000"/>
  <line x1="326" y1="17" x2="414.6666666666667" y2="17"/>
  <line x1="40" y1="220.5" x2="326" y2="220.5"/>
  <line x1="326" y1="220.5" x2="326" y2="100.5"/>
  <circle cx="326" cy="100.5" r="2" style="fill:#000"/>
  <line x1="326" y1="100.5" x2="414.6666666666667" y2="100.5"/>
  <line x1="40" y1="220.5" x2="326" y2="220.5"/>
  <line x1="326" y1="220.5" x2="326" y2="160.5"/>
  <circle cx="326" cy="160.5" r="2" style="fill:#000"/>
  <line x1="326" y1="160.5" x2="414.6666666666667" y2="160.5"/>
  <line x1="40" y1="220.5" x2="414.6666666666667" y2="220.5"/>
  <line x1="40" y1="220.5" x2="326" y2="220.5"/>
  <line x1="326" y1="220.5" x2="326" y2="280.5"/>
  <circle cx="326" cy="280.5" r="2" style="fill:#000"/>
  <line x1="326" y1="280.5" x2="414.6666666666667" y2="280.5"/>
  <line x1="40" y1="220.5" x2="326" y2="220.5"/>
  <line x1="326" y1="220.5" x2="326" y2="340.5"/>
  <circle cx="326" cy="340.5" r="2" style="fill:#000"/>
  <line x1="326" y1="340.5" x2="414.6666666666667" y2="340.5"/>
  <line x1="40" y1="220.5" x2="326" y2="220.5"/>
  <line x1="326" y1="220.5" x2="326" y2="400.5"/>
  <circle cx="326" cy="400.5" r="2" style="fill:#000"/>
  <line x1="326" y1="400.5" x2="414.6666666666667" y2="400.5"/>
  <line x1="40" y1="220.5" x2="326" y2="220.5"/>
  <line x1="326" y1="220.5" x2="326" y2="460.5"/>
  <line x1="326" y1="460.5" x2="414.6666666666667" y2="460.5"/>
  <line x1="42" y1="550" x2="101.66666666666667" y2="550"/>
  <line x1="42" y1="799" x2="101.66666666666667" y2="799"/>
  <line x1="117" y1="853" x2="163" y2="853"/>
  <line x1="163" y1="853" x2="163" y2="643.5"/>
  <line x1="163" y1="643.5" x2="186" y2="643.5"/>
  <line x1="117" y1="853" x2="163" y2="853"/>
  <line x1="163" y1="853" x2="163" y2="776.5"/>
  <circle cx="163" cy="776.5" r="2" style="fill:#000"/>
  <line x1="163" y1="776.5" x2="186" y2="776.5"/>
  <line x1="123.66666666666667" y1="542.5" x2="173" y2="542.5"/>
  <line x1="173" y1="542.5" x2="173" y2="658.5"/>
  <circle cx="173" cy="542.5" r="2" style="fill:#000"/>
  <line x1="173" y1="658.5" x2="186" y2="658.5"/>
  <line x1="123.66666666666667" y1="542.5" x2="543.3888888888889" y2="542.5"/>
  <line x1="543.3888888888889" y1="542.5" x2="543.3888888888889" y2="268.5"/>
  <line x1="123.66666666666667" y1="791.5" x2="186" y2="791.5"/>
  <line x1="123.66666666666667" y1="791.5" x2="153" y2="791.5"/>
  <line x1="153" y1="791.5" x2="153" y2="501.5"/>
  <line x1="153" y1="501.5" x2="510" y2="501.5"/>
  <line x1="510" y1="501.5" x2="510" y2="248"/>
  <circle cx="153" cy="791.5" r="2" style="fill:#000"/>
  <line x1="510" y1="248" x2="542.8888888888889" y2="248"/>
  <line x1="570" y1="661" x2="606.5" y2="661"/>
  <line x1="570" y1="661" x2="580" y2="661"/>
  <line x1="580" y1="661" x2="580" y2="681"/>
  <line x1="580" y1="681" x2="678" y2="681"/>
  <line x1="678" y1="681" x2="678" y2="425"/>
  <circle cx="580" cy="661" r="2" style="fill:#000"/>
  <line x1="678" y1="425" x2="708" y2="425"/>
  <line x1="570" y1="601" x2="606.5" y2="601"/>
  <line x1="570" y1="601" x2="580" y2="601"/>
  <line x1="580" y1="601" x2="580" y2="621"/>
  <line x1="580" y1="621" x2="658" y2="621"/>
  <line x1="658" y1="621" x2="658" y2="385"/>
  <circle cx="580" cy="601" r="2" style="fill:#000"/>
  <line x1="658" y1="385" x2="708" y2="385"/>
  <line x1="364" y1="699" x2="410" y2="699"/>
  <line x1="364" y1="699" x2="385" y2="699"/>
  <line x1="385" y1="699" x2="385" y2="613.5"/>
  <circle cx="385" cy="699" r="2" style="fill:#000"/>
  <line x1="385" y1="613.5" x2="410" y2="613.5"/>
  <line x1="362.3333333333333" y1="764" x2="395" y2="764"/>
  <line x1="395" y1="764" x2="395" y2="679"/>
  <line x1="395" y1="679" x2="410" y2="679"/>
  <line x1="362.3333333333333" y1="593.5" x2="410" y2="593.5"/>
  <line x1="287" y1="522.5" x2="316" y2="522.5"/>
  <line x1="316" y1="522.5" x2="316" y2="58"/>
  <circle cx="316" cy="522.5" r="2" style="fill:#000"/>
  <line x1="316" y1="58" x2="611.5" y2="58"/>
  <line x1="287" y1="522.5" x2="316" y2="522.5"/>
  <line x1="316" y1="522.5" x2="316" y2="774"/>
  <line x1="316" y1="774" x2="342.3333333333333" y2="774"/>
  <line x1="287" y1="522.5" x2="316" y2="522.5"/>
  <line x1="316" y1="522.5" x2="316" y2="603.5"/>
  <circle cx="316" cy="603.5" r="2" style="fill:#000"/>
  <line x1="316" y1="603.5" x2="342.3333333333333" y2="603.5"/>
  <line x1="548.8888888888889" y1="98" x2="621.5" y2="98"/>
  <line x1="621.5" y1="98" x2="621.5" y2="83"/>
  <line x1="366" y1="38" x2="385" y2="38"/>
  <line x1="385" y1="38" x2="385" y2="32"/>
  <line x1="385" y1="32" x2="414.6666666666667" y2="32"/>
  <line x1="366" y1="121.5" x2="385" y2="121.5"/>
  <line x1="385" y1="121.5" x2="385" y2="115.5"/>
  <line x1="385" y1="115.5" x2="414.6666666666667" y2="115.5"/>
  <line x1="366" y1="181.5" x2="385" y2="181.5"/>
  <line x1="385" y1="181.5" x2="385" y2="175.5"/>
  <line x1="385" y1="175.5" x2="414.6666666666667" y2="175.5"/>
  <line x1="366" y1="241.5" x2="385" y2="241.5"/>
  <line x1="385" y1="241.5" x2="385" y2="235.5"/>
  <line x1="385" y1="235.5" x2="414.6666666666667" y2="235.5"/>
  <line x1="366" y1="301.5" x2="385" y2="301.5"/>
  <line x1="385" y1="301.5" x2="385" y2="295.5"/>
  <line x1="385" y1="295.5" x2="414.6666666666667" y2="295.5"/>
  <line x1="366" y1="361.5" x2="385" y2="361.5"/>
  <line x1="385" y1="361.5" x2="385" y2="355.5"/>
  <line x1="385" y1="355.5" x2="414.6666666666667" y2="355.5"/>
  <line x1="366" y1="421.5" x2="385" y2="421.5"/>
  <line x1="385" y1="421.5" x2="385" y2="415.5"/>
  <line x1="385" y1="415.5" x2="414.6666666666667" y2="415.5"/>
  <line x1="366" y1="481.5" x2="385" y2="481.5"/>
  <line x1="385" y1="481.5" x2="385" y2="475.5"/>
  <line x1="385" y1="475.5" x2="414.6666666666667" y2="475.5"/>
  <line x1="211" y1="593.5" x2="242" y2="593.5"/>
  <line x1="242" y1="593.5" x2="242" y2="764"/>
  <circle cx="242" cy="593.5" r="2" style="fill:#000"/>
  <line x1="242" y1="764" x2="266.66666666666663" y2="764"/>
  <line x1="211" y1="593.5" x2="266.66666666666663" y2="593.5"/>
  <line x1="216" y1="784" x2="276.66666666666663" y2="784"/>
  <line x1="276.66666666666663" y1="784" x2="276.66666666666663" y2="769"/>
  <line x1="286.66666666666663" y1="754" x2="342.3333333333333" y2="754"/>
  <line x1="285" y1="675" x2="306" y2="675"/>
  <line x1="306" y1="675" x2="306" y2="794"/>
  <line x1="306" y1="794" x2="352.3333333333333" y2="794"/>
  <circle cx="306" cy="675" r="2" style="fill:#000"/>
  <line x1="352.3333333333333" y1="794" x2="352.3333333333333" y2="779"/>
  <line x1="285" y1="675" x2="352.3333333333333" y2="675"/>
  <line x1="352.3333333333333" y1="675" x2="352.3333333333333" y2="608.5"/>
  <line x1="216" y1="651" x2="276.66666666666663" y2="651"/>
  <line x1="276.66666666666663" y1="651" x2="276.66666666666663" y2="598.5"/>
  <line x1="286.66666666666663" y1="583.5" x2="342.3333333333333" y2="583.5"/>
  <line x1="631.5" y1="287.5" x2="708.5" y2="287.5"/>
  <line x1="708.5" y1="287.5" x2="708.5" y2="324.5"/>
  <line x1="638" y1="345" x2="708" y2="345"/>
  <line x1="631.5" y1="601" x2="648" y2="601"/>
  <line x1="648" y1="601" x2="648" y2="365"/>
  <line x1="648" y1="365" x2="708" y2="365"/>
  <line x1="631.5" y1="661" x2="668" y2="661"/>
  <line x1="668" y1="661" x2="668" y2="405"/>
  <line x1="668" y1="405" x2="708" y2="405"/>
  <line x1="635" y1="702" x2="688" y2="702"/>
  <line x1="688" y1="702" x2="688" y2="445"/>
  <line x1="688" y1="445" x2="708" y2="445"/>
  <line x1="619" y1="759.5" x2="698" y2="759.5"/>
  <line x1="698" y1="759.5" x2="698" y2="465"/>
  <line x1="698" y1="465" x2="708" y2="465"/>
  <line x1="619" y1="779.5" x2="708.5" y2="779.5"/>
  <line x1="708.5" y1="779.5" x2="708.5" y2="485.5"/>
  <line x1="436.6666666666667" y1="24.5" x2="543.3888888888889" y2="24.5"/>
  <line x1="543.3888888888889" y1="24.5" x2="543.3888888888889" y2="87.5"/>
  <line x1="436.6666666666667" y1="108" x2="542.8888888888889" y2="108"/>
  <line x1="436.6666666666667" y1="168" x2="450" y2="168"/>
  <line x1="450" y1="168" x2="450" y2="128"/>
  <line x1="450" y1="128" x2="542.8888888888889" y2="128"/>
  <line x1="436.6666666666667" y1="228" x2="460" y2="228"/>
  <line x1="460" y1="228" x2="460" y2="148"/>
  <line x1="460" y1="148" x2="542.8888888888889" y2="148"/>
  <line x1="436.6666666666667" y1="288" x2="470" y2="288"/>
  <line x1="470" y1="288" x2="470" y2="168"/>
  <line x1="470" y1="168" x2="542.8888888888889" y2="168"/>
  <line x1="436.6666666666667" y1="348" x2="480" y2="348"/>
  <line x1="480" y1="348" x2="480" y2="188"/>
  <line x1="480" y1="188" x2="542.8888888888889" y2="188"/>
  <line x1="436.6666666666667" y1="408" x2="490" y2="408"/>
  <line x1="490" y1="408" x2="490" y2="208"/>
  <line x1="490" y1="208" x2="542.8888888888889" y2="208"/>
  <line x1="436.6666666666667" y1="468" x2="500" y2="468"/>
  <line x1="500" y1="468" x2="500" y2="228"/>
  <line x1="500" y1="228" x2="542.8888888888889" y2="228"/>
</svg>
