<svg xmlns="http://www.w3.org/2000/svg" xmlns:xlink="http://www.w3.org/1999/xlink" xmlns:s="https://github.com/nturley/netlistsvg" width="785" height="933">
  <style>svg {
    stroke:#000;
    fill:none;
  }
  text {
    fill:#000;
    stroke:none;
    font-size:10px;
    font-weight: bold;
    font-family: "Courier New", monospace;
  }
  .nodelabel {
    text-anchor: middle;
  }
  .inputPortLabel {
    text-anchor: end;
  }
  .splitjoinBody {
    fill:#000;
  }</style>
  <g s:type="inputExt" transform="translate(439,207.5)" s:width="30" s:height="20">
    <text x="15" y="-4" class="nodelabel" s:attribute="ref">clk</text>
    <s:alias val="$_inputExt_"/>
    <path d="M0,0 L0,20 L15,20 L30,10 L15,0 Z"/>
    <g s:x="28" s:y="10" s:pid="Y"/>
  </g>
  <g s:type="inputExt" transform="translate(12,335)" s:width="30" s:height="20">
    <text x="15" y="-4" class="nodelabel" s:attribute="ref">addr</text>
    <s:alias val="$_inputExt_"/>
    <path d="M0,0 L0,20 L15,20 L30,10 L15,0 Z"/>
    <g s:x="28" s:y="10" s:pid="Y"/>
  </g>
  <g s:type="inputExt" transform="translate(161,92)" s:width="30" s:height="20">
    <text x="15" y="-4" class="nodelabel" s:attribute="ref">write_en</text>
    <s:alias val="$_inputExt_"/>
    <path d="M0,0 L0,20 L15,20 L30,10 L15,0 Z"/>
    <g s:x="28" s:y="10" s:pid="Y"/>
  </g>
  <g s:type="inputExt" transform="translate(350,183.5)" s:width="30" s:height="20">
    <text x="15" y="-4" class="nodelabel" s:attribute="ref">rst</text>
    <s:alias val="$_inputExt_"/>
    <path d="M0,0 L0,20 L15,20 L30,10 L15,0 Z"/>
    <g s:x="28" s:y="10" s:pid="Y"/>
  </g>
  <g s:type="inputExt" transform="translate(276,42)" s:width="30" s:height="20">
    <text x="15" y="-4" class="nodelabel" s:attribute="ref">din</text>
    <s:alias val="$_inputExt_"/>
    <path d="M0,0 L0,20 L15,20 L30,10 L15,0 Z"/>
    <g s:x="28" s:y="10" s:pid="Y"/>
  </g>
  <g s:type="outputExt" transform="translate(731,480.5)" s:width="30" s:height="20">
    <text x="15" y="-4" class="nodelabel" s:attribute="ref">dout</text>
    <s:alias val="$_outputExt_"/>
    <path d="M30,0 L30,20 L15,20 L0,10 L15,0 Z"/>
    <g s:x="0" s:y="10" s:pid="A"/>
  </g>
  <g s:type="and" transform="translate(593,295)" s:width="30" s:height="25">
    <s:alias val="$and"/>
    <s:alias val="$logic_and"/>
    <s:alias val="$_AND_"/>
    <path d="M0,0 L0,25 L15,25 A15 12.5 0 0 0 15,0 Z"/>
    <g s:x="0" s:y="5" s:pid="A"/>
    <g s:x="0" s:y="20" s:pid="B"/>
    <g s:x="30" s:y="12.5" s:pid="Y"/>
  </g>
  <g s:type="generic" transform="translate(161,337.5)" s:width="30" s:height="40">
    <text x="15" y="-4" class="nodelabel" s:attribute="ref">$logic_not</text>
    <rect width="30" height="20" s:generic="body"/>
    <g transform="translate(0,10)" s:x="0" s:y="10" s:pid="in0">
      <text x="-3" y="-4" class="inputPortLabel">A</text>
    </g>
    <g transform="translate(30,10)" s:x="30" s:y="10" s:pid="out0">
      <text x="5" y="-4" style="fill:#000; stroke:none">Y</text>
    </g>
  </g>
  <g s:type="eq" transform="translate(175.33333333333334,885)" s:width="25" s:height="25">
    <s:alias val="$eq"/>
    <circle r="12.5" cx="12.5" cy="12.5"/>
    <line x1="7.5" x2="17.5" y1="10" y2="10"/>
    <line x1="7.5" x2="17.5" y1="15" y2="15"/>
    <g s:x="3" s:y="5" s:pid="A"/>
    <g s:x="3" s:y="20" s:pid="B"/>
    <g s:x="25" s:y="12.5" s:pid="Y"/>
  </g>
  <g s:type="and" transform="translate(279,97)" s:width="30" s:height="25">
    <s:alias val="$and"/>
    <s:alias val="$logic_and"/>
    <s:alias val="$_AND_"/>
    <path d="M0,0 L0,25 L15,25 A15 12.5 0 0 0 15,0 Z"/>
    <g s:x="0" s:y="5" s:pid="A"/>
    <g s:x="0" s:y="20" s:pid="B"/>
    <g s:x="30" s:y="12.5" s:pid="Y"/>
  </g>
  <g s:type="and" transform="translate(279,157)" s:width="30" s:height="25">
    <s:alias val="$and"/>
    <s:alias val="$logic_and"/>
    <s:alias val="$_AND_"/>
    <path d="M0,0 L0,25 L15,25 A15 12.5 0 0 0 15,0 Z"/>
    <g s:x="0" s:y="5" s:pid="A"/>
    <g s:x="0" s:y="20" s:pid="B"/>
    <g s:x="30" s:y="12.5" s:pid="Y"/>
  </g>
  <g s:type="not" transform="translate(659.5,297.5)" s:width="30" s:height="20">
    <s:alias val="$_NOT_"/>
    <s:alias val="$not"/>
    <path d="M0,0 L0,20 L20,10 Z"/>
    <circle cx="23" cy="10" r="3"/>
    <g s:x="0" s:y="10" s:pid="A"/>
    <g s:x="25" s:y="10" s:pid="Y"/>
  </g>
  <g s:type="not" transform="translate(659.5,237.5)" s:width="30" s:height="20">
    <s:alias val="$_NOT_"/>
    <s:alias val="$not"/>
    <path d="M0,0 L0,20 L20,10 Z"/>
    <circle cx="23" cy="10" r="3"/>
    <g s:x="0" s:y="10" s:pid="A"/>
    <g s:x="25" s:y="10" s:pid="Y"/>
  </g>
  <g s:type="not" transform="translate(659.5,42)" s:width="30" s:height="20">
    <s:alias val="$_NOT_"/>
    <s:alias val="$not"/>
    <path d="M0,0 L0,20 L20,10 Z"/>
    <circle cx="23" cy="10" r="3"/>
    <g s:x="0" s:y="10" s:pid="A"/>
    <g s:x="25" s:y="10" s:pid="Y"/>
  </g>
  <g s:type="or" transform="translate(593,235)" s:width="30" s:height="25">
    <s:alias val="$or"/>
    <s:alias val="$logic_or"/>
    <s:alias val="$_OR_"/>
    <path d="M0,25 L0,25 L15,25 A15 12.5 0 0 0 15,0 L0,0"/>
    <path d="M0,0 A30 25 0 0 1 0,25"/>
    <g s:x="3" s:y="5" s:pid="A"/>
    <g s:x="3" s:y="20" s:pid="B"/>
    <g s:x="30" s:y="12.5" s:pid="Y"/>
  </g>
  <g s:type="dff" transform="translate(513,187.5)" s:width="30" s:height="40">
    <s:alias val="$dff"/>
    <s:alias val="$_DFF_"/>
    <rect width="30" height="40" x="0" y="0"/>
    <path d="M0,35 L5,30 L0,25"/>
    <g s:x="30" s:y="10" s:pid="Q"/>
    <g s:x="0" s:y="30" s:pid="CLK"/>
    <g s:x="0" s:y="10" s:pid="D"/>
  </g>
  <g s:type="dff" transform="translate(513,42)" s:width="30" s:height="40">
    <s:alias val="$dff"/>
    <s:alias val="$_DFF_"/>
    <rect width="30" height="40" x="0" y="0"/>
    <path d="M0,35 L5,30 L0,25"/>
    <g s:x="30" s:y="10" s:pid="Q"/>
    <g s:x="0" s:y="30" s:pid="CLK"/>
    <g s:x="0" s:y="10" s:pid="D"/>
  </g>
  <g s:type="mux" transform="translate(664.5,470.5)" s:width="20" s:height="40">
    <s:alias val="$pmux"/>
    <s:alias val="$mux"/>
    <s:alias val="$_MUX_"/>
    <path d="M0,0 L20,10 L20,30 L0,40 Z"/>
    <g s:x="0" s:y="10" s:pid="A"/>
    <g s:x="0" s:y="30" s:pid="B"/>
    <g s:x="10" s:y="35" s:pid="S"/>
    <g s:x="20" s:y="20" s:pid="Y"/>
  </g>
  <g s:type="eq" transform="translate(514.6666666666667,317.5)" s:width="25" s:height="25">
    <s:alias val="$eq"/>
    <circle r="12.5" cx="12.5" cy="12.5"/>
    <line x1="7.5" x2="17.5" y1="10" y2="10"/>
    <line x1="7.5" x2="17.5" y1="15" y2="15"/>
    <g s:x="3" s:y="5" s:pid="A"/>
    <g s:x="3" s:y="20" s:pid="B"/>
    <g s:x="25" s:y="12.5" s:pid="Y"/>
  </g>
  <g s:type="eq" transform="translate(514.6666666666667,491.5)" s:width="25" s:height="25">
    <s:alias val="$eq"/>
    <circle r="12.5" cx="12.5" cy="12.5"/>
    <line x1="7.5" x2="17.5" y1="10" y2="10"/>
    <line x1="7.5" x2="17.5" y1="15" y2="15"/>
    <g s:x="3" s:y="5" s:pid="A"/>
    <g s:x="3" s:y="20" s:pid="B"/>
    <g s:x="25" s:y="12.5" s:pid="Y"/>
  </g>
  <g s:type="eq" transform="translate(514.6666666666667,551.5)" s:width="25" s:height="25">
    <s:alias val="$eq"/>
    <circle r="12.5" cx="12.5" cy="12.5"/>
    <line x1="7.5" x2="17.5" y1="10" y2="10"/>
    <line x1="7.5" x2="17.5" y1="15" y2="15"/>
    <g s:x="3" s:y="5" s:pid="A"/>
    <g s:x="3" s:y="20" s:pid="B"/>
    <g s:x="25" s:y="12.5" s:pid="Y"/>
  </g>
  <g s:type="eq" transform="translate(514.6666666666667,611.5)" s:width="25" s:height="25">
    <s:alias val="$eq"/>
    <circle r="12.5" cx="12.5" cy="12.5"/>
    <line x1="7.5" x2="17.5" y1="10" y2="10"/>
    <line x1="7.5" x2="17.5" y1="15" y2="15"/>
    <g s:x="3" s:y="5" s:pid="A"/>
    <g s:x="3" s:y="20" s:pid="B"/>
    <g s:x="25" s:y="12.5" s:pid="Y"/>
  </g>
  <g s:type="eq" transform="translate(514.6666666666667,671.5)" s:width="25" s:height="25">
    <s:alias val="$eq"/>
    <circle r="12.5" cx="12.5" cy="12.5"/>
    <line x1="7.5" x2="17.5" y1="10" y2="10"/>
    <line x1="7.5" x2="17.5" y1="15" y2="15"/>
    <g s:x="3" s:y="5" s:pid="A"/>
    <g s:x="3" s:y="20" s:pid="B"/>
    <g s:x="25" s:y="12.5" s:pid="Y"/>
  </g>
  <g s:type="eq" transform="translate(514.6666666666667,731.5)" s:width="25" s:height="25">
    <s:alias val="$eq"/>
    <circle r="12.5" cx="12.5" cy="12.5"/>
    <line x1="7.5" x2="17.5" y1="10" y2="10"/>
    <line x1="7.5" x2="17.5" y1="15" y2="15"/>
    <g s:x="3" s:y="5" s:pid="A"/>
    <g s:x="3" s:y="20" s:pid="B"/>
    <g s:x="25" s:y="12.5" s:pid="Y"/>
  </g>
  <g s:type="eq" transform="translate(514.6666666666667,791.5)" s:width="25" s:height="25">
    <s:alias val="$eq"/>
    <circle r="12.5" cx="12.5" cy="12.5"/>
    <line x1="7.5" x2="17.5" y1="10" y2="10"/>
    <line x1="7.5" x2="17.5" y1="15" y2="15"/>
    <g s:x="3" s:y="5" s:pid="A"/>
    <g s:x="3" s:y="20" s:pid="B"/>
    <g s:x="25" s:y="12.5" s:pid="Y"/>
  </g>
  <g s:type="eq" transform="translate(514.6666666666667,851.5)" s:width="25" s:height="25">
    <s:alias val="$eq"/>
    <circle r="12.5" cx="12.5" cy="12.5"/>
    <line x1="7.5" x2="17.5" y1="10" y2="10"/>
    <line x1="7.5" x2="17.5" y1="15" y2="15"/>
    <g s:x="3" s:y="5" s:pid="A"/>
    <g s:x="3" s:y="20" s:pid="B"/>
    <g s:x="25" s:y="12.5" s:pid="Y"/>
  </g>
  <g s:type="mux" transform="translate(359.6666666666667,119.5)" s:width="20" s:height="40">
    <s:alias val="$pmux"/>
    <s:alias val="$mux"/>
    <s:alias val="$_MUX_"/>
    <path d="M0,0 L20,10 L20,30 L0,40 Z"/>
    <g s:x="0" s:y="10" s:pid="A"/>
    <g s:x="0" s:y="30" s:pid="B"/>
    <g s:x="10" s:y="35" s:pid="S"/>
    <g s:x="20" s:y="20" s:pid="Y"/>
  </g>
  <g s:type="mux" transform="translate(445.3333333333333,262.5)" s:width="20" s:height="40">
    <s:alias val="$pmux"/>
    <s:alias val="$mux"/>
    <s:alias val="$_MUX_"/>
    <path d="M0,0 L20,10 L20,30 L0,40 Z"/>
    <g s:x="0" s:y="10" s:pid="A"/>
    <g s:x="0" s:y="30" s:pid="B"/>
    <g s:x="10" s:y="35" s:pid="S"/>
    <g s:x="20" s:y="20" s:pid="Y"/>
  </g>
  <g s:type="mux" transform="translate(359.6666666666667,22)" s:width="20" s:height="40">
    <s:alias val="$pmux"/>
    <s:alias val="$mux"/>
    <s:alias val="$_MUX_"/>
    <path d="M0,0 L20,10 L20,30 L0,40 Z"/>
    <g s:x="0" s:y="10" s:pid="A"/>
    <g s:x="0" s:y="30" s:pid="B"/>
    <g s:x="10" s:y="35" s:pid="S"/>
    <g s:x="20" s:y="20" s:pid="Y"/>
  </g>
  <g s:type="mux" transform="translate(445.3333333333333,32)" s:width="20" s:height="40">
    <s:alias val="$pmux"/>
    <s:alias val="$mux"/>
    <s:alias val="$_MUX_"/>
    <path d="M0,0 L20,10 L20,30 L0,40 Z"/>
    <g s:x="0" s:y="10" s:pid="A"/>
    <g s:x="0" s:y="30" s:pid="B"/>
    <g s:x="10" s:y="35" s:pid="S"/>
    <g s:x="20" s:y="20" s:pid="Y"/>
  </g>
  <g s:type="reduce_xor" transform="translate(658,177.5)" s:width="33" s:height="25">
    <s:alias val="$xor"/>
    <s:alias val="$reduce_xor"/>
    <s:alias val="$_XOR_"/>
    <path d="M3,0 A30 25 0 0 1 3,25 A30 25 0 0 0 33,12.5 A30 25 0 0 0 3,0"/>
    <path d="M0,0 A30 25 0 0 1 0,25"/>
    <g s:x="3" s:y="5" s:pid="A"/>
    <g s:x="3" s:y="20" s:pid="B"/>
    <g s:x="33" s:y="12.5" s:pid="Y"/>
  </g>
  <g s:type="constant" transform="translate(89,895)" s:width="30" s:height="20">
    <text x="15" y="-4" class="nodelabel" s:attribute="ref">1</text>
    <s:alias val="$_constant_"/>
    <rect width="30" height="20"/>
    <g s:x="30" s:y="10" s:pid="Y"/>
  </g>
  <g s:type="constant" transform="translate(350,282.5)" s:width="30" s:height="20">
    <text x="15" y="-4" class="nodelabel" s:attribute="ref">0x0</text>
    <s:alias val="$_constant_"/>
    <rect width="30" height="20"/>
    <g s:x="30" s:y="10" s:pid="Y"/>
  </g>
  <g s:type="constant" transform="translate(658,338.5)" s:width="30" s:height="20">
    <text x="15" y="-4" class="nodelabel" s:attribute="ref">0</text>
    <s:alias val="$_constant_"/>
    <rect width="30" height="20"/>
    <g s:x="30" s:y="10" s:pid="Y"/>
  </g>
  <g s:type="constant" transform="translate(439,333.5)" s:width="30" s:height="20">
    <text x="15" y="-4" class="nodelabel" s:attribute="ref">0x9</text>
    <s:alias val="$_constant_"/>
    <rect width="30" height="20"/>
    <g s:x="30" s:y="10" s:pid="Y"/>
  </g>
  <g s:type="constant" transform="translate(439,507.5)" s:width="30" s:height="20">
    <text x="15" y="-4" class="nodelabel" s:attribute="ref">0x8</text>
    <s:alias val="$_constant_"/>
    <rect width="30" height="20"/>
    <g s:x="30" s:y="10" s:pid="Y"/>
  </g>
  <g s:type="constant" transform="translate(439,567.5)" s:width="30" s:height="20">
    <text x="15" y="-4" class="nodelabel" s:attribute="ref">111</text>
    <s:alias val="$_constant_"/>
    <rect width="30" height="20"/>
    <g s:x="30" s:y="10" s:pid="Y"/>
  </g>
  <g s:type="constant" transform="translate(439,627.5)" s:width="30" s:height="20">
    <text x="15" y="-4" class="nodelabel" s:attribute="ref">110</text>
    <s:alias val="$_constant_"/>
    <rect width="30" height="20"/>
    <g s:x="30" s:y="10" s:pid="Y"/>
  </g>
  <g s:type="constant" transform="translate(439,687.5)" s:width="30" s:height="20">
    <text x="15" y="-4" class="nodelabel" s:attribute="ref">101</text>
    <s:alias val="$_constant_"/>
    <rect width="30" height="20"/>
    <g s:x="30" s:y="10" s:pid="Y"/>
  </g>
  <g s:type="constant" transform="translate(439,747.5)" s:width="30" s:height="20">
    <text x="15" y="-4" class="nodelabel" s:attribute="ref">100</text>
    <s:alias val="$_constant_"/>
    <rect width="30" height="20"/>
    <g s:x="30" s:y="10" s:pid="Y"/>
  </g>
  <g s:type="constant" transform="translate(439,807.5)" s:width="30" s:height="20">
    <text x="15" y="-4" class="nodelabel" s:attribute="ref">11</text>
    <s:alias val="$_constant_"/>
    <rect width="30" height="20"/>
    <g s:x="30" s:y="10" s:pid="Y"/>
  </g>
  <g s:type="constant" transform="translate(439,867.5)" s:width="30" s:height="20">
    <text x="15" y="-4" class="nodelabel" s:attribute="ref">10</text>
    <s:alias val="$_constant_"/>
    <rect width="30" height="20"/>
    <g s:x="30" s:y="10" s:pid="Y"/>
  </g>
  <g s:type="join" transform="translate(731,217)" s:width="4" s:height="40">
    <rect width="5" height="180" class="splitjoinBody" s:generic="body"/>
    <s:alias val="$_join_"/>
    <g s:x="5" s:y="20" s:pid="out"/>
    <g transform="translate(0,10)" s:x="0" s:y="10" s:pid="in0">
      <text x="-3" y="-4" class="inputPortLabel">0:7</text>
    </g>
    <g transform="translate(0,30)" s:x="0" s:y="10" s:pid="in0">
      <text x="-3" y="-4" class="inputPortLabel">8:15</text>
    </g>
    <g transform="translate(0,50)" s:x="0" s:y="10" s:pid="in0">
      <text x="-3" y="-4" class="inputPortLabel">16:23</text>
    </g>
    <g transform="translate(0,70)" s:x="0" s:y="10" s:pid="in0">
      <text x="-3" y="-4" class="inputPortLabel">24:31</text>
    </g>
    <g transform="translate(0,90)" s:x="0" s:y="10" s:pid="in0">
      <text x="-3" y="-4" class="inputPortLabel">32:39</text>
    </g>
    <g transform="translate(0,110)" s:x="0" s:y="10" s:pid="in0">
      <text x="-3" y="-4" class="inputPortLabel">40:47</text>
    </g>
    <g transform="translate(0,130)" s:x="0" s:y="10" s:pid="in0">
      <text x="-3" y="-4" class="inputPortLabel">48</text>
    </g>
    <g transform="translate(0,150)" s:x="0" s:y="10" s:pid="in0">
      <text x="-3" y="-4" class="inputPortLabel">49:55</text>
    </g>
    <g transform="translate(0,170)" s:x="0" s:y="10" s:pid="in0">
      <text x="-3" y="-4" class="inputPortLabel">56:62</text>
    </g>
  </g>
  <g s:type="join" transform="translate(595.8888888888889,593.5)" s:width="4" s:height="40">
    <rect width="5" height="200" class="splitjoinBody" s:generic="body"/>
    <s:alias val="$_join_"/>
    <g s:x="5" s:y="20" s:pid="out"/>
    <g transform="translate(0,10)" s:x="0" s:y="10" s:pid="in0">
      <text x="-3" y="-4" class="inputPortLabel">0</text>
    </g>
    <g transform="translate(0,30)" s:x="0" s:y="10" s:pid="in0">
      <text x="-3" y="-4" class="inputPortLabel">1</text>
    </g>
    <g transform="translate(0,50)" s:x="0" s:y="10" s:pid="in0">
      <text x="-3" y="-4" class="inputPortLabel">2</text>
    </g>
    <g transform="translate(0,70)" s:x="0" s:y="10" s:pid="in0">
      <text x="-3" y="-4" class="inputPortLabel">3</text>
    </g>
    <g transform="translate(0,90)" s:x="0" s:y="10" s:pid="in0">
      <text x="-3" y="-4" class="inputPortLabel">4</text>
    </g>
    <g transform="translate(0,110)" s:x="0" s:y="10" s:pid="in0">
      <text x="-3" y="-4" class="inputPortLabel">5</text>
    </g>
    <g transform="translate(0,130)" s:x="0" s:y="10" s:pid="in0">
      <text x="-3" y="-4" class="inputPortLabel">6</text>
    </g>
    <g transform="translate(0,150)" s:x="0" s:y="10" s:pid="in0">
      <text x="-3" y="-4" class="inputPortLabel">7</text>
    </g>
    <g transform="translate(0,170)" s:x="0" s:y="10" s:pid="in0">
      <text x="-3" y="-4" class="inputPortLabel">8</text>
    </g>
    <g transform="translate(0,190)" s:x="0" s:y="10" s:pid="in0">
      <text x="-3" y="-4" class="inputPortLabel">9</text>
    </g>
  </g>
  <g s:type="split" transform="translate(95,312)" s:width="5" s:height="40">
    <rect width="5" height="20" class="splitjoinBody" s:generic="body"/>
    <s:alias val="$_split_"/>
    <g s:x="0" s:y="20" s:pid="in"/>
    <g transform="translate(4,10)" s:x="4" s:y="10" s:pid="out0">
      <text x="5" y="-4">0:3</text>
    </g>
  </g>
  <g s:type="split" transform="translate(667,395.5)" s:width="5" s:height="40">
    <rect width="5" height="40" class="splitjoinBody" s:generic="body"/>
    <s:alias val="$_split_"/>
    <g s:x="0" s:y="20" s:pid="in"/>
    <g transform="translate(4,10)" s:x="4" s:y="10" s:pid="out0">
      <text x="5" y="-4">0:6</text>
    </g>
    <g transform="translate(4,30)" s:x="4" s:y="10" s:pid="out0">
      <text x="5" y="-4">1:7</text>
    </g>
  </g>
  <line x1="684.5" y1="490.5" x2="731" y2="490.5"/>
  <line x1="543" y1="52" x2="563" y2="52"/>
  <line x1="563" y1="52" x2="563" y2="300"/>
  <circle cx="563" cy="300" r="2" style="fill:#000"/>
  <line x1="563" y1="300" x2="593" y2="300"/>
  <line x1="543" y1="52" x2="659.5" y2="52"/>
  <line x1="543" y1="52" x2="563" y2="52"/>
  <line x1="563" y1="52" x2="563" y2="240"/>
  <circle cx="563" cy="240" r="2" style="fill:#000"/>
  <line x1="563" y1="240" x2="596" y2="240"/>
  <line x1="543" y1="52" x2="563" y2="52"/>
  <line x1="563" y1="52" x2="563" y2="12"/>
  <line x1="563" y1="12" x2="335" y2="12"/>
  <line x1="335" y1="12" x2="335" y2="32"/>
  <circle cx="563" cy="52" r="2" style="fill:#000"/>
  <line x1="335" y1="32" x2="359.6666666666667" y2="32"/>
  <line x1="543" y1="52" x2="633" y2="52"/>
  <line x1="633" y1="52" x2="633" y2="182.5"/>
  <circle cx="633" cy="52" r="2" style="fill:#000"/>
  <line x1="633" y1="182.5" x2="661" y2="182.5"/>
  <line x1="543" y1="52" x2="563" y2="52"/>
  <line x1="563" y1="52" x2="563" y2="416"/>
  <line x1="563" y1="416" x2="667" y2="416"/>
  <line x1="543" y1="197.5" x2="553" y2="197.5"/>
  <line x1="553" y1="197.5" x2="553" y2="315"/>
  <line x1="553" y1="315" x2="593" y2="315"/>
  <line x1="543" y1="197.5" x2="553" y2="197.5"/>
  <line x1="553" y1="197.5" x2="553" y2="255"/>
  <circle cx="553" cy="255" r="2" style="fill:#000"/>
  <line x1="553" y1="255" x2="596" y2="255"/>
  <line x1="543" y1="197.5" x2="553" y2="197.5"/>
  <line x1="553" y1="197.5" x2="553" y2="99.5"/>
  <line x1="553" y1="99.5" x2="335" y2="99.5"/>
  <line x1="335" y1="99.5" x2="335" y2="129.5"/>
  <circle cx="553" cy="197.5" r="2" style="fill:#000"/>
  <line x1="335" y1="129.5" x2="359.6666666666667" y2="129.5"/>
  <line x1="543" y1="197.5" x2="661" y2="197.5"/>
  <line x1="100" y1="322.5" x2="129" y2="322.5"/>
  <line x1="129" y1="322.5" x2="129" y2="348"/>
  <circle cx="129" cy="322.5" r="2" style="fill:#000"/>
  <circle cx="129" cy="348" r="2" style="fill:#000"/>
  <line x1="129" y1="348" x2="161" y2="348"/>
  <line x1="100" y1="322.5" x2="129" y2="322.5"/>
  <line x1="129" y1="322.5" x2="129" y2="890"/>
  <circle cx="129" cy="890" r="2" style="fill:#000"/>
  <line x1="129" y1="890" x2="178.33333333333334" y2="890"/>
  <line x1="100" y1="322.5" x2="517.6666666666667" y2="322.5"/>
  <line x1="100" y1="322.5" x2="399" y2="322.5"/>
  <line x1="399" y1="322.5" x2="399" y2="496.5"/>
  <circle cx="399" cy="322.5" r="2" style="fill:#000"/>
  <circle cx="399" cy="496.5" r="2" style="fill:#000"/>
  <line x1="399" y1="496.5" x2="517.6666666666667" y2="496.5"/>
  <line x1="100" y1="322.5" x2="399" y2="322.5"/>
  <line x1="399" y1="322.5" x2="399" y2="556.5"/>
  <circle cx="399" cy="556.5" r="2" style="fill:#000"/>
  <line x1="399" y1="556.5" x2="517.6666666666667" y2="556.5"/>
  <line x1="100" y1="322.5" x2="399" y2="322.5"/>
  <line x1="399" y1="322.5" x2="399" y2="616.5"/>
  <circle cx="399" cy="616.5" r="2" style="fill:#000"/>
  <line x1="399" y1="616.5" x2="517.6666666666667" y2="616.5"/>
  <line x1="100" y1="322.5" x2="129" y2="322.5"/>
  <line x1="129" y1="322.5" x2="129" y2="920"/>
  <line x1="129" y1="920" x2="266" y2="920"/>
  <line x1="266" y1="920" x2="266" y2="322.5"/>
  <line x1="266" y1="322.5" x2="399" y2="322.5"/>
  <line x1="399" y1="322.5" x2="399" y2="676.5"/>
  <circle cx="266" cy="322.5" r="2" style="fill:#000"/>
  <circle cx="399" cy="676.5" r="2" style="fill:#000"/>
  <line x1="399" y1="676.5" x2="517.6666666666667" y2="676.5"/>
  <line x1="100" y1="322.5" x2="129" y2="322.5"/>
  <line x1="129" y1="322.5" x2="129" y2="920"/>
  <line x1="129" y1="920" x2="266" y2="920"/>
  <line x1="266" y1="920" x2="266" y2="322.5"/>
  <line x1="266" y1="322.5" x2="399" y2="322.5"/>
  <line x1="399" y1="322.5" x2="399" y2="736.5"/>
  <circle cx="399" cy="736.5" r="2" style="fill:#000"/>
  <line x1="399" y1="736.5" x2="517.6666666666667" y2="736.5"/>
  <line x1="100" y1="322.5" x2="129" y2="322.5"/>
  <line x1="129" y1="322.5" x2="129" y2="920"/>
  <line x1="129" y1="920" x2="266" y2="920"/>
  <line x1="266" y1="920" x2="266" y2="322.5"/>
  <line x1="266" y1="322.5" x2="399" y2="322.5"/>
  <line x1="399" y1="322.5" x2="399" y2="796.5"/>
  <circle cx="399" cy="796.5" r="2" style="fill:#000"/>
  <line x1="399" y1="796.5" x2="517.6666666666667" y2="796.5"/>
  <line x1="100" y1="322.5" x2="129" y2="322.5"/>
  <line x1="129" y1="322.5" x2="129" y2="920"/>
  <line x1="129" y1="920" x2="266" y2="920"/>
  <line x1="266" y1="920" x2="266" y2="322.5"/>
  <line x1="266" y1="322.5" x2="399" y2="322.5"/>
  <line x1="399" y1="322.5" x2="399" y2="856.5"/>
  <line x1="399" y1="856.5" x2="517.6666666666667" y2="856.5"/>
  <line x1="119" y1="905" x2="178.33333333333334" y2="905"/>
  <line x1="189" y1="102" x2="279" y2="102"/>
  <line x1="189" y1="102" x2="256" y2="102"/>
  <line x1="256" y1="102" x2="256" y2="162"/>
  <circle cx="256" cy="102" r="2" style="fill:#000"/>
  <line x1="256" y1="162" x2="279" y2="162"/>
  <line x1="192" y1="348" x2="246" y2="348"/>
  <line x1="246" y1="348" x2="246" y2="117"/>
  <circle cx="246" cy="348" r="2" style="fill:#000"/>
  <line x1="246" y1="117" x2="279" y2="117"/>
  <line x1="192" y1="348" x2="246" y2="348"/>
  <line x1="246" y1="348" x2="246" y2="908.5"/>
  <line x1="246" y1="908.5" x2="596.3888888888889" y2="908.5"/>
  <line x1="596.3888888888889" y1="908.5" x2="596.3888888888889" y2="784.5"/>
  <line x1="200.33333333333334" y1="897.5" x2="256" y2="897.5"/>
  <line x1="256" y1="897.5" x2="256" y2="177"/>
  <circle cx="256" cy="897.5" r="2" style="fill:#000"/>
  <line x1="256" y1="177" x2="279" y2="177"/>
  <line x1="200.33333333333334" y1="897.5" x2="583" y2="897.5"/>
  <line x1="583" y1="897.5" x2="583" y2="764"/>
  <line x1="583" y1="764" x2="595.8888888888889" y2="764"/>
  <line x1="623" y1="307.5" x2="659.5" y2="307.5"/>
  <line x1="623" y1="307.5" x2="633" y2="307.5"/>
  <line x1="633" y1="307.5" x2="633" y2="327.5"/>
  <circle cx="633" cy="307.5" r="2" style="fill:#000"/>
  <line x1="633" y1="327.5" x2="731" y2="327.5"/>
  <line x1="623" y1="247.5" x2="659.5" y2="247.5"/>
  <line x1="623" y1="247.5" x2="633" y2="247.5"/>
  <line x1="633" y1="247.5" x2="633" y2="267.5"/>
  <line x1="633" y1="267.5" x2="701" y2="267.5"/>
  <line x1="701" y1="267.5" x2="701" y2="287.5"/>
  <circle cx="633" cy="247.5" r="2" style="fill:#000"/>
  <line x1="701" y1="287.5" x2="731" y2="287.5"/>
  <line x1="467" y1="217.5" x2="513" y2="217.5"/>
  <line x1="467" y1="217.5" x2="488" y2="217.5"/>
  <line x1="488" y1="217.5" x2="488" y2="72"/>
  <circle cx="488" cy="217.5" r="2" style="fill:#000"/>
  <line x1="488" y1="72" x2="513" y2="72"/>
  <line x1="465.3333333333333" y1="282.5" x2="498" y2="282.5"/>
  <line x1="498" y1="282.5" x2="498" y2="197.5"/>
  <line x1="498" y1="197.5" x2="513" y2="197.5"/>
  <line x1="465.3333333333333" y1="52" x2="513" y2="52"/>
  <line x1="380" y1="292.5" x2="409" y2="292.5"/>
  <line x1="409" y1="292.5" x2="409" y2="480.5"/>
  <circle cx="409" cy="292.5" r="2" style="fill:#000"/>
  <line x1="409" y1="480.5" x2="664.5" y2="480.5"/>
  <line x1="380" y1="292.5" x2="445.3333333333333" y2="292.5"/>
  <line x1="380" y1="292.5" x2="409" y2="292.5"/>
  <line x1="409" y1="292.5" x2="409" y2="62"/>
  <line x1="409" y1="62" x2="445.3333333333333" y2="62"/>
  <line x1="601.8888888888889" y1="614" x2="674.5" y2="614"/>
  <line x1="674.5" y1="614" x2="674.5" y2="505.5"/>
  <line x1="469" y1="343.5" x2="488" y2="343.5"/>
  <line x1="488" y1="343.5" x2="488" y2="337.5"/>
  <line x1="488" y1="337.5" x2="517.6666666666667" y2="337.5"/>
  <line x1="469" y1="517.5" x2="488" y2="517.5"/>
  <line x1="488" y1="517.5" x2="488" y2="511.5"/>
  <line x1="488" y1="511.5" x2="517.6666666666667" y2="511.5"/>
  <line x1="469" y1="577.5" x2="488" y2="577.5"/>
  <line x1="488" y1="577.5" x2="488" y2="571.5"/>
  <line x1="488" y1="571.5" x2="517.6666666666667" y2="571.5"/>
  <line x1="469" y1="637.5" x2="488" y2="637.5"/>
  <line x1="488" y1="637.5" x2="488" y2="631.5"/>
  <line x1="488" y1="631.5" x2="517.6666666666667" y2="631.5"/>
  <line x1="469" y1="697.5" x2="488" y2="697.5"/>
  <line x1="488" y1="697.5" x2="488" y2="691.5"/>
  <line x1="488" y1="691.5" x2="517.6666666666667" y2="691.5"/>
  <line x1="469" y1="757.5" x2="488" y2="757.5"/>
  <line x1="488" y1="757.5" x2="488" y2="751.5"/>
  <line x1="488" y1="751.5" x2="517.6666666666667" y2="751.5"/>
  <line x1="469" y1="817.5" x2="488" y2="817.5"/>
  <line x1="488" y1="817.5" x2="488" y2="811.5"/>
  <line x1="488" y1="811.5" x2="517.6666666666667" y2="811.5"/>
  <line x1="469" y1="877.5" x2="488" y2="877.5"/>
  <line x1="488" y1="877.5" x2="488" y2="871.5"/>
  <line x1="488" y1="871.5" x2="517.6666666666667" y2="871.5"/>
  <line x1="304" y1="52" x2="325" y2="52"/>
  <line x1="325" y1="52" x2="325" y2="149.5"/>
  <circle cx="325" cy="52" r="2" style="fill:#000"/>
  <line x1="325" y1="149.5" x2="359.6666666666667" y2="149.5"/>
  <line x1="304" y1="52" x2="359.6666666666667" y2="52"/>
  <line x1="309" y1="169.5" x2="369.6666666666667" y2="169.5"/>
  <line x1="369.6666666666667" y1="169.5" x2="369.6666666666667" y2="154.5"/>
  <line x1="379.6666666666667" y1="139.5" x2="429" y2="139.5"/>
  <line x1="429" y1="139.5" x2="429" y2="272.5"/>
  <line x1="429" y1="272.5" x2="445.3333333333333" y2="272.5"/>
  <line x1="378" y1="193.5" x2="419" y2="193.5"/>
  <line x1="419" y1="193.5" x2="419" y2="312.5"/>
  <line x1="419" y1="312.5" x2="455.3333333333333" y2="312.5"/>
  <circle cx="419" cy="193.5" r="2" style="fill:#000"/>
  <line x1="455.3333333333333" y1="312.5" x2="455.3333333333333" y2="297.5"/>
  <line x1="378" y1="193.5" x2="455.3333333333333" y2="193.5"/>
  <line x1="455.3333333333333" y1="193.5" x2="455.3333333333333" y2="67"/>
  <line x1="309" y1="109.5" x2="369.6666666666667" y2="109.5"/>
  <line x1="369.6666666666667" y1="109.5" x2="369.6666666666667" y2="57"/>
  <line x1="379.6666666666667" y1="42" x2="445.3333333333333" y2="42"/>
  <line x1="684.5" y1="52" x2="731.5" y2="52"/>
  <line x1="731.5" y1="52" x2="731.5" y2="227"/>
  <line x1="691" y1="190" x2="721" y2="190"/>
  <line x1="721" y1="190" x2="721" y2="247.5"/>
  <line x1="721" y1="247.5" x2="731" y2="247.5"/>
  <line x1="684.5" y1="247.5" x2="711" y2="247.5"/>
  <line x1="711" y1="247.5" x2="711" y2="267.5"/>
  <line x1="711" y1="267.5" x2="731" y2="267.5"/>
  <line x1="684.5" y1="307.5" x2="731" y2="307.5"/>
  <line x1="688" y1="348.5" x2="701" y2="348.5"/>
  <line x1="701" y1="348.5" x2="701" y2="347.5"/>
  <line x1="701" y1="347.5" x2="731" y2="347.5"/>
  <line x1="672" y1="406" x2="701" y2="406"/>
  <line x1="701" y1="406" x2="701" y2="367.5"/>
  <line x1="701" y1="367.5" x2="731" y2="367.5"/>
  <line x1="672" y1="426" x2="731.5" y2="426"/>
  <line x1="731.5" y1="426" x2="731.5" y2="388"/>
  <line x1="539.6666666666667" y1="330" x2="596.3888888888889" y2="330"/>
  <line x1="596.3888888888889" y1="330" x2="596.3888888888889" y2="603.5"/>
  <line x1="539.6666666666667" y1="504" x2="573" y2="504"/>
  <line x1="573" y1="504" x2="573" y2="624"/>
  <line x1="573" y1="624" x2="595.8888888888889" y2="624"/>
  <line x1="539.6666666666667" y1="564" x2="563" y2="564"/>
  <line x1="563" y1="564" x2="563" y2="644"/>
  <line x1="563" y1="644" x2="595.8888888888889" y2="644"/>
  <line x1="539.6666666666667" y1="624" x2="553" y2="624"/>
  <line x1="553" y1="624" x2="553" y2="664"/>
  <line x1="553" y1="664" x2="595.8888888888889" y2="664"/>
  <line x1="539.6666666666667" y1="684" x2="595.8888888888889" y2="684"/>
  <line x1="539.6666666666667" y1="744" x2="553" y2="744"/>
  <line x1="553" y1="744" x2="553" y2="704"/>
  <line x1="553" y1="704" x2="595.8888888888889" y2="704"/>
  <line x1="539.6666666666667" y1="804" x2="563" y2="804"/>
  <line x1="563" y1="804" x2="563" y2="724"/>
  <line x1="563" y1="724" x2="595.8888888888889" y2="724"/>
  <line x1="539.6666666666667" y1="864" x2="573" y2="864"/>
  <line x1="573" y1="864" x2="573" y2="744"/>
  <line x1="573" y1="744" x2="595.8888888888889" y2="744"/>
  <line x1="40" y1="345" x2="95.5" y2="345"/>
  <line x1="95.5" y1="345" x2="95.5" y2="333"/>
</svg>
