<?xml version="1.0" encoding="UTF-8" standalone="no"?>
<!-- Created by Symbolator http://kevinpt.github.io/symbolator -->
<svg xmlns="http://www.w3.org/2000/svg"
xmlns:xlink="http://www.w3.org/1999/xlink"
xml:space="preserve"
width="343" height="210" viewBox="-99 -50 343.0 210.5" version="1.1">
<style type="text/css">
<![CDATA[
.fnt1 {fill:#000000;
    font-family:Helvetica; font-size:12pt; font-weight:normal; font-style:normal;}
.fnt2 {fill:#000000;
    font-family:Helvetica; font-size:14pt; font-weight:bold; font-style:normal;}
.label {fill:#000;
  text-anchor:middle;
  font-size:16pt; font-weight:bold; font-family:Sans;}
.link {fill: #0D47A1;}
.link:hover {fill: #0D47A1; text-decoration:underline;}
.link:visited {fill: #4A148C;}
]]>
</style>
<defs>
<marker id="clock" markerWidth="8.0" markerHeight="15.0" viewBox="0 0 8.0 15.0" refX="0.5" refY="7.5" orient="auto" markerUnits="userSpaceOnUse">
<g transform="translate(0.5,7.5)"><path d="M 0 -7 L 0 7 L 7 0 z" stroke="#000000" fill="#FFFFFF" stroke-width="1"/>
</g>
</marker>
</defs>
<rect x="-99" y="-50" width="100%" height="100%" fill="white"/><g transform="translate(0,0)">
<rect x="0" y="-15.0" width="100" height="170.0" stroke="#000000" fill="#C5DBFC" stroke-width="1"/>
<g transform="translate(0,0)">
<line x1="-20" y1="0" x2="0" y2="0" stroke="#000000" fill="none" stroke-width="1" marker-end="url(#clock)"/>
<text class="fnt1" x="10" y="0" text-anchor="normal" dy="5.5">clk</text>
</g>
<g transform="translate(0,20)">
<line x1="-20" y1="0" x2="0" y2="0" stroke="#000000" fill="none" stroke-width="3"/>
<text class="fnt1" x="10" y="0" text-anchor="normal" dy="5.5">iInbox</text>
<text class="fnt1" x="-30" y="0" text-anchor="end" dy="5.5" style="fill:#969696"> <tspan fill="#039BE5">[7:0]</tspan></text>
</g>
<g transform="translate(0,40)">
<line x1="-20" y1="0" x2="0" y2="0" stroke="#000000" fill="none" stroke-width="3"/>
<text class="fnt1" x="10" y="0" text-anchor="normal" dy="5.5">iAlu</text>
<text class="fnt1" x="-30" y="0" text-anchor="end" dy="5.5" style="fill:#969696"> <tspan fill="#039BE5">[7:0]</tspan></text>
</g>
<g transform="translate(0,60)">
<line x1="-20" y1="0" x2="0" y2="0" stroke="#000000" fill="none" stroke-width="3"/>
<text class="fnt1" x="10" y="0" text-anchor="normal" dy="5.5">iMem</text>
<text class="fnt1" x="-30" y="0" text-anchor="end" dy="5.5" style="fill:#969696"> <tspan fill="#039BE5">[7:0]</tspan></text>
</g>
<g transform="translate(0,80)">
<line x1="-20" y1="0" x2="0" y2="0" stroke="#000000" fill="none" stroke-width="3"/>
<text class="fnt1" x="10" y="0" text-anchor="normal" dy="5.5">iData</text>
<text class="fnt1" x="-30" y="0" text-anchor="end" dy="5.5" style="fill:#969696"> <tspan fill="#039BE5">[7:0]</tspan></text>
</g>
<g transform="translate(0,100)">
<line x1="-20" y1="0" x2="0" y2="0" stroke="#000000" fill="none" stroke-width="3"/>
<text class="fnt1" x="10" y="0" text-anchor="normal" dy="5.5">muxR</text>
<text class="fnt1" x="-30" y="0" text-anchor="end" dy="5.5" style="fill:#969696">wire <tspan fill="#039BE5">[1:0]</tspan></text>
</g>
<g transform="translate(0,120)">
<line x1="-20" y1="0" x2="0" y2="0" stroke="#000000" fill="none" stroke-width="1"/>
<text class="fnt1" x="10" y="0" text-anchor="normal" dy="5.5">wR</text>
</g>
<g transform="translate(0,140)">
<line x1="-20" y1="0" x2="0" y2="0" stroke="#000000" fill="none" stroke-width="1"/>
<text class="fnt1" x="10" y="0" text-anchor="normal" dy="5.5">rst</text>
</g>
<g transform="translate(100,0)">
<line x1="20" y1="0" x2="0" y2="0" stroke="#000000" fill="none" stroke-width="3"/>
<text class="fnt1" x="-10" y="0" text-anchor="end" dy="5.5">R</text>
<text class="fnt1" x="30" y="0" text-anchor="normal" dy="5.5" style="fill:#969696">reg signed <tspan fill="#039BE5">[7:0]</tspan></text>
</g>
</g>
<rect x="1.0" y="-14.0" width="98.0" height="168.0" stroke="#000000" fill="none" stroke-width="3"/>
<text class="fnt2" x="50.0" y="-24.0" text-anchor="middle" dy="-2.0">REG</text>
</svg>