<?xml version="1.0" encoding="UTF-8" standalone="no"?>
<!-- Created by Symbolator http://kevinpt.github.io/symbolator -->
<svg xmlns="http://www.w3.org/2000/svg"
xmlns:xlink="http://www.w3.org/1999/xlink"
xml:space="preserve"
width="364" height="148" viewBox="-99 -50 364.0 148.5" version="1.1">
<style type="text/css">
<![CDATA[
.fnt1 {fill:#000000;
    font-family:Helvetica; font-size:12pt; font-weight:normal; font-style:normal;}
.fnt2 {fill:#000000;
    font-family:Helvetica; font-size:14pt; font-weight:bold; font-style:normal;}
.label {fill:#000;
  text-anchor:middle;
  font-size:16pt; font-weight:bold; font-family:Sans;}
.link {fill: #0D47A1;}
.link:hover {fill: #0D47A1; text-decoration:underline;}
.link:visited {fill: #4A148C;}
]]>
</style>
<defs>
<marker id="clock" markerWidth="8.0" markerHeight="15.0" viewBox="0 0 8.0 15.0" refX="0.5" refY="7.5" orient="auto" markerUnits="userSpaceOnUse">
<g transform="translate(0.5,7.5)"><path d="M 0 -7 L 0 7 L 7 0 z" stroke="#000000" fill="#FFFFFF" stroke-width="1"/>
</g>
</marker>
</defs>
<rect x="-99" y="-50" width="100%" height="100%" fill="white"/><g transform="translate(0,0)">
<rect x="0" y="-15.0" width="200" height="30.0" stroke="#646464" fill="#C8C8C8" stroke-width="1"/>
<g transform="translate(0,0)">
<line x1="-20" y1="0" x2="0" y2="0" stroke="#000000" fill="none" stroke-width="3" marker-end="url(#clock)"/>
<text class="fnt1" x="10" y="0" text-anchor="normal" dy="5.5">CLOCKS_PER_BAUD</text>
<text class="fnt1" x="-30" y="0" text-anchor="end" dy="5.5" style="fill:#969696"> <tspan fill="#039BE5">[23:0]</tspan></text>
</g>
</g>
<rect x="1.0" y="-14.0" width="198.0" height="28.0" stroke="#646464" fill="none" stroke-width="3"/>
<text class="fnt2" x="100.0" y="-24.0" text-anchor="middle" dy="-2.0">txuartlite</text>
<g transform="translate(0,38.0)">
<rect x="0" y="-15.0" width="200" height="70.0" stroke="#000000" fill="#C5DBFC" stroke-width="1"/>
<g transform="translate(0,0)">
<line x1="-20" y1="0" x2="0" y2="0" stroke="#000000" fill="none" stroke-width="1" marker-end="url(#clock)"/>
<text class="fnt1" x="10" y="0" text-anchor="normal" dy="5.5">i_clk</text>
<text class="fnt1" x="-30" y="0" text-anchor="end" dy="5.5" style="fill:#969696">wire</text>
</g>
<g transform="translate(0,20)">
<line x1="-20" y1="0" x2="0" y2="0" stroke="#000000" fill="none" stroke-width="1"/>
<text class="fnt1" x="10" y="0" text-anchor="normal" dy="5.5">i_wr</text>
<text class="fnt1" x="-30" y="0" text-anchor="end" dy="5.5" style="fill:#969696">wire</text>
</g>
<g transform="translate(0,40)">
<line x1="-20" y1="0" x2="0" y2="0" stroke="#000000" fill="none" stroke-width="3"/>
<text class="fnt1" x="10" y="0" text-anchor="normal" dy="5.5">i_data</text>
<text class="fnt1" x="-30" y="0" text-anchor="end" dy="5.5" style="fill:#969696">wire <tspan fill="#039BE5">[7:0]</tspan></text>
</g>
<g transform="translate(200,0)">
<line x1="20" y1="0" x2="0" y2="0" stroke="#000000" fill="none" stroke-width="1"/>
<text class="fnt1" x="-10" y="0" text-anchor="end" dy="5.5">o_uart_tx</text>
<text class="fnt1" x="30" y="0" text-anchor="normal" dy="5.5" style="fill:#969696">reg</text>
</g>
<g transform="translate(200,20)">
<line x1="20" y1="0" x2="0" y2="0" stroke="#000000" fill="none" stroke-width="1"/>
<text class="fnt1" x="-10" y="0" text-anchor="end" dy="5.5">o_busy</text>
<text class="fnt1" x="30" y="0" text-anchor="normal" dy="5.5" style="fill:#969696">wire</text>
</g>
</g>
<rect x="1.0" y="24.0" width="198.0" height="68.0" stroke="#000000" fill="none" stroke-width="3"/>
</svg>